G04 EAGLE Gerber RS-274X export*
G75*
%MOMM*%
%FSLAX34Y34*%
%LPD*%
%INSolderpaste Bottom*%
%IPPOS*%
%AMOC8*
5,1,8,0,0,1.08239X$1,22.5*%
G01*
%ADD10C,0.096000*%
%ADD11C,0.102000*%
%ADD12C,0.100000*%
%ADD13C,0.100800*%
%ADD14R,0.260000X0.599000*%
%ADD15R,2.000000X1.000000*%
%ADD16C,0.099000*%
%ADD17C,0.106400*%
%ADD18C,0.105000*%
%ADD19C,0.098000*%


D10*
X364098Y20213D02*
X375138Y20213D01*
X375138Y1173D01*
X364098Y1173D01*
X364098Y20213D01*
X364098Y2085D02*
X375138Y2085D01*
X375138Y2997D02*
X364098Y2997D01*
X364098Y3909D02*
X375138Y3909D01*
X375138Y4821D02*
X364098Y4821D01*
X364098Y5733D02*
X375138Y5733D01*
X375138Y6645D02*
X364098Y6645D01*
X364098Y7557D02*
X375138Y7557D01*
X375138Y8469D02*
X364098Y8469D01*
X364098Y9381D02*
X375138Y9381D01*
X375138Y10293D02*
X364098Y10293D01*
X364098Y11205D02*
X375138Y11205D01*
X375138Y12117D02*
X364098Y12117D01*
X364098Y13029D02*
X375138Y13029D01*
X375138Y13941D02*
X364098Y13941D01*
X364098Y14853D02*
X375138Y14853D01*
X375138Y15765D02*
X364098Y15765D01*
X364098Y16677D02*
X375138Y16677D01*
X375138Y17589D02*
X364098Y17589D01*
X364098Y18501D02*
X375138Y18501D01*
X375138Y19413D02*
X364098Y19413D01*
X319138Y20213D02*
X308098Y20213D01*
X319138Y20213D02*
X319138Y1173D01*
X308098Y1173D01*
X308098Y20213D01*
X308098Y2085D02*
X319138Y2085D01*
X319138Y2997D02*
X308098Y2997D01*
X308098Y3909D02*
X319138Y3909D01*
X319138Y4821D02*
X308098Y4821D01*
X308098Y5733D02*
X319138Y5733D01*
X319138Y6645D02*
X308098Y6645D01*
X308098Y7557D02*
X319138Y7557D01*
X319138Y8469D02*
X308098Y8469D01*
X308098Y9381D02*
X319138Y9381D01*
X319138Y10293D02*
X308098Y10293D01*
X308098Y11205D02*
X319138Y11205D01*
X319138Y12117D02*
X308098Y12117D01*
X308098Y13029D02*
X319138Y13029D01*
X319138Y13941D02*
X308098Y13941D01*
X308098Y14853D02*
X319138Y14853D01*
X319138Y15765D02*
X308098Y15765D01*
X308098Y16677D02*
X319138Y16677D01*
X319138Y17589D02*
X308098Y17589D01*
X308098Y18501D02*
X319138Y18501D01*
X319138Y19413D02*
X308098Y19413D01*
D11*
X354128Y53683D02*
X359108Y53683D01*
X359108Y41203D01*
X354128Y41203D01*
X354128Y53683D01*
X354128Y42172D02*
X359108Y42172D01*
X359108Y43141D02*
X354128Y43141D01*
X354128Y44110D02*
X359108Y44110D01*
X359108Y45079D02*
X354128Y45079D01*
X354128Y46048D02*
X359108Y46048D01*
X359108Y47017D02*
X354128Y47017D01*
X354128Y47986D02*
X359108Y47986D01*
X359108Y48955D02*
X354128Y48955D01*
X354128Y49924D02*
X359108Y49924D01*
X359108Y50893D02*
X354128Y50893D01*
X354128Y51862D02*
X359108Y51862D01*
X359108Y52831D02*
X354128Y52831D01*
X349108Y53683D02*
X344128Y53683D01*
X349108Y53683D02*
X349108Y41203D01*
X344128Y41203D01*
X344128Y53683D01*
X344128Y42172D02*
X349108Y42172D01*
X349108Y43141D02*
X344128Y43141D01*
X344128Y44110D02*
X349108Y44110D01*
X349108Y45079D02*
X344128Y45079D01*
X344128Y46048D02*
X349108Y46048D01*
X349108Y47017D02*
X344128Y47017D01*
X344128Y47986D02*
X349108Y47986D01*
X349108Y48955D02*
X344128Y48955D01*
X344128Y49924D02*
X349108Y49924D01*
X349108Y50893D02*
X344128Y50893D01*
X344128Y51862D02*
X349108Y51862D01*
X349108Y52831D02*
X344128Y52831D01*
X339108Y53683D02*
X334128Y53683D01*
X339108Y53683D02*
X339108Y41203D01*
X334128Y41203D01*
X334128Y53683D01*
X334128Y42172D02*
X339108Y42172D01*
X339108Y43141D02*
X334128Y43141D01*
X334128Y44110D02*
X339108Y44110D01*
X339108Y45079D02*
X334128Y45079D01*
X334128Y46048D02*
X339108Y46048D01*
X339108Y47017D02*
X334128Y47017D01*
X334128Y47986D02*
X339108Y47986D01*
X339108Y48955D02*
X334128Y48955D01*
X334128Y49924D02*
X339108Y49924D01*
X339108Y50893D02*
X334128Y50893D01*
X334128Y51862D02*
X339108Y51862D01*
X339108Y52831D02*
X334128Y52831D01*
X329108Y53683D02*
X324128Y53683D01*
X329108Y53683D02*
X329108Y41203D01*
X324128Y41203D01*
X324128Y53683D01*
X324128Y42172D02*
X329108Y42172D01*
X329108Y43141D02*
X324128Y43141D01*
X324128Y44110D02*
X329108Y44110D01*
X329108Y45079D02*
X324128Y45079D01*
X324128Y46048D02*
X329108Y46048D01*
X329108Y47017D02*
X324128Y47017D01*
X324128Y47986D02*
X329108Y47986D01*
X329108Y48955D02*
X324128Y48955D01*
X324128Y49924D02*
X329108Y49924D01*
X329108Y50893D02*
X324128Y50893D01*
X324128Y51862D02*
X329108Y51862D01*
X329108Y52831D02*
X324128Y52831D01*
D12*
X142918Y1001843D02*
X142918Y1011843D01*
X142918Y1001843D02*
X133918Y1001843D01*
X133918Y1011843D01*
X142918Y1011843D01*
X142918Y1002793D02*
X133918Y1002793D01*
X133918Y1003743D02*
X142918Y1003743D01*
X142918Y1004693D02*
X133918Y1004693D01*
X133918Y1005643D02*
X142918Y1005643D01*
X142918Y1006593D02*
X133918Y1006593D01*
X133918Y1007543D02*
X142918Y1007543D01*
X142918Y1008493D02*
X133918Y1008493D01*
X133918Y1009443D02*
X142918Y1009443D01*
X142918Y1010393D02*
X133918Y1010393D01*
X133918Y1011343D02*
X142918Y1011343D01*
X142918Y1018843D02*
X142918Y1028843D01*
X142918Y1018843D02*
X133918Y1018843D01*
X133918Y1028843D01*
X142918Y1028843D01*
X142918Y1019793D02*
X133918Y1019793D01*
X133918Y1020743D02*
X142918Y1020743D01*
X142918Y1021693D02*
X133918Y1021693D01*
X133918Y1022643D02*
X142918Y1022643D01*
X142918Y1023593D02*
X133918Y1023593D01*
X133918Y1024543D02*
X142918Y1024543D01*
X142918Y1025493D02*
X133918Y1025493D01*
X133918Y1026443D02*
X142918Y1026443D01*
X142918Y1027393D02*
X133918Y1027393D01*
X133918Y1028343D02*
X142918Y1028343D01*
X165118Y1057243D02*
X175118Y1057243D01*
X175118Y1048243D01*
X165118Y1048243D01*
X165118Y1057243D01*
X165118Y1049193D02*
X175118Y1049193D01*
X175118Y1050143D02*
X165118Y1050143D01*
X165118Y1051093D02*
X175118Y1051093D01*
X175118Y1052043D02*
X165118Y1052043D01*
X165118Y1052993D02*
X175118Y1052993D01*
X175118Y1053943D02*
X165118Y1053943D01*
X165118Y1054893D02*
X175118Y1054893D01*
X175118Y1055843D02*
X165118Y1055843D01*
X165118Y1056793D02*
X175118Y1056793D01*
X158118Y1057243D02*
X148118Y1057243D01*
X158118Y1057243D02*
X158118Y1048243D01*
X148118Y1048243D01*
X148118Y1057243D01*
X148118Y1049193D02*
X158118Y1049193D01*
X158118Y1050143D02*
X148118Y1050143D01*
X148118Y1051093D02*
X158118Y1051093D01*
X158118Y1052043D02*
X148118Y1052043D01*
X148118Y1052993D02*
X158118Y1052993D01*
X158118Y1053943D02*
X148118Y1053943D01*
X148118Y1054893D02*
X158118Y1054893D01*
X158118Y1055843D02*
X148118Y1055843D01*
X148118Y1056793D02*
X158118Y1056793D01*
X165118Y987243D02*
X175118Y987243D01*
X175118Y978243D01*
X165118Y978243D01*
X165118Y987243D01*
X165118Y979193D02*
X175118Y979193D01*
X175118Y980143D02*
X165118Y980143D01*
X165118Y981093D02*
X175118Y981093D01*
X175118Y982043D02*
X165118Y982043D01*
X165118Y982993D02*
X175118Y982993D01*
X175118Y983943D02*
X165118Y983943D01*
X165118Y984893D02*
X175118Y984893D01*
X175118Y985843D02*
X165118Y985843D01*
X165118Y986793D02*
X175118Y986793D01*
X158118Y987243D02*
X148118Y987243D01*
X158118Y987243D02*
X158118Y978243D01*
X148118Y978243D01*
X148118Y987243D01*
X148118Y979193D02*
X158118Y979193D01*
X158118Y980143D02*
X148118Y980143D01*
X148118Y981093D02*
X158118Y981093D01*
X158118Y982043D02*
X148118Y982043D01*
X148118Y982993D02*
X158118Y982993D01*
X158118Y983943D02*
X148118Y983943D01*
X148118Y984893D02*
X158118Y984893D01*
X158118Y985843D02*
X148118Y985843D01*
X148118Y986793D02*
X158118Y986793D01*
D13*
X235264Y983889D02*
X235264Y978597D01*
X227972Y978597D01*
X227972Y983889D01*
X235264Y983889D01*
X235264Y979555D02*
X227972Y979555D01*
X227972Y980513D02*
X235264Y980513D01*
X235264Y981471D02*
X227972Y981471D01*
X227972Y982429D02*
X235264Y982429D01*
X235264Y983387D02*
X227972Y983387D01*
X235264Y1001597D02*
X235264Y1006889D01*
X235264Y1001597D02*
X227972Y1001597D01*
X227972Y1006889D01*
X235264Y1006889D01*
X235264Y1002555D02*
X227972Y1002555D01*
X227972Y1003513D02*
X235264Y1003513D01*
X235264Y1004471D02*
X227972Y1004471D01*
X227972Y1005429D02*
X235264Y1005429D01*
X235264Y1006387D02*
X227972Y1006387D01*
D12*
X447118Y966243D02*
X447118Y956243D01*
X447118Y966243D02*
X456118Y966243D01*
X456118Y956243D01*
X447118Y956243D01*
X447118Y957193D02*
X456118Y957193D01*
X456118Y958143D02*
X447118Y958143D01*
X447118Y959093D02*
X456118Y959093D01*
X456118Y960043D02*
X447118Y960043D01*
X447118Y960993D02*
X456118Y960993D01*
X456118Y961943D02*
X447118Y961943D01*
X447118Y962893D02*
X456118Y962893D01*
X456118Y963843D02*
X447118Y963843D01*
X447118Y964793D02*
X456118Y964793D01*
X456118Y965743D02*
X447118Y965743D01*
X447118Y949243D02*
X447118Y939243D01*
X447118Y949243D02*
X456118Y949243D01*
X456118Y939243D01*
X447118Y939243D01*
X447118Y940193D02*
X456118Y940193D01*
X456118Y941143D02*
X447118Y941143D01*
X447118Y942093D02*
X456118Y942093D01*
X456118Y943043D02*
X447118Y943043D01*
X447118Y943993D02*
X456118Y943993D01*
X456118Y944943D02*
X447118Y944943D01*
X447118Y945893D02*
X456118Y945893D01*
X456118Y946843D02*
X447118Y946843D01*
X447118Y947793D02*
X456118Y947793D01*
X456118Y948743D02*
X447118Y948743D01*
X467118Y996243D02*
X467118Y1006243D01*
X476118Y1006243D01*
X476118Y996243D01*
X467118Y996243D01*
X467118Y997193D02*
X476118Y997193D01*
X476118Y998143D02*
X467118Y998143D01*
X467118Y999093D02*
X476118Y999093D01*
X476118Y1000043D02*
X467118Y1000043D01*
X467118Y1000993D02*
X476118Y1000993D01*
X476118Y1001943D02*
X467118Y1001943D01*
X467118Y1002893D02*
X476118Y1002893D01*
X476118Y1003843D02*
X467118Y1003843D01*
X467118Y1004793D02*
X476118Y1004793D01*
X476118Y1005743D02*
X467118Y1005743D01*
X467118Y989243D02*
X467118Y979243D01*
X467118Y989243D02*
X476118Y989243D01*
X476118Y979243D01*
X467118Y979243D01*
X467118Y980193D02*
X476118Y980193D01*
X476118Y981143D02*
X467118Y981143D01*
X467118Y982093D02*
X476118Y982093D01*
X476118Y983043D02*
X467118Y983043D01*
X467118Y983993D02*
X476118Y983993D01*
X476118Y984943D02*
X467118Y984943D01*
X467118Y985893D02*
X476118Y985893D01*
X476118Y986843D02*
X467118Y986843D01*
X467118Y987793D02*
X476118Y987793D01*
X476118Y988743D02*
X467118Y988743D01*
X447118Y996243D02*
X447118Y1006243D01*
X456118Y1006243D01*
X456118Y996243D01*
X447118Y996243D01*
X447118Y997193D02*
X456118Y997193D01*
X456118Y998143D02*
X447118Y998143D01*
X447118Y999093D02*
X456118Y999093D01*
X456118Y1000043D02*
X447118Y1000043D01*
X447118Y1000993D02*
X456118Y1000993D01*
X456118Y1001943D02*
X447118Y1001943D01*
X447118Y1002893D02*
X456118Y1002893D01*
X456118Y1003843D02*
X447118Y1003843D01*
X447118Y1004793D02*
X456118Y1004793D01*
X456118Y1005743D02*
X447118Y1005743D01*
X447118Y989243D02*
X447118Y979243D01*
X447118Y989243D02*
X456118Y989243D01*
X456118Y979243D01*
X447118Y979243D01*
X447118Y980193D02*
X456118Y980193D01*
X456118Y981143D02*
X447118Y981143D01*
X447118Y982093D02*
X456118Y982093D01*
X456118Y983043D02*
X447118Y983043D01*
X447118Y983993D02*
X456118Y983993D01*
X456118Y984943D02*
X447118Y984943D01*
X447118Y985893D02*
X456118Y985893D01*
X456118Y986843D02*
X447118Y986843D01*
X447118Y987793D02*
X456118Y987793D01*
X456118Y988743D02*
X447118Y988743D01*
X467118Y966243D02*
X467118Y956243D01*
X467118Y966243D02*
X476118Y966243D01*
X476118Y956243D01*
X467118Y956243D01*
X467118Y957193D02*
X476118Y957193D01*
X476118Y958143D02*
X467118Y958143D01*
X467118Y959093D02*
X476118Y959093D01*
X476118Y960043D02*
X467118Y960043D01*
X467118Y960993D02*
X476118Y960993D01*
X476118Y961943D02*
X467118Y961943D01*
X467118Y962893D02*
X476118Y962893D01*
X476118Y963843D02*
X467118Y963843D01*
X467118Y964793D02*
X476118Y964793D01*
X476118Y965743D02*
X467118Y965743D01*
X467118Y949243D02*
X467118Y939243D01*
X467118Y949243D02*
X476118Y949243D01*
X476118Y939243D01*
X467118Y939243D01*
X467118Y940193D02*
X476118Y940193D01*
X476118Y941143D02*
X467118Y941143D01*
X467118Y942093D02*
X476118Y942093D01*
X476118Y943043D02*
X467118Y943043D01*
X467118Y943993D02*
X476118Y943993D01*
X476118Y944943D02*
X467118Y944943D01*
X467118Y945893D02*
X476118Y945893D01*
X476118Y946843D02*
X467118Y946843D01*
X467118Y947793D02*
X476118Y947793D01*
X476118Y948743D02*
X467118Y948743D01*
X178118Y958243D02*
X168118Y958243D01*
X168118Y967243D01*
X178118Y967243D01*
X178118Y958243D01*
X178118Y959193D02*
X168118Y959193D01*
X168118Y960143D02*
X178118Y960143D01*
X178118Y961093D02*
X168118Y961093D01*
X168118Y962043D02*
X178118Y962043D01*
X178118Y962993D02*
X168118Y962993D01*
X168118Y963943D02*
X178118Y963943D01*
X178118Y964893D02*
X168118Y964893D01*
X168118Y965843D02*
X178118Y965843D01*
X178118Y966793D02*
X168118Y966793D01*
X185118Y958243D02*
X195118Y958243D01*
X185118Y958243D02*
X185118Y967243D01*
X195118Y967243D01*
X195118Y958243D01*
X195118Y959193D02*
X185118Y959193D01*
X185118Y960143D02*
X195118Y960143D01*
X195118Y961093D02*
X185118Y961093D01*
X185118Y962043D02*
X195118Y962043D01*
X195118Y962993D02*
X185118Y962993D01*
X185118Y963943D02*
X195118Y963943D01*
X195118Y964893D02*
X185118Y964893D01*
X185118Y965843D02*
X195118Y965843D01*
X195118Y966793D02*
X185118Y966793D01*
D11*
X204128Y929683D02*
X204128Y924703D01*
X204128Y929683D02*
X215108Y929683D01*
X215108Y924703D01*
X204128Y924703D01*
X204128Y925672D02*
X215108Y925672D01*
X215108Y926641D02*
X204128Y926641D01*
X204128Y927610D02*
X215108Y927610D01*
X215108Y928579D02*
X204128Y928579D01*
X204128Y929548D02*
X215108Y929548D01*
X204128Y916983D02*
X204128Y912003D01*
X204128Y916983D02*
X215108Y916983D01*
X215108Y912003D01*
X204128Y912003D01*
X204128Y912972D02*
X215108Y912972D01*
X215108Y913941D02*
X204128Y913941D01*
X204128Y914910D02*
X215108Y914910D01*
X215108Y915879D02*
X204128Y915879D01*
X204128Y916848D02*
X215108Y916848D01*
X204128Y904283D02*
X204128Y899303D01*
X204128Y904283D02*
X215108Y904283D01*
X215108Y899303D01*
X204128Y899303D01*
X204128Y900272D02*
X215108Y900272D01*
X215108Y901241D02*
X204128Y901241D01*
X204128Y902210D02*
X215108Y902210D01*
X215108Y903179D02*
X204128Y903179D01*
X204128Y904148D02*
X215108Y904148D01*
X204128Y891583D02*
X204128Y886603D01*
X204128Y891583D02*
X215108Y891583D01*
X215108Y886603D01*
X204128Y886603D01*
X204128Y887572D02*
X215108Y887572D01*
X215108Y888541D02*
X204128Y888541D01*
X204128Y889510D02*
X215108Y889510D01*
X215108Y890479D02*
X204128Y890479D01*
X204128Y891448D02*
X215108Y891448D01*
X204128Y878883D02*
X204128Y873903D01*
X204128Y878883D02*
X215108Y878883D01*
X215108Y873903D01*
X204128Y873903D01*
X204128Y874872D02*
X215108Y874872D01*
X215108Y875841D02*
X204128Y875841D01*
X204128Y876810D02*
X215108Y876810D01*
X215108Y877779D02*
X204128Y877779D01*
X204128Y878748D02*
X215108Y878748D01*
X204128Y866183D02*
X204128Y861203D01*
X204128Y866183D02*
X215108Y866183D01*
X215108Y861203D01*
X204128Y861203D01*
X204128Y862172D02*
X215108Y862172D01*
X215108Y863141D02*
X204128Y863141D01*
X204128Y864110D02*
X215108Y864110D01*
X215108Y865079D02*
X204128Y865079D01*
X204128Y866048D02*
X215108Y866048D01*
X204128Y853483D02*
X204128Y848503D01*
X204128Y853483D02*
X215108Y853483D01*
X215108Y848503D01*
X204128Y848503D01*
X204128Y849472D02*
X215108Y849472D01*
X215108Y850441D02*
X204128Y850441D01*
X204128Y851410D02*
X215108Y851410D01*
X215108Y852379D02*
X204128Y852379D01*
X204128Y853348D02*
X215108Y853348D01*
X204128Y840783D02*
X204128Y835803D01*
X204128Y840783D02*
X215108Y840783D01*
X215108Y835803D01*
X204128Y835803D01*
X204128Y836772D02*
X215108Y836772D01*
X215108Y837741D02*
X204128Y837741D01*
X204128Y838710D02*
X215108Y838710D01*
X215108Y839679D02*
X204128Y839679D01*
X204128Y840648D02*
X215108Y840648D01*
X148128Y840783D02*
X148128Y835803D01*
X148128Y840783D02*
X159108Y840783D01*
X159108Y835803D01*
X148128Y835803D01*
X148128Y836772D02*
X159108Y836772D01*
X159108Y837741D02*
X148128Y837741D01*
X148128Y838710D02*
X159108Y838710D01*
X159108Y839679D02*
X148128Y839679D01*
X148128Y840648D02*
X159108Y840648D01*
X148128Y848503D02*
X148128Y853483D01*
X159108Y853483D01*
X159108Y848503D01*
X148128Y848503D01*
X148128Y849472D02*
X159108Y849472D01*
X159108Y850441D02*
X148128Y850441D01*
X148128Y851410D02*
X159108Y851410D01*
X159108Y852379D02*
X148128Y852379D01*
X148128Y853348D02*
X159108Y853348D01*
X148128Y861203D02*
X148128Y866183D01*
X159108Y866183D01*
X159108Y861203D01*
X148128Y861203D01*
X148128Y862172D02*
X159108Y862172D01*
X159108Y863141D02*
X148128Y863141D01*
X148128Y864110D02*
X159108Y864110D01*
X159108Y865079D02*
X148128Y865079D01*
X148128Y866048D02*
X159108Y866048D01*
X148128Y873903D02*
X148128Y878883D01*
X159108Y878883D01*
X159108Y873903D01*
X148128Y873903D01*
X148128Y874872D02*
X159108Y874872D01*
X159108Y875841D02*
X148128Y875841D01*
X148128Y876810D02*
X159108Y876810D01*
X159108Y877779D02*
X148128Y877779D01*
X148128Y878748D02*
X159108Y878748D01*
X148128Y886603D02*
X148128Y891583D01*
X159108Y891583D01*
X159108Y886603D01*
X148128Y886603D01*
X148128Y887572D02*
X159108Y887572D01*
X159108Y888541D02*
X148128Y888541D01*
X148128Y889510D02*
X159108Y889510D01*
X159108Y890479D02*
X148128Y890479D01*
X148128Y891448D02*
X159108Y891448D01*
X148128Y899303D02*
X148128Y904283D01*
X159108Y904283D01*
X159108Y899303D01*
X148128Y899303D01*
X148128Y900272D02*
X159108Y900272D01*
X159108Y901241D02*
X148128Y901241D01*
X148128Y902210D02*
X159108Y902210D01*
X159108Y903179D02*
X148128Y903179D01*
X148128Y904148D02*
X159108Y904148D01*
X148128Y912003D02*
X148128Y916983D01*
X159108Y916983D01*
X159108Y912003D01*
X148128Y912003D01*
X148128Y912972D02*
X159108Y912972D01*
X159108Y913941D02*
X148128Y913941D01*
X148128Y914910D02*
X159108Y914910D01*
X159108Y915879D02*
X148128Y915879D01*
X148128Y916848D02*
X159108Y916848D01*
X148128Y924703D02*
X148128Y929683D01*
X159108Y929683D01*
X159108Y924703D01*
X148128Y924703D01*
X148128Y925672D02*
X159108Y925672D01*
X159108Y926641D02*
X148128Y926641D01*
X148128Y927610D02*
X159108Y927610D01*
X159108Y928579D02*
X148128Y928579D01*
X148128Y929548D02*
X159108Y929548D01*
D12*
X118118Y848243D02*
X108118Y848243D01*
X108118Y857243D01*
X118118Y857243D01*
X118118Y848243D01*
X118118Y849193D02*
X108118Y849193D01*
X108118Y850143D02*
X118118Y850143D01*
X118118Y851093D02*
X108118Y851093D01*
X108118Y852043D02*
X118118Y852043D01*
X118118Y852993D02*
X108118Y852993D01*
X108118Y853943D02*
X118118Y853943D01*
X118118Y854893D02*
X108118Y854893D01*
X108118Y855843D02*
X118118Y855843D01*
X118118Y856793D02*
X108118Y856793D01*
X125118Y848243D02*
X135118Y848243D01*
X125118Y848243D02*
X125118Y857243D01*
X135118Y857243D01*
X135118Y848243D01*
X135118Y849193D02*
X125118Y849193D01*
X125118Y850143D02*
X135118Y850143D01*
X135118Y851093D02*
X125118Y851093D01*
X125118Y852043D02*
X135118Y852043D01*
X135118Y852993D02*
X125118Y852993D01*
X125118Y853943D02*
X135118Y853943D01*
X135118Y854893D02*
X125118Y854893D01*
X125118Y855843D02*
X135118Y855843D01*
X135118Y856793D02*
X125118Y856793D01*
X125118Y917243D02*
X135118Y917243D01*
X135118Y908243D01*
X125118Y908243D01*
X125118Y917243D01*
X125118Y909193D02*
X135118Y909193D01*
X135118Y910143D02*
X125118Y910143D01*
X125118Y911093D02*
X135118Y911093D01*
X135118Y912043D02*
X125118Y912043D01*
X125118Y912993D02*
X135118Y912993D01*
X135118Y913943D02*
X125118Y913943D01*
X125118Y914893D02*
X135118Y914893D01*
X135118Y915843D02*
X125118Y915843D01*
X125118Y916793D02*
X135118Y916793D01*
X118118Y917243D02*
X108118Y917243D01*
X118118Y917243D02*
X118118Y908243D01*
X108118Y908243D01*
X108118Y917243D01*
X108118Y909193D02*
X118118Y909193D01*
X118118Y910143D02*
X108118Y910143D01*
X108118Y911093D02*
X118118Y911093D01*
X118118Y912043D02*
X108118Y912043D01*
X108118Y912993D02*
X118118Y912993D01*
X118118Y913943D02*
X108118Y913943D01*
X108118Y914893D02*
X118118Y914893D01*
X118118Y915843D02*
X108118Y915843D01*
X108118Y916793D02*
X118118Y916793D01*
D11*
X133608Y890233D02*
X133608Y888253D01*
X128028Y888253D01*
X128028Y890233D01*
X133608Y890233D01*
X133608Y889222D02*
X128028Y889222D01*
X128028Y890191D02*
X133608Y890191D01*
X109628Y883733D02*
X109628Y881753D01*
X109628Y883733D02*
X115208Y883733D01*
X115208Y881753D01*
X109628Y881753D01*
X109628Y882722D02*
X115208Y882722D01*
X115208Y883691D02*
X109628Y883691D01*
X109628Y877233D02*
X109628Y875253D01*
X109628Y877233D02*
X115208Y877233D01*
X115208Y875253D01*
X109628Y875253D01*
X109628Y876222D02*
X115208Y876222D01*
X115208Y877191D02*
X109628Y877191D01*
X109628Y888253D02*
X109628Y890233D01*
X115208Y890233D01*
X115208Y888253D01*
X109628Y888253D01*
X109628Y889222D02*
X115208Y889222D01*
X115208Y890191D02*
X109628Y890191D01*
X133608Y883733D02*
X133608Y881753D01*
X128028Y881753D01*
X128028Y883733D01*
X133608Y883733D01*
X133608Y882722D02*
X128028Y882722D01*
X128028Y883691D02*
X133608Y883691D01*
X133608Y877233D02*
X133608Y875253D01*
X128028Y875253D01*
X128028Y877233D01*
X133608Y877233D01*
X133608Y876222D02*
X128028Y876222D01*
X128028Y877191D02*
X133608Y877191D01*
D12*
X168118Y938243D02*
X178118Y938243D01*
X168118Y938243D02*
X168118Y947243D01*
X178118Y947243D01*
X178118Y938243D01*
X178118Y939193D02*
X168118Y939193D01*
X168118Y940143D02*
X178118Y940143D01*
X178118Y941093D02*
X168118Y941093D01*
X168118Y942043D02*
X178118Y942043D01*
X178118Y942993D02*
X168118Y942993D01*
X168118Y943943D02*
X178118Y943943D01*
X178118Y944893D02*
X168118Y944893D01*
X168118Y945843D02*
X178118Y945843D01*
X178118Y946793D02*
X168118Y946793D01*
X185118Y938243D02*
X195118Y938243D01*
X185118Y938243D02*
X185118Y947243D01*
X195118Y947243D01*
X195118Y938243D01*
X195118Y939193D02*
X185118Y939193D01*
X185118Y940143D02*
X195118Y940143D01*
X195118Y941093D02*
X185118Y941093D01*
X185118Y942043D02*
X195118Y942043D01*
X195118Y942993D02*
X185118Y942993D01*
X185118Y943943D02*
X195118Y943943D01*
X195118Y944893D02*
X185118Y944893D01*
X185118Y945843D02*
X195118Y945843D01*
X195118Y946793D02*
X185118Y946793D01*
X448118Y898243D02*
X458118Y898243D01*
X448118Y898243D02*
X448118Y907243D01*
X458118Y907243D01*
X458118Y898243D01*
X458118Y899193D02*
X448118Y899193D01*
X448118Y900143D02*
X458118Y900143D01*
X458118Y901093D02*
X448118Y901093D01*
X448118Y902043D02*
X458118Y902043D01*
X458118Y902993D02*
X448118Y902993D01*
X448118Y903943D02*
X458118Y903943D01*
X458118Y904893D02*
X448118Y904893D01*
X448118Y905843D02*
X458118Y905843D01*
X458118Y906793D02*
X448118Y906793D01*
X465118Y898243D02*
X475118Y898243D01*
X465118Y898243D02*
X465118Y907243D01*
X475118Y907243D01*
X475118Y898243D01*
X475118Y899193D02*
X465118Y899193D01*
X465118Y900143D02*
X475118Y900143D01*
X475118Y901093D02*
X465118Y901093D01*
X465118Y902043D02*
X475118Y902043D01*
X475118Y902993D02*
X465118Y902993D01*
X465118Y903943D02*
X475118Y903943D01*
X475118Y904893D02*
X465118Y904893D01*
X465118Y905843D02*
X475118Y905843D01*
X475118Y906793D02*
X465118Y906793D01*
X575118Y1007243D02*
X585118Y1007243D01*
X585118Y998243D01*
X575118Y998243D01*
X575118Y1007243D01*
X575118Y999193D02*
X585118Y999193D01*
X585118Y1000143D02*
X575118Y1000143D01*
X575118Y1001093D02*
X585118Y1001093D01*
X585118Y1002043D02*
X575118Y1002043D01*
X575118Y1002993D02*
X585118Y1002993D01*
X585118Y1003943D02*
X575118Y1003943D01*
X575118Y1004893D02*
X585118Y1004893D01*
X585118Y1005843D02*
X575118Y1005843D01*
X575118Y1006793D02*
X585118Y1006793D01*
X568118Y1007243D02*
X558118Y1007243D01*
X568118Y1007243D02*
X568118Y998243D01*
X558118Y998243D01*
X558118Y1007243D01*
X558118Y999193D02*
X568118Y999193D01*
X568118Y1000143D02*
X558118Y1000143D01*
X558118Y1001093D02*
X568118Y1001093D01*
X568118Y1002043D02*
X558118Y1002043D01*
X558118Y1002993D02*
X568118Y1002993D01*
X568118Y1003943D02*
X558118Y1003943D01*
X558118Y1004893D02*
X568118Y1004893D01*
X568118Y1005843D02*
X558118Y1005843D01*
X558118Y1006793D02*
X568118Y1006793D01*
D14*
X161618Y998748D03*
X166618Y998748D03*
X171618Y998748D03*
X156618Y998748D03*
X151618Y998748D03*
X151618Y1026738D03*
X156618Y1026738D03*
X161618Y1026738D03*
X166618Y1026738D03*
X171618Y1026738D03*
D15*
X161618Y1012743D03*
D12*
X125118Y1057243D02*
X115118Y1057243D01*
X125118Y1057243D02*
X125118Y1048243D01*
X115118Y1048243D01*
X115118Y1057243D01*
X115118Y1049193D02*
X125118Y1049193D01*
X125118Y1050143D02*
X115118Y1050143D01*
X115118Y1051093D02*
X125118Y1051093D01*
X125118Y1052043D02*
X115118Y1052043D01*
X115118Y1052993D02*
X125118Y1052993D01*
X125118Y1053943D02*
X115118Y1053943D01*
X115118Y1054893D02*
X125118Y1054893D01*
X125118Y1055843D02*
X115118Y1055843D01*
X115118Y1056793D02*
X125118Y1056793D01*
X108118Y1057243D02*
X98118Y1057243D01*
X108118Y1057243D02*
X108118Y1048243D01*
X98118Y1048243D01*
X98118Y1057243D01*
X98118Y1049193D02*
X108118Y1049193D01*
X108118Y1050143D02*
X98118Y1050143D01*
X98118Y1051093D02*
X108118Y1051093D01*
X108118Y1052043D02*
X98118Y1052043D01*
X98118Y1052993D02*
X108118Y1052993D01*
X108118Y1053943D02*
X98118Y1053943D01*
X98118Y1054893D02*
X108118Y1054893D01*
X108118Y1055843D02*
X98118Y1055843D01*
X98118Y1056793D02*
X108118Y1056793D01*
X115118Y1037243D02*
X125118Y1037243D01*
X125118Y1028243D01*
X115118Y1028243D01*
X115118Y1037243D01*
X115118Y1029193D02*
X125118Y1029193D01*
X125118Y1030143D02*
X115118Y1030143D01*
X115118Y1031093D02*
X125118Y1031093D01*
X125118Y1032043D02*
X115118Y1032043D01*
X115118Y1032993D02*
X125118Y1032993D01*
X125118Y1033943D02*
X115118Y1033943D01*
X115118Y1034893D02*
X125118Y1034893D01*
X125118Y1035843D02*
X115118Y1035843D01*
X115118Y1036793D02*
X125118Y1036793D01*
X108118Y1037243D02*
X98118Y1037243D01*
X108118Y1037243D02*
X108118Y1028243D01*
X98118Y1028243D01*
X98118Y1037243D01*
X98118Y1029193D02*
X108118Y1029193D01*
X108118Y1030143D02*
X98118Y1030143D01*
X98118Y1031093D02*
X108118Y1031093D01*
X108118Y1032043D02*
X98118Y1032043D01*
X98118Y1032993D02*
X108118Y1032993D01*
X108118Y1033943D02*
X98118Y1033943D01*
X98118Y1034893D02*
X108118Y1034893D01*
X108118Y1035843D02*
X98118Y1035843D01*
X98118Y1036793D02*
X108118Y1036793D01*
X115118Y1077243D02*
X125118Y1077243D01*
X125118Y1068243D01*
X115118Y1068243D01*
X115118Y1077243D01*
X115118Y1069193D02*
X125118Y1069193D01*
X125118Y1070143D02*
X115118Y1070143D01*
X115118Y1071093D02*
X125118Y1071093D01*
X125118Y1072043D02*
X115118Y1072043D01*
X115118Y1072993D02*
X125118Y1072993D01*
X125118Y1073943D02*
X115118Y1073943D01*
X115118Y1074893D02*
X125118Y1074893D01*
X125118Y1075843D02*
X115118Y1075843D01*
X115118Y1076793D02*
X125118Y1076793D01*
X108118Y1077243D02*
X98118Y1077243D01*
X108118Y1077243D02*
X108118Y1068243D01*
X98118Y1068243D01*
X98118Y1077243D01*
X98118Y1069193D02*
X108118Y1069193D01*
X108118Y1070143D02*
X98118Y1070143D01*
X98118Y1071093D02*
X108118Y1071093D01*
X108118Y1072043D02*
X98118Y1072043D01*
X98118Y1072993D02*
X108118Y1072993D01*
X108118Y1073943D02*
X98118Y1073943D01*
X98118Y1074893D02*
X108118Y1074893D01*
X108118Y1075843D02*
X98118Y1075843D01*
X98118Y1076793D02*
X108118Y1076793D01*
X448118Y868243D02*
X458118Y868243D01*
X448118Y868243D02*
X448118Y877243D01*
X458118Y877243D01*
X458118Y868243D01*
X458118Y869193D02*
X448118Y869193D01*
X448118Y870143D02*
X458118Y870143D01*
X458118Y871093D02*
X448118Y871093D01*
X448118Y872043D02*
X458118Y872043D01*
X458118Y872993D02*
X448118Y872993D01*
X448118Y873943D02*
X458118Y873943D01*
X458118Y874893D02*
X448118Y874893D01*
X448118Y875843D02*
X458118Y875843D01*
X458118Y876793D02*
X448118Y876793D01*
X465118Y868243D02*
X475118Y868243D01*
X465118Y868243D02*
X465118Y877243D01*
X475118Y877243D01*
X475118Y868243D01*
X475118Y869193D02*
X465118Y869193D01*
X465118Y870143D02*
X475118Y870143D01*
X475118Y871093D02*
X465118Y871093D01*
X465118Y872043D02*
X475118Y872043D01*
X475118Y872993D02*
X465118Y872993D01*
X465118Y873943D02*
X475118Y873943D01*
X475118Y874893D02*
X465118Y874893D01*
X465118Y875843D02*
X475118Y875843D01*
X475118Y876793D02*
X465118Y876793D01*
D16*
X431003Y1013038D02*
X431003Y1021048D01*
X431003Y1013038D02*
X416993Y1013038D01*
X416993Y1021048D01*
X431003Y1021048D01*
X431003Y1013978D02*
X416993Y1013978D01*
X416993Y1014918D02*
X431003Y1014918D01*
X431003Y1015858D02*
X416993Y1015858D01*
X416993Y1016798D02*
X431003Y1016798D01*
X431003Y1017738D02*
X416993Y1017738D01*
X416993Y1018678D02*
X431003Y1018678D01*
X431003Y1019618D02*
X416993Y1019618D01*
X416993Y1020558D02*
X431003Y1020558D01*
X431003Y1008348D02*
X431003Y1000338D01*
X416993Y1000338D01*
X416993Y1008348D01*
X431003Y1008348D01*
X431003Y1001278D02*
X416993Y1001278D01*
X416993Y1002218D02*
X431003Y1002218D01*
X431003Y1003158D02*
X416993Y1003158D01*
X416993Y1004098D02*
X431003Y1004098D01*
X431003Y1005038D02*
X416993Y1005038D01*
X416993Y1005978D02*
X431003Y1005978D01*
X431003Y1006918D02*
X416993Y1006918D01*
X416993Y1007858D02*
X431003Y1007858D01*
X431003Y995648D02*
X431003Y987638D01*
X416993Y987638D01*
X416993Y995648D01*
X431003Y995648D01*
X431003Y988578D02*
X416993Y988578D01*
X416993Y989518D02*
X431003Y989518D01*
X431003Y990458D02*
X416993Y990458D01*
X416993Y991398D02*
X431003Y991398D01*
X431003Y992338D02*
X416993Y992338D01*
X416993Y993278D02*
X431003Y993278D01*
X431003Y994218D02*
X416993Y994218D01*
X416993Y995158D02*
X431003Y995158D01*
X431003Y982948D02*
X431003Y974938D01*
X416993Y974938D01*
X416993Y982948D01*
X431003Y982948D01*
X431003Y975878D02*
X416993Y975878D01*
X416993Y976818D02*
X431003Y976818D01*
X431003Y977758D02*
X416993Y977758D01*
X416993Y978698D02*
X431003Y978698D01*
X431003Y979638D02*
X416993Y979638D01*
X416993Y980578D02*
X431003Y980578D01*
X431003Y981518D02*
X416993Y981518D01*
X416993Y982458D02*
X431003Y982458D01*
X431003Y970248D02*
X431003Y962238D01*
X416993Y962238D01*
X416993Y970248D01*
X431003Y970248D01*
X431003Y963178D02*
X416993Y963178D01*
X416993Y964118D02*
X431003Y964118D01*
X431003Y965058D02*
X416993Y965058D01*
X416993Y965998D02*
X431003Y965998D01*
X431003Y966938D02*
X416993Y966938D01*
X416993Y967878D02*
X431003Y967878D01*
X431003Y968818D02*
X416993Y968818D01*
X416993Y969758D02*
X431003Y969758D01*
X431003Y957548D02*
X431003Y949538D01*
X416993Y949538D01*
X416993Y957548D01*
X431003Y957548D01*
X431003Y950478D02*
X416993Y950478D01*
X416993Y951418D02*
X431003Y951418D01*
X431003Y952358D02*
X416993Y952358D01*
X416993Y953298D02*
X431003Y953298D01*
X431003Y954238D02*
X416993Y954238D01*
X416993Y955178D02*
X431003Y955178D01*
X431003Y956118D02*
X416993Y956118D01*
X416993Y957058D02*
X431003Y957058D01*
X431003Y944848D02*
X431003Y936838D01*
X416993Y936838D01*
X416993Y944848D01*
X431003Y944848D01*
X431003Y937778D02*
X416993Y937778D01*
X416993Y938718D02*
X431003Y938718D01*
X431003Y939658D02*
X416993Y939658D01*
X416993Y940598D02*
X431003Y940598D01*
X431003Y941538D02*
X416993Y941538D01*
X416993Y942478D02*
X431003Y942478D01*
X431003Y943418D02*
X416993Y943418D01*
X416993Y944358D02*
X431003Y944358D01*
X431003Y932148D02*
X431003Y924138D01*
X416993Y924138D01*
X416993Y932148D01*
X431003Y932148D01*
X431003Y925078D02*
X416993Y925078D01*
X416993Y926018D02*
X431003Y926018D01*
X431003Y926958D02*
X416993Y926958D01*
X416993Y927898D02*
X431003Y927898D01*
X431003Y928838D02*
X416993Y928838D01*
X416993Y929778D02*
X431003Y929778D01*
X431003Y930718D02*
X416993Y930718D01*
X416993Y931658D02*
X431003Y931658D01*
X431003Y919448D02*
X431003Y911438D01*
X416993Y911438D01*
X416993Y919448D01*
X431003Y919448D01*
X431003Y912378D02*
X416993Y912378D01*
X416993Y913318D02*
X431003Y913318D01*
X431003Y914258D02*
X416993Y914258D01*
X416993Y915198D02*
X431003Y915198D01*
X431003Y916138D02*
X416993Y916138D01*
X416993Y917078D02*
X431003Y917078D01*
X431003Y918018D02*
X416993Y918018D01*
X416993Y918958D02*
X431003Y918958D01*
X431003Y906748D02*
X431003Y898738D01*
X416993Y898738D01*
X416993Y906748D01*
X431003Y906748D01*
X431003Y899678D02*
X416993Y899678D01*
X416993Y900618D02*
X431003Y900618D01*
X431003Y901558D02*
X416993Y901558D01*
X416993Y902498D02*
X431003Y902498D01*
X431003Y903438D02*
X416993Y903438D01*
X416993Y904378D02*
X431003Y904378D01*
X431003Y905318D02*
X416993Y905318D01*
X416993Y906258D02*
X431003Y906258D01*
X431003Y894048D02*
X431003Y886038D01*
X416993Y886038D01*
X416993Y894048D01*
X431003Y894048D01*
X431003Y886978D02*
X416993Y886978D01*
X416993Y887918D02*
X431003Y887918D01*
X431003Y888858D02*
X416993Y888858D01*
X416993Y889798D02*
X431003Y889798D01*
X431003Y890738D02*
X416993Y890738D01*
X416993Y891678D02*
X431003Y891678D01*
X431003Y892618D02*
X416993Y892618D01*
X416993Y893558D02*
X431003Y893558D01*
X431003Y881348D02*
X431003Y873338D01*
X416993Y873338D01*
X416993Y881348D01*
X431003Y881348D01*
X431003Y874278D02*
X416993Y874278D01*
X416993Y875218D02*
X431003Y875218D01*
X431003Y876158D02*
X416993Y876158D01*
X416993Y877098D02*
X431003Y877098D01*
X431003Y878038D02*
X416993Y878038D01*
X416993Y878978D02*
X431003Y878978D01*
X431003Y879918D02*
X416993Y879918D01*
X416993Y880858D02*
X431003Y880858D01*
X431003Y868648D02*
X431003Y860638D01*
X416993Y860638D01*
X416993Y868648D01*
X431003Y868648D01*
X431003Y861578D02*
X416993Y861578D01*
X416993Y862518D02*
X431003Y862518D01*
X431003Y863458D02*
X416993Y863458D01*
X416993Y864398D02*
X431003Y864398D01*
X431003Y865338D02*
X416993Y865338D01*
X416993Y866278D02*
X431003Y866278D01*
X431003Y867218D02*
X416993Y867218D01*
X416993Y868158D02*
X431003Y868158D01*
X431003Y855948D02*
X431003Y847938D01*
X416993Y847938D01*
X416993Y855948D01*
X431003Y855948D01*
X431003Y848878D02*
X416993Y848878D01*
X416993Y849818D02*
X431003Y849818D01*
X431003Y850758D02*
X416993Y850758D01*
X416993Y851698D02*
X431003Y851698D01*
X431003Y852638D02*
X416993Y852638D01*
X416993Y853578D02*
X431003Y853578D01*
X431003Y854518D02*
X416993Y854518D01*
X416993Y855458D02*
X431003Y855458D01*
X402773Y830038D02*
X394763Y830038D01*
X394763Y844048D01*
X402773Y844048D01*
X402773Y830038D01*
X402773Y830978D02*
X394763Y830978D01*
X394763Y831918D02*
X402773Y831918D01*
X402773Y832858D02*
X394763Y832858D01*
X394763Y833798D02*
X402773Y833798D01*
X402773Y834738D02*
X394763Y834738D01*
X394763Y835678D02*
X402773Y835678D01*
X402773Y836618D02*
X394763Y836618D01*
X394763Y837558D02*
X402773Y837558D01*
X402773Y838498D02*
X394763Y838498D01*
X394763Y839438D02*
X402773Y839438D01*
X402773Y840378D02*
X394763Y840378D01*
X394763Y841318D02*
X402773Y841318D01*
X402773Y842258D02*
X394763Y842258D01*
X394763Y843198D02*
X402773Y843198D01*
X390073Y830038D02*
X382063Y830038D01*
X382063Y844048D01*
X390073Y844048D01*
X390073Y830038D01*
X390073Y830978D02*
X382063Y830978D01*
X382063Y831918D02*
X390073Y831918D01*
X390073Y832858D02*
X382063Y832858D01*
X382063Y833798D02*
X390073Y833798D01*
X390073Y834738D02*
X382063Y834738D01*
X382063Y835678D02*
X390073Y835678D01*
X390073Y836618D02*
X382063Y836618D01*
X382063Y837558D02*
X390073Y837558D01*
X390073Y838498D02*
X382063Y838498D01*
X382063Y839438D02*
X390073Y839438D01*
X390073Y840378D02*
X382063Y840378D01*
X382063Y841318D02*
X390073Y841318D01*
X390073Y842258D02*
X382063Y842258D01*
X382063Y843198D02*
X390073Y843198D01*
X377373Y830038D02*
X369363Y830038D01*
X369363Y844048D01*
X377373Y844048D01*
X377373Y830038D01*
X377373Y830978D02*
X369363Y830978D01*
X369363Y831918D02*
X377373Y831918D01*
X377373Y832858D02*
X369363Y832858D01*
X369363Y833798D02*
X377373Y833798D01*
X377373Y834738D02*
X369363Y834738D01*
X369363Y835678D02*
X377373Y835678D01*
X377373Y836618D02*
X369363Y836618D01*
X369363Y837558D02*
X377373Y837558D01*
X377373Y838498D02*
X369363Y838498D01*
X369363Y839438D02*
X377373Y839438D01*
X377373Y840378D02*
X369363Y840378D01*
X369363Y841318D02*
X377373Y841318D01*
X377373Y842258D02*
X369363Y842258D01*
X369363Y843198D02*
X377373Y843198D01*
X364673Y830038D02*
X356663Y830038D01*
X356663Y844048D01*
X364673Y844048D01*
X364673Y830038D01*
X364673Y830978D02*
X356663Y830978D01*
X356663Y831918D02*
X364673Y831918D01*
X364673Y832858D02*
X356663Y832858D01*
X356663Y833798D02*
X364673Y833798D01*
X364673Y834738D02*
X356663Y834738D01*
X356663Y835678D02*
X364673Y835678D01*
X364673Y836618D02*
X356663Y836618D01*
X356663Y837558D02*
X364673Y837558D01*
X364673Y838498D02*
X356663Y838498D01*
X356663Y839438D02*
X364673Y839438D01*
X364673Y840378D02*
X356663Y840378D01*
X356663Y841318D02*
X364673Y841318D01*
X364673Y842258D02*
X356663Y842258D01*
X356663Y843198D02*
X364673Y843198D01*
X351973Y830038D02*
X343963Y830038D01*
X343963Y844048D01*
X351973Y844048D01*
X351973Y830038D01*
X351973Y830978D02*
X343963Y830978D01*
X343963Y831918D02*
X351973Y831918D01*
X351973Y832858D02*
X343963Y832858D01*
X343963Y833798D02*
X351973Y833798D01*
X351973Y834738D02*
X343963Y834738D01*
X343963Y835678D02*
X351973Y835678D01*
X351973Y836618D02*
X343963Y836618D01*
X343963Y837558D02*
X351973Y837558D01*
X351973Y838498D02*
X343963Y838498D01*
X343963Y839438D02*
X351973Y839438D01*
X351973Y840378D02*
X343963Y840378D01*
X343963Y841318D02*
X351973Y841318D01*
X351973Y842258D02*
X343963Y842258D01*
X343963Y843198D02*
X351973Y843198D01*
X339273Y830038D02*
X331263Y830038D01*
X331263Y844048D01*
X339273Y844048D01*
X339273Y830038D01*
X339273Y830978D02*
X331263Y830978D01*
X331263Y831918D02*
X339273Y831918D01*
X339273Y832858D02*
X331263Y832858D01*
X331263Y833798D02*
X339273Y833798D01*
X339273Y834738D02*
X331263Y834738D01*
X331263Y835678D02*
X339273Y835678D01*
X339273Y836618D02*
X331263Y836618D01*
X331263Y837558D02*
X339273Y837558D01*
X339273Y838498D02*
X331263Y838498D01*
X331263Y839438D02*
X339273Y839438D01*
X339273Y840378D02*
X331263Y840378D01*
X331263Y841318D02*
X339273Y841318D01*
X339273Y842258D02*
X331263Y842258D01*
X331263Y843198D02*
X339273Y843198D01*
X326573Y830038D02*
X318563Y830038D01*
X318563Y844048D01*
X326573Y844048D01*
X326573Y830038D01*
X326573Y830978D02*
X318563Y830978D01*
X318563Y831918D02*
X326573Y831918D01*
X326573Y832858D02*
X318563Y832858D01*
X318563Y833798D02*
X326573Y833798D01*
X326573Y834738D02*
X318563Y834738D01*
X318563Y835678D02*
X326573Y835678D01*
X326573Y836618D02*
X318563Y836618D01*
X318563Y837558D02*
X326573Y837558D01*
X326573Y838498D02*
X318563Y838498D01*
X318563Y839438D02*
X326573Y839438D01*
X326573Y840378D02*
X318563Y840378D01*
X318563Y841318D02*
X326573Y841318D01*
X326573Y842258D02*
X318563Y842258D01*
X318563Y843198D02*
X326573Y843198D01*
X313873Y830038D02*
X305863Y830038D01*
X305863Y844048D01*
X313873Y844048D01*
X313873Y830038D01*
X313873Y830978D02*
X305863Y830978D01*
X305863Y831918D02*
X313873Y831918D01*
X313873Y832858D02*
X305863Y832858D01*
X305863Y833798D02*
X313873Y833798D01*
X313873Y834738D02*
X305863Y834738D01*
X305863Y835678D02*
X313873Y835678D01*
X313873Y836618D02*
X305863Y836618D01*
X305863Y837558D02*
X313873Y837558D01*
X313873Y838498D02*
X305863Y838498D01*
X305863Y839438D02*
X313873Y839438D01*
X313873Y840378D02*
X305863Y840378D01*
X305863Y841318D02*
X313873Y841318D01*
X313873Y842258D02*
X305863Y842258D01*
X305863Y843198D02*
X313873Y843198D01*
X301173Y830038D02*
X293163Y830038D01*
X293163Y844048D01*
X301173Y844048D01*
X301173Y830038D01*
X301173Y830978D02*
X293163Y830978D01*
X293163Y831918D02*
X301173Y831918D01*
X301173Y832858D02*
X293163Y832858D01*
X293163Y833798D02*
X301173Y833798D01*
X301173Y834738D02*
X293163Y834738D01*
X293163Y835678D02*
X301173Y835678D01*
X301173Y836618D02*
X293163Y836618D01*
X293163Y837558D02*
X301173Y837558D01*
X301173Y838498D02*
X293163Y838498D01*
X293163Y839438D02*
X301173Y839438D01*
X301173Y840378D02*
X293163Y840378D01*
X293163Y841318D02*
X301173Y841318D01*
X301173Y842258D02*
X293163Y842258D01*
X293163Y843198D02*
X301173Y843198D01*
X288473Y830038D02*
X280463Y830038D01*
X280463Y844048D01*
X288473Y844048D01*
X288473Y830038D01*
X288473Y830978D02*
X280463Y830978D01*
X280463Y831918D02*
X288473Y831918D01*
X288473Y832858D02*
X280463Y832858D01*
X280463Y833798D02*
X288473Y833798D01*
X288473Y834738D02*
X280463Y834738D01*
X280463Y835678D02*
X288473Y835678D01*
X288473Y836618D02*
X280463Y836618D01*
X280463Y837558D02*
X288473Y837558D01*
X288473Y838498D02*
X280463Y838498D01*
X280463Y839438D02*
X288473Y839438D01*
X288473Y840378D02*
X280463Y840378D01*
X280463Y841318D02*
X288473Y841318D01*
X288473Y842258D02*
X280463Y842258D01*
X280463Y843198D02*
X288473Y843198D01*
X266243Y847938D02*
X266243Y855948D01*
X266243Y847938D02*
X252233Y847938D01*
X252233Y855948D01*
X266243Y855948D01*
X266243Y848878D02*
X252233Y848878D01*
X252233Y849818D02*
X266243Y849818D01*
X266243Y850758D02*
X252233Y850758D01*
X252233Y851698D02*
X266243Y851698D01*
X266243Y852638D02*
X252233Y852638D01*
X252233Y853578D02*
X266243Y853578D01*
X266243Y854518D02*
X252233Y854518D01*
X252233Y855458D02*
X266243Y855458D01*
X266243Y860638D02*
X266243Y868648D01*
X266243Y860638D02*
X252233Y860638D01*
X252233Y868648D01*
X266243Y868648D01*
X266243Y861578D02*
X252233Y861578D01*
X252233Y862518D02*
X266243Y862518D01*
X266243Y863458D02*
X252233Y863458D01*
X252233Y864398D02*
X266243Y864398D01*
X266243Y865338D02*
X252233Y865338D01*
X252233Y866278D02*
X266243Y866278D01*
X266243Y867218D02*
X252233Y867218D01*
X252233Y868158D02*
X266243Y868158D01*
X266243Y873338D02*
X266243Y881348D01*
X266243Y873338D02*
X252233Y873338D01*
X252233Y881348D01*
X266243Y881348D01*
X266243Y874278D02*
X252233Y874278D01*
X252233Y875218D02*
X266243Y875218D01*
X266243Y876158D02*
X252233Y876158D01*
X252233Y877098D02*
X266243Y877098D01*
X266243Y878038D02*
X252233Y878038D01*
X252233Y878978D02*
X266243Y878978D01*
X266243Y879918D02*
X252233Y879918D01*
X252233Y880858D02*
X266243Y880858D01*
X266243Y886038D02*
X266243Y894048D01*
X266243Y886038D02*
X252233Y886038D01*
X252233Y894048D01*
X266243Y894048D01*
X266243Y886978D02*
X252233Y886978D01*
X252233Y887918D02*
X266243Y887918D01*
X266243Y888858D02*
X252233Y888858D01*
X252233Y889798D02*
X266243Y889798D01*
X266243Y890738D02*
X252233Y890738D01*
X252233Y891678D02*
X266243Y891678D01*
X266243Y892618D02*
X252233Y892618D01*
X252233Y893558D02*
X266243Y893558D01*
X266243Y898738D02*
X266243Y906748D01*
X266243Y898738D02*
X252233Y898738D01*
X252233Y906748D01*
X266243Y906748D01*
X266243Y899678D02*
X252233Y899678D01*
X252233Y900618D02*
X266243Y900618D01*
X266243Y901558D02*
X252233Y901558D01*
X252233Y902498D02*
X266243Y902498D01*
X266243Y903438D02*
X252233Y903438D01*
X252233Y904378D02*
X266243Y904378D01*
X266243Y905318D02*
X252233Y905318D01*
X252233Y906258D02*
X266243Y906258D01*
X266243Y911438D02*
X266243Y919448D01*
X266243Y911438D02*
X252233Y911438D01*
X252233Y919448D01*
X266243Y919448D01*
X266243Y912378D02*
X252233Y912378D01*
X252233Y913318D02*
X266243Y913318D01*
X266243Y914258D02*
X252233Y914258D01*
X252233Y915198D02*
X266243Y915198D01*
X266243Y916138D02*
X252233Y916138D01*
X252233Y917078D02*
X266243Y917078D01*
X266243Y918018D02*
X252233Y918018D01*
X252233Y918958D02*
X266243Y918958D01*
X266243Y924138D02*
X266243Y932148D01*
X266243Y924138D02*
X252233Y924138D01*
X252233Y932148D01*
X266243Y932148D01*
X266243Y925078D02*
X252233Y925078D01*
X252233Y926018D02*
X266243Y926018D01*
X266243Y926958D02*
X252233Y926958D01*
X252233Y927898D02*
X266243Y927898D01*
X266243Y928838D02*
X252233Y928838D01*
X252233Y929778D02*
X266243Y929778D01*
X266243Y930718D02*
X252233Y930718D01*
X252233Y931658D02*
X266243Y931658D01*
X266243Y936838D02*
X266243Y944848D01*
X266243Y936838D02*
X252233Y936838D01*
X252233Y944848D01*
X266243Y944848D01*
X266243Y937778D02*
X252233Y937778D01*
X252233Y938718D02*
X266243Y938718D01*
X266243Y939658D02*
X252233Y939658D01*
X252233Y940598D02*
X266243Y940598D01*
X266243Y941538D02*
X252233Y941538D01*
X252233Y942478D02*
X266243Y942478D01*
X266243Y943418D02*
X252233Y943418D01*
X252233Y944358D02*
X266243Y944358D01*
X266243Y949538D02*
X266243Y957548D01*
X266243Y949538D02*
X252233Y949538D01*
X252233Y957548D01*
X266243Y957548D01*
X266243Y950478D02*
X252233Y950478D01*
X252233Y951418D02*
X266243Y951418D01*
X266243Y952358D02*
X252233Y952358D01*
X252233Y953298D02*
X266243Y953298D01*
X266243Y954238D02*
X252233Y954238D01*
X252233Y955178D02*
X266243Y955178D01*
X266243Y956118D02*
X252233Y956118D01*
X252233Y957058D02*
X266243Y957058D01*
X266243Y962238D02*
X266243Y970248D01*
X266243Y962238D02*
X252233Y962238D01*
X252233Y970248D01*
X266243Y970248D01*
X266243Y963178D02*
X252233Y963178D01*
X252233Y964118D02*
X266243Y964118D01*
X266243Y965058D02*
X252233Y965058D01*
X252233Y965998D02*
X266243Y965998D01*
X266243Y966938D02*
X252233Y966938D01*
X252233Y967878D02*
X266243Y967878D01*
X266243Y968818D02*
X252233Y968818D01*
X252233Y969758D02*
X266243Y969758D01*
X266243Y974938D02*
X266243Y982948D01*
X266243Y974938D02*
X252233Y974938D01*
X252233Y982948D01*
X266243Y982948D01*
X266243Y975878D02*
X252233Y975878D01*
X252233Y976818D02*
X266243Y976818D01*
X266243Y977758D02*
X252233Y977758D01*
X252233Y978698D02*
X266243Y978698D01*
X266243Y979638D02*
X252233Y979638D01*
X252233Y980578D02*
X266243Y980578D01*
X266243Y981518D02*
X252233Y981518D01*
X252233Y982458D02*
X266243Y982458D01*
X266243Y987638D02*
X266243Y995648D01*
X266243Y987638D02*
X252233Y987638D01*
X252233Y995648D01*
X266243Y995648D01*
X266243Y988578D02*
X252233Y988578D01*
X252233Y989518D02*
X266243Y989518D01*
X266243Y990458D02*
X252233Y990458D01*
X252233Y991398D02*
X266243Y991398D01*
X266243Y992338D02*
X252233Y992338D01*
X252233Y993278D02*
X266243Y993278D01*
X266243Y994218D02*
X252233Y994218D01*
X252233Y995158D02*
X266243Y995158D01*
X266243Y1000338D02*
X266243Y1008348D01*
X266243Y1000338D02*
X252233Y1000338D01*
X252233Y1008348D01*
X266243Y1008348D01*
X266243Y1001278D02*
X252233Y1001278D01*
X252233Y1002218D02*
X266243Y1002218D01*
X266243Y1003158D02*
X252233Y1003158D01*
X252233Y1004098D02*
X266243Y1004098D01*
X266243Y1005038D02*
X252233Y1005038D01*
X252233Y1005978D02*
X266243Y1005978D01*
X266243Y1006918D02*
X252233Y1006918D01*
X252233Y1007858D02*
X266243Y1007858D01*
X266243Y1013038D02*
X266243Y1021048D01*
X266243Y1013038D02*
X252233Y1013038D01*
X252233Y1021048D01*
X266243Y1021048D01*
X266243Y1013978D02*
X252233Y1013978D01*
X252233Y1014918D02*
X266243Y1014918D01*
X266243Y1015858D02*
X252233Y1015858D01*
X252233Y1016798D02*
X266243Y1016798D01*
X266243Y1017738D02*
X252233Y1017738D01*
X252233Y1018678D02*
X266243Y1018678D01*
X266243Y1019618D02*
X252233Y1019618D01*
X252233Y1020558D02*
X266243Y1020558D01*
D17*
X363046Y949741D02*
X363046Y937505D01*
X350810Y937505D01*
X350810Y949741D01*
X363046Y949741D01*
X363046Y938516D02*
X350810Y938516D01*
X350810Y939527D02*
X363046Y939527D01*
X363046Y940538D02*
X350810Y940538D01*
X350810Y941549D02*
X363046Y941549D01*
X363046Y942560D02*
X350810Y942560D01*
X350810Y943571D02*
X363046Y943571D01*
X363046Y944582D02*
X350810Y944582D01*
X350810Y945593D02*
X363046Y945593D01*
X363046Y946604D02*
X350810Y946604D01*
X350810Y947615D02*
X363046Y947615D01*
X363046Y948626D02*
X350810Y948626D01*
X350810Y949637D02*
X363046Y949637D01*
X344596Y955715D02*
X344596Y967951D01*
X344596Y955715D02*
X332360Y955715D01*
X332360Y967951D01*
X344596Y967951D01*
X344596Y956726D02*
X332360Y956726D01*
X332360Y957737D02*
X344596Y957737D01*
X344596Y958748D02*
X332360Y958748D01*
X332360Y959759D02*
X344596Y959759D01*
X344596Y960770D02*
X332360Y960770D01*
X332360Y961781D02*
X344596Y961781D01*
X344596Y962792D02*
X332360Y962792D01*
X332360Y963803D02*
X344596Y963803D01*
X344596Y964814D02*
X332360Y964814D01*
X332360Y965825D02*
X344596Y965825D01*
X344596Y966836D02*
X332360Y966836D01*
X332360Y967847D02*
X344596Y967847D01*
X362896Y967951D02*
X362896Y955715D01*
X350660Y955715D01*
X350660Y967951D01*
X362896Y967951D01*
X362896Y956726D02*
X350660Y956726D01*
X350660Y957737D02*
X362896Y957737D01*
X362896Y958748D02*
X350660Y958748D01*
X350660Y959759D02*
X362896Y959759D01*
X362896Y960770D02*
X350660Y960770D01*
X350660Y961781D02*
X362896Y961781D01*
X362896Y962792D02*
X350660Y962792D01*
X350660Y963803D02*
X362896Y963803D01*
X362896Y964814D02*
X350660Y964814D01*
X350660Y965825D02*
X362896Y965825D01*
X362896Y966836D02*
X350660Y966836D01*
X350660Y967847D02*
X362896Y967847D01*
X381196Y967951D02*
X381196Y955715D01*
X368960Y955715D01*
X368960Y967951D01*
X381196Y967951D01*
X381196Y956726D02*
X368960Y956726D01*
X368960Y957737D02*
X381196Y957737D01*
X381196Y958748D02*
X368960Y958748D01*
X368960Y959759D02*
X381196Y959759D01*
X381196Y960770D02*
X368960Y960770D01*
X368960Y961781D02*
X381196Y961781D01*
X381196Y962792D02*
X368960Y962792D01*
X368960Y963803D02*
X381196Y963803D01*
X381196Y964814D02*
X368960Y964814D01*
X368960Y965825D02*
X381196Y965825D01*
X381196Y966836D02*
X368960Y966836D01*
X368960Y967847D02*
X381196Y967847D01*
X381196Y949651D02*
X381196Y937415D01*
X368960Y937415D01*
X368960Y949651D01*
X381196Y949651D01*
X381196Y938426D02*
X368960Y938426D01*
X368960Y939437D02*
X381196Y939437D01*
X381196Y940448D02*
X368960Y940448D01*
X368960Y941459D02*
X381196Y941459D01*
X381196Y942470D02*
X368960Y942470D01*
X368960Y943481D02*
X381196Y943481D01*
X381196Y944492D02*
X368960Y944492D01*
X368960Y945503D02*
X381196Y945503D01*
X381196Y946514D02*
X368960Y946514D01*
X368960Y947525D02*
X381196Y947525D01*
X381196Y948536D02*
X368960Y948536D01*
X368960Y949547D02*
X381196Y949547D01*
X344496Y949951D02*
X344496Y937715D01*
X332260Y937715D01*
X332260Y949951D01*
X344496Y949951D01*
X344496Y938726D02*
X332260Y938726D01*
X332260Y939737D02*
X344496Y939737D01*
X344496Y940748D02*
X332260Y940748D01*
X332260Y941759D02*
X344496Y941759D01*
X344496Y942770D02*
X332260Y942770D01*
X332260Y943781D02*
X344496Y943781D01*
X344496Y944792D02*
X332260Y944792D01*
X332260Y945803D02*
X344496Y945803D01*
X344496Y946814D02*
X332260Y946814D01*
X332260Y947825D02*
X344496Y947825D01*
X344496Y948836D02*
X332260Y948836D01*
X332260Y949847D02*
X344496Y949847D01*
X344596Y931351D02*
X344596Y919115D01*
X332360Y919115D01*
X332360Y931351D01*
X344596Y931351D01*
X344596Y920126D02*
X332360Y920126D01*
X332360Y921137D02*
X344596Y921137D01*
X344596Y922148D02*
X332360Y922148D01*
X332360Y923159D02*
X344596Y923159D01*
X344596Y924170D02*
X332360Y924170D01*
X332360Y925181D02*
X344596Y925181D01*
X344596Y926192D02*
X332360Y926192D01*
X332360Y927203D02*
X344596Y927203D01*
X344596Y928214D02*
X332360Y928214D01*
X332360Y929225D02*
X344596Y929225D01*
X344596Y930236D02*
X332360Y930236D01*
X332360Y931247D02*
X344596Y931247D01*
X362896Y931251D02*
X362896Y919015D01*
X350660Y919015D01*
X350660Y931251D01*
X362896Y931251D01*
X362896Y920026D02*
X350660Y920026D01*
X350660Y921037D02*
X362896Y921037D01*
X362896Y922048D02*
X350660Y922048D01*
X350660Y923059D02*
X362896Y923059D01*
X362896Y924070D02*
X350660Y924070D01*
X350660Y925081D02*
X362896Y925081D01*
X362896Y926092D02*
X350660Y926092D01*
X350660Y927103D02*
X362896Y927103D01*
X362896Y928114D02*
X350660Y928114D01*
X350660Y929125D02*
X362896Y929125D01*
X362896Y930136D02*
X350660Y930136D01*
X350660Y931147D02*
X362896Y931147D01*
X381196Y931351D02*
X381196Y919115D01*
X368960Y919115D01*
X368960Y931351D01*
X381196Y931351D01*
X381196Y920126D02*
X368960Y920126D01*
X368960Y921137D02*
X381196Y921137D01*
X381196Y922148D02*
X368960Y922148D01*
X368960Y923159D02*
X381196Y923159D01*
X381196Y924170D02*
X368960Y924170D01*
X368960Y925181D02*
X381196Y925181D01*
X381196Y926192D02*
X368960Y926192D01*
X368960Y927203D02*
X381196Y927203D01*
X381196Y928214D02*
X368960Y928214D01*
X368960Y929225D02*
X381196Y929225D01*
X381196Y930236D02*
X368960Y930236D01*
X368960Y931247D02*
X381196Y931247D01*
D12*
X465018Y832743D02*
X475018Y832743D01*
X475018Y823743D01*
X465018Y823743D01*
X465018Y832743D01*
X465018Y824693D02*
X475018Y824693D01*
X475018Y825643D02*
X465018Y825643D01*
X465018Y826593D02*
X475018Y826593D01*
X475018Y827543D02*
X465018Y827543D01*
X465018Y828493D02*
X475018Y828493D01*
X475018Y829443D02*
X465018Y829443D01*
X465018Y830393D02*
X475018Y830393D01*
X475018Y831343D02*
X465018Y831343D01*
X465018Y832293D02*
X475018Y832293D01*
X458018Y832743D02*
X448018Y832743D01*
X458018Y832743D02*
X458018Y823743D01*
X448018Y823743D01*
X448018Y832743D01*
X448018Y824693D02*
X458018Y824693D01*
X458018Y825643D02*
X448018Y825643D01*
X448018Y826593D02*
X458018Y826593D01*
X458018Y827543D02*
X448018Y827543D01*
X448018Y828493D02*
X458018Y828493D01*
X458018Y829443D02*
X448018Y829443D01*
X448018Y830393D02*
X458018Y830393D01*
X458018Y831343D02*
X448018Y831343D01*
X448018Y832293D02*
X458018Y832293D01*
X458018Y798343D02*
X448018Y798343D01*
X448018Y807343D01*
X458018Y807343D01*
X458018Y798343D01*
X458018Y799293D02*
X448018Y799293D01*
X448018Y800243D02*
X458018Y800243D01*
X458018Y801193D02*
X448018Y801193D01*
X448018Y802143D02*
X458018Y802143D01*
X458018Y803093D02*
X448018Y803093D01*
X448018Y804043D02*
X458018Y804043D01*
X458018Y804993D02*
X448018Y804993D01*
X448018Y805943D02*
X458018Y805943D01*
X458018Y806893D02*
X448018Y806893D01*
X465018Y798343D02*
X475018Y798343D01*
X465018Y798343D02*
X465018Y807343D01*
X475018Y807343D01*
X475018Y798343D01*
X475018Y799293D02*
X465018Y799293D01*
X465018Y800243D02*
X475018Y800243D01*
X475018Y801193D02*
X465018Y801193D01*
X465018Y802143D02*
X475018Y802143D01*
X475018Y803093D02*
X465018Y803093D01*
X465018Y804043D02*
X475018Y804043D01*
X475018Y804993D02*
X465018Y804993D01*
X465018Y805943D02*
X475018Y805943D01*
X475018Y806893D02*
X465018Y806893D01*
D18*
X540093Y145218D02*
X540093Y130268D01*
X534143Y130268D01*
X534143Y145218D01*
X540093Y145218D01*
X540093Y131265D02*
X534143Y131265D01*
X534143Y132262D02*
X540093Y132262D01*
X540093Y133259D02*
X534143Y133259D01*
X534143Y134256D02*
X540093Y134256D01*
X540093Y135253D02*
X534143Y135253D01*
X534143Y136250D02*
X540093Y136250D01*
X540093Y137247D02*
X534143Y137247D01*
X534143Y138244D02*
X540093Y138244D01*
X540093Y139241D02*
X534143Y139241D01*
X534143Y140238D02*
X540093Y140238D01*
X540093Y141235D02*
X534143Y141235D01*
X534143Y142232D02*
X540093Y142232D01*
X540093Y143229D02*
X534143Y143229D01*
X534143Y144226D02*
X540093Y144226D01*
X529093Y145218D02*
X529093Y130268D01*
X523143Y130268D01*
X523143Y145218D01*
X529093Y145218D01*
X529093Y131265D02*
X523143Y131265D01*
X523143Y132262D02*
X529093Y132262D01*
X529093Y133259D02*
X523143Y133259D01*
X523143Y134256D02*
X529093Y134256D01*
X529093Y135253D02*
X523143Y135253D01*
X523143Y136250D02*
X529093Y136250D01*
X529093Y137247D02*
X523143Y137247D01*
X523143Y138244D02*
X529093Y138244D01*
X529093Y139241D02*
X523143Y139241D01*
X523143Y140238D02*
X529093Y140238D01*
X529093Y141235D02*
X523143Y141235D01*
X523143Y142232D02*
X529093Y142232D01*
X529093Y143229D02*
X523143Y143229D01*
X523143Y144226D02*
X529093Y144226D01*
X518093Y145218D02*
X518093Y130268D01*
X512143Y130268D01*
X512143Y145218D01*
X518093Y145218D01*
X518093Y131265D02*
X512143Y131265D01*
X512143Y132262D02*
X518093Y132262D01*
X518093Y133259D02*
X512143Y133259D01*
X512143Y134256D02*
X518093Y134256D01*
X518093Y135253D02*
X512143Y135253D01*
X512143Y136250D02*
X518093Y136250D01*
X518093Y137247D02*
X512143Y137247D01*
X512143Y138244D02*
X518093Y138244D01*
X518093Y139241D02*
X512143Y139241D01*
X512143Y140238D02*
X518093Y140238D01*
X518093Y141235D02*
X512143Y141235D01*
X512143Y142232D02*
X518093Y142232D01*
X518093Y143229D02*
X512143Y143229D01*
X512143Y144226D02*
X518093Y144226D01*
X551093Y145218D02*
X551093Y130268D01*
X545143Y130268D01*
X545143Y145218D01*
X551093Y145218D01*
X551093Y131265D02*
X545143Y131265D01*
X545143Y132262D02*
X551093Y132262D01*
X551093Y133259D02*
X545143Y133259D01*
X545143Y134256D02*
X551093Y134256D01*
X551093Y135253D02*
X545143Y135253D01*
X545143Y136250D02*
X551093Y136250D01*
X551093Y137247D02*
X545143Y137247D01*
X545143Y138244D02*
X551093Y138244D01*
X551093Y139241D02*
X545143Y139241D01*
X545143Y140238D02*
X551093Y140238D01*
X551093Y141235D02*
X545143Y141235D01*
X545143Y142232D02*
X551093Y142232D01*
X551093Y143229D02*
X545143Y143229D01*
X545143Y144226D02*
X551093Y144226D01*
X562093Y145218D02*
X562093Y130268D01*
X556143Y130268D01*
X556143Y145218D01*
X562093Y145218D01*
X562093Y131265D02*
X556143Y131265D01*
X556143Y132262D02*
X562093Y132262D01*
X562093Y133259D02*
X556143Y133259D01*
X556143Y134256D02*
X562093Y134256D01*
X562093Y135253D02*
X556143Y135253D01*
X556143Y136250D02*
X562093Y136250D01*
X562093Y137247D02*
X556143Y137247D01*
X556143Y138244D02*
X562093Y138244D01*
X562093Y139241D02*
X556143Y139241D01*
X556143Y140238D02*
X562093Y140238D01*
X562093Y141235D02*
X556143Y141235D01*
X556143Y142232D02*
X562093Y142232D01*
X562093Y143229D02*
X556143Y143229D01*
X556143Y144226D02*
X562093Y144226D01*
X573093Y145218D02*
X573093Y130268D01*
X567143Y130268D01*
X567143Y145218D01*
X573093Y145218D01*
X573093Y131265D02*
X567143Y131265D01*
X567143Y132262D02*
X573093Y132262D01*
X573093Y133259D02*
X567143Y133259D01*
X567143Y134256D02*
X573093Y134256D01*
X573093Y135253D02*
X567143Y135253D01*
X567143Y136250D02*
X573093Y136250D01*
X573093Y137247D02*
X567143Y137247D01*
X567143Y138244D02*
X573093Y138244D01*
X573093Y139241D02*
X567143Y139241D01*
X567143Y140238D02*
X573093Y140238D01*
X573093Y141235D02*
X567143Y141235D01*
X567143Y142232D02*
X573093Y142232D01*
X573093Y143229D02*
X567143Y143229D01*
X567143Y144226D02*
X573093Y144226D01*
X584093Y145218D02*
X584093Y130268D01*
X578143Y130268D01*
X578143Y145218D01*
X584093Y145218D01*
X584093Y131265D02*
X578143Y131265D01*
X578143Y132262D02*
X584093Y132262D01*
X584093Y133259D02*
X578143Y133259D01*
X578143Y134256D02*
X584093Y134256D01*
X584093Y135253D02*
X578143Y135253D01*
X578143Y136250D02*
X584093Y136250D01*
X584093Y137247D02*
X578143Y137247D01*
X578143Y138244D02*
X584093Y138244D01*
X584093Y139241D02*
X578143Y139241D01*
X578143Y140238D02*
X584093Y140238D01*
X584093Y141235D02*
X578143Y141235D01*
X578143Y142232D02*
X584093Y142232D01*
X584093Y143229D02*
X578143Y143229D01*
X578143Y144226D02*
X584093Y144226D01*
X595093Y145218D02*
X595093Y130268D01*
X589143Y130268D01*
X589143Y145218D01*
X595093Y145218D01*
X595093Y131265D02*
X589143Y131265D01*
X589143Y132262D02*
X595093Y132262D01*
X595093Y133259D02*
X589143Y133259D01*
X589143Y134256D02*
X595093Y134256D01*
X595093Y135253D02*
X589143Y135253D01*
X589143Y136250D02*
X595093Y136250D01*
X595093Y137247D02*
X589143Y137247D01*
X589143Y138244D02*
X595093Y138244D01*
X595093Y139241D02*
X589143Y139241D01*
X589143Y140238D02*
X595093Y140238D01*
X595093Y141235D02*
X589143Y141235D01*
X589143Y142232D02*
X595093Y142232D01*
X595093Y143229D02*
X589143Y143229D01*
X589143Y144226D02*
X595093Y144226D01*
X606093Y145218D02*
X606093Y130268D01*
X600143Y130268D01*
X600143Y145218D01*
X606093Y145218D01*
X606093Y131265D02*
X600143Y131265D01*
X600143Y132262D02*
X606093Y132262D01*
X606093Y133259D02*
X600143Y133259D01*
X600143Y134256D02*
X606093Y134256D01*
X606093Y135253D02*
X600143Y135253D01*
X600143Y136250D02*
X606093Y136250D01*
X606093Y137247D02*
X600143Y137247D01*
X600143Y138244D02*
X606093Y138244D01*
X606093Y139241D02*
X600143Y139241D01*
X600143Y140238D02*
X606093Y140238D01*
X606093Y141235D02*
X600143Y141235D01*
X600143Y142232D02*
X606093Y142232D01*
X606093Y143229D02*
X600143Y143229D01*
X600143Y144226D02*
X606093Y144226D01*
D10*
X465638Y47263D02*
X454598Y47263D01*
X465638Y47263D02*
X465638Y26223D01*
X454598Y26223D01*
X454598Y47263D01*
X454598Y27135D02*
X465638Y27135D01*
X465638Y28047D02*
X454598Y28047D01*
X454598Y28959D02*
X465638Y28959D01*
X465638Y29871D02*
X454598Y29871D01*
X454598Y30783D02*
X465638Y30783D01*
X465638Y31695D02*
X454598Y31695D01*
X454598Y32607D02*
X465638Y32607D01*
X465638Y33519D02*
X454598Y33519D01*
X454598Y34431D02*
X465638Y34431D01*
X465638Y35343D02*
X454598Y35343D01*
X454598Y36255D02*
X465638Y36255D01*
X465638Y37167D02*
X454598Y37167D01*
X454598Y38079D02*
X465638Y38079D01*
X465638Y38991D02*
X454598Y38991D01*
X454598Y39903D02*
X465638Y39903D01*
X465638Y40815D02*
X454598Y40815D01*
X454598Y41727D02*
X465638Y41727D01*
X465638Y42639D02*
X454598Y42639D01*
X454598Y43551D02*
X465638Y43551D01*
X465638Y44463D02*
X454598Y44463D01*
X454598Y45375D02*
X465638Y45375D01*
X465638Y46287D02*
X454598Y46287D01*
X454598Y47199D02*
X465638Y47199D01*
X609598Y47263D02*
X620638Y47263D01*
X620638Y26223D01*
X609598Y26223D01*
X609598Y47263D01*
X609598Y27135D02*
X620638Y27135D01*
X620638Y28047D02*
X609598Y28047D01*
X609598Y28959D02*
X620638Y28959D01*
X620638Y29871D02*
X609598Y29871D01*
X609598Y30783D02*
X620638Y30783D01*
X620638Y31695D02*
X609598Y31695D01*
X609598Y32607D02*
X620638Y32607D01*
X620638Y33519D02*
X609598Y33519D01*
X609598Y34431D02*
X620638Y34431D01*
X620638Y35343D02*
X609598Y35343D01*
X609598Y36255D02*
X620638Y36255D01*
X620638Y37167D02*
X609598Y37167D01*
X609598Y38079D02*
X620638Y38079D01*
X620638Y38991D02*
X609598Y38991D01*
X609598Y39903D02*
X620638Y39903D01*
X620638Y40815D02*
X609598Y40815D01*
X609598Y41727D02*
X620638Y41727D01*
X620638Y42639D02*
X609598Y42639D01*
X609598Y43551D02*
X620638Y43551D01*
X620638Y44463D02*
X609598Y44463D01*
X609598Y45375D02*
X620638Y45375D01*
X620638Y46287D02*
X609598Y46287D01*
X609598Y47199D02*
X620638Y47199D01*
D19*
X476628Y139253D02*
X461608Y139253D01*
X476628Y139253D02*
X476628Y126233D01*
X461608Y126233D01*
X461608Y139253D01*
X461608Y127164D02*
X476628Y127164D01*
X476628Y128095D02*
X461608Y128095D01*
X461608Y129026D02*
X476628Y129026D01*
X476628Y129957D02*
X461608Y129957D01*
X461608Y130888D02*
X476628Y130888D01*
X476628Y131819D02*
X461608Y131819D01*
X461608Y132750D02*
X476628Y132750D01*
X476628Y133681D02*
X461608Y133681D01*
X461608Y134612D02*
X476628Y134612D01*
X476628Y135543D02*
X461608Y135543D01*
X461608Y136474D02*
X476628Y136474D01*
X476628Y137405D02*
X461608Y137405D01*
X461608Y138336D02*
X476628Y138336D01*
D10*
X609598Y139263D02*
X620638Y139263D01*
X620638Y124223D01*
X609598Y124223D01*
X609598Y139263D01*
X609598Y125135D02*
X620638Y125135D01*
X620638Y126047D02*
X609598Y126047D01*
X609598Y126959D02*
X620638Y126959D01*
X620638Y127871D02*
X609598Y127871D01*
X609598Y128783D02*
X620638Y128783D01*
X620638Y129695D02*
X609598Y129695D01*
X609598Y130607D02*
X620638Y130607D01*
X620638Y131519D02*
X609598Y131519D01*
X609598Y132431D02*
X620638Y132431D01*
X620638Y133343D02*
X609598Y133343D01*
X609598Y134255D02*
X620638Y134255D01*
X620638Y135167D02*
X609598Y135167D01*
X609598Y136079D02*
X620638Y136079D01*
X620638Y136991D02*
X609598Y136991D01*
X609598Y137903D02*
X620638Y137903D01*
X620638Y138815D02*
X609598Y138815D01*
X1051168Y20213D02*
X1062208Y20213D01*
X1062208Y1173D01*
X1051168Y1173D01*
X1051168Y20213D01*
X1051168Y2085D02*
X1062208Y2085D01*
X1062208Y2997D02*
X1051168Y2997D01*
X1051168Y3909D02*
X1062208Y3909D01*
X1062208Y4821D02*
X1051168Y4821D01*
X1051168Y5733D02*
X1062208Y5733D01*
X1062208Y6645D02*
X1051168Y6645D01*
X1051168Y7557D02*
X1062208Y7557D01*
X1062208Y8469D02*
X1051168Y8469D01*
X1051168Y9381D02*
X1062208Y9381D01*
X1062208Y10293D02*
X1051168Y10293D01*
X1051168Y11205D02*
X1062208Y11205D01*
X1062208Y12117D02*
X1051168Y12117D01*
X1051168Y13029D02*
X1062208Y13029D01*
X1062208Y13941D02*
X1051168Y13941D01*
X1051168Y14853D02*
X1062208Y14853D01*
X1062208Y15765D02*
X1051168Y15765D01*
X1051168Y16677D02*
X1062208Y16677D01*
X1062208Y17589D02*
X1051168Y17589D01*
X1051168Y18501D02*
X1062208Y18501D01*
X1062208Y19413D02*
X1051168Y19413D01*
X1006208Y20213D02*
X995168Y20213D01*
X1006208Y20213D02*
X1006208Y1173D01*
X995168Y1173D01*
X995168Y20213D01*
X995168Y2085D02*
X1006208Y2085D01*
X1006208Y2997D02*
X995168Y2997D01*
X995168Y3909D02*
X1006208Y3909D01*
X1006208Y4821D02*
X995168Y4821D01*
X995168Y5733D02*
X1006208Y5733D01*
X1006208Y6645D02*
X995168Y6645D01*
X995168Y7557D02*
X1006208Y7557D01*
X1006208Y8469D02*
X995168Y8469D01*
X995168Y9381D02*
X1006208Y9381D01*
X1006208Y10293D02*
X995168Y10293D01*
X995168Y11205D02*
X1006208Y11205D01*
X1006208Y12117D02*
X995168Y12117D01*
X995168Y13029D02*
X1006208Y13029D01*
X1006208Y13941D02*
X995168Y13941D01*
X995168Y14853D02*
X1006208Y14853D01*
X1006208Y15765D02*
X995168Y15765D01*
X995168Y16677D02*
X1006208Y16677D01*
X1006208Y17589D02*
X995168Y17589D01*
X995168Y18501D02*
X1006208Y18501D01*
X1006208Y19413D02*
X995168Y19413D01*
D11*
X1041198Y53683D02*
X1046178Y53683D01*
X1046178Y41203D01*
X1041198Y41203D01*
X1041198Y53683D01*
X1041198Y42172D02*
X1046178Y42172D01*
X1046178Y43141D02*
X1041198Y43141D01*
X1041198Y44110D02*
X1046178Y44110D01*
X1046178Y45079D02*
X1041198Y45079D01*
X1041198Y46048D02*
X1046178Y46048D01*
X1046178Y47017D02*
X1041198Y47017D01*
X1041198Y47986D02*
X1046178Y47986D01*
X1046178Y48955D02*
X1041198Y48955D01*
X1041198Y49924D02*
X1046178Y49924D01*
X1046178Y50893D02*
X1041198Y50893D01*
X1041198Y51862D02*
X1046178Y51862D01*
X1046178Y52831D02*
X1041198Y52831D01*
X1036178Y53683D02*
X1031198Y53683D01*
X1036178Y53683D02*
X1036178Y41203D01*
X1031198Y41203D01*
X1031198Y53683D01*
X1031198Y42172D02*
X1036178Y42172D01*
X1036178Y43141D02*
X1031198Y43141D01*
X1031198Y44110D02*
X1036178Y44110D01*
X1036178Y45079D02*
X1031198Y45079D01*
X1031198Y46048D02*
X1036178Y46048D01*
X1036178Y47017D02*
X1031198Y47017D01*
X1031198Y47986D02*
X1036178Y47986D01*
X1036178Y48955D02*
X1031198Y48955D01*
X1031198Y49924D02*
X1036178Y49924D01*
X1036178Y50893D02*
X1031198Y50893D01*
X1031198Y51862D02*
X1036178Y51862D01*
X1036178Y52831D02*
X1031198Y52831D01*
X1026178Y53683D02*
X1021198Y53683D01*
X1026178Y53683D02*
X1026178Y41203D01*
X1021198Y41203D01*
X1021198Y53683D01*
X1021198Y42172D02*
X1026178Y42172D01*
X1026178Y43141D02*
X1021198Y43141D01*
X1021198Y44110D02*
X1026178Y44110D01*
X1026178Y45079D02*
X1021198Y45079D01*
X1021198Y46048D02*
X1026178Y46048D01*
X1026178Y47017D02*
X1021198Y47017D01*
X1021198Y47986D02*
X1026178Y47986D01*
X1026178Y48955D02*
X1021198Y48955D01*
X1021198Y49924D02*
X1026178Y49924D01*
X1026178Y50893D02*
X1021198Y50893D01*
X1021198Y51862D02*
X1026178Y51862D01*
X1026178Y52831D02*
X1021198Y52831D01*
X1016178Y53683D02*
X1011198Y53683D01*
X1016178Y53683D02*
X1016178Y41203D01*
X1011198Y41203D01*
X1011198Y53683D01*
X1011198Y42172D02*
X1016178Y42172D01*
X1016178Y43141D02*
X1011198Y43141D01*
X1011198Y44110D02*
X1016178Y44110D01*
X1016178Y45079D02*
X1011198Y45079D01*
X1011198Y46048D02*
X1016178Y46048D01*
X1016178Y47017D02*
X1011198Y47017D01*
X1011198Y47986D02*
X1016178Y47986D01*
X1016178Y48955D02*
X1011198Y48955D01*
X1011198Y49924D02*
X1016178Y49924D01*
X1016178Y50893D02*
X1011198Y50893D01*
X1011198Y51862D02*
X1016178Y51862D01*
X1016178Y52831D02*
X1011198Y52831D01*
D12*
X829988Y1001843D02*
X829988Y1011843D01*
X829988Y1001843D02*
X820988Y1001843D01*
X820988Y1011843D01*
X829988Y1011843D01*
X829988Y1002793D02*
X820988Y1002793D01*
X820988Y1003743D02*
X829988Y1003743D01*
X829988Y1004693D02*
X820988Y1004693D01*
X820988Y1005643D02*
X829988Y1005643D01*
X829988Y1006593D02*
X820988Y1006593D01*
X820988Y1007543D02*
X829988Y1007543D01*
X829988Y1008493D02*
X820988Y1008493D01*
X820988Y1009443D02*
X829988Y1009443D01*
X829988Y1010393D02*
X820988Y1010393D01*
X820988Y1011343D02*
X829988Y1011343D01*
X829988Y1018843D02*
X829988Y1028843D01*
X829988Y1018843D02*
X820988Y1018843D01*
X820988Y1028843D01*
X829988Y1028843D01*
X829988Y1019793D02*
X820988Y1019793D01*
X820988Y1020743D02*
X829988Y1020743D01*
X829988Y1021693D02*
X820988Y1021693D01*
X820988Y1022643D02*
X829988Y1022643D01*
X829988Y1023593D02*
X820988Y1023593D01*
X820988Y1024543D02*
X829988Y1024543D01*
X829988Y1025493D02*
X820988Y1025493D01*
X820988Y1026443D02*
X829988Y1026443D01*
X829988Y1027393D02*
X820988Y1027393D01*
X820988Y1028343D02*
X829988Y1028343D01*
X852188Y1057243D02*
X862188Y1057243D01*
X862188Y1048243D01*
X852188Y1048243D01*
X852188Y1057243D01*
X852188Y1049193D02*
X862188Y1049193D01*
X862188Y1050143D02*
X852188Y1050143D01*
X852188Y1051093D02*
X862188Y1051093D01*
X862188Y1052043D02*
X852188Y1052043D01*
X852188Y1052993D02*
X862188Y1052993D01*
X862188Y1053943D02*
X852188Y1053943D01*
X852188Y1054893D02*
X862188Y1054893D01*
X862188Y1055843D02*
X852188Y1055843D01*
X852188Y1056793D02*
X862188Y1056793D01*
X845188Y1057243D02*
X835188Y1057243D01*
X845188Y1057243D02*
X845188Y1048243D01*
X835188Y1048243D01*
X835188Y1057243D01*
X835188Y1049193D02*
X845188Y1049193D01*
X845188Y1050143D02*
X835188Y1050143D01*
X835188Y1051093D02*
X845188Y1051093D01*
X845188Y1052043D02*
X835188Y1052043D01*
X835188Y1052993D02*
X845188Y1052993D01*
X845188Y1053943D02*
X835188Y1053943D01*
X835188Y1054893D02*
X845188Y1054893D01*
X845188Y1055843D02*
X835188Y1055843D01*
X835188Y1056793D02*
X845188Y1056793D01*
X852188Y987243D02*
X862188Y987243D01*
X862188Y978243D01*
X852188Y978243D01*
X852188Y987243D01*
X852188Y979193D02*
X862188Y979193D01*
X862188Y980143D02*
X852188Y980143D01*
X852188Y981093D02*
X862188Y981093D01*
X862188Y982043D02*
X852188Y982043D01*
X852188Y982993D02*
X862188Y982993D01*
X862188Y983943D02*
X852188Y983943D01*
X852188Y984893D02*
X862188Y984893D01*
X862188Y985843D02*
X852188Y985843D01*
X852188Y986793D02*
X862188Y986793D01*
X845188Y987243D02*
X835188Y987243D01*
X845188Y987243D02*
X845188Y978243D01*
X835188Y978243D01*
X835188Y987243D01*
X835188Y979193D02*
X845188Y979193D01*
X845188Y980143D02*
X835188Y980143D01*
X835188Y981093D02*
X845188Y981093D01*
X845188Y982043D02*
X835188Y982043D01*
X835188Y982993D02*
X845188Y982993D01*
X845188Y983943D02*
X835188Y983943D01*
X835188Y984893D02*
X845188Y984893D01*
X845188Y985843D02*
X835188Y985843D01*
X835188Y986793D02*
X845188Y986793D01*
D13*
X922334Y983889D02*
X922334Y978597D01*
X915042Y978597D01*
X915042Y983889D01*
X922334Y983889D01*
X922334Y979555D02*
X915042Y979555D01*
X915042Y980513D02*
X922334Y980513D01*
X922334Y981471D02*
X915042Y981471D01*
X915042Y982429D02*
X922334Y982429D01*
X922334Y983387D02*
X915042Y983387D01*
X922334Y1001597D02*
X922334Y1006889D01*
X922334Y1001597D02*
X915042Y1001597D01*
X915042Y1006889D01*
X922334Y1006889D01*
X922334Y1002555D02*
X915042Y1002555D01*
X915042Y1003513D02*
X922334Y1003513D01*
X922334Y1004471D02*
X915042Y1004471D01*
X915042Y1005429D02*
X922334Y1005429D01*
X922334Y1006387D02*
X915042Y1006387D01*
D12*
X1134188Y966243D02*
X1134188Y956243D01*
X1134188Y966243D02*
X1143188Y966243D01*
X1143188Y956243D01*
X1134188Y956243D01*
X1134188Y957193D02*
X1143188Y957193D01*
X1143188Y958143D02*
X1134188Y958143D01*
X1134188Y959093D02*
X1143188Y959093D01*
X1143188Y960043D02*
X1134188Y960043D01*
X1134188Y960993D02*
X1143188Y960993D01*
X1143188Y961943D02*
X1134188Y961943D01*
X1134188Y962893D02*
X1143188Y962893D01*
X1143188Y963843D02*
X1134188Y963843D01*
X1134188Y964793D02*
X1143188Y964793D01*
X1143188Y965743D02*
X1134188Y965743D01*
X1134188Y949243D02*
X1134188Y939243D01*
X1134188Y949243D02*
X1143188Y949243D01*
X1143188Y939243D01*
X1134188Y939243D01*
X1134188Y940193D02*
X1143188Y940193D01*
X1143188Y941143D02*
X1134188Y941143D01*
X1134188Y942093D02*
X1143188Y942093D01*
X1143188Y943043D02*
X1134188Y943043D01*
X1134188Y943993D02*
X1143188Y943993D01*
X1143188Y944943D02*
X1134188Y944943D01*
X1134188Y945893D02*
X1143188Y945893D01*
X1143188Y946843D02*
X1134188Y946843D01*
X1134188Y947793D02*
X1143188Y947793D01*
X1143188Y948743D02*
X1134188Y948743D01*
X1154188Y996243D02*
X1154188Y1006243D01*
X1163188Y1006243D01*
X1163188Y996243D01*
X1154188Y996243D01*
X1154188Y997193D02*
X1163188Y997193D01*
X1163188Y998143D02*
X1154188Y998143D01*
X1154188Y999093D02*
X1163188Y999093D01*
X1163188Y1000043D02*
X1154188Y1000043D01*
X1154188Y1000993D02*
X1163188Y1000993D01*
X1163188Y1001943D02*
X1154188Y1001943D01*
X1154188Y1002893D02*
X1163188Y1002893D01*
X1163188Y1003843D02*
X1154188Y1003843D01*
X1154188Y1004793D02*
X1163188Y1004793D01*
X1163188Y1005743D02*
X1154188Y1005743D01*
X1154188Y989243D02*
X1154188Y979243D01*
X1154188Y989243D02*
X1163188Y989243D01*
X1163188Y979243D01*
X1154188Y979243D01*
X1154188Y980193D02*
X1163188Y980193D01*
X1163188Y981143D02*
X1154188Y981143D01*
X1154188Y982093D02*
X1163188Y982093D01*
X1163188Y983043D02*
X1154188Y983043D01*
X1154188Y983993D02*
X1163188Y983993D01*
X1163188Y984943D02*
X1154188Y984943D01*
X1154188Y985893D02*
X1163188Y985893D01*
X1163188Y986843D02*
X1154188Y986843D01*
X1154188Y987793D02*
X1163188Y987793D01*
X1163188Y988743D02*
X1154188Y988743D01*
X1134188Y996243D02*
X1134188Y1006243D01*
X1143188Y1006243D01*
X1143188Y996243D01*
X1134188Y996243D01*
X1134188Y997193D02*
X1143188Y997193D01*
X1143188Y998143D02*
X1134188Y998143D01*
X1134188Y999093D02*
X1143188Y999093D01*
X1143188Y1000043D02*
X1134188Y1000043D01*
X1134188Y1000993D02*
X1143188Y1000993D01*
X1143188Y1001943D02*
X1134188Y1001943D01*
X1134188Y1002893D02*
X1143188Y1002893D01*
X1143188Y1003843D02*
X1134188Y1003843D01*
X1134188Y1004793D02*
X1143188Y1004793D01*
X1143188Y1005743D02*
X1134188Y1005743D01*
X1134188Y989243D02*
X1134188Y979243D01*
X1134188Y989243D02*
X1143188Y989243D01*
X1143188Y979243D01*
X1134188Y979243D01*
X1134188Y980193D02*
X1143188Y980193D01*
X1143188Y981143D02*
X1134188Y981143D01*
X1134188Y982093D02*
X1143188Y982093D01*
X1143188Y983043D02*
X1134188Y983043D01*
X1134188Y983993D02*
X1143188Y983993D01*
X1143188Y984943D02*
X1134188Y984943D01*
X1134188Y985893D02*
X1143188Y985893D01*
X1143188Y986843D02*
X1134188Y986843D01*
X1134188Y987793D02*
X1143188Y987793D01*
X1143188Y988743D02*
X1134188Y988743D01*
X1154188Y966243D02*
X1154188Y956243D01*
X1154188Y966243D02*
X1163188Y966243D01*
X1163188Y956243D01*
X1154188Y956243D01*
X1154188Y957193D02*
X1163188Y957193D01*
X1163188Y958143D02*
X1154188Y958143D01*
X1154188Y959093D02*
X1163188Y959093D01*
X1163188Y960043D02*
X1154188Y960043D01*
X1154188Y960993D02*
X1163188Y960993D01*
X1163188Y961943D02*
X1154188Y961943D01*
X1154188Y962893D02*
X1163188Y962893D01*
X1163188Y963843D02*
X1154188Y963843D01*
X1154188Y964793D02*
X1163188Y964793D01*
X1163188Y965743D02*
X1154188Y965743D01*
X1154188Y949243D02*
X1154188Y939243D01*
X1154188Y949243D02*
X1163188Y949243D01*
X1163188Y939243D01*
X1154188Y939243D01*
X1154188Y940193D02*
X1163188Y940193D01*
X1163188Y941143D02*
X1154188Y941143D01*
X1154188Y942093D02*
X1163188Y942093D01*
X1163188Y943043D02*
X1154188Y943043D01*
X1154188Y943993D02*
X1163188Y943993D01*
X1163188Y944943D02*
X1154188Y944943D01*
X1154188Y945893D02*
X1163188Y945893D01*
X1163188Y946843D02*
X1154188Y946843D01*
X1154188Y947793D02*
X1163188Y947793D01*
X1163188Y948743D02*
X1154188Y948743D01*
X865188Y958243D02*
X855188Y958243D01*
X855188Y967243D01*
X865188Y967243D01*
X865188Y958243D01*
X865188Y959193D02*
X855188Y959193D01*
X855188Y960143D02*
X865188Y960143D01*
X865188Y961093D02*
X855188Y961093D01*
X855188Y962043D02*
X865188Y962043D01*
X865188Y962993D02*
X855188Y962993D01*
X855188Y963943D02*
X865188Y963943D01*
X865188Y964893D02*
X855188Y964893D01*
X855188Y965843D02*
X865188Y965843D01*
X865188Y966793D02*
X855188Y966793D01*
X872188Y958243D02*
X882188Y958243D01*
X872188Y958243D02*
X872188Y967243D01*
X882188Y967243D01*
X882188Y958243D01*
X882188Y959193D02*
X872188Y959193D01*
X872188Y960143D02*
X882188Y960143D01*
X882188Y961093D02*
X872188Y961093D01*
X872188Y962043D02*
X882188Y962043D01*
X882188Y962993D02*
X872188Y962993D01*
X872188Y963943D02*
X882188Y963943D01*
X882188Y964893D02*
X872188Y964893D01*
X872188Y965843D02*
X882188Y965843D01*
X882188Y966793D02*
X872188Y966793D01*
D11*
X891198Y929683D02*
X891198Y924703D01*
X891198Y929683D02*
X902178Y929683D01*
X902178Y924703D01*
X891198Y924703D01*
X891198Y925672D02*
X902178Y925672D01*
X902178Y926641D02*
X891198Y926641D01*
X891198Y927610D02*
X902178Y927610D01*
X902178Y928579D02*
X891198Y928579D01*
X891198Y929548D02*
X902178Y929548D01*
X891198Y916983D02*
X891198Y912003D01*
X891198Y916983D02*
X902178Y916983D01*
X902178Y912003D01*
X891198Y912003D01*
X891198Y912972D02*
X902178Y912972D01*
X902178Y913941D02*
X891198Y913941D01*
X891198Y914910D02*
X902178Y914910D01*
X902178Y915879D02*
X891198Y915879D01*
X891198Y916848D02*
X902178Y916848D01*
X891198Y904283D02*
X891198Y899303D01*
X891198Y904283D02*
X902178Y904283D01*
X902178Y899303D01*
X891198Y899303D01*
X891198Y900272D02*
X902178Y900272D01*
X902178Y901241D02*
X891198Y901241D01*
X891198Y902210D02*
X902178Y902210D01*
X902178Y903179D02*
X891198Y903179D01*
X891198Y904148D02*
X902178Y904148D01*
X891198Y891583D02*
X891198Y886603D01*
X891198Y891583D02*
X902178Y891583D01*
X902178Y886603D01*
X891198Y886603D01*
X891198Y887572D02*
X902178Y887572D01*
X902178Y888541D02*
X891198Y888541D01*
X891198Y889510D02*
X902178Y889510D01*
X902178Y890479D02*
X891198Y890479D01*
X891198Y891448D02*
X902178Y891448D01*
X891198Y878883D02*
X891198Y873903D01*
X891198Y878883D02*
X902178Y878883D01*
X902178Y873903D01*
X891198Y873903D01*
X891198Y874872D02*
X902178Y874872D01*
X902178Y875841D02*
X891198Y875841D01*
X891198Y876810D02*
X902178Y876810D01*
X902178Y877779D02*
X891198Y877779D01*
X891198Y878748D02*
X902178Y878748D01*
X891198Y866183D02*
X891198Y861203D01*
X891198Y866183D02*
X902178Y866183D01*
X902178Y861203D01*
X891198Y861203D01*
X891198Y862172D02*
X902178Y862172D01*
X902178Y863141D02*
X891198Y863141D01*
X891198Y864110D02*
X902178Y864110D01*
X902178Y865079D02*
X891198Y865079D01*
X891198Y866048D02*
X902178Y866048D01*
X891198Y853483D02*
X891198Y848503D01*
X891198Y853483D02*
X902178Y853483D01*
X902178Y848503D01*
X891198Y848503D01*
X891198Y849472D02*
X902178Y849472D01*
X902178Y850441D02*
X891198Y850441D01*
X891198Y851410D02*
X902178Y851410D01*
X902178Y852379D02*
X891198Y852379D01*
X891198Y853348D02*
X902178Y853348D01*
X891198Y840783D02*
X891198Y835803D01*
X891198Y840783D02*
X902178Y840783D01*
X902178Y835803D01*
X891198Y835803D01*
X891198Y836772D02*
X902178Y836772D01*
X902178Y837741D02*
X891198Y837741D01*
X891198Y838710D02*
X902178Y838710D01*
X902178Y839679D02*
X891198Y839679D01*
X891198Y840648D02*
X902178Y840648D01*
X835198Y840783D02*
X835198Y835803D01*
X835198Y840783D02*
X846178Y840783D01*
X846178Y835803D01*
X835198Y835803D01*
X835198Y836772D02*
X846178Y836772D01*
X846178Y837741D02*
X835198Y837741D01*
X835198Y838710D02*
X846178Y838710D01*
X846178Y839679D02*
X835198Y839679D01*
X835198Y840648D02*
X846178Y840648D01*
X835198Y848503D02*
X835198Y853483D01*
X846178Y853483D01*
X846178Y848503D01*
X835198Y848503D01*
X835198Y849472D02*
X846178Y849472D01*
X846178Y850441D02*
X835198Y850441D01*
X835198Y851410D02*
X846178Y851410D01*
X846178Y852379D02*
X835198Y852379D01*
X835198Y853348D02*
X846178Y853348D01*
X835198Y861203D02*
X835198Y866183D01*
X846178Y866183D01*
X846178Y861203D01*
X835198Y861203D01*
X835198Y862172D02*
X846178Y862172D01*
X846178Y863141D02*
X835198Y863141D01*
X835198Y864110D02*
X846178Y864110D01*
X846178Y865079D02*
X835198Y865079D01*
X835198Y866048D02*
X846178Y866048D01*
X835198Y873903D02*
X835198Y878883D01*
X846178Y878883D01*
X846178Y873903D01*
X835198Y873903D01*
X835198Y874872D02*
X846178Y874872D01*
X846178Y875841D02*
X835198Y875841D01*
X835198Y876810D02*
X846178Y876810D01*
X846178Y877779D02*
X835198Y877779D01*
X835198Y878748D02*
X846178Y878748D01*
X835198Y886603D02*
X835198Y891583D01*
X846178Y891583D01*
X846178Y886603D01*
X835198Y886603D01*
X835198Y887572D02*
X846178Y887572D01*
X846178Y888541D02*
X835198Y888541D01*
X835198Y889510D02*
X846178Y889510D01*
X846178Y890479D02*
X835198Y890479D01*
X835198Y891448D02*
X846178Y891448D01*
X835198Y899303D02*
X835198Y904283D01*
X846178Y904283D01*
X846178Y899303D01*
X835198Y899303D01*
X835198Y900272D02*
X846178Y900272D01*
X846178Y901241D02*
X835198Y901241D01*
X835198Y902210D02*
X846178Y902210D01*
X846178Y903179D02*
X835198Y903179D01*
X835198Y904148D02*
X846178Y904148D01*
X835198Y912003D02*
X835198Y916983D01*
X846178Y916983D01*
X846178Y912003D01*
X835198Y912003D01*
X835198Y912972D02*
X846178Y912972D01*
X846178Y913941D02*
X835198Y913941D01*
X835198Y914910D02*
X846178Y914910D01*
X846178Y915879D02*
X835198Y915879D01*
X835198Y916848D02*
X846178Y916848D01*
X835198Y924703D02*
X835198Y929683D01*
X846178Y929683D01*
X846178Y924703D01*
X835198Y924703D01*
X835198Y925672D02*
X846178Y925672D01*
X846178Y926641D02*
X835198Y926641D01*
X835198Y927610D02*
X846178Y927610D01*
X846178Y928579D02*
X835198Y928579D01*
X835198Y929548D02*
X846178Y929548D01*
D12*
X805188Y848243D02*
X795188Y848243D01*
X795188Y857243D01*
X805188Y857243D01*
X805188Y848243D01*
X805188Y849193D02*
X795188Y849193D01*
X795188Y850143D02*
X805188Y850143D01*
X805188Y851093D02*
X795188Y851093D01*
X795188Y852043D02*
X805188Y852043D01*
X805188Y852993D02*
X795188Y852993D01*
X795188Y853943D02*
X805188Y853943D01*
X805188Y854893D02*
X795188Y854893D01*
X795188Y855843D02*
X805188Y855843D01*
X805188Y856793D02*
X795188Y856793D01*
X812188Y848243D02*
X822188Y848243D01*
X812188Y848243D02*
X812188Y857243D01*
X822188Y857243D01*
X822188Y848243D01*
X822188Y849193D02*
X812188Y849193D01*
X812188Y850143D02*
X822188Y850143D01*
X822188Y851093D02*
X812188Y851093D01*
X812188Y852043D02*
X822188Y852043D01*
X822188Y852993D02*
X812188Y852993D01*
X812188Y853943D02*
X822188Y853943D01*
X822188Y854893D02*
X812188Y854893D01*
X812188Y855843D02*
X822188Y855843D01*
X822188Y856793D02*
X812188Y856793D01*
X812188Y917243D02*
X822188Y917243D01*
X822188Y908243D01*
X812188Y908243D01*
X812188Y917243D01*
X812188Y909193D02*
X822188Y909193D01*
X822188Y910143D02*
X812188Y910143D01*
X812188Y911093D02*
X822188Y911093D01*
X822188Y912043D02*
X812188Y912043D01*
X812188Y912993D02*
X822188Y912993D01*
X822188Y913943D02*
X812188Y913943D01*
X812188Y914893D02*
X822188Y914893D01*
X822188Y915843D02*
X812188Y915843D01*
X812188Y916793D02*
X822188Y916793D01*
X805188Y917243D02*
X795188Y917243D01*
X805188Y917243D02*
X805188Y908243D01*
X795188Y908243D01*
X795188Y917243D01*
X795188Y909193D02*
X805188Y909193D01*
X805188Y910143D02*
X795188Y910143D01*
X795188Y911093D02*
X805188Y911093D01*
X805188Y912043D02*
X795188Y912043D01*
X795188Y912993D02*
X805188Y912993D01*
X805188Y913943D02*
X795188Y913943D01*
X795188Y914893D02*
X805188Y914893D01*
X805188Y915843D02*
X795188Y915843D01*
X795188Y916793D02*
X805188Y916793D01*
D11*
X820678Y890233D02*
X820678Y888253D01*
X815098Y888253D01*
X815098Y890233D01*
X820678Y890233D01*
X820678Y889222D02*
X815098Y889222D01*
X815098Y890191D02*
X820678Y890191D01*
X796698Y883733D02*
X796698Y881753D01*
X796698Y883733D02*
X802278Y883733D01*
X802278Y881753D01*
X796698Y881753D01*
X796698Y882722D02*
X802278Y882722D01*
X802278Y883691D02*
X796698Y883691D01*
X796698Y877233D02*
X796698Y875253D01*
X796698Y877233D02*
X802278Y877233D01*
X802278Y875253D01*
X796698Y875253D01*
X796698Y876222D02*
X802278Y876222D01*
X802278Y877191D02*
X796698Y877191D01*
X796698Y888253D02*
X796698Y890233D01*
X802278Y890233D01*
X802278Y888253D01*
X796698Y888253D01*
X796698Y889222D02*
X802278Y889222D01*
X802278Y890191D02*
X796698Y890191D01*
X820678Y883733D02*
X820678Y881753D01*
X815098Y881753D01*
X815098Y883733D01*
X820678Y883733D01*
X820678Y882722D02*
X815098Y882722D01*
X815098Y883691D02*
X820678Y883691D01*
X820678Y877233D02*
X820678Y875253D01*
X815098Y875253D01*
X815098Y877233D01*
X820678Y877233D01*
X820678Y876222D02*
X815098Y876222D01*
X815098Y877191D02*
X820678Y877191D01*
D12*
X855188Y938243D02*
X865188Y938243D01*
X855188Y938243D02*
X855188Y947243D01*
X865188Y947243D01*
X865188Y938243D01*
X865188Y939193D02*
X855188Y939193D01*
X855188Y940143D02*
X865188Y940143D01*
X865188Y941093D02*
X855188Y941093D01*
X855188Y942043D02*
X865188Y942043D01*
X865188Y942993D02*
X855188Y942993D01*
X855188Y943943D02*
X865188Y943943D01*
X865188Y944893D02*
X855188Y944893D01*
X855188Y945843D02*
X865188Y945843D01*
X865188Y946793D02*
X855188Y946793D01*
X872188Y938243D02*
X882188Y938243D01*
X872188Y938243D02*
X872188Y947243D01*
X882188Y947243D01*
X882188Y938243D01*
X882188Y939193D02*
X872188Y939193D01*
X872188Y940143D02*
X882188Y940143D01*
X882188Y941093D02*
X872188Y941093D01*
X872188Y942043D02*
X882188Y942043D01*
X882188Y942993D02*
X872188Y942993D01*
X872188Y943943D02*
X882188Y943943D01*
X882188Y944893D02*
X872188Y944893D01*
X872188Y945843D02*
X882188Y945843D01*
X882188Y946793D02*
X872188Y946793D01*
X1135188Y898243D02*
X1145188Y898243D01*
X1135188Y898243D02*
X1135188Y907243D01*
X1145188Y907243D01*
X1145188Y898243D01*
X1145188Y899193D02*
X1135188Y899193D01*
X1135188Y900143D02*
X1145188Y900143D01*
X1145188Y901093D02*
X1135188Y901093D01*
X1135188Y902043D02*
X1145188Y902043D01*
X1145188Y902993D02*
X1135188Y902993D01*
X1135188Y903943D02*
X1145188Y903943D01*
X1145188Y904893D02*
X1135188Y904893D01*
X1135188Y905843D02*
X1145188Y905843D01*
X1145188Y906793D02*
X1135188Y906793D01*
X1152188Y898243D02*
X1162188Y898243D01*
X1152188Y898243D02*
X1152188Y907243D01*
X1162188Y907243D01*
X1162188Y898243D01*
X1162188Y899193D02*
X1152188Y899193D01*
X1152188Y900143D02*
X1162188Y900143D01*
X1162188Y901093D02*
X1152188Y901093D01*
X1152188Y902043D02*
X1162188Y902043D01*
X1162188Y902993D02*
X1152188Y902993D01*
X1152188Y903943D02*
X1162188Y903943D01*
X1162188Y904893D02*
X1152188Y904893D01*
X1152188Y905843D02*
X1162188Y905843D01*
X1162188Y906793D02*
X1152188Y906793D01*
X1262188Y1007243D02*
X1272188Y1007243D01*
X1272188Y998243D01*
X1262188Y998243D01*
X1262188Y1007243D01*
X1262188Y999193D02*
X1272188Y999193D01*
X1272188Y1000143D02*
X1262188Y1000143D01*
X1262188Y1001093D02*
X1272188Y1001093D01*
X1272188Y1002043D02*
X1262188Y1002043D01*
X1262188Y1002993D02*
X1272188Y1002993D01*
X1272188Y1003943D02*
X1262188Y1003943D01*
X1262188Y1004893D02*
X1272188Y1004893D01*
X1272188Y1005843D02*
X1262188Y1005843D01*
X1262188Y1006793D02*
X1272188Y1006793D01*
X1255188Y1007243D02*
X1245188Y1007243D01*
X1255188Y1007243D02*
X1255188Y998243D01*
X1245188Y998243D01*
X1245188Y1007243D01*
X1245188Y999193D02*
X1255188Y999193D01*
X1255188Y1000143D02*
X1245188Y1000143D01*
X1245188Y1001093D02*
X1255188Y1001093D01*
X1255188Y1002043D02*
X1245188Y1002043D01*
X1245188Y1002993D02*
X1255188Y1002993D01*
X1255188Y1003943D02*
X1245188Y1003943D01*
X1245188Y1004893D02*
X1255188Y1004893D01*
X1255188Y1005843D02*
X1245188Y1005843D01*
X1245188Y1006793D02*
X1255188Y1006793D01*
D14*
X848688Y998748D03*
X853688Y998748D03*
X858688Y998748D03*
X843688Y998748D03*
X838688Y998748D03*
X838688Y1026738D03*
X843688Y1026738D03*
X848688Y1026738D03*
X853688Y1026738D03*
X858688Y1026738D03*
D15*
X848688Y1012743D03*
D12*
X812188Y1057243D02*
X802188Y1057243D01*
X812188Y1057243D02*
X812188Y1048243D01*
X802188Y1048243D01*
X802188Y1057243D01*
X802188Y1049193D02*
X812188Y1049193D01*
X812188Y1050143D02*
X802188Y1050143D01*
X802188Y1051093D02*
X812188Y1051093D01*
X812188Y1052043D02*
X802188Y1052043D01*
X802188Y1052993D02*
X812188Y1052993D01*
X812188Y1053943D02*
X802188Y1053943D01*
X802188Y1054893D02*
X812188Y1054893D01*
X812188Y1055843D02*
X802188Y1055843D01*
X802188Y1056793D02*
X812188Y1056793D01*
X795188Y1057243D02*
X785188Y1057243D01*
X795188Y1057243D02*
X795188Y1048243D01*
X785188Y1048243D01*
X785188Y1057243D01*
X785188Y1049193D02*
X795188Y1049193D01*
X795188Y1050143D02*
X785188Y1050143D01*
X785188Y1051093D02*
X795188Y1051093D01*
X795188Y1052043D02*
X785188Y1052043D01*
X785188Y1052993D02*
X795188Y1052993D01*
X795188Y1053943D02*
X785188Y1053943D01*
X785188Y1054893D02*
X795188Y1054893D01*
X795188Y1055843D02*
X785188Y1055843D01*
X785188Y1056793D02*
X795188Y1056793D01*
X802188Y1037243D02*
X812188Y1037243D01*
X812188Y1028243D01*
X802188Y1028243D01*
X802188Y1037243D01*
X802188Y1029193D02*
X812188Y1029193D01*
X812188Y1030143D02*
X802188Y1030143D01*
X802188Y1031093D02*
X812188Y1031093D01*
X812188Y1032043D02*
X802188Y1032043D01*
X802188Y1032993D02*
X812188Y1032993D01*
X812188Y1033943D02*
X802188Y1033943D01*
X802188Y1034893D02*
X812188Y1034893D01*
X812188Y1035843D02*
X802188Y1035843D01*
X802188Y1036793D02*
X812188Y1036793D01*
X795188Y1037243D02*
X785188Y1037243D01*
X795188Y1037243D02*
X795188Y1028243D01*
X785188Y1028243D01*
X785188Y1037243D01*
X785188Y1029193D02*
X795188Y1029193D01*
X795188Y1030143D02*
X785188Y1030143D01*
X785188Y1031093D02*
X795188Y1031093D01*
X795188Y1032043D02*
X785188Y1032043D01*
X785188Y1032993D02*
X795188Y1032993D01*
X795188Y1033943D02*
X785188Y1033943D01*
X785188Y1034893D02*
X795188Y1034893D01*
X795188Y1035843D02*
X785188Y1035843D01*
X785188Y1036793D02*
X795188Y1036793D01*
X802188Y1077243D02*
X812188Y1077243D01*
X812188Y1068243D01*
X802188Y1068243D01*
X802188Y1077243D01*
X802188Y1069193D02*
X812188Y1069193D01*
X812188Y1070143D02*
X802188Y1070143D01*
X802188Y1071093D02*
X812188Y1071093D01*
X812188Y1072043D02*
X802188Y1072043D01*
X802188Y1072993D02*
X812188Y1072993D01*
X812188Y1073943D02*
X802188Y1073943D01*
X802188Y1074893D02*
X812188Y1074893D01*
X812188Y1075843D02*
X802188Y1075843D01*
X802188Y1076793D02*
X812188Y1076793D01*
X795188Y1077243D02*
X785188Y1077243D01*
X795188Y1077243D02*
X795188Y1068243D01*
X785188Y1068243D01*
X785188Y1077243D01*
X785188Y1069193D02*
X795188Y1069193D01*
X795188Y1070143D02*
X785188Y1070143D01*
X785188Y1071093D02*
X795188Y1071093D01*
X795188Y1072043D02*
X785188Y1072043D01*
X785188Y1072993D02*
X795188Y1072993D01*
X795188Y1073943D02*
X785188Y1073943D01*
X785188Y1074893D02*
X795188Y1074893D01*
X795188Y1075843D02*
X785188Y1075843D01*
X785188Y1076793D02*
X795188Y1076793D01*
X1135188Y868243D02*
X1145188Y868243D01*
X1135188Y868243D02*
X1135188Y877243D01*
X1145188Y877243D01*
X1145188Y868243D01*
X1145188Y869193D02*
X1135188Y869193D01*
X1135188Y870143D02*
X1145188Y870143D01*
X1145188Y871093D02*
X1135188Y871093D01*
X1135188Y872043D02*
X1145188Y872043D01*
X1145188Y872993D02*
X1135188Y872993D01*
X1135188Y873943D02*
X1145188Y873943D01*
X1145188Y874893D02*
X1135188Y874893D01*
X1135188Y875843D02*
X1145188Y875843D01*
X1145188Y876793D02*
X1135188Y876793D01*
X1152188Y868243D02*
X1162188Y868243D01*
X1152188Y868243D02*
X1152188Y877243D01*
X1162188Y877243D01*
X1162188Y868243D01*
X1162188Y869193D02*
X1152188Y869193D01*
X1152188Y870143D02*
X1162188Y870143D01*
X1162188Y871093D02*
X1152188Y871093D01*
X1152188Y872043D02*
X1162188Y872043D01*
X1162188Y872993D02*
X1152188Y872993D01*
X1152188Y873943D02*
X1162188Y873943D01*
X1162188Y874893D02*
X1152188Y874893D01*
X1152188Y875843D02*
X1162188Y875843D01*
X1162188Y876793D02*
X1152188Y876793D01*
D16*
X1118073Y1013038D02*
X1118073Y1021048D01*
X1118073Y1013038D02*
X1104063Y1013038D01*
X1104063Y1021048D01*
X1118073Y1021048D01*
X1118073Y1013978D02*
X1104063Y1013978D01*
X1104063Y1014918D02*
X1118073Y1014918D01*
X1118073Y1015858D02*
X1104063Y1015858D01*
X1104063Y1016798D02*
X1118073Y1016798D01*
X1118073Y1017738D02*
X1104063Y1017738D01*
X1104063Y1018678D02*
X1118073Y1018678D01*
X1118073Y1019618D02*
X1104063Y1019618D01*
X1104063Y1020558D02*
X1118073Y1020558D01*
X1118073Y1008348D02*
X1118073Y1000338D01*
X1104063Y1000338D01*
X1104063Y1008348D01*
X1118073Y1008348D01*
X1118073Y1001278D02*
X1104063Y1001278D01*
X1104063Y1002218D02*
X1118073Y1002218D01*
X1118073Y1003158D02*
X1104063Y1003158D01*
X1104063Y1004098D02*
X1118073Y1004098D01*
X1118073Y1005038D02*
X1104063Y1005038D01*
X1104063Y1005978D02*
X1118073Y1005978D01*
X1118073Y1006918D02*
X1104063Y1006918D01*
X1104063Y1007858D02*
X1118073Y1007858D01*
X1118073Y995648D02*
X1118073Y987638D01*
X1104063Y987638D01*
X1104063Y995648D01*
X1118073Y995648D01*
X1118073Y988578D02*
X1104063Y988578D01*
X1104063Y989518D02*
X1118073Y989518D01*
X1118073Y990458D02*
X1104063Y990458D01*
X1104063Y991398D02*
X1118073Y991398D01*
X1118073Y992338D02*
X1104063Y992338D01*
X1104063Y993278D02*
X1118073Y993278D01*
X1118073Y994218D02*
X1104063Y994218D01*
X1104063Y995158D02*
X1118073Y995158D01*
X1118073Y982948D02*
X1118073Y974938D01*
X1104063Y974938D01*
X1104063Y982948D01*
X1118073Y982948D01*
X1118073Y975878D02*
X1104063Y975878D01*
X1104063Y976818D02*
X1118073Y976818D01*
X1118073Y977758D02*
X1104063Y977758D01*
X1104063Y978698D02*
X1118073Y978698D01*
X1118073Y979638D02*
X1104063Y979638D01*
X1104063Y980578D02*
X1118073Y980578D01*
X1118073Y981518D02*
X1104063Y981518D01*
X1104063Y982458D02*
X1118073Y982458D01*
X1118073Y970248D02*
X1118073Y962238D01*
X1104063Y962238D01*
X1104063Y970248D01*
X1118073Y970248D01*
X1118073Y963178D02*
X1104063Y963178D01*
X1104063Y964118D02*
X1118073Y964118D01*
X1118073Y965058D02*
X1104063Y965058D01*
X1104063Y965998D02*
X1118073Y965998D01*
X1118073Y966938D02*
X1104063Y966938D01*
X1104063Y967878D02*
X1118073Y967878D01*
X1118073Y968818D02*
X1104063Y968818D01*
X1104063Y969758D02*
X1118073Y969758D01*
X1118073Y957548D02*
X1118073Y949538D01*
X1104063Y949538D01*
X1104063Y957548D01*
X1118073Y957548D01*
X1118073Y950478D02*
X1104063Y950478D01*
X1104063Y951418D02*
X1118073Y951418D01*
X1118073Y952358D02*
X1104063Y952358D01*
X1104063Y953298D02*
X1118073Y953298D01*
X1118073Y954238D02*
X1104063Y954238D01*
X1104063Y955178D02*
X1118073Y955178D01*
X1118073Y956118D02*
X1104063Y956118D01*
X1104063Y957058D02*
X1118073Y957058D01*
X1118073Y944848D02*
X1118073Y936838D01*
X1104063Y936838D01*
X1104063Y944848D01*
X1118073Y944848D01*
X1118073Y937778D02*
X1104063Y937778D01*
X1104063Y938718D02*
X1118073Y938718D01*
X1118073Y939658D02*
X1104063Y939658D01*
X1104063Y940598D02*
X1118073Y940598D01*
X1118073Y941538D02*
X1104063Y941538D01*
X1104063Y942478D02*
X1118073Y942478D01*
X1118073Y943418D02*
X1104063Y943418D01*
X1104063Y944358D02*
X1118073Y944358D01*
X1118073Y932148D02*
X1118073Y924138D01*
X1104063Y924138D01*
X1104063Y932148D01*
X1118073Y932148D01*
X1118073Y925078D02*
X1104063Y925078D01*
X1104063Y926018D02*
X1118073Y926018D01*
X1118073Y926958D02*
X1104063Y926958D01*
X1104063Y927898D02*
X1118073Y927898D01*
X1118073Y928838D02*
X1104063Y928838D01*
X1104063Y929778D02*
X1118073Y929778D01*
X1118073Y930718D02*
X1104063Y930718D01*
X1104063Y931658D02*
X1118073Y931658D01*
X1118073Y919448D02*
X1118073Y911438D01*
X1104063Y911438D01*
X1104063Y919448D01*
X1118073Y919448D01*
X1118073Y912378D02*
X1104063Y912378D01*
X1104063Y913318D02*
X1118073Y913318D01*
X1118073Y914258D02*
X1104063Y914258D01*
X1104063Y915198D02*
X1118073Y915198D01*
X1118073Y916138D02*
X1104063Y916138D01*
X1104063Y917078D02*
X1118073Y917078D01*
X1118073Y918018D02*
X1104063Y918018D01*
X1104063Y918958D02*
X1118073Y918958D01*
X1118073Y906748D02*
X1118073Y898738D01*
X1104063Y898738D01*
X1104063Y906748D01*
X1118073Y906748D01*
X1118073Y899678D02*
X1104063Y899678D01*
X1104063Y900618D02*
X1118073Y900618D01*
X1118073Y901558D02*
X1104063Y901558D01*
X1104063Y902498D02*
X1118073Y902498D01*
X1118073Y903438D02*
X1104063Y903438D01*
X1104063Y904378D02*
X1118073Y904378D01*
X1118073Y905318D02*
X1104063Y905318D01*
X1104063Y906258D02*
X1118073Y906258D01*
X1118073Y894048D02*
X1118073Y886038D01*
X1104063Y886038D01*
X1104063Y894048D01*
X1118073Y894048D01*
X1118073Y886978D02*
X1104063Y886978D01*
X1104063Y887918D02*
X1118073Y887918D01*
X1118073Y888858D02*
X1104063Y888858D01*
X1104063Y889798D02*
X1118073Y889798D01*
X1118073Y890738D02*
X1104063Y890738D01*
X1104063Y891678D02*
X1118073Y891678D01*
X1118073Y892618D02*
X1104063Y892618D01*
X1104063Y893558D02*
X1118073Y893558D01*
X1118073Y881348D02*
X1118073Y873338D01*
X1104063Y873338D01*
X1104063Y881348D01*
X1118073Y881348D01*
X1118073Y874278D02*
X1104063Y874278D01*
X1104063Y875218D02*
X1118073Y875218D01*
X1118073Y876158D02*
X1104063Y876158D01*
X1104063Y877098D02*
X1118073Y877098D01*
X1118073Y878038D02*
X1104063Y878038D01*
X1104063Y878978D02*
X1118073Y878978D01*
X1118073Y879918D02*
X1104063Y879918D01*
X1104063Y880858D02*
X1118073Y880858D01*
X1118073Y868648D02*
X1118073Y860638D01*
X1104063Y860638D01*
X1104063Y868648D01*
X1118073Y868648D01*
X1118073Y861578D02*
X1104063Y861578D01*
X1104063Y862518D02*
X1118073Y862518D01*
X1118073Y863458D02*
X1104063Y863458D01*
X1104063Y864398D02*
X1118073Y864398D01*
X1118073Y865338D02*
X1104063Y865338D01*
X1104063Y866278D02*
X1118073Y866278D01*
X1118073Y867218D02*
X1104063Y867218D01*
X1104063Y868158D02*
X1118073Y868158D01*
X1118073Y855948D02*
X1118073Y847938D01*
X1104063Y847938D01*
X1104063Y855948D01*
X1118073Y855948D01*
X1118073Y848878D02*
X1104063Y848878D01*
X1104063Y849818D02*
X1118073Y849818D01*
X1118073Y850758D02*
X1104063Y850758D01*
X1104063Y851698D02*
X1118073Y851698D01*
X1118073Y852638D02*
X1104063Y852638D01*
X1104063Y853578D02*
X1118073Y853578D01*
X1118073Y854518D02*
X1104063Y854518D01*
X1104063Y855458D02*
X1118073Y855458D01*
X1089843Y830038D02*
X1081833Y830038D01*
X1081833Y844048D01*
X1089843Y844048D01*
X1089843Y830038D01*
X1089843Y830978D02*
X1081833Y830978D01*
X1081833Y831918D02*
X1089843Y831918D01*
X1089843Y832858D02*
X1081833Y832858D01*
X1081833Y833798D02*
X1089843Y833798D01*
X1089843Y834738D02*
X1081833Y834738D01*
X1081833Y835678D02*
X1089843Y835678D01*
X1089843Y836618D02*
X1081833Y836618D01*
X1081833Y837558D02*
X1089843Y837558D01*
X1089843Y838498D02*
X1081833Y838498D01*
X1081833Y839438D02*
X1089843Y839438D01*
X1089843Y840378D02*
X1081833Y840378D01*
X1081833Y841318D02*
X1089843Y841318D01*
X1089843Y842258D02*
X1081833Y842258D01*
X1081833Y843198D02*
X1089843Y843198D01*
X1077143Y830038D02*
X1069133Y830038D01*
X1069133Y844048D01*
X1077143Y844048D01*
X1077143Y830038D01*
X1077143Y830978D02*
X1069133Y830978D01*
X1069133Y831918D02*
X1077143Y831918D01*
X1077143Y832858D02*
X1069133Y832858D01*
X1069133Y833798D02*
X1077143Y833798D01*
X1077143Y834738D02*
X1069133Y834738D01*
X1069133Y835678D02*
X1077143Y835678D01*
X1077143Y836618D02*
X1069133Y836618D01*
X1069133Y837558D02*
X1077143Y837558D01*
X1077143Y838498D02*
X1069133Y838498D01*
X1069133Y839438D02*
X1077143Y839438D01*
X1077143Y840378D02*
X1069133Y840378D01*
X1069133Y841318D02*
X1077143Y841318D01*
X1077143Y842258D02*
X1069133Y842258D01*
X1069133Y843198D02*
X1077143Y843198D01*
X1064443Y830038D02*
X1056433Y830038D01*
X1056433Y844048D01*
X1064443Y844048D01*
X1064443Y830038D01*
X1064443Y830978D02*
X1056433Y830978D01*
X1056433Y831918D02*
X1064443Y831918D01*
X1064443Y832858D02*
X1056433Y832858D01*
X1056433Y833798D02*
X1064443Y833798D01*
X1064443Y834738D02*
X1056433Y834738D01*
X1056433Y835678D02*
X1064443Y835678D01*
X1064443Y836618D02*
X1056433Y836618D01*
X1056433Y837558D02*
X1064443Y837558D01*
X1064443Y838498D02*
X1056433Y838498D01*
X1056433Y839438D02*
X1064443Y839438D01*
X1064443Y840378D02*
X1056433Y840378D01*
X1056433Y841318D02*
X1064443Y841318D01*
X1064443Y842258D02*
X1056433Y842258D01*
X1056433Y843198D02*
X1064443Y843198D01*
X1051743Y830038D02*
X1043733Y830038D01*
X1043733Y844048D01*
X1051743Y844048D01*
X1051743Y830038D01*
X1051743Y830978D02*
X1043733Y830978D01*
X1043733Y831918D02*
X1051743Y831918D01*
X1051743Y832858D02*
X1043733Y832858D01*
X1043733Y833798D02*
X1051743Y833798D01*
X1051743Y834738D02*
X1043733Y834738D01*
X1043733Y835678D02*
X1051743Y835678D01*
X1051743Y836618D02*
X1043733Y836618D01*
X1043733Y837558D02*
X1051743Y837558D01*
X1051743Y838498D02*
X1043733Y838498D01*
X1043733Y839438D02*
X1051743Y839438D01*
X1051743Y840378D02*
X1043733Y840378D01*
X1043733Y841318D02*
X1051743Y841318D01*
X1051743Y842258D02*
X1043733Y842258D01*
X1043733Y843198D02*
X1051743Y843198D01*
X1039043Y830038D02*
X1031033Y830038D01*
X1031033Y844048D01*
X1039043Y844048D01*
X1039043Y830038D01*
X1039043Y830978D02*
X1031033Y830978D01*
X1031033Y831918D02*
X1039043Y831918D01*
X1039043Y832858D02*
X1031033Y832858D01*
X1031033Y833798D02*
X1039043Y833798D01*
X1039043Y834738D02*
X1031033Y834738D01*
X1031033Y835678D02*
X1039043Y835678D01*
X1039043Y836618D02*
X1031033Y836618D01*
X1031033Y837558D02*
X1039043Y837558D01*
X1039043Y838498D02*
X1031033Y838498D01*
X1031033Y839438D02*
X1039043Y839438D01*
X1039043Y840378D02*
X1031033Y840378D01*
X1031033Y841318D02*
X1039043Y841318D01*
X1039043Y842258D02*
X1031033Y842258D01*
X1031033Y843198D02*
X1039043Y843198D01*
X1026343Y830038D02*
X1018333Y830038D01*
X1018333Y844048D01*
X1026343Y844048D01*
X1026343Y830038D01*
X1026343Y830978D02*
X1018333Y830978D01*
X1018333Y831918D02*
X1026343Y831918D01*
X1026343Y832858D02*
X1018333Y832858D01*
X1018333Y833798D02*
X1026343Y833798D01*
X1026343Y834738D02*
X1018333Y834738D01*
X1018333Y835678D02*
X1026343Y835678D01*
X1026343Y836618D02*
X1018333Y836618D01*
X1018333Y837558D02*
X1026343Y837558D01*
X1026343Y838498D02*
X1018333Y838498D01*
X1018333Y839438D02*
X1026343Y839438D01*
X1026343Y840378D02*
X1018333Y840378D01*
X1018333Y841318D02*
X1026343Y841318D01*
X1026343Y842258D02*
X1018333Y842258D01*
X1018333Y843198D02*
X1026343Y843198D01*
X1013643Y830038D02*
X1005633Y830038D01*
X1005633Y844048D01*
X1013643Y844048D01*
X1013643Y830038D01*
X1013643Y830978D02*
X1005633Y830978D01*
X1005633Y831918D02*
X1013643Y831918D01*
X1013643Y832858D02*
X1005633Y832858D01*
X1005633Y833798D02*
X1013643Y833798D01*
X1013643Y834738D02*
X1005633Y834738D01*
X1005633Y835678D02*
X1013643Y835678D01*
X1013643Y836618D02*
X1005633Y836618D01*
X1005633Y837558D02*
X1013643Y837558D01*
X1013643Y838498D02*
X1005633Y838498D01*
X1005633Y839438D02*
X1013643Y839438D01*
X1013643Y840378D02*
X1005633Y840378D01*
X1005633Y841318D02*
X1013643Y841318D01*
X1013643Y842258D02*
X1005633Y842258D01*
X1005633Y843198D02*
X1013643Y843198D01*
X1000943Y830038D02*
X992933Y830038D01*
X992933Y844048D01*
X1000943Y844048D01*
X1000943Y830038D01*
X1000943Y830978D02*
X992933Y830978D01*
X992933Y831918D02*
X1000943Y831918D01*
X1000943Y832858D02*
X992933Y832858D01*
X992933Y833798D02*
X1000943Y833798D01*
X1000943Y834738D02*
X992933Y834738D01*
X992933Y835678D02*
X1000943Y835678D01*
X1000943Y836618D02*
X992933Y836618D01*
X992933Y837558D02*
X1000943Y837558D01*
X1000943Y838498D02*
X992933Y838498D01*
X992933Y839438D02*
X1000943Y839438D01*
X1000943Y840378D02*
X992933Y840378D01*
X992933Y841318D02*
X1000943Y841318D01*
X1000943Y842258D02*
X992933Y842258D01*
X992933Y843198D02*
X1000943Y843198D01*
X988243Y830038D02*
X980233Y830038D01*
X980233Y844048D01*
X988243Y844048D01*
X988243Y830038D01*
X988243Y830978D02*
X980233Y830978D01*
X980233Y831918D02*
X988243Y831918D01*
X988243Y832858D02*
X980233Y832858D01*
X980233Y833798D02*
X988243Y833798D01*
X988243Y834738D02*
X980233Y834738D01*
X980233Y835678D02*
X988243Y835678D01*
X988243Y836618D02*
X980233Y836618D01*
X980233Y837558D02*
X988243Y837558D01*
X988243Y838498D02*
X980233Y838498D01*
X980233Y839438D02*
X988243Y839438D01*
X988243Y840378D02*
X980233Y840378D01*
X980233Y841318D02*
X988243Y841318D01*
X988243Y842258D02*
X980233Y842258D01*
X980233Y843198D02*
X988243Y843198D01*
X975543Y830038D02*
X967533Y830038D01*
X967533Y844048D01*
X975543Y844048D01*
X975543Y830038D01*
X975543Y830978D02*
X967533Y830978D01*
X967533Y831918D02*
X975543Y831918D01*
X975543Y832858D02*
X967533Y832858D01*
X967533Y833798D02*
X975543Y833798D01*
X975543Y834738D02*
X967533Y834738D01*
X967533Y835678D02*
X975543Y835678D01*
X975543Y836618D02*
X967533Y836618D01*
X967533Y837558D02*
X975543Y837558D01*
X975543Y838498D02*
X967533Y838498D01*
X967533Y839438D02*
X975543Y839438D01*
X975543Y840378D02*
X967533Y840378D01*
X967533Y841318D02*
X975543Y841318D01*
X975543Y842258D02*
X967533Y842258D01*
X967533Y843198D02*
X975543Y843198D01*
X953313Y847938D02*
X953313Y855948D01*
X953313Y847938D02*
X939303Y847938D01*
X939303Y855948D01*
X953313Y855948D01*
X953313Y848878D02*
X939303Y848878D01*
X939303Y849818D02*
X953313Y849818D01*
X953313Y850758D02*
X939303Y850758D01*
X939303Y851698D02*
X953313Y851698D01*
X953313Y852638D02*
X939303Y852638D01*
X939303Y853578D02*
X953313Y853578D01*
X953313Y854518D02*
X939303Y854518D01*
X939303Y855458D02*
X953313Y855458D01*
X953313Y860638D02*
X953313Y868648D01*
X953313Y860638D02*
X939303Y860638D01*
X939303Y868648D01*
X953313Y868648D01*
X953313Y861578D02*
X939303Y861578D01*
X939303Y862518D02*
X953313Y862518D01*
X953313Y863458D02*
X939303Y863458D01*
X939303Y864398D02*
X953313Y864398D01*
X953313Y865338D02*
X939303Y865338D01*
X939303Y866278D02*
X953313Y866278D01*
X953313Y867218D02*
X939303Y867218D01*
X939303Y868158D02*
X953313Y868158D01*
X953313Y873338D02*
X953313Y881348D01*
X953313Y873338D02*
X939303Y873338D01*
X939303Y881348D01*
X953313Y881348D01*
X953313Y874278D02*
X939303Y874278D01*
X939303Y875218D02*
X953313Y875218D01*
X953313Y876158D02*
X939303Y876158D01*
X939303Y877098D02*
X953313Y877098D01*
X953313Y878038D02*
X939303Y878038D01*
X939303Y878978D02*
X953313Y878978D01*
X953313Y879918D02*
X939303Y879918D01*
X939303Y880858D02*
X953313Y880858D01*
X953313Y886038D02*
X953313Y894048D01*
X953313Y886038D02*
X939303Y886038D01*
X939303Y894048D01*
X953313Y894048D01*
X953313Y886978D02*
X939303Y886978D01*
X939303Y887918D02*
X953313Y887918D01*
X953313Y888858D02*
X939303Y888858D01*
X939303Y889798D02*
X953313Y889798D01*
X953313Y890738D02*
X939303Y890738D01*
X939303Y891678D02*
X953313Y891678D01*
X953313Y892618D02*
X939303Y892618D01*
X939303Y893558D02*
X953313Y893558D01*
X953313Y898738D02*
X953313Y906748D01*
X953313Y898738D02*
X939303Y898738D01*
X939303Y906748D01*
X953313Y906748D01*
X953313Y899678D02*
X939303Y899678D01*
X939303Y900618D02*
X953313Y900618D01*
X953313Y901558D02*
X939303Y901558D01*
X939303Y902498D02*
X953313Y902498D01*
X953313Y903438D02*
X939303Y903438D01*
X939303Y904378D02*
X953313Y904378D01*
X953313Y905318D02*
X939303Y905318D01*
X939303Y906258D02*
X953313Y906258D01*
X953313Y911438D02*
X953313Y919448D01*
X953313Y911438D02*
X939303Y911438D01*
X939303Y919448D01*
X953313Y919448D01*
X953313Y912378D02*
X939303Y912378D01*
X939303Y913318D02*
X953313Y913318D01*
X953313Y914258D02*
X939303Y914258D01*
X939303Y915198D02*
X953313Y915198D01*
X953313Y916138D02*
X939303Y916138D01*
X939303Y917078D02*
X953313Y917078D01*
X953313Y918018D02*
X939303Y918018D01*
X939303Y918958D02*
X953313Y918958D01*
X953313Y924138D02*
X953313Y932148D01*
X953313Y924138D02*
X939303Y924138D01*
X939303Y932148D01*
X953313Y932148D01*
X953313Y925078D02*
X939303Y925078D01*
X939303Y926018D02*
X953313Y926018D01*
X953313Y926958D02*
X939303Y926958D01*
X939303Y927898D02*
X953313Y927898D01*
X953313Y928838D02*
X939303Y928838D01*
X939303Y929778D02*
X953313Y929778D01*
X953313Y930718D02*
X939303Y930718D01*
X939303Y931658D02*
X953313Y931658D01*
X953313Y936838D02*
X953313Y944848D01*
X953313Y936838D02*
X939303Y936838D01*
X939303Y944848D01*
X953313Y944848D01*
X953313Y937778D02*
X939303Y937778D01*
X939303Y938718D02*
X953313Y938718D01*
X953313Y939658D02*
X939303Y939658D01*
X939303Y940598D02*
X953313Y940598D01*
X953313Y941538D02*
X939303Y941538D01*
X939303Y942478D02*
X953313Y942478D01*
X953313Y943418D02*
X939303Y943418D01*
X939303Y944358D02*
X953313Y944358D01*
X953313Y949538D02*
X953313Y957548D01*
X953313Y949538D02*
X939303Y949538D01*
X939303Y957548D01*
X953313Y957548D01*
X953313Y950478D02*
X939303Y950478D01*
X939303Y951418D02*
X953313Y951418D01*
X953313Y952358D02*
X939303Y952358D01*
X939303Y953298D02*
X953313Y953298D01*
X953313Y954238D02*
X939303Y954238D01*
X939303Y955178D02*
X953313Y955178D01*
X953313Y956118D02*
X939303Y956118D01*
X939303Y957058D02*
X953313Y957058D01*
X953313Y962238D02*
X953313Y970248D01*
X953313Y962238D02*
X939303Y962238D01*
X939303Y970248D01*
X953313Y970248D01*
X953313Y963178D02*
X939303Y963178D01*
X939303Y964118D02*
X953313Y964118D01*
X953313Y965058D02*
X939303Y965058D01*
X939303Y965998D02*
X953313Y965998D01*
X953313Y966938D02*
X939303Y966938D01*
X939303Y967878D02*
X953313Y967878D01*
X953313Y968818D02*
X939303Y968818D01*
X939303Y969758D02*
X953313Y969758D01*
X953313Y974938D02*
X953313Y982948D01*
X953313Y974938D02*
X939303Y974938D01*
X939303Y982948D01*
X953313Y982948D01*
X953313Y975878D02*
X939303Y975878D01*
X939303Y976818D02*
X953313Y976818D01*
X953313Y977758D02*
X939303Y977758D01*
X939303Y978698D02*
X953313Y978698D01*
X953313Y979638D02*
X939303Y979638D01*
X939303Y980578D02*
X953313Y980578D01*
X953313Y981518D02*
X939303Y981518D01*
X939303Y982458D02*
X953313Y982458D01*
X953313Y987638D02*
X953313Y995648D01*
X953313Y987638D02*
X939303Y987638D01*
X939303Y995648D01*
X953313Y995648D01*
X953313Y988578D02*
X939303Y988578D01*
X939303Y989518D02*
X953313Y989518D01*
X953313Y990458D02*
X939303Y990458D01*
X939303Y991398D02*
X953313Y991398D01*
X953313Y992338D02*
X939303Y992338D01*
X939303Y993278D02*
X953313Y993278D01*
X953313Y994218D02*
X939303Y994218D01*
X939303Y995158D02*
X953313Y995158D01*
X953313Y1000338D02*
X953313Y1008348D01*
X953313Y1000338D02*
X939303Y1000338D01*
X939303Y1008348D01*
X953313Y1008348D01*
X953313Y1001278D02*
X939303Y1001278D01*
X939303Y1002218D02*
X953313Y1002218D01*
X953313Y1003158D02*
X939303Y1003158D01*
X939303Y1004098D02*
X953313Y1004098D01*
X953313Y1005038D02*
X939303Y1005038D01*
X939303Y1005978D02*
X953313Y1005978D01*
X953313Y1006918D02*
X939303Y1006918D01*
X939303Y1007858D02*
X953313Y1007858D01*
X953313Y1013038D02*
X953313Y1021048D01*
X953313Y1013038D02*
X939303Y1013038D01*
X939303Y1021048D01*
X953313Y1021048D01*
X953313Y1013978D02*
X939303Y1013978D01*
X939303Y1014918D02*
X953313Y1014918D01*
X953313Y1015858D02*
X939303Y1015858D01*
X939303Y1016798D02*
X953313Y1016798D01*
X953313Y1017738D02*
X939303Y1017738D01*
X939303Y1018678D02*
X953313Y1018678D01*
X953313Y1019618D02*
X939303Y1019618D01*
X939303Y1020558D02*
X953313Y1020558D01*
D17*
X1050116Y949741D02*
X1050116Y937505D01*
X1037880Y937505D01*
X1037880Y949741D01*
X1050116Y949741D01*
X1050116Y938516D02*
X1037880Y938516D01*
X1037880Y939527D02*
X1050116Y939527D01*
X1050116Y940538D02*
X1037880Y940538D01*
X1037880Y941549D02*
X1050116Y941549D01*
X1050116Y942560D02*
X1037880Y942560D01*
X1037880Y943571D02*
X1050116Y943571D01*
X1050116Y944582D02*
X1037880Y944582D01*
X1037880Y945593D02*
X1050116Y945593D01*
X1050116Y946604D02*
X1037880Y946604D01*
X1037880Y947615D02*
X1050116Y947615D01*
X1050116Y948626D02*
X1037880Y948626D01*
X1037880Y949637D02*
X1050116Y949637D01*
X1031666Y955715D02*
X1031666Y967951D01*
X1031666Y955715D02*
X1019430Y955715D01*
X1019430Y967951D01*
X1031666Y967951D01*
X1031666Y956726D02*
X1019430Y956726D01*
X1019430Y957737D02*
X1031666Y957737D01*
X1031666Y958748D02*
X1019430Y958748D01*
X1019430Y959759D02*
X1031666Y959759D01*
X1031666Y960770D02*
X1019430Y960770D01*
X1019430Y961781D02*
X1031666Y961781D01*
X1031666Y962792D02*
X1019430Y962792D01*
X1019430Y963803D02*
X1031666Y963803D01*
X1031666Y964814D02*
X1019430Y964814D01*
X1019430Y965825D02*
X1031666Y965825D01*
X1031666Y966836D02*
X1019430Y966836D01*
X1019430Y967847D02*
X1031666Y967847D01*
X1049966Y967951D02*
X1049966Y955715D01*
X1037730Y955715D01*
X1037730Y967951D01*
X1049966Y967951D01*
X1049966Y956726D02*
X1037730Y956726D01*
X1037730Y957737D02*
X1049966Y957737D01*
X1049966Y958748D02*
X1037730Y958748D01*
X1037730Y959759D02*
X1049966Y959759D01*
X1049966Y960770D02*
X1037730Y960770D01*
X1037730Y961781D02*
X1049966Y961781D01*
X1049966Y962792D02*
X1037730Y962792D01*
X1037730Y963803D02*
X1049966Y963803D01*
X1049966Y964814D02*
X1037730Y964814D01*
X1037730Y965825D02*
X1049966Y965825D01*
X1049966Y966836D02*
X1037730Y966836D01*
X1037730Y967847D02*
X1049966Y967847D01*
X1068266Y967951D02*
X1068266Y955715D01*
X1056030Y955715D01*
X1056030Y967951D01*
X1068266Y967951D01*
X1068266Y956726D02*
X1056030Y956726D01*
X1056030Y957737D02*
X1068266Y957737D01*
X1068266Y958748D02*
X1056030Y958748D01*
X1056030Y959759D02*
X1068266Y959759D01*
X1068266Y960770D02*
X1056030Y960770D01*
X1056030Y961781D02*
X1068266Y961781D01*
X1068266Y962792D02*
X1056030Y962792D01*
X1056030Y963803D02*
X1068266Y963803D01*
X1068266Y964814D02*
X1056030Y964814D01*
X1056030Y965825D02*
X1068266Y965825D01*
X1068266Y966836D02*
X1056030Y966836D01*
X1056030Y967847D02*
X1068266Y967847D01*
X1068266Y949651D02*
X1068266Y937415D01*
X1056030Y937415D01*
X1056030Y949651D01*
X1068266Y949651D01*
X1068266Y938426D02*
X1056030Y938426D01*
X1056030Y939437D02*
X1068266Y939437D01*
X1068266Y940448D02*
X1056030Y940448D01*
X1056030Y941459D02*
X1068266Y941459D01*
X1068266Y942470D02*
X1056030Y942470D01*
X1056030Y943481D02*
X1068266Y943481D01*
X1068266Y944492D02*
X1056030Y944492D01*
X1056030Y945503D02*
X1068266Y945503D01*
X1068266Y946514D02*
X1056030Y946514D01*
X1056030Y947525D02*
X1068266Y947525D01*
X1068266Y948536D02*
X1056030Y948536D01*
X1056030Y949547D02*
X1068266Y949547D01*
X1031566Y949951D02*
X1031566Y937715D01*
X1019330Y937715D01*
X1019330Y949951D01*
X1031566Y949951D01*
X1031566Y938726D02*
X1019330Y938726D01*
X1019330Y939737D02*
X1031566Y939737D01*
X1031566Y940748D02*
X1019330Y940748D01*
X1019330Y941759D02*
X1031566Y941759D01*
X1031566Y942770D02*
X1019330Y942770D01*
X1019330Y943781D02*
X1031566Y943781D01*
X1031566Y944792D02*
X1019330Y944792D01*
X1019330Y945803D02*
X1031566Y945803D01*
X1031566Y946814D02*
X1019330Y946814D01*
X1019330Y947825D02*
X1031566Y947825D01*
X1031566Y948836D02*
X1019330Y948836D01*
X1019330Y949847D02*
X1031566Y949847D01*
X1031666Y931351D02*
X1031666Y919115D01*
X1019430Y919115D01*
X1019430Y931351D01*
X1031666Y931351D01*
X1031666Y920126D02*
X1019430Y920126D01*
X1019430Y921137D02*
X1031666Y921137D01*
X1031666Y922148D02*
X1019430Y922148D01*
X1019430Y923159D02*
X1031666Y923159D01*
X1031666Y924170D02*
X1019430Y924170D01*
X1019430Y925181D02*
X1031666Y925181D01*
X1031666Y926192D02*
X1019430Y926192D01*
X1019430Y927203D02*
X1031666Y927203D01*
X1031666Y928214D02*
X1019430Y928214D01*
X1019430Y929225D02*
X1031666Y929225D01*
X1031666Y930236D02*
X1019430Y930236D01*
X1019430Y931247D02*
X1031666Y931247D01*
X1049966Y931251D02*
X1049966Y919015D01*
X1037730Y919015D01*
X1037730Y931251D01*
X1049966Y931251D01*
X1049966Y920026D02*
X1037730Y920026D01*
X1037730Y921037D02*
X1049966Y921037D01*
X1049966Y922048D02*
X1037730Y922048D01*
X1037730Y923059D02*
X1049966Y923059D01*
X1049966Y924070D02*
X1037730Y924070D01*
X1037730Y925081D02*
X1049966Y925081D01*
X1049966Y926092D02*
X1037730Y926092D01*
X1037730Y927103D02*
X1049966Y927103D01*
X1049966Y928114D02*
X1037730Y928114D01*
X1037730Y929125D02*
X1049966Y929125D01*
X1049966Y930136D02*
X1037730Y930136D01*
X1037730Y931147D02*
X1049966Y931147D01*
X1068266Y931351D02*
X1068266Y919115D01*
X1056030Y919115D01*
X1056030Y931351D01*
X1068266Y931351D01*
X1068266Y920126D02*
X1056030Y920126D01*
X1056030Y921137D02*
X1068266Y921137D01*
X1068266Y922148D02*
X1056030Y922148D01*
X1056030Y923159D02*
X1068266Y923159D01*
X1068266Y924170D02*
X1056030Y924170D01*
X1056030Y925181D02*
X1068266Y925181D01*
X1068266Y926192D02*
X1056030Y926192D01*
X1056030Y927203D02*
X1068266Y927203D01*
X1068266Y928214D02*
X1056030Y928214D01*
X1056030Y929225D02*
X1068266Y929225D01*
X1068266Y930236D02*
X1056030Y930236D01*
X1056030Y931247D02*
X1068266Y931247D01*
D12*
X1152088Y832743D02*
X1162088Y832743D01*
X1162088Y823743D01*
X1152088Y823743D01*
X1152088Y832743D01*
X1152088Y824693D02*
X1162088Y824693D01*
X1162088Y825643D02*
X1152088Y825643D01*
X1152088Y826593D02*
X1162088Y826593D01*
X1162088Y827543D02*
X1152088Y827543D01*
X1152088Y828493D02*
X1162088Y828493D01*
X1162088Y829443D02*
X1152088Y829443D01*
X1152088Y830393D02*
X1162088Y830393D01*
X1162088Y831343D02*
X1152088Y831343D01*
X1152088Y832293D02*
X1162088Y832293D01*
X1145088Y832743D02*
X1135088Y832743D01*
X1145088Y832743D02*
X1145088Y823743D01*
X1135088Y823743D01*
X1135088Y832743D01*
X1135088Y824693D02*
X1145088Y824693D01*
X1145088Y825643D02*
X1135088Y825643D01*
X1135088Y826593D02*
X1145088Y826593D01*
X1145088Y827543D02*
X1135088Y827543D01*
X1135088Y828493D02*
X1145088Y828493D01*
X1145088Y829443D02*
X1135088Y829443D01*
X1135088Y830393D02*
X1145088Y830393D01*
X1145088Y831343D02*
X1135088Y831343D01*
X1135088Y832293D02*
X1145088Y832293D01*
X1145088Y798343D02*
X1135088Y798343D01*
X1135088Y807343D01*
X1145088Y807343D01*
X1145088Y798343D01*
X1145088Y799293D02*
X1135088Y799293D01*
X1135088Y800243D02*
X1145088Y800243D01*
X1145088Y801193D02*
X1135088Y801193D01*
X1135088Y802143D02*
X1145088Y802143D01*
X1145088Y803093D02*
X1135088Y803093D01*
X1135088Y804043D02*
X1145088Y804043D01*
X1145088Y804993D02*
X1135088Y804993D01*
X1135088Y805943D02*
X1145088Y805943D01*
X1145088Y806893D02*
X1135088Y806893D01*
X1152088Y798343D02*
X1162088Y798343D01*
X1152088Y798343D02*
X1152088Y807343D01*
X1162088Y807343D01*
X1162088Y798343D01*
X1162088Y799293D02*
X1152088Y799293D01*
X1152088Y800243D02*
X1162088Y800243D01*
X1162088Y801193D02*
X1152088Y801193D01*
X1152088Y802143D02*
X1162088Y802143D01*
X1162088Y803093D02*
X1152088Y803093D01*
X1152088Y804043D02*
X1162088Y804043D01*
X1162088Y804993D02*
X1152088Y804993D01*
X1152088Y805943D02*
X1162088Y805943D01*
X1162088Y806893D02*
X1152088Y806893D01*
D18*
X1227163Y145218D02*
X1227163Y130268D01*
X1221213Y130268D01*
X1221213Y145218D01*
X1227163Y145218D01*
X1227163Y131265D02*
X1221213Y131265D01*
X1221213Y132262D02*
X1227163Y132262D01*
X1227163Y133259D02*
X1221213Y133259D01*
X1221213Y134256D02*
X1227163Y134256D01*
X1227163Y135253D02*
X1221213Y135253D01*
X1221213Y136250D02*
X1227163Y136250D01*
X1227163Y137247D02*
X1221213Y137247D01*
X1221213Y138244D02*
X1227163Y138244D01*
X1227163Y139241D02*
X1221213Y139241D01*
X1221213Y140238D02*
X1227163Y140238D01*
X1227163Y141235D02*
X1221213Y141235D01*
X1221213Y142232D02*
X1227163Y142232D01*
X1227163Y143229D02*
X1221213Y143229D01*
X1221213Y144226D02*
X1227163Y144226D01*
X1216163Y145218D02*
X1216163Y130268D01*
X1210213Y130268D01*
X1210213Y145218D01*
X1216163Y145218D01*
X1216163Y131265D02*
X1210213Y131265D01*
X1210213Y132262D02*
X1216163Y132262D01*
X1216163Y133259D02*
X1210213Y133259D01*
X1210213Y134256D02*
X1216163Y134256D01*
X1216163Y135253D02*
X1210213Y135253D01*
X1210213Y136250D02*
X1216163Y136250D01*
X1216163Y137247D02*
X1210213Y137247D01*
X1210213Y138244D02*
X1216163Y138244D01*
X1216163Y139241D02*
X1210213Y139241D01*
X1210213Y140238D02*
X1216163Y140238D01*
X1216163Y141235D02*
X1210213Y141235D01*
X1210213Y142232D02*
X1216163Y142232D01*
X1216163Y143229D02*
X1210213Y143229D01*
X1210213Y144226D02*
X1216163Y144226D01*
X1205163Y145218D02*
X1205163Y130268D01*
X1199213Y130268D01*
X1199213Y145218D01*
X1205163Y145218D01*
X1205163Y131265D02*
X1199213Y131265D01*
X1199213Y132262D02*
X1205163Y132262D01*
X1205163Y133259D02*
X1199213Y133259D01*
X1199213Y134256D02*
X1205163Y134256D01*
X1205163Y135253D02*
X1199213Y135253D01*
X1199213Y136250D02*
X1205163Y136250D01*
X1205163Y137247D02*
X1199213Y137247D01*
X1199213Y138244D02*
X1205163Y138244D01*
X1205163Y139241D02*
X1199213Y139241D01*
X1199213Y140238D02*
X1205163Y140238D01*
X1205163Y141235D02*
X1199213Y141235D01*
X1199213Y142232D02*
X1205163Y142232D01*
X1205163Y143229D02*
X1199213Y143229D01*
X1199213Y144226D02*
X1205163Y144226D01*
X1238163Y145218D02*
X1238163Y130268D01*
X1232213Y130268D01*
X1232213Y145218D01*
X1238163Y145218D01*
X1238163Y131265D02*
X1232213Y131265D01*
X1232213Y132262D02*
X1238163Y132262D01*
X1238163Y133259D02*
X1232213Y133259D01*
X1232213Y134256D02*
X1238163Y134256D01*
X1238163Y135253D02*
X1232213Y135253D01*
X1232213Y136250D02*
X1238163Y136250D01*
X1238163Y137247D02*
X1232213Y137247D01*
X1232213Y138244D02*
X1238163Y138244D01*
X1238163Y139241D02*
X1232213Y139241D01*
X1232213Y140238D02*
X1238163Y140238D01*
X1238163Y141235D02*
X1232213Y141235D01*
X1232213Y142232D02*
X1238163Y142232D01*
X1238163Y143229D02*
X1232213Y143229D01*
X1232213Y144226D02*
X1238163Y144226D01*
X1249163Y145218D02*
X1249163Y130268D01*
X1243213Y130268D01*
X1243213Y145218D01*
X1249163Y145218D01*
X1249163Y131265D02*
X1243213Y131265D01*
X1243213Y132262D02*
X1249163Y132262D01*
X1249163Y133259D02*
X1243213Y133259D01*
X1243213Y134256D02*
X1249163Y134256D01*
X1249163Y135253D02*
X1243213Y135253D01*
X1243213Y136250D02*
X1249163Y136250D01*
X1249163Y137247D02*
X1243213Y137247D01*
X1243213Y138244D02*
X1249163Y138244D01*
X1249163Y139241D02*
X1243213Y139241D01*
X1243213Y140238D02*
X1249163Y140238D01*
X1249163Y141235D02*
X1243213Y141235D01*
X1243213Y142232D02*
X1249163Y142232D01*
X1249163Y143229D02*
X1243213Y143229D01*
X1243213Y144226D02*
X1249163Y144226D01*
X1260163Y145218D02*
X1260163Y130268D01*
X1254213Y130268D01*
X1254213Y145218D01*
X1260163Y145218D01*
X1260163Y131265D02*
X1254213Y131265D01*
X1254213Y132262D02*
X1260163Y132262D01*
X1260163Y133259D02*
X1254213Y133259D01*
X1254213Y134256D02*
X1260163Y134256D01*
X1260163Y135253D02*
X1254213Y135253D01*
X1254213Y136250D02*
X1260163Y136250D01*
X1260163Y137247D02*
X1254213Y137247D01*
X1254213Y138244D02*
X1260163Y138244D01*
X1260163Y139241D02*
X1254213Y139241D01*
X1254213Y140238D02*
X1260163Y140238D01*
X1260163Y141235D02*
X1254213Y141235D01*
X1254213Y142232D02*
X1260163Y142232D01*
X1260163Y143229D02*
X1254213Y143229D01*
X1254213Y144226D02*
X1260163Y144226D01*
X1271163Y145218D02*
X1271163Y130268D01*
X1265213Y130268D01*
X1265213Y145218D01*
X1271163Y145218D01*
X1271163Y131265D02*
X1265213Y131265D01*
X1265213Y132262D02*
X1271163Y132262D01*
X1271163Y133259D02*
X1265213Y133259D01*
X1265213Y134256D02*
X1271163Y134256D01*
X1271163Y135253D02*
X1265213Y135253D01*
X1265213Y136250D02*
X1271163Y136250D01*
X1271163Y137247D02*
X1265213Y137247D01*
X1265213Y138244D02*
X1271163Y138244D01*
X1271163Y139241D02*
X1265213Y139241D01*
X1265213Y140238D02*
X1271163Y140238D01*
X1271163Y141235D02*
X1265213Y141235D01*
X1265213Y142232D02*
X1271163Y142232D01*
X1271163Y143229D02*
X1265213Y143229D01*
X1265213Y144226D02*
X1271163Y144226D01*
X1282163Y145218D02*
X1282163Y130268D01*
X1276213Y130268D01*
X1276213Y145218D01*
X1282163Y145218D01*
X1282163Y131265D02*
X1276213Y131265D01*
X1276213Y132262D02*
X1282163Y132262D01*
X1282163Y133259D02*
X1276213Y133259D01*
X1276213Y134256D02*
X1282163Y134256D01*
X1282163Y135253D02*
X1276213Y135253D01*
X1276213Y136250D02*
X1282163Y136250D01*
X1282163Y137247D02*
X1276213Y137247D01*
X1276213Y138244D02*
X1282163Y138244D01*
X1282163Y139241D02*
X1276213Y139241D01*
X1276213Y140238D02*
X1282163Y140238D01*
X1282163Y141235D02*
X1276213Y141235D01*
X1276213Y142232D02*
X1282163Y142232D01*
X1282163Y143229D02*
X1276213Y143229D01*
X1276213Y144226D02*
X1282163Y144226D01*
X1293163Y145218D02*
X1293163Y130268D01*
X1287213Y130268D01*
X1287213Y145218D01*
X1293163Y145218D01*
X1293163Y131265D02*
X1287213Y131265D01*
X1287213Y132262D02*
X1293163Y132262D01*
X1293163Y133259D02*
X1287213Y133259D01*
X1287213Y134256D02*
X1293163Y134256D01*
X1293163Y135253D02*
X1287213Y135253D01*
X1287213Y136250D02*
X1293163Y136250D01*
X1293163Y137247D02*
X1287213Y137247D01*
X1287213Y138244D02*
X1293163Y138244D01*
X1293163Y139241D02*
X1287213Y139241D01*
X1287213Y140238D02*
X1293163Y140238D01*
X1293163Y141235D02*
X1287213Y141235D01*
X1287213Y142232D02*
X1293163Y142232D01*
X1293163Y143229D02*
X1287213Y143229D01*
X1287213Y144226D02*
X1293163Y144226D01*
D10*
X1152708Y47263D02*
X1141668Y47263D01*
X1152708Y47263D02*
X1152708Y26223D01*
X1141668Y26223D01*
X1141668Y47263D01*
X1141668Y27135D02*
X1152708Y27135D01*
X1152708Y28047D02*
X1141668Y28047D01*
X1141668Y28959D02*
X1152708Y28959D01*
X1152708Y29871D02*
X1141668Y29871D01*
X1141668Y30783D02*
X1152708Y30783D01*
X1152708Y31695D02*
X1141668Y31695D01*
X1141668Y32607D02*
X1152708Y32607D01*
X1152708Y33519D02*
X1141668Y33519D01*
X1141668Y34431D02*
X1152708Y34431D01*
X1152708Y35343D02*
X1141668Y35343D01*
X1141668Y36255D02*
X1152708Y36255D01*
X1152708Y37167D02*
X1141668Y37167D01*
X1141668Y38079D02*
X1152708Y38079D01*
X1152708Y38991D02*
X1141668Y38991D01*
X1141668Y39903D02*
X1152708Y39903D01*
X1152708Y40815D02*
X1141668Y40815D01*
X1141668Y41727D02*
X1152708Y41727D01*
X1152708Y42639D02*
X1141668Y42639D01*
X1141668Y43551D02*
X1152708Y43551D01*
X1152708Y44463D02*
X1141668Y44463D01*
X1141668Y45375D02*
X1152708Y45375D01*
X1152708Y46287D02*
X1141668Y46287D01*
X1141668Y47199D02*
X1152708Y47199D01*
X1296668Y47263D02*
X1307708Y47263D01*
X1307708Y26223D01*
X1296668Y26223D01*
X1296668Y47263D01*
X1296668Y27135D02*
X1307708Y27135D01*
X1307708Y28047D02*
X1296668Y28047D01*
X1296668Y28959D02*
X1307708Y28959D01*
X1307708Y29871D02*
X1296668Y29871D01*
X1296668Y30783D02*
X1307708Y30783D01*
X1307708Y31695D02*
X1296668Y31695D01*
X1296668Y32607D02*
X1307708Y32607D01*
X1307708Y33519D02*
X1296668Y33519D01*
X1296668Y34431D02*
X1307708Y34431D01*
X1307708Y35343D02*
X1296668Y35343D01*
X1296668Y36255D02*
X1307708Y36255D01*
X1307708Y37167D02*
X1296668Y37167D01*
X1296668Y38079D02*
X1307708Y38079D01*
X1307708Y38991D02*
X1296668Y38991D01*
X1296668Y39903D02*
X1307708Y39903D01*
X1307708Y40815D02*
X1296668Y40815D01*
X1296668Y41727D02*
X1307708Y41727D01*
X1307708Y42639D02*
X1296668Y42639D01*
X1296668Y43551D02*
X1307708Y43551D01*
X1307708Y44463D02*
X1296668Y44463D01*
X1296668Y45375D02*
X1307708Y45375D01*
X1307708Y46287D02*
X1296668Y46287D01*
X1296668Y47199D02*
X1307708Y47199D01*
D19*
X1163698Y139253D02*
X1148678Y139253D01*
X1163698Y139253D02*
X1163698Y126233D01*
X1148678Y126233D01*
X1148678Y139253D01*
X1148678Y127164D02*
X1163698Y127164D01*
X1163698Y128095D02*
X1148678Y128095D01*
X1148678Y129026D02*
X1163698Y129026D01*
X1163698Y129957D02*
X1148678Y129957D01*
X1148678Y130888D02*
X1163698Y130888D01*
X1163698Y131819D02*
X1148678Y131819D01*
X1148678Y132750D02*
X1163698Y132750D01*
X1163698Y133681D02*
X1148678Y133681D01*
X1148678Y134612D02*
X1163698Y134612D01*
X1163698Y135543D02*
X1148678Y135543D01*
X1148678Y136474D02*
X1163698Y136474D01*
X1163698Y137405D02*
X1148678Y137405D01*
X1148678Y138336D02*
X1163698Y138336D01*
D10*
X1296668Y139263D02*
X1307708Y139263D01*
X1307708Y124223D01*
X1296668Y124223D01*
X1296668Y139263D01*
X1296668Y125135D02*
X1307708Y125135D01*
X1307708Y126047D02*
X1296668Y126047D01*
X1296668Y126959D02*
X1307708Y126959D01*
X1307708Y127871D02*
X1296668Y127871D01*
X1296668Y128783D02*
X1307708Y128783D01*
X1307708Y129695D02*
X1296668Y129695D01*
X1296668Y130607D02*
X1307708Y130607D01*
X1307708Y131519D02*
X1296668Y131519D01*
X1296668Y132431D02*
X1307708Y132431D01*
X1307708Y133343D02*
X1296668Y133343D01*
X1296668Y134255D02*
X1307708Y134255D01*
X1307708Y135167D02*
X1296668Y135167D01*
X1296668Y136079D02*
X1307708Y136079D01*
X1307708Y136991D02*
X1296668Y136991D01*
X1296668Y137903D02*
X1307708Y137903D01*
X1307708Y138815D02*
X1296668Y138815D01*
X1738238Y20213D02*
X1749278Y20213D01*
X1749278Y1173D01*
X1738238Y1173D01*
X1738238Y20213D01*
X1738238Y2085D02*
X1749278Y2085D01*
X1749278Y2997D02*
X1738238Y2997D01*
X1738238Y3909D02*
X1749278Y3909D01*
X1749278Y4821D02*
X1738238Y4821D01*
X1738238Y5733D02*
X1749278Y5733D01*
X1749278Y6645D02*
X1738238Y6645D01*
X1738238Y7557D02*
X1749278Y7557D01*
X1749278Y8469D02*
X1738238Y8469D01*
X1738238Y9381D02*
X1749278Y9381D01*
X1749278Y10293D02*
X1738238Y10293D01*
X1738238Y11205D02*
X1749278Y11205D01*
X1749278Y12117D02*
X1738238Y12117D01*
X1738238Y13029D02*
X1749278Y13029D01*
X1749278Y13941D02*
X1738238Y13941D01*
X1738238Y14853D02*
X1749278Y14853D01*
X1749278Y15765D02*
X1738238Y15765D01*
X1738238Y16677D02*
X1749278Y16677D01*
X1749278Y17589D02*
X1738238Y17589D01*
X1738238Y18501D02*
X1749278Y18501D01*
X1749278Y19413D02*
X1738238Y19413D01*
X1693278Y20213D02*
X1682238Y20213D01*
X1693278Y20213D02*
X1693278Y1173D01*
X1682238Y1173D01*
X1682238Y20213D01*
X1682238Y2085D02*
X1693278Y2085D01*
X1693278Y2997D02*
X1682238Y2997D01*
X1682238Y3909D02*
X1693278Y3909D01*
X1693278Y4821D02*
X1682238Y4821D01*
X1682238Y5733D02*
X1693278Y5733D01*
X1693278Y6645D02*
X1682238Y6645D01*
X1682238Y7557D02*
X1693278Y7557D01*
X1693278Y8469D02*
X1682238Y8469D01*
X1682238Y9381D02*
X1693278Y9381D01*
X1693278Y10293D02*
X1682238Y10293D01*
X1682238Y11205D02*
X1693278Y11205D01*
X1693278Y12117D02*
X1682238Y12117D01*
X1682238Y13029D02*
X1693278Y13029D01*
X1693278Y13941D02*
X1682238Y13941D01*
X1682238Y14853D02*
X1693278Y14853D01*
X1693278Y15765D02*
X1682238Y15765D01*
X1682238Y16677D02*
X1693278Y16677D01*
X1693278Y17589D02*
X1682238Y17589D01*
X1682238Y18501D02*
X1693278Y18501D01*
X1693278Y19413D02*
X1682238Y19413D01*
D11*
X1728268Y53683D02*
X1733248Y53683D01*
X1733248Y41203D01*
X1728268Y41203D01*
X1728268Y53683D01*
X1728268Y42172D02*
X1733248Y42172D01*
X1733248Y43141D02*
X1728268Y43141D01*
X1728268Y44110D02*
X1733248Y44110D01*
X1733248Y45079D02*
X1728268Y45079D01*
X1728268Y46048D02*
X1733248Y46048D01*
X1733248Y47017D02*
X1728268Y47017D01*
X1728268Y47986D02*
X1733248Y47986D01*
X1733248Y48955D02*
X1728268Y48955D01*
X1728268Y49924D02*
X1733248Y49924D01*
X1733248Y50893D02*
X1728268Y50893D01*
X1728268Y51862D02*
X1733248Y51862D01*
X1733248Y52831D02*
X1728268Y52831D01*
X1723248Y53683D02*
X1718268Y53683D01*
X1723248Y53683D02*
X1723248Y41203D01*
X1718268Y41203D01*
X1718268Y53683D01*
X1718268Y42172D02*
X1723248Y42172D01*
X1723248Y43141D02*
X1718268Y43141D01*
X1718268Y44110D02*
X1723248Y44110D01*
X1723248Y45079D02*
X1718268Y45079D01*
X1718268Y46048D02*
X1723248Y46048D01*
X1723248Y47017D02*
X1718268Y47017D01*
X1718268Y47986D02*
X1723248Y47986D01*
X1723248Y48955D02*
X1718268Y48955D01*
X1718268Y49924D02*
X1723248Y49924D01*
X1723248Y50893D02*
X1718268Y50893D01*
X1718268Y51862D02*
X1723248Y51862D01*
X1723248Y52831D02*
X1718268Y52831D01*
X1713248Y53683D02*
X1708268Y53683D01*
X1713248Y53683D02*
X1713248Y41203D01*
X1708268Y41203D01*
X1708268Y53683D01*
X1708268Y42172D02*
X1713248Y42172D01*
X1713248Y43141D02*
X1708268Y43141D01*
X1708268Y44110D02*
X1713248Y44110D01*
X1713248Y45079D02*
X1708268Y45079D01*
X1708268Y46048D02*
X1713248Y46048D01*
X1713248Y47017D02*
X1708268Y47017D01*
X1708268Y47986D02*
X1713248Y47986D01*
X1713248Y48955D02*
X1708268Y48955D01*
X1708268Y49924D02*
X1713248Y49924D01*
X1713248Y50893D02*
X1708268Y50893D01*
X1708268Y51862D02*
X1713248Y51862D01*
X1713248Y52831D02*
X1708268Y52831D01*
X1703248Y53683D02*
X1698268Y53683D01*
X1703248Y53683D02*
X1703248Y41203D01*
X1698268Y41203D01*
X1698268Y53683D01*
X1698268Y42172D02*
X1703248Y42172D01*
X1703248Y43141D02*
X1698268Y43141D01*
X1698268Y44110D02*
X1703248Y44110D01*
X1703248Y45079D02*
X1698268Y45079D01*
X1698268Y46048D02*
X1703248Y46048D01*
X1703248Y47017D02*
X1698268Y47017D01*
X1698268Y47986D02*
X1703248Y47986D01*
X1703248Y48955D02*
X1698268Y48955D01*
X1698268Y49924D02*
X1703248Y49924D01*
X1703248Y50893D02*
X1698268Y50893D01*
X1698268Y51862D02*
X1703248Y51862D01*
X1703248Y52831D02*
X1698268Y52831D01*
D12*
X1517058Y1001843D02*
X1517058Y1011843D01*
X1517058Y1001843D02*
X1508058Y1001843D01*
X1508058Y1011843D01*
X1517058Y1011843D01*
X1517058Y1002793D02*
X1508058Y1002793D01*
X1508058Y1003743D02*
X1517058Y1003743D01*
X1517058Y1004693D02*
X1508058Y1004693D01*
X1508058Y1005643D02*
X1517058Y1005643D01*
X1517058Y1006593D02*
X1508058Y1006593D01*
X1508058Y1007543D02*
X1517058Y1007543D01*
X1517058Y1008493D02*
X1508058Y1008493D01*
X1508058Y1009443D02*
X1517058Y1009443D01*
X1517058Y1010393D02*
X1508058Y1010393D01*
X1508058Y1011343D02*
X1517058Y1011343D01*
X1517058Y1018843D02*
X1517058Y1028843D01*
X1517058Y1018843D02*
X1508058Y1018843D01*
X1508058Y1028843D01*
X1517058Y1028843D01*
X1517058Y1019793D02*
X1508058Y1019793D01*
X1508058Y1020743D02*
X1517058Y1020743D01*
X1517058Y1021693D02*
X1508058Y1021693D01*
X1508058Y1022643D02*
X1517058Y1022643D01*
X1517058Y1023593D02*
X1508058Y1023593D01*
X1508058Y1024543D02*
X1517058Y1024543D01*
X1517058Y1025493D02*
X1508058Y1025493D01*
X1508058Y1026443D02*
X1517058Y1026443D01*
X1517058Y1027393D02*
X1508058Y1027393D01*
X1508058Y1028343D02*
X1517058Y1028343D01*
X1539258Y1057243D02*
X1549258Y1057243D01*
X1549258Y1048243D01*
X1539258Y1048243D01*
X1539258Y1057243D01*
X1539258Y1049193D02*
X1549258Y1049193D01*
X1549258Y1050143D02*
X1539258Y1050143D01*
X1539258Y1051093D02*
X1549258Y1051093D01*
X1549258Y1052043D02*
X1539258Y1052043D01*
X1539258Y1052993D02*
X1549258Y1052993D01*
X1549258Y1053943D02*
X1539258Y1053943D01*
X1539258Y1054893D02*
X1549258Y1054893D01*
X1549258Y1055843D02*
X1539258Y1055843D01*
X1539258Y1056793D02*
X1549258Y1056793D01*
X1532258Y1057243D02*
X1522258Y1057243D01*
X1532258Y1057243D02*
X1532258Y1048243D01*
X1522258Y1048243D01*
X1522258Y1057243D01*
X1522258Y1049193D02*
X1532258Y1049193D01*
X1532258Y1050143D02*
X1522258Y1050143D01*
X1522258Y1051093D02*
X1532258Y1051093D01*
X1532258Y1052043D02*
X1522258Y1052043D01*
X1522258Y1052993D02*
X1532258Y1052993D01*
X1532258Y1053943D02*
X1522258Y1053943D01*
X1522258Y1054893D02*
X1532258Y1054893D01*
X1532258Y1055843D02*
X1522258Y1055843D01*
X1522258Y1056793D02*
X1532258Y1056793D01*
X1539258Y987243D02*
X1549258Y987243D01*
X1549258Y978243D01*
X1539258Y978243D01*
X1539258Y987243D01*
X1539258Y979193D02*
X1549258Y979193D01*
X1549258Y980143D02*
X1539258Y980143D01*
X1539258Y981093D02*
X1549258Y981093D01*
X1549258Y982043D02*
X1539258Y982043D01*
X1539258Y982993D02*
X1549258Y982993D01*
X1549258Y983943D02*
X1539258Y983943D01*
X1539258Y984893D02*
X1549258Y984893D01*
X1549258Y985843D02*
X1539258Y985843D01*
X1539258Y986793D02*
X1549258Y986793D01*
X1532258Y987243D02*
X1522258Y987243D01*
X1532258Y987243D02*
X1532258Y978243D01*
X1522258Y978243D01*
X1522258Y987243D01*
X1522258Y979193D02*
X1532258Y979193D01*
X1532258Y980143D02*
X1522258Y980143D01*
X1522258Y981093D02*
X1532258Y981093D01*
X1532258Y982043D02*
X1522258Y982043D01*
X1522258Y982993D02*
X1532258Y982993D01*
X1532258Y983943D02*
X1522258Y983943D01*
X1522258Y984893D02*
X1532258Y984893D01*
X1532258Y985843D02*
X1522258Y985843D01*
X1522258Y986793D02*
X1532258Y986793D01*
D13*
X1609404Y983889D02*
X1609404Y978597D01*
X1602112Y978597D01*
X1602112Y983889D01*
X1609404Y983889D01*
X1609404Y979555D02*
X1602112Y979555D01*
X1602112Y980513D02*
X1609404Y980513D01*
X1609404Y981471D02*
X1602112Y981471D01*
X1602112Y982429D02*
X1609404Y982429D01*
X1609404Y983387D02*
X1602112Y983387D01*
X1609404Y1001597D02*
X1609404Y1006889D01*
X1609404Y1001597D02*
X1602112Y1001597D01*
X1602112Y1006889D01*
X1609404Y1006889D01*
X1609404Y1002555D02*
X1602112Y1002555D01*
X1602112Y1003513D02*
X1609404Y1003513D01*
X1609404Y1004471D02*
X1602112Y1004471D01*
X1602112Y1005429D02*
X1609404Y1005429D01*
X1609404Y1006387D02*
X1602112Y1006387D01*
D12*
X1821258Y966243D02*
X1821258Y956243D01*
X1821258Y966243D02*
X1830258Y966243D01*
X1830258Y956243D01*
X1821258Y956243D01*
X1821258Y957193D02*
X1830258Y957193D01*
X1830258Y958143D02*
X1821258Y958143D01*
X1821258Y959093D02*
X1830258Y959093D01*
X1830258Y960043D02*
X1821258Y960043D01*
X1821258Y960993D02*
X1830258Y960993D01*
X1830258Y961943D02*
X1821258Y961943D01*
X1821258Y962893D02*
X1830258Y962893D01*
X1830258Y963843D02*
X1821258Y963843D01*
X1821258Y964793D02*
X1830258Y964793D01*
X1830258Y965743D02*
X1821258Y965743D01*
X1821258Y949243D02*
X1821258Y939243D01*
X1821258Y949243D02*
X1830258Y949243D01*
X1830258Y939243D01*
X1821258Y939243D01*
X1821258Y940193D02*
X1830258Y940193D01*
X1830258Y941143D02*
X1821258Y941143D01*
X1821258Y942093D02*
X1830258Y942093D01*
X1830258Y943043D02*
X1821258Y943043D01*
X1821258Y943993D02*
X1830258Y943993D01*
X1830258Y944943D02*
X1821258Y944943D01*
X1821258Y945893D02*
X1830258Y945893D01*
X1830258Y946843D02*
X1821258Y946843D01*
X1821258Y947793D02*
X1830258Y947793D01*
X1830258Y948743D02*
X1821258Y948743D01*
X1841258Y996243D02*
X1841258Y1006243D01*
X1850258Y1006243D01*
X1850258Y996243D01*
X1841258Y996243D01*
X1841258Y997193D02*
X1850258Y997193D01*
X1850258Y998143D02*
X1841258Y998143D01*
X1841258Y999093D02*
X1850258Y999093D01*
X1850258Y1000043D02*
X1841258Y1000043D01*
X1841258Y1000993D02*
X1850258Y1000993D01*
X1850258Y1001943D02*
X1841258Y1001943D01*
X1841258Y1002893D02*
X1850258Y1002893D01*
X1850258Y1003843D02*
X1841258Y1003843D01*
X1841258Y1004793D02*
X1850258Y1004793D01*
X1850258Y1005743D02*
X1841258Y1005743D01*
X1841258Y989243D02*
X1841258Y979243D01*
X1841258Y989243D02*
X1850258Y989243D01*
X1850258Y979243D01*
X1841258Y979243D01*
X1841258Y980193D02*
X1850258Y980193D01*
X1850258Y981143D02*
X1841258Y981143D01*
X1841258Y982093D02*
X1850258Y982093D01*
X1850258Y983043D02*
X1841258Y983043D01*
X1841258Y983993D02*
X1850258Y983993D01*
X1850258Y984943D02*
X1841258Y984943D01*
X1841258Y985893D02*
X1850258Y985893D01*
X1850258Y986843D02*
X1841258Y986843D01*
X1841258Y987793D02*
X1850258Y987793D01*
X1850258Y988743D02*
X1841258Y988743D01*
X1821258Y996243D02*
X1821258Y1006243D01*
X1830258Y1006243D01*
X1830258Y996243D01*
X1821258Y996243D01*
X1821258Y997193D02*
X1830258Y997193D01*
X1830258Y998143D02*
X1821258Y998143D01*
X1821258Y999093D02*
X1830258Y999093D01*
X1830258Y1000043D02*
X1821258Y1000043D01*
X1821258Y1000993D02*
X1830258Y1000993D01*
X1830258Y1001943D02*
X1821258Y1001943D01*
X1821258Y1002893D02*
X1830258Y1002893D01*
X1830258Y1003843D02*
X1821258Y1003843D01*
X1821258Y1004793D02*
X1830258Y1004793D01*
X1830258Y1005743D02*
X1821258Y1005743D01*
X1821258Y989243D02*
X1821258Y979243D01*
X1821258Y989243D02*
X1830258Y989243D01*
X1830258Y979243D01*
X1821258Y979243D01*
X1821258Y980193D02*
X1830258Y980193D01*
X1830258Y981143D02*
X1821258Y981143D01*
X1821258Y982093D02*
X1830258Y982093D01*
X1830258Y983043D02*
X1821258Y983043D01*
X1821258Y983993D02*
X1830258Y983993D01*
X1830258Y984943D02*
X1821258Y984943D01*
X1821258Y985893D02*
X1830258Y985893D01*
X1830258Y986843D02*
X1821258Y986843D01*
X1821258Y987793D02*
X1830258Y987793D01*
X1830258Y988743D02*
X1821258Y988743D01*
X1841258Y966243D02*
X1841258Y956243D01*
X1841258Y966243D02*
X1850258Y966243D01*
X1850258Y956243D01*
X1841258Y956243D01*
X1841258Y957193D02*
X1850258Y957193D01*
X1850258Y958143D02*
X1841258Y958143D01*
X1841258Y959093D02*
X1850258Y959093D01*
X1850258Y960043D02*
X1841258Y960043D01*
X1841258Y960993D02*
X1850258Y960993D01*
X1850258Y961943D02*
X1841258Y961943D01*
X1841258Y962893D02*
X1850258Y962893D01*
X1850258Y963843D02*
X1841258Y963843D01*
X1841258Y964793D02*
X1850258Y964793D01*
X1850258Y965743D02*
X1841258Y965743D01*
X1841258Y949243D02*
X1841258Y939243D01*
X1841258Y949243D02*
X1850258Y949243D01*
X1850258Y939243D01*
X1841258Y939243D01*
X1841258Y940193D02*
X1850258Y940193D01*
X1850258Y941143D02*
X1841258Y941143D01*
X1841258Y942093D02*
X1850258Y942093D01*
X1850258Y943043D02*
X1841258Y943043D01*
X1841258Y943993D02*
X1850258Y943993D01*
X1850258Y944943D02*
X1841258Y944943D01*
X1841258Y945893D02*
X1850258Y945893D01*
X1850258Y946843D02*
X1841258Y946843D01*
X1841258Y947793D02*
X1850258Y947793D01*
X1850258Y948743D02*
X1841258Y948743D01*
X1552258Y958243D02*
X1542258Y958243D01*
X1542258Y967243D01*
X1552258Y967243D01*
X1552258Y958243D01*
X1552258Y959193D02*
X1542258Y959193D01*
X1542258Y960143D02*
X1552258Y960143D01*
X1552258Y961093D02*
X1542258Y961093D01*
X1542258Y962043D02*
X1552258Y962043D01*
X1552258Y962993D02*
X1542258Y962993D01*
X1542258Y963943D02*
X1552258Y963943D01*
X1552258Y964893D02*
X1542258Y964893D01*
X1542258Y965843D02*
X1552258Y965843D01*
X1552258Y966793D02*
X1542258Y966793D01*
X1559258Y958243D02*
X1569258Y958243D01*
X1559258Y958243D02*
X1559258Y967243D01*
X1569258Y967243D01*
X1569258Y958243D01*
X1569258Y959193D02*
X1559258Y959193D01*
X1559258Y960143D02*
X1569258Y960143D01*
X1569258Y961093D02*
X1559258Y961093D01*
X1559258Y962043D02*
X1569258Y962043D01*
X1569258Y962993D02*
X1559258Y962993D01*
X1559258Y963943D02*
X1569258Y963943D01*
X1569258Y964893D02*
X1559258Y964893D01*
X1559258Y965843D02*
X1569258Y965843D01*
X1569258Y966793D02*
X1559258Y966793D01*
D11*
X1578268Y929683D02*
X1578268Y924703D01*
X1578268Y929683D02*
X1589248Y929683D01*
X1589248Y924703D01*
X1578268Y924703D01*
X1578268Y925672D02*
X1589248Y925672D01*
X1589248Y926641D02*
X1578268Y926641D01*
X1578268Y927610D02*
X1589248Y927610D01*
X1589248Y928579D02*
X1578268Y928579D01*
X1578268Y929548D02*
X1589248Y929548D01*
X1578268Y916983D02*
X1578268Y912003D01*
X1578268Y916983D02*
X1589248Y916983D01*
X1589248Y912003D01*
X1578268Y912003D01*
X1578268Y912972D02*
X1589248Y912972D01*
X1589248Y913941D02*
X1578268Y913941D01*
X1578268Y914910D02*
X1589248Y914910D01*
X1589248Y915879D02*
X1578268Y915879D01*
X1578268Y916848D02*
X1589248Y916848D01*
X1578268Y904283D02*
X1578268Y899303D01*
X1578268Y904283D02*
X1589248Y904283D01*
X1589248Y899303D01*
X1578268Y899303D01*
X1578268Y900272D02*
X1589248Y900272D01*
X1589248Y901241D02*
X1578268Y901241D01*
X1578268Y902210D02*
X1589248Y902210D01*
X1589248Y903179D02*
X1578268Y903179D01*
X1578268Y904148D02*
X1589248Y904148D01*
X1578268Y891583D02*
X1578268Y886603D01*
X1578268Y891583D02*
X1589248Y891583D01*
X1589248Y886603D01*
X1578268Y886603D01*
X1578268Y887572D02*
X1589248Y887572D01*
X1589248Y888541D02*
X1578268Y888541D01*
X1578268Y889510D02*
X1589248Y889510D01*
X1589248Y890479D02*
X1578268Y890479D01*
X1578268Y891448D02*
X1589248Y891448D01*
X1578268Y878883D02*
X1578268Y873903D01*
X1578268Y878883D02*
X1589248Y878883D01*
X1589248Y873903D01*
X1578268Y873903D01*
X1578268Y874872D02*
X1589248Y874872D01*
X1589248Y875841D02*
X1578268Y875841D01*
X1578268Y876810D02*
X1589248Y876810D01*
X1589248Y877779D02*
X1578268Y877779D01*
X1578268Y878748D02*
X1589248Y878748D01*
X1578268Y866183D02*
X1578268Y861203D01*
X1578268Y866183D02*
X1589248Y866183D01*
X1589248Y861203D01*
X1578268Y861203D01*
X1578268Y862172D02*
X1589248Y862172D01*
X1589248Y863141D02*
X1578268Y863141D01*
X1578268Y864110D02*
X1589248Y864110D01*
X1589248Y865079D02*
X1578268Y865079D01*
X1578268Y866048D02*
X1589248Y866048D01*
X1578268Y853483D02*
X1578268Y848503D01*
X1578268Y853483D02*
X1589248Y853483D01*
X1589248Y848503D01*
X1578268Y848503D01*
X1578268Y849472D02*
X1589248Y849472D01*
X1589248Y850441D02*
X1578268Y850441D01*
X1578268Y851410D02*
X1589248Y851410D01*
X1589248Y852379D02*
X1578268Y852379D01*
X1578268Y853348D02*
X1589248Y853348D01*
X1578268Y840783D02*
X1578268Y835803D01*
X1578268Y840783D02*
X1589248Y840783D01*
X1589248Y835803D01*
X1578268Y835803D01*
X1578268Y836772D02*
X1589248Y836772D01*
X1589248Y837741D02*
X1578268Y837741D01*
X1578268Y838710D02*
X1589248Y838710D01*
X1589248Y839679D02*
X1578268Y839679D01*
X1578268Y840648D02*
X1589248Y840648D01*
X1522268Y840783D02*
X1522268Y835803D01*
X1522268Y840783D02*
X1533248Y840783D01*
X1533248Y835803D01*
X1522268Y835803D01*
X1522268Y836772D02*
X1533248Y836772D01*
X1533248Y837741D02*
X1522268Y837741D01*
X1522268Y838710D02*
X1533248Y838710D01*
X1533248Y839679D02*
X1522268Y839679D01*
X1522268Y840648D02*
X1533248Y840648D01*
X1522268Y848503D02*
X1522268Y853483D01*
X1533248Y853483D01*
X1533248Y848503D01*
X1522268Y848503D01*
X1522268Y849472D02*
X1533248Y849472D01*
X1533248Y850441D02*
X1522268Y850441D01*
X1522268Y851410D02*
X1533248Y851410D01*
X1533248Y852379D02*
X1522268Y852379D01*
X1522268Y853348D02*
X1533248Y853348D01*
X1522268Y861203D02*
X1522268Y866183D01*
X1533248Y866183D01*
X1533248Y861203D01*
X1522268Y861203D01*
X1522268Y862172D02*
X1533248Y862172D01*
X1533248Y863141D02*
X1522268Y863141D01*
X1522268Y864110D02*
X1533248Y864110D01*
X1533248Y865079D02*
X1522268Y865079D01*
X1522268Y866048D02*
X1533248Y866048D01*
X1522268Y873903D02*
X1522268Y878883D01*
X1533248Y878883D01*
X1533248Y873903D01*
X1522268Y873903D01*
X1522268Y874872D02*
X1533248Y874872D01*
X1533248Y875841D02*
X1522268Y875841D01*
X1522268Y876810D02*
X1533248Y876810D01*
X1533248Y877779D02*
X1522268Y877779D01*
X1522268Y878748D02*
X1533248Y878748D01*
X1522268Y886603D02*
X1522268Y891583D01*
X1533248Y891583D01*
X1533248Y886603D01*
X1522268Y886603D01*
X1522268Y887572D02*
X1533248Y887572D01*
X1533248Y888541D02*
X1522268Y888541D01*
X1522268Y889510D02*
X1533248Y889510D01*
X1533248Y890479D02*
X1522268Y890479D01*
X1522268Y891448D02*
X1533248Y891448D01*
X1522268Y899303D02*
X1522268Y904283D01*
X1533248Y904283D01*
X1533248Y899303D01*
X1522268Y899303D01*
X1522268Y900272D02*
X1533248Y900272D01*
X1533248Y901241D02*
X1522268Y901241D01*
X1522268Y902210D02*
X1533248Y902210D01*
X1533248Y903179D02*
X1522268Y903179D01*
X1522268Y904148D02*
X1533248Y904148D01*
X1522268Y912003D02*
X1522268Y916983D01*
X1533248Y916983D01*
X1533248Y912003D01*
X1522268Y912003D01*
X1522268Y912972D02*
X1533248Y912972D01*
X1533248Y913941D02*
X1522268Y913941D01*
X1522268Y914910D02*
X1533248Y914910D01*
X1533248Y915879D02*
X1522268Y915879D01*
X1522268Y916848D02*
X1533248Y916848D01*
X1522268Y924703D02*
X1522268Y929683D01*
X1533248Y929683D01*
X1533248Y924703D01*
X1522268Y924703D01*
X1522268Y925672D02*
X1533248Y925672D01*
X1533248Y926641D02*
X1522268Y926641D01*
X1522268Y927610D02*
X1533248Y927610D01*
X1533248Y928579D02*
X1522268Y928579D01*
X1522268Y929548D02*
X1533248Y929548D01*
D12*
X1492258Y848243D02*
X1482258Y848243D01*
X1482258Y857243D01*
X1492258Y857243D01*
X1492258Y848243D01*
X1492258Y849193D02*
X1482258Y849193D01*
X1482258Y850143D02*
X1492258Y850143D01*
X1492258Y851093D02*
X1482258Y851093D01*
X1482258Y852043D02*
X1492258Y852043D01*
X1492258Y852993D02*
X1482258Y852993D01*
X1482258Y853943D02*
X1492258Y853943D01*
X1492258Y854893D02*
X1482258Y854893D01*
X1482258Y855843D02*
X1492258Y855843D01*
X1492258Y856793D02*
X1482258Y856793D01*
X1499258Y848243D02*
X1509258Y848243D01*
X1499258Y848243D02*
X1499258Y857243D01*
X1509258Y857243D01*
X1509258Y848243D01*
X1509258Y849193D02*
X1499258Y849193D01*
X1499258Y850143D02*
X1509258Y850143D01*
X1509258Y851093D02*
X1499258Y851093D01*
X1499258Y852043D02*
X1509258Y852043D01*
X1509258Y852993D02*
X1499258Y852993D01*
X1499258Y853943D02*
X1509258Y853943D01*
X1509258Y854893D02*
X1499258Y854893D01*
X1499258Y855843D02*
X1509258Y855843D01*
X1509258Y856793D02*
X1499258Y856793D01*
X1499258Y917243D02*
X1509258Y917243D01*
X1509258Y908243D01*
X1499258Y908243D01*
X1499258Y917243D01*
X1499258Y909193D02*
X1509258Y909193D01*
X1509258Y910143D02*
X1499258Y910143D01*
X1499258Y911093D02*
X1509258Y911093D01*
X1509258Y912043D02*
X1499258Y912043D01*
X1499258Y912993D02*
X1509258Y912993D01*
X1509258Y913943D02*
X1499258Y913943D01*
X1499258Y914893D02*
X1509258Y914893D01*
X1509258Y915843D02*
X1499258Y915843D01*
X1499258Y916793D02*
X1509258Y916793D01*
X1492258Y917243D02*
X1482258Y917243D01*
X1492258Y917243D02*
X1492258Y908243D01*
X1482258Y908243D01*
X1482258Y917243D01*
X1482258Y909193D02*
X1492258Y909193D01*
X1492258Y910143D02*
X1482258Y910143D01*
X1482258Y911093D02*
X1492258Y911093D01*
X1492258Y912043D02*
X1482258Y912043D01*
X1482258Y912993D02*
X1492258Y912993D01*
X1492258Y913943D02*
X1482258Y913943D01*
X1482258Y914893D02*
X1492258Y914893D01*
X1492258Y915843D02*
X1482258Y915843D01*
X1482258Y916793D02*
X1492258Y916793D01*
D11*
X1507748Y890233D02*
X1507748Y888253D01*
X1502168Y888253D01*
X1502168Y890233D01*
X1507748Y890233D01*
X1507748Y889222D02*
X1502168Y889222D01*
X1502168Y890191D02*
X1507748Y890191D01*
X1483768Y883733D02*
X1483768Y881753D01*
X1483768Y883733D02*
X1489348Y883733D01*
X1489348Y881753D01*
X1483768Y881753D01*
X1483768Y882722D02*
X1489348Y882722D01*
X1489348Y883691D02*
X1483768Y883691D01*
X1483768Y877233D02*
X1483768Y875253D01*
X1483768Y877233D02*
X1489348Y877233D01*
X1489348Y875253D01*
X1483768Y875253D01*
X1483768Y876222D02*
X1489348Y876222D01*
X1489348Y877191D02*
X1483768Y877191D01*
X1483768Y888253D02*
X1483768Y890233D01*
X1489348Y890233D01*
X1489348Y888253D01*
X1483768Y888253D01*
X1483768Y889222D02*
X1489348Y889222D01*
X1489348Y890191D02*
X1483768Y890191D01*
X1507748Y883733D02*
X1507748Y881753D01*
X1502168Y881753D01*
X1502168Y883733D01*
X1507748Y883733D01*
X1507748Y882722D02*
X1502168Y882722D01*
X1502168Y883691D02*
X1507748Y883691D01*
X1507748Y877233D02*
X1507748Y875253D01*
X1502168Y875253D01*
X1502168Y877233D01*
X1507748Y877233D01*
X1507748Y876222D02*
X1502168Y876222D01*
X1502168Y877191D02*
X1507748Y877191D01*
D12*
X1542258Y938243D02*
X1552258Y938243D01*
X1542258Y938243D02*
X1542258Y947243D01*
X1552258Y947243D01*
X1552258Y938243D01*
X1552258Y939193D02*
X1542258Y939193D01*
X1542258Y940143D02*
X1552258Y940143D01*
X1552258Y941093D02*
X1542258Y941093D01*
X1542258Y942043D02*
X1552258Y942043D01*
X1552258Y942993D02*
X1542258Y942993D01*
X1542258Y943943D02*
X1552258Y943943D01*
X1552258Y944893D02*
X1542258Y944893D01*
X1542258Y945843D02*
X1552258Y945843D01*
X1552258Y946793D02*
X1542258Y946793D01*
X1559258Y938243D02*
X1569258Y938243D01*
X1559258Y938243D02*
X1559258Y947243D01*
X1569258Y947243D01*
X1569258Y938243D01*
X1569258Y939193D02*
X1559258Y939193D01*
X1559258Y940143D02*
X1569258Y940143D01*
X1569258Y941093D02*
X1559258Y941093D01*
X1559258Y942043D02*
X1569258Y942043D01*
X1569258Y942993D02*
X1559258Y942993D01*
X1559258Y943943D02*
X1569258Y943943D01*
X1569258Y944893D02*
X1559258Y944893D01*
X1559258Y945843D02*
X1569258Y945843D01*
X1569258Y946793D02*
X1559258Y946793D01*
X1822258Y898243D02*
X1832258Y898243D01*
X1822258Y898243D02*
X1822258Y907243D01*
X1832258Y907243D01*
X1832258Y898243D01*
X1832258Y899193D02*
X1822258Y899193D01*
X1822258Y900143D02*
X1832258Y900143D01*
X1832258Y901093D02*
X1822258Y901093D01*
X1822258Y902043D02*
X1832258Y902043D01*
X1832258Y902993D02*
X1822258Y902993D01*
X1822258Y903943D02*
X1832258Y903943D01*
X1832258Y904893D02*
X1822258Y904893D01*
X1822258Y905843D02*
X1832258Y905843D01*
X1832258Y906793D02*
X1822258Y906793D01*
X1839258Y898243D02*
X1849258Y898243D01*
X1839258Y898243D02*
X1839258Y907243D01*
X1849258Y907243D01*
X1849258Y898243D01*
X1849258Y899193D02*
X1839258Y899193D01*
X1839258Y900143D02*
X1849258Y900143D01*
X1849258Y901093D02*
X1839258Y901093D01*
X1839258Y902043D02*
X1849258Y902043D01*
X1849258Y902993D02*
X1839258Y902993D01*
X1839258Y903943D02*
X1849258Y903943D01*
X1849258Y904893D02*
X1839258Y904893D01*
X1839258Y905843D02*
X1849258Y905843D01*
X1849258Y906793D02*
X1839258Y906793D01*
X1949258Y1007243D02*
X1959258Y1007243D01*
X1959258Y998243D01*
X1949258Y998243D01*
X1949258Y1007243D01*
X1949258Y999193D02*
X1959258Y999193D01*
X1959258Y1000143D02*
X1949258Y1000143D01*
X1949258Y1001093D02*
X1959258Y1001093D01*
X1959258Y1002043D02*
X1949258Y1002043D01*
X1949258Y1002993D02*
X1959258Y1002993D01*
X1959258Y1003943D02*
X1949258Y1003943D01*
X1949258Y1004893D02*
X1959258Y1004893D01*
X1959258Y1005843D02*
X1949258Y1005843D01*
X1949258Y1006793D02*
X1959258Y1006793D01*
X1942258Y1007243D02*
X1932258Y1007243D01*
X1942258Y1007243D02*
X1942258Y998243D01*
X1932258Y998243D01*
X1932258Y1007243D01*
X1932258Y999193D02*
X1942258Y999193D01*
X1942258Y1000143D02*
X1932258Y1000143D01*
X1932258Y1001093D02*
X1942258Y1001093D01*
X1942258Y1002043D02*
X1932258Y1002043D01*
X1932258Y1002993D02*
X1942258Y1002993D01*
X1942258Y1003943D02*
X1932258Y1003943D01*
X1932258Y1004893D02*
X1942258Y1004893D01*
X1942258Y1005843D02*
X1932258Y1005843D01*
X1932258Y1006793D02*
X1942258Y1006793D01*
D14*
X1535758Y998748D03*
X1540758Y998748D03*
X1545758Y998748D03*
X1530758Y998748D03*
X1525758Y998748D03*
X1525758Y1026738D03*
X1530758Y1026738D03*
X1535758Y1026738D03*
X1540758Y1026738D03*
X1545758Y1026738D03*
D15*
X1535758Y1012743D03*
D12*
X1499258Y1057243D02*
X1489258Y1057243D01*
X1499258Y1057243D02*
X1499258Y1048243D01*
X1489258Y1048243D01*
X1489258Y1057243D01*
X1489258Y1049193D02*
X1499258Y1049193D01*
X1499258Y1050143D02*
X1489258Y1050143D01*
X1489258Y1051093D02*
X1499258Y1051093D01*
X1499258Y1052043D02*
X1489258Y1052043D01*
X1489258Y1052993D02*
X1499258Y1052993D01*
X1499258Y1053943D02*
X1489258Y1053943D01*
X1489258Y1054893D02*
X1499258Y1054893D01*
X1499258Y1055843D02*
X1489258Y1055843D01*
X1489258Y1056793D02*
X1499258Y1056793D01*
X1482258Y1057243D02*
X1472258Y1057243D01*
X1482258Y1057243D02*
X1482258Y1048243D01*
X1472258Y1048243D01*
X1472258Y1057243D01*
X1472258Y1049193D02*
X1482258Y1049193D01*
X1482258Y1050143D02*
X1472258Y1050143D01*
X1472258Y1051093D02*
X1482258Y1051093D01*
X1482258Y1052043D02*
X1472258Y1052043D01*
X1472258Y1052993D02*
X1482258Y1052993D01*
X1482258Y1053943D02*
X1472258Y1053943D01*
X1472258Y1054893D02*
X1482258Y1054893D01*
X1482258Y1055843D02*
X1472258Y1055843D01*
X1472258Y1056793D02*
X1482258Y1056793D01*
X1489258Y1037243D02*
X1499258Y1037243D01*
X1499258Y1028243D01*
X1489258Y1028243D01*
X1489258Y1037243D01*
X1489258Y1029193D02*
X1499258Y1029193D01*
X1499258Y1030143D02*
X1489258Y1030143D01*
X1489258Y1031093D02*
X1499258Y1031093D01*
X1499258Y1032043D02*
X1489258Y1032043D01*
X1489258Y1032993D02*
X1499258Y1032993D01*
X1499258Y1033943D02*
X1489258Y1033943D01*
X1489258Y1034893D02*
X1499258Y1034893D01*
X1499258Y1035843D02*
X1489258Y1035843D01*
X1489258Y1036793D02*
X1499258Y1036793D01*
X1482258Y1037243D02*
X1472258Y1037243D01*
X1482258Y1037243D02*
X1482258Y1028243D01*
X1472258Y1028243D01*
X1472258Y1037243D01*
X1472258Y1029193D02*
X1482258Y1029193D01*
X1482258Y1030143D02*
X1472258Y1030143D01*
X1472258Y1031093D02*
X1482258Y1031093D01*
X1482258Y1032043D02*
X1472258Y1032043D01*
X1472258Y1032993D02*
X1482258Y1032993D01*
X1482258Y1033943D02*
X1472258Y1033943D01*
X1472258Y1034893D02*
X1482258Y1034893D01*
X1482258Y1035843D02*
X1472258Y1035843D01*
X1472258Y1036793D02*
X1482258Y1036793D01*
X1489258Y1077243D02*
X1499258Y1077243D01*
X1499258Y1068243D01*
X1489258Y1068243D01*
X1489258Y1077243D01*
X1489258Y1069193D02*
X1499258Y1069193D01*
X1499258Y1070143D02*
X1489258Y1070143D01*
X1489258Y1071093D02*
X1499258Y1071093D01*
X1499258Y1072043D02*
X1489258Y1072043D01*
X1489258Y1072993D02*
X1499258Y1072993D01*
X1499258Y1073943D02*
X1489258Y1073943D01*
X1489258Y1074893D02*
X1499258Y1074893D01*
X1499258Y1075843D02*
X1489258Y1075843D01*
X1489258Y1076793D02*
X1499258Y1076793D01*
X1482258Y1077243D02*
X1472258Y1077243D01*
X1482258Y1077243D02*
X1482258Y1068243D01*
X1472258Y1068243D01*
X1472258Y1077243D01*
X1472258Y1069193D02*
X1482258Y1069193D01*
X1482258Y1070143D02*
X1472258Y1070143D01*
X1472258Y1071093D02*
X1482258Y1071093D01*
X1482258Y1072043D02*
X1472258Y1072043D01*
X1472258Y1072993D02*
X1482258Y1072993D01*
X1482258Y1073943D02*
X1472258Y1073943D01*
X1472258Y1074893D02*
X1482258Y1074893D01*
X1482258Y1075843D02*
X1472258Y1075843D01*
X1472258Y1076793D02*
X1482258Y1076793D01*
X1822258Y868243D02*
X1832258Y868243D01*
X1822258Y868243D02*
X1822258Y877243D01*
X1832258Y877243D01*
X1832258Y868243D01*
X1832258Y869193D02*
X1822258Y869193D01*
X1822258Y870143D02*
X1832258Y870143D01*
X1832258Y871093D02*
X1822258Y871093D01*
X1822258Y872043D02*
X1832258Y872043D01*
X1832258Y872993D02*
X1822258Y872993D01*
X1822258Y873943D02*
X1832258Y873943D01*
X1832258Y874893D02*
X1822258Y874893D01*
X1822258Y875843D02*
X1832258Y875843D01*
X1832258Y876793D02*
X1822258Y876793D01*
X1839258Y868243D02*
X1849258Y868243D01*
X1839258Y868243D02*
X1839258Y877243D01*
X1849258Y877243D01*
X1849258Y868243D01*
X1849258Y869193D02*
X1839258Y869193D01*
X1839258Y870143D02*
X1849258Y870143D01*
X1849258Y871093D02*
X1839258Y871093D01*
X1839258Y872043D02*
X1849258Y872043D01*
X1849258Y872993D02*
X1839258Y872993D01*
X1839258Y873943D02*
X1849258Y873943D01*
X1849258Y874893D02*
X1839258Y874893D01*
X1839258Y875843D02*
X1849258Y875843D01*
X1849258Y876793D02*
X1839258Y876793D01*
D16*
X1805143Y1013038D02*
X1805143Y1021048D01*
X1805143Y1013038D02*
X1791133Y1013038D01*
X1791133Y1021048D01*
X1805143Y1021048D01*
X1805143Y1013978D02*
X1791133Y1013978D01*
X1791133Y1014918D02*
X1805143Y1014918D01*
X1805143Y1015858D02*
X1791133Y1015858D01*
X1791133Y1016798D02*
X1805143Y1016798D01*
X1805143Y1017738D02*
X1791133Y1017738D01*
X1791133Y1018678D02*
X1805143Y1018678D01*
X1805143Y1019618D02*
X1791133Y1019618D01*
X1791133Y1020558D02*
X1805143Y1020558D01*
X1805143Y1008348D02*
X1805143Y1000338D01*
X1791133Y1000338D01*
X1791133Y1008348D01*
X1805143Y1008348D01*
X1805143Y1001278D02*
X1791133Y1001278D01*
X1791133Y1002218D02*
X1805143Y1002218D01*
X1805143Y1003158D02*
X1791133Y1003158D01*
X1791133Y1004098D02*
X1805143Y1004098D01*
X1805143Y1005038D02*
X1791133Y1005038D01*
X1791133Y1005978D02*
X1805143Y1005978D01*
X1805143Y1006918D02*
X1791133Y1006918D01*
X1791133Y1007858D02*
X1805143Y1007858D01*
X1805143Y995648D02*
X1805143Y987638D01*
X1791133Y987638D01*
X1791133Y995648D01*
X1805143Y995648D01*
X1805143Y988578D02*
X1791133Y988578D01*
X1791133Y989518D02*
X1805143Y989518D01*
X1805143Y990458D02*
X1791133Y990458D01*
X1791133Y991398D02*
X1805143Y991398D01*
X1805143Y992338D02*
X1791133Y992338D01*
X1791133Y993278D02*
X1805143Y993278D01*
X1805143Y994218D02*
X1791133Y994218D01*
X1791133Y995158D02*
X1805143Y995158D01*
X1805143Y982948D02*
X1805143Y974938D01*
X1791133Y974938D01*
X1791133Y982948D01*
X1805143Y982948D01*
X1805143Y975878D02*
X1791133Y975878D01*
X1791133Y976818D02*
X1805143Y976818D01*
X1805143Y977758D02*
X1791133Y977758D01*
X1791133Y978698D02*
X1805143Y978698D01*
X1805143Y979638D02*
X1791133Y979638D01*
X1791133Y980578D02*
X1805143Y980578D01*
X1805143Y981518D02*
X1791133Y981518D01*
X1791133Y982458D02*
X1805143Y982458D01*
X1805143Y970248D02*
X1805143Y962238D01*
X1791133Y962238D01*
X1791133Y970248D01*
X1805143Y970248D01*
X1805143Y963178D02*
X1791133Y963178D01*
X1791133Y964118D02*
X1805143Y964118D01*
X1805143Y965058D02*
X1791133Y965058D01*
X1791133Y965998D02*
X1805143Y965998D01*
X1805143Y966938D02*
X1791133Y966938D01*
X1791133Y967878D02*
X1805143Y967878D01*
X1805143Y968818D02*
X1791133Y968818D01*
X1791133Y969758D02*
X1805143Y969758D01*
X1805143Y957548D02*
X1805143Y949538D01*
X1791133Y949538D01*
X1791133Y957548D01*
X1805143Y957548D01*
X1805143Y950478D02*
X1791133Y950478D01*
X1791133Y951418D02*
X1805143Y951418D01*
X1805143Y952358D02*
X1791133Y952358D01*
X1791133Y953298D02*
X1805143Y953298D01*
X1805143Y954238D02*
X1791133Y954238D01*
X1791133Y955178D02*
X1805143Y955178D01*
X1805143Y956118D02*
X1791133Y956118D01*
X1791133Y957058D02*
X1805143Y957058D01*
X1805143Y944848D02*
X1805143Y936838D01*
X1791133Y936838D01*
X1791133Y944848D01*
X1805143Y944848D01*
X1805143Y937778D02*
X1791133Y937778D01*
X1791133Y938718D02*
X1805143Y938718D01*
X1805143Y939658D02*
X1791133Y939658D01*
X1791133Y940598D02*
X1805143Y940598D01*
X1805143Y941538D02*
X1791133Y941538D01*
X1791133Y942478D02*
X1805143Y942478D01*
X1805143Y943418D02*
X1791133Y943418D01*
X1791133Y944358D02*
X1805143Y944358D01*
X1805143Y932148D02*
X1805143Y924138D01*
X1791133Y924138D01*
X1791133Y932148D01*
X1805143Y932148D01*
X1805143Y925078D02*
X1791133Y925078D01*
X1791133Y926018D02*
X1805143Y926018D01*
X1805143Y926958D02*
X1791133Y926958D01*
X1791133Y927898D02*
X1805143Y927898D01*
X1805143Y928838D02*
X1791133Y928838D01*
X1791133Y929778D02*
X1805143Y929778D01*
X1805143Y930718D02*
X1791133Y930718D01*
X1791133Y931658D02*
X1805143Y931658D01*
X1805143Y919448D02*
X1805143Y911438D01*
X1791133Y911438D01*
X1791133Y919448D01*
X1805143Y919448D01*
X1805143Y912378D02*
X1791133Y912378D01*
X1791133Y913318D02*
X1805143Y913318D01*
X1805143Y914258D02*
X1791133Y914258D01*
X1791133Y915198D02*
X1805143Y915198D01*
X1805143Y916138D02*
X1791133Y916138D01*
X1791133Y917078D02*
X1805143Y917078D01*
X1805143Y918018D02*
X1791133Y918018D01*
X1791133Y918958D02*
X1805143Y918958D01*
X1805143Y906748D02*
X1805143Y898738D01*
X1791133Y898738D01*
X1791133Y906748D01*
X1805143Y906748D01*
X1805143Y899678D02*
X1791133Y899678D01*
X1791133Y900618D02*
X1805143Y900618D01*
X1805143Y901558D02*
X1791133Y901558D01*
X1791133Y902498D02*
X1805143Y902498D01*
X1805143Y903438D02*
X1791133Y903438D01*
X1791133Y904378D02*
X1805143Y904378D01*
X1805143Y905318D02*
X1791133Y905318D01*
X1791133Y906258D02*
X1805143Y906258D01*
X1805143Y894048D02*
X1805143Y886038D01*
X1791133Y886038D01*
X1791133Y894048D01*
X1805143Y894048D01*
X1805143Y886978D02*
X1791133Y886978D01*
X1791133Y887918D02*
X1805143Y887918D01*
X1805143Y888858D02*
X1791133Y888858D01*
X1791133Y889798D02*
X1805143Y889798D01*
X1805143Y890738D02*
X1791133Y890738D01*
X1791133Y891678D02*
X1805143Y891678D01*
X1805143Y892618D02*
X1791133Y892618D01*
X1791133Y893558D02*
X1805143Y893558D01*
X1805143Y881348D02*
X1805143Y873338D01*
X1791133Y873338D01*
X1791133Y881348D01*
X1805143Y881348D01*
X1805143Y874278D02*
X1791133Y874278D01*
X1791133Y875218D02*
X1805143Y875218D01*
X1805143Y876158D02*
X1791133Y876158D01*
X1791133Y877098D02*
X1805143Y877098D01*
X1805143Y878038D02*
X1791133Y878038D01*
X1791133Y878978D02*
X1805143Y878978D01*
X1805143Y879918D02*
X1791133Y879918D01*
X1791133Y880858D02*
X1805143Y880858D01*
X1805143Y868648D02*
X1805143Y860638D01*
X1791133Y860638D01*
X1791133Y868648D01*
X1805143Y868648D01*
X1805143Y861578D02*
X1791133Y861578D01*
X1791133Y862518D02*
X1805143Y862518D01*
X1805143Y863458D02*
X1791133Y863458D01*
X1791133Y864398D02*
X1805143Y864398D01*
X1805143Y865338D02*
X1791133Y865338D01*
X1791133Y866278D02*
X1805143Y866278D01*
X1805143Y867218D02*
X1791133Y867218D01*
X1791133Y868158D02*
X1805143Y868158D01*
X1805143Y855948D02*
X1805143Y847938D01*
X1791133Y847938D01*
X1791133Y855948D01*
X1805143Y855948D01*
X1805143Y848878D02*
X1791133Y848878D01*
X1791133Y849818D02*
X1805143Y849818D01*
X1805143Y850758D02*
X1791133Y850758D01*
X1791133Y851698D02*
X1805143Y851698D01*
X1805143Y852638D02*
X1791133Y852638D01*
X1791133Y853578D02*
X1805143Y853578D01*
X1805143Y854518D02*
X1791133Y854518D01*
X1791133Y855458D02*
X1805143Y855458D01*
X1776913Y830038D02*
X1768903Y830038D01*
X1768903Y844048D01*
X1776913Y844048D01*
X1776913Y830038D01*
X1776913Y830978D02*
X1768903Y830978D01*
X1768903Y831918D02*
X1776913Y831918D01*
X1776913Y832858D02*
X1768903Y832858D01*
X1768903Y833798D02*
X1776913Y833798D01*
X1776913Y834738D02*
X1768903Y834738D01*
X1768903Y835678D02*
X1776913Y835678D01*
X1776913Y836618D02*
X1768903Y836618D01*
X1768903Y837558D02*
X1776913Y837558D01*
X1776913Y838498D02*
X1768903Y838498D01*
X1768903Y839438D02*
X1776913Y839438D01*
X1776913Y840378D02*
X1768903Y840378D01*
X1768903Y841318D02*
X1776913Y841318D01*
X1776913Y842258D02*
X1768903Y842258D01*
X1768903Y843198D02*
X1776913Y843198D01*
X1764213Y830038D02*
X1756203Y830038D01*
X1756203Y844048D01*
X1764213Y844048D01*
X1764213Y830038D01*
X1764213Y830978D02*
X1756203Y830978D01*
X1756203Y831918D02*
X1764213Y831918D01*
X1764213Y832858D02*
X1756203Y832858D01*
X1756203Y833798D02*
X1764213Y833798D01*
X1764213Y834738D02*
X1756203Y834738D01*
X1756203Y835678D02*
X1764213Y835678D01*
X1764213Y836618D02*
X1756203Y836618D01*
X1756203Y837558D02*
X1764213Y837558D01*
X1764213Y838498D02*
X1756203Y838498D01*
X1756203Y839438D02*
X1764213Y839438D01*
X1764213Y840378D02*
X1756203Y840378D01*
X1756203Y841318D02*
X1764213Y841318D01*
X1764213Y842258D02*
X1756203Y842258D01*
X1756203Y843198D02*
X1764213Y843198D01*
X1751513Y830038D02*
X1743503Y830038D01*
X1743503Y844048D01*
X1751513Y844048D01*
X1751513Y830038D01*
X1751513Y830978D02*
X1743503Y830978D01*
X1743503Y831918D02*
X1751513Y831918D01*
X1751513Y832858D02*
X1743503Y832858D01*
X1743503Y833798D02*
X1751513Y833798D01*
X1751513Y834738D02*
X1743503Y834738D01*
X1743503Y835678D02*
X1751513Y835678D01*
X1751513Y836618D02*
X1743503Y836618D01*
X1743503Y837558D02*
X1751513Y837558D01*
X1751513Y838498D02*
X1743503Y838498D01*
X1743503Y839438D02*
X1751513Y839438D01*
X1751513Y840378D02*
X1743503Y840378D01*
X1743503Y841318D02*
X1751513Y841318D01*
X1751513Y842258D02*
X1743503Y842258D01*
X1743503Y843198D02*
X1751513Y843198D01*
X1738813Y830038D02*
X1730803Y830038D01*
X1730803Y844048D01*
X1738813Y844048D01*
X1738813Y830038D01*
X1738813Y830978D02*
X1730803Y830978D01*
X1730803Y831918D02*
X1738813Y831918D01*
X1738813Y832858D02*
X1730803Y832858D01*
X1730803Y833798D02*
X1738813Y833798D01*
X1738813Y834738D02*
X1730803Y834738D01*
X1730803Y835678D02*
X1738813Y835678D01*
X1738813Y836618D02*
X1730803Y836618D01*
X1730803Y837558D02*
X1738813Y837558D01*
X1738813Y838498D02*
X1730803Y838498D01*
X1730803Y839438D02*
X1738813Y839438D01*
X1738813Y840378D02*
X1730803Y840378D01*
X1730803Y841318D02*
X1738813Y841318D01*
X1738813Y842258D02*
X1730803Y842258D01*
X1730803Y843198D02*
X1738813Y843198D01*
X1726113Y830038D02*
X1718103Y830038D01*
X1718103Y844048D01*
X1726113Y844048D01*
X1726113Y830038D01*
X1726113Y830978D02*
X1718103Y830978D01*
X1718103Y831918D02*
X1726113Y831918D01*
X1726113Y832858D02*
X1718103Y832858D01*
X1718103Y833798D02*
X1726113Y833798D01*
X1726113Y834738D02*
X1718103Y834738D01*
X1718103Y835678D02*
X1726113Y835678D01*
X1726113Y836618D02*
X1718103Y836618D01*
X1718103Y837558D02*
X1726113Y837558D01*
X1726113Y838498D02*
X1718103Y838498D01*
X1718103Y839438D02*
X1726113Y839438D01*
X1726113Y840378D02*
X1718103Y840378D01*
X1718103Y841318D02*
X1726113Y841318D01*
X1726113Y842258D02*
X1718103Y842258D01*
X1718103Y843198D02*
X1726113Y843198D01*
X1713413Y830038D02*
X1705403Y830038D01*
X1705403Y844048D01*
X1713413Y844048D01*
X1713413Y830038D01*
X1713413Y830978D02*
X1705403Y830978D01*
X1705403Y831918D02*
X1713413Y831918D01*
X1713413Y832858D02*
X1705403Y832858D01*
X1705403Y833798D02*
X1713413Y833798D01*
X1713413Y834738D02*
X1705403Y834738D01*
X1705403Y835678D02*
X1713413Y835678D01*
X1713413Y836618D02*
X1705403Y836618D01*
X1705403Y837558D02*
X1713413Y837558D01*
X1713413Y838498D02*
X1705403Y838498D01*
X1705403Y839438D02*
X1713413Y839438D01*
X1713413Y840378D02*
X1705403Y840378D01*
X1705403Y841318D02*
X1713413Y841318D01*
X1713413Y842258D02*
X1705403Y842258D01*
X1705403Y843198D02*
X1713413Y843198D01*
X1700713Y830038D02*
X1692703Y830038D01*
X1692703Y844048D01*
X1700713Y844048D01*
X1700713Y830038D01*
X1700713Y830978D02*
X1692703Y830978D01*
X1692703Y831918D02*
X1700713Y831918D01*
X1700713Y832858D02*
X1692703Y832858D01*
X1692703Y833798D02*
X1700713Y833798D01*
X1700713Y834738D02*
X1692703Y834738D01*
X1692703Y835678D02*
X1700713Y835678D01*
X1700713Y836618D02*
X1692703Y836618D01*
X1692703Y837558D02*
X1700713Y837558D01*
X1700713Y838498D02*
X1692703Y838498D01*
X1692703Y839438D02*
X1700713Y839438D01*
X1700713Y840378D02*
X1692703Y840378D01*
X1692703Y841318D02*
X1700713Y841318D01*
X1700713Y842258D02*
X1692703Y842258D01*
X1692703Y843198D02*
X1700713Y843198D01*
X1688013Y830038D02*
X1680003Y830038D01*
X1680003Y844048D01*
X1688013Y844048D01*
X1688013Y830038D01*
X1688013Y830978D02*
X1680003Y830978D01*
X1680003Y831918D02*
X1688013Y831918D01*
X1688013Y832858D02*
X1680003Y832858D01*
X1680003Y833798D02*
X1688013Y833798D01*
X1688013Y834738D02*
X1680003Y834738D01*
X1680003Y835678D02*
X1688013Y835678D01*
X1688013Y836618D02*
X1680003Y836618D01*
X1680003Y837558D02*
X1688013Y837558D01*
X1688013Y838498D02*
X1680003Y838498D01*
X1680003Y839438D02*
X1688013Y839438D01*
X1688013Y840378D02*
X1680003Y840378D01*
X1680003Y841318D02*
X1688013Y841318D01*
X1688013Y842258D02*
X1680003Y842258D01*
X1680003Y843198D02*
X1688013Y843198D01*
X1675313Y830038D02*
X1667303Y830038D01*
X1667303Y844048D01*
X1675313Y844048D01*
X1675313Y830038D01*
X1675313Y830978D02*
X1667303Y830978D01*
X1667303Y831918D02*
X1675313Y831918D01*
X1675313Y832858D02*
X1667303Y832858D01*
X1667303Y833798D02*
X1675313Y833798D01*
X1675313Y834738D02*
X1667303Y834738D01*
X1667303Y835678D02*
X1675313Y835678D01*
X1675313Y836618D02*
X1667303Y836618D01*
X1667303Y837558D02*
X1675313Y837558D01*
X1675313Y838498D02*
X1667303Y838498D01*
X1667303Y839438D02*
X1675313Y839438D01*
X1675313Y840378D02*
X1667303Y840378D01*
X1667303Y841318D02*
X1675313Y841318D01*
X1675313Y842258D02*
X1667303Y842258D01*
X1667303Y843198D02*
X1675313Y843198D01*
X1662613Y830038D02*
X1654603Y830038D01*
X1654603Y844048D01*
X1662613Y844048D01*
X1662613Y830038D01*
X1662613Y830978D02*
X1654603Y830978D01*
X1654603Y831918D02*
X1662613Y831918D01*
X1662613Y832858D02*
X1654603Y832858D01*
X1654603Y833798D02*
X1662613Y833798D01*
X1662613Y834738D02*
X1654603Y834738D01*
X1654603Y835678D02*
X1662613Y835678D01*
X1662613Y836618D02*
X1654603Y836618D01*
X1654603Y837558D02*
X1662613Y837558D01*
X1662613Y838498D02*
X1654603Y838498D01*
X1654603Y839438D02*
X1662613Y839438D01*
X1662613Y840378D02*
X1654603Y840378D01*
X1654603Y841318D02*
X1662613Y841318D01*
X1662613Y842258D02*
X1654603Y842258D01*
X1654603Y843198D02*
X1662613Y843198D01*
X1640383Y847938D02*
X1640383Y855948D01*
X1640383Y847938D02*
X1626373Y847938D01*
X1626373Y855948D01*
X1640383Y855948D01*
X1640383Y848878D02*
X1626373Y848878D01*
X1626373Y849818D02*
X1640383Y849818D01*
X1640383Y850758D02*
X1626373Y850758D01*
X1626373Y851698D02*
X1640383Y851698D01*
X1640383Y852638D02*
X1626373Y852638D01*
X1626373Y853578D02*
X1640383Y853578D01*
X1640383Y854518D02*
X1626373Y854518D01*
X1626373Y855458D02*
X1640383Y855458D01*
X1640383Y860638D02*
X1640383Y868648D01*
X1640383Y860638D02*
X1626373Y860638D01*
X1626373Y868648D01*
X1640383Y868648D01*
X1640383Y861578D02*
X1626373Y861578D01*
X1626373Y862518D02*
X1640383Y862518D01*
X1640383Y863458D02*
X1626373Y863458D01*
X1626373Y864398D02*
X1640383Y864398D01*
X1640383Y865338D02*
X1626373Y865338D01*
X1626373Y866278D02*
X1640383Y866278D01*
X1640383Y867218D02*
X1626373Y867218D01*
X1626373Y868158D02*
X1640383Y868158D01*
X1640383Y873338D02*
X1640383Y881348D01*
X1640383Y873338D02*
X1626373Y873338D01*
X1626373Y881348D01*
X1640383Y881348D01*
X1640383Y874278D02*
X1626373Y874278D01*
X1626373Y875218D02*
X1640383Y875218D01*
X1640383Y876158D02*
X1626373Y876158D01*
X1626373Y877098D02*
X1640383Y877098D01*
X1640383Y878038D02*
X1626373Y878038D01*
X1626373Y878978D02*
X1640383Y878978D01*
X1640383Y879918D02*
X1626373Y879918D01*
X1626373Y880858D02*
X1640383Y880858D01*
X1640383Y886038D02*
X1640383Y894048D01*
X1640383Y886038D02*
X1626373Y886038D01*
X1626373Y894048D01*
X1640383Y894048D01*
X1640383Y886978D02*
X1626373Y886978D01*
X1626373Y887918D02*
X1640383Y887918D01*
X1640383Y888858D02*
X1626373Y888858D01*
X1626373Y889798D02*
X1640383Y889798D01*
X1640383Y890738D02*
X1626373Y890738D01*
X1626373Y891678D02*
X1640383Y891678D01*
X1640383Y892618D02*
X1626373Y892618D01*
X1626373Y893558D02*
X1640383Y893558D01*
X1640383Y898738D02*
X1640383Y906748D01*
X1640383Y898738D02*
X1626373Y898738D01*
X1626373Y906748D01*
X1640383Y906748D01*
X1640383Y899678D02*
X1626373Y899678D01*
X1626373Y900618D02*
X1640383Y900618D01*
X1640383Y901558D02*
X1626373Y901558D01*
X1626373Y902498D02*
X1640383Y902498D01*
X1640383Y903438D02*
X1626373Y903438D01*
X1626373Y904378D02*
X1640383Y904378D01*
X1640383Y905318D02*
X1626373Y905318D01*
X1626373Y906258D02*
X1640383Y906258D01*
X1640383Y911438D02*
X1640383Y919448D01*
X1640383Y911438D02*
X1626373Y911438D01*
X1626373Y919448D01*
X1640383Y919448D01*
X1640383Y912378D02*
X1626373Y912378D01*
X1626373Y913318D02*
X1640383Y913318D01*
X1640383Y914258D02*
X1626373Y914258D01*
X1626373Y915198D02*
X1640383Y915198D01*
X1640383Y916138D02*
X1626373Y916138D01*
X1626373Y917078D02*
X1640383Y917078D01*
X1640383Y918018D02*
X1626373Y918018D01*
X1626373Y918958D02*
X1640383Y918958D01*
X1640383Y924138D02*
X1640383Y932148D01*
X1640383Y924138D02*
X1626373Y924138D01*
X1626373Y932148D01*
X1640383Y932148D01*
X1640383Y925078D02*
X1626373Y925078D01*
X1626373Y926018D02*
X1640383Y926018D01*
X1640383Y926958D02*
X1626373Y926958D01*
X1626373Y927898D02*
X1640383Y927898D01*
X1640383Y928838D02*
X1626373Y928838D01*
X1626373Y929778D02*
X1640383Y929778D01*
X1640383Y930718D02*
X1626373Y930718D01*
X1626373Y931658D02*
X1640383Y931658D01*
X1640383Y936838D02*
X1640383Y944848D01*
X1640383Y936838D02*
X1626373Y936838D01*
X1626373Y944848D01*
X1640383Y944848D01*
X1640383Y937778D02*
X1626373Y937778D01*
X1626373Y938718D02*
X1640383Y938718D01*
X1640383Y939658D02*
X1626373Y939658D01*
X1626373Y940598D02*
X1640383Y940598D01*
X1640383Y941538D02*
X1626373Y941538D01*
X1626373Y942478D02*
X1640383Y942478D01*
X1640383Y943418D02*
X1626373Y943418D01*
X1626373Y944358D02*
X1640383Y944358D01*
X1640383Y949538D02*
X1640383Y957548D01*
X1640383Y949538D02*
X1626373Y949538D01*
X1626373Y957548D01*
X1640383Y957548D01*
X1640383Y950478D02*
X1626373Y950478D01*
X1626373Y951418D02*
X1640383Y951418D01*
X1640383Y952358D02*
X1626373Y952358D01*
X1626373Y953298D02*
X1640383Y953298D01*
X1640383Y954238D02*
X1626373Y954238D01*
X1626373Y955178D02*
X1640383Y955178D01*
X1640383Y956118D02*
X1626373Y956118D01*
X1626373Y957058D02*
X1640383Y957058D01*
X1640383Y962238D02*
X1640383Y970248D01*
X1640383Y962238D02*
X1626373Y962238D01*
X1626373Y970248D01*
X1640383Y970248D01*
X1640383Y963178D02*
X1626373Y963178D01*
X1626373Y964118D02*
X1640383Y964118D01*
X1640383Y965058D02*
X1626373Y965058D01*
X1626373Y965998D02*
X1640383Y965998D01*
X1640383Y966938D02*
X1626373Y966938D01*
X1626373Y967878D02*
X1640383Y967878D01*
X1640383Y968818D02*
X1626373Y968818D01*
X1626373Y969758D02*
X1640383Y969758D01*
X1640383Y974938D02*
X1640383Y982948D01*
X1640383Y974938D02*
X1626373Y974938D01*
X1626373Y982948D01*
X1640383Y982948D01*
X1640383Y975878D02*
X1626373Y975878D01*
X1626373Y976818D02*
X1640383Y976818D01*
X1640383Y977758D02*
X1626373Y977758D01*
X1626373Y978698D02*
X1640383Y978698D01*
X1640383Y979638D02*
X1626373Y979638D01*
X1626373Y980578D02*
X1640383Y980578D01*
X1640383Y981518D02*
X1626373Y981518D01*
X1626373Y982458D02*
X1640383Y982458D01*
X1640383Y987638D02*
X1640383Y995648D01*
X1640383Y987638D02*
X1626373Y987638D01*
X1626373Y995648D01*
X1640383Y995648D01*
X1640383Y988578D02*
X1626373Y988578D01*
X1626373Y989518D02*
X1640383Y989518D01*
X1640383Y990458D02*
X1626373Y990458D01*
X1626373Y991398D02*
X1640383Y991398D01*
X1640383Y992338D02*
X1626373Y992338D01*
X1626373Y993278D02*
X1640383Y993278D01*
X1640383Y994218D02*
X1626373Y994218D01*
X1626373Y995158D02*
X1640383Y995158D01*
X1640383Y1000338D02*
X1640383Y1008348D01*
X1640383Y1000338D02*
X1626373Y1000338D01*
X1626373Y1008348D01*
X1640383Y1008348D01*
X1640383Y1001278D02*
X1626373Y1001278D01*
X1626373Y1002218D02*
X1640383Y1002218D01*
X1640383Y1003158D02*
X1626373Y1003158D01*
X1626373Y1004098D02*
X1640383Y1004098D01*
X1640383Y1005038D02*
X1626373Y1005038D01*
X1626373Y1005978D02*
X1640383Y1005978D01*
X1640383Y1006918D02*
X1626373Y1006918D01*
X1626373Y1007858D02*
X1640383Y1007858D01*
X1640383Y1013038D02*
X1640383Y1021048D01*
X1640383Y1013038D02*
X1626373Y1013038D01*
X1626373Y1021048D01*
X1640383Y1021048D01*
X1640383Y1013978D02*
X1626373Y1013978D01*
X1626373Y1014918D02*
X1640383Y1014918D01*
X1640383Y1015858D02*
X1626373Y1015858D01*
X1626373Y1016798D02*
X1640383Y1016798D01*
X1640383Y1017738D02*
X1626373Y1017738D01*
X1626373Y1018678D02*
X1640383Y1018678D01*
X1640383Y1019618D02*
X1626373Y1019618D01*
X1626373Y1020558D02*
X1640383Y1020558D01*
D17*
X1737186Y949741D02*
X1737186Y937505D01*
X1724950Y937505D01*
X1724950Y949741D01*
X1737186Y949741D01*
X1737186Y938516D02*
X1724950Y938516D01*
X1724950Y939527D02*
X1737186Y939527D01*
X1737186Y940538D02*
X1724950Y940538D01*
X1724950Y941549D02*
X1737186Y941549D01*
X1737186Y942560D02*
X1724950Y942560D01*
X1724950Y943571D02*
X1737186Y943571D01*
X1737186Y944582D02*
X1724950Y944582D01*
X1724950Y945593D02*
X1737186Y945593D01*
X1737186Y946604D02*
X1724950Y946604D01*
X1724950Y947615D02*
X1737186Y947615D01*
X1737186Y948626D02*
X1724950Y948626D01*
X1724950Y949637D02*
X1737186Y949637D01*
X1718736Y955715D02*
X1718736Y967951D01*
X1718736Y955715D02*
X1706500Y955715D01*
X1706500Y967951D01*
X1718736Y967951D01*
X1718736Y956726D02*
X1706500Y956726D01*
X1706500Y957737D02*
X1718736Y957737D01*
X1718736Y958748D02*
X1706500Y958748D01*
X1706500Y959759D02*
X1718736Y959759D01*
X1718736Y960770D02*
X1706500Y960770D01*
X1706500Y961781D02*
X1718736Y961781D01*
X1718736Y962792D02*
X1706500Y962792D01*
X1706500Y963803D02*
X1718736Y963803D01*
X1718736Y964814D02*
X1706500Y964814D01*
X1706500Y965825D02*
X1718736Y965825D01*
X1718736Y966836D02*
X1706500Y966836D01*
X1706500Y967847D02*
X1718736Y967847D01*
X1737036Y967951D02*
X1737036Y955715D01*
X1724800Y955715D01*
X1724800Y967951D01*
X1737036Y967951D01*
X1737036Y956726D02*
X1724800Y956726D01*
X1724800Y957737D02*
X1737036Y957737D01*
X1737036Y958748D02*
X1724800Y958748D01*
X1724800Y959759D02*
X1737036Y959759D01*
X1737036Y960770D02*
X1724800Y960770D01*
X1724800Y961781D02*
X1737036Y961781D01*
X1737036Y962792D02*
X1724800Y962792D01*
X1724800Y963803D02*
X1737036Y963803D01*
X1737036Y964814D02*
X1724800Y964814D01*
X1724800Y965825D02*
X1737036Y965825D01*
X1737036Y966836D02*
X1724800Y966836D01*
X1724800Y967847D02*
X1737036Y967847D01*
X1755336Y967951D02*
X1755336Y955715D01*
X1743100Y955715D01*
X1743100Y967951D01*
X1755336Y967951D01*
X1755336Y956726D02*
X1743100Y956726D01*
X1743100Y957737D02*
X1755336Y957737D01*
X1755336Y958748D02*
X1743100Y958748D01*
X1743100Y959759D02*
X1755336Y959759D01*
X1755336Y960770D02*
X1743100Y960770D01*
X1743100Y961781D02*
X1755336Y961781D01*
X1755336Y962792D02*
X1743100Y962792D01*
X1743100Y963803D02*
X1755336Y963803D01*
X1755336Y964814D02*
X1743100Y964814D01*
X1743100Y965825D02*
X1755336Y965825D01*
X1755336Y966836D02*
X1743100Y966836D01*
X1743100Y967847D02*
X1755336Y967847D01*
X1755336Y949651D02*
X1755336Y937415D01*
X1743100Y937415D01*
X1743100Y949651D01*
X1755336Y949651D01*
X1755336Y938426D02*
X1743100Y938426D01*
X1743100Y939437D02*
X1755336Y939437D01*
X1755336Y940448D02*
X1743100Y940448D01*
X1743100Y941459D02*
X1755336Y941459D01*
X1755336Y942470D02*
X1743100Y942470D01*
X1743100Y943481D02*
X1755336Y943481D01*
X1755336Y944492D02*
X1743100Y944492D01*
X1743100Y945503D02*
X1755336Y945503D01*
X1755336Y946514D02*
X1743100Y946514D01*
X1743100Y947525D02*
X1755336Y947525D01*
X1755336Y948536D02*
X1743100Y948536D01*
X1743100Y949547D02*
X1755336Y949547D01*
X1718636Y949951D02*
X1718636Y937715D01*
X1706400Y937715D01*
X1706400Y949951D01*
X1718636Y949951D01*
X1718636Y938726D02*
X1706400Y938726D01*
X1706400Y939737D02*
X1718636Y939737D01*
X1718636Y940748D02*
X1706400Y940748D01*
X1706400Y941759D02*
X1718636Y941759D01*
X1718636Y942770D02*
X1706400Y942770D01*
X1706400Y943781D02*
X1718636Y943781D01*
X1718636Y944792D02*
X1706400Y944792D01*
X1706400Y945803D02*
X1718636Y945803D01*
X1718636Y946814D02*
X1706400Y946814D01*
X1706400Y947825D02*
X1718636Y947825D01*
X1718636Y948836D02*
X1706400Y948836D01*
X1706400Y949847D02*
X1718636Y949847D01*
X1718736Y931351D02*
X1718736Y919115D01*
X1706500Y919115D01*
X1706500Y931351D01*
X1718736Y931351D01*
X1718736Y920126D02*
X1706500Y920126D01*
X1706500Y921137D02*
X1718736Y921137D01*
X1718736Y922148D02*
X1706500Y922148D01*
X1706500Y923159D02*
X1718736Y923159D01*
X1718736Y924170D02*
X1706500Y924170D01*
X1706500Y925181D02*
X1718736Y925181D01*
X1718736Y926192D02*
X1706500Y926192D01*
X1706500Y927203D02*
X1718736Y927203D01*
X1718736Y928214D02*
X1706500Y928214D01*
X1706500Y929225D02*
X1718736Y929225D01*
X1718736Y930236D02*
X1706500Y930236D01*
X1706500Y931247D02*
X1718736Y931247D01*
X1737036Y931251D02*
X1737036Y919015D01*
X1724800Y919015D01*
X1724800Y931251D01*
X1737036Y931251D01*
X1737036Y920026D02*
X1724800Y920026D01*
X1724800Y921037D02*
X1737036Y921037D01*
X1737036Y922048D02*
X1724800Y922048D01*
X1724800Y923059D02*
X1737036Y923059D01*
X1737036Y924070D02*
X1724800Y924070D01*
X1724800Y925081D02*
X1737036Y925081D01*
X1737036Y926092D02*
X1724800Y926092D01*
X1724800Y927103D02*
X1737036Y927103D01*
X1737036Y928114D02*
X1724800Y928114D01*
X1724800Y929125D02*
X1737036Y929125D01*
X1737036Y930136D02*
X1724800Y930136D01*
X1724800Y931147D02*
X1737036Y931147D01*
X1755336Y931351D02*
X1755336Y919115D01*
X1743100Y919115D01*
X1743100Y931351D01*
X1755336Y931351D01*
X1755336Y920126D02*
X1743100Y920126D01*
X1743100Y921137D02*
X1755336Y921137D01*
X1755336Y922148D02*
X1743100Y922148D01*
X1743100Y923159D02*
X1755336Y923159D01*
X1755336Y924170D02*
X1743100Y924170D01*
X1743100Y925181D02*
X1755336Y925181D01*
X1755336Y926192D02*
X1743100Y926192D01*
X1743100Y927203D02*
X1755336Y927203D01*
X1755336Y928214D02*
X1743100Y928214D01*
X1743100Y929225D02*
X1755336Y929225D01*
X1755336Y930236D02*
X1743100Y930236D01*
X1743100Y931247D02*
X1755336Y931247D01*
D12*
X1839158Y832743D02*
X1849158Y832743D01*
X1849158Y823743D01*
X1839158Y823743D01*
X1839158Y832743D01*
X1839158Y824693D02*
X1849158Y824693D01*
X1849158Y825643D02*
X1839158Y825643D01*
X1839158Y826593D02*
X1849158Y826593D01*
X1849158Y827543D02*
X1839158Y827543D01*
X1839158Y828493D02*
X1849158Y828493D01*
X1849158Y829443D02*
X1839158Y829443D01*
X1839158Y830393D02*
X1849158Y830393D01*
X1849158Y831343D02*
X1839158Y831343D01*
X1839158Y832293D02*
X1849158Y832293D01*
X1832158Y832743D02*
X1822158Y832743D01*
X1832158Y832743D02*
X1832158Y823743D01*
X1822158Y823743D01*
X1822158Y832743D01*
X1822158Y824693D02*
X1832158Y824693D01*
X1832158Y825643D02*
X1822158Y825643D01*
X1822158Y826593D02*
X1832158Y826593D01*
X1832158Y827543D02*
X1822158Y827543D01*
X1822158Y828493D02*
X1832158Y828493D01*
X1832158Y829443D02*
X1822158Y829443D01*
X1822158Y830393D02*
X1832158Y830393D01*
X1832158Y831343D02*
X1822158Y831343D01*
X1822158Y832293D02*
X1832158Y832293D01*
X1832158Y798343D02*
X1822158Y798343D01*
X1822158Y807343D01*
X1832158Y807343D01*
X1832158Y798343D01*
X1832158Y799293D02*
X1822158Y799293D01*
X1822158Y800243D02*
X1832158Y800243D01*
X1832158Y801193D02*
X1822158Y801193D01*
X1822158Y802143D02*
X1832158Y802143D01*
X1832158Y803093D02*
X1822158Y803093D01*
X1822158Y804043D02*
X1832158Y804043D01*
X1832158Y804993D02*
X1822158Y804993D01*
X1822158Y805943D02*
X1832158Y805943D01*
X1832158Y806893D02*
X1822158Y806893D01*
X1839158Y798343D02*
X1849158Y798343D01*
X1839158Y798343D02*
X1839158Y807343D01*
X1849158Y807343D01*
X1849158Y798343D01*
X1849158Y799293D02*
X1839158Y799293D01*
X1839158Y800243D02*
X1849158Y800243D01*
X1849158Y801193D02*
X1839158Y801193D01*
X1839158Y802143D02*
X1849158Y802143D01*
X1849158Y803093D02*
X1839158Y803093D01*
X1839158Y804043D02*
X1849158Y804043D01*
X1849158Y804993D02*
X1839158Y804993D01*
X1839158Y805943D02*
X1849158Y805943D01*
X1849158Y806893D02*
X1839158Y806893D01*
D18*
X1914233Y145218D02*
X1914233Y130268D01*
X1908283Y130268D01*
X1908283Y145218D01*
X1914233Y145218D01*
X1914233Y131265D02*
X1908283Y131265D01*
X1908283Y132262D02*
X1914233Y132262D01*
X1914233Y133259D02*
X1908283Y133259D01*
X1908283Y134256D02*
X1914233Y134256D01*
X1914233Y135253D02*
X1908283Y135253D01*
X1908283Y136250D02*
X1914233Y136250D01*
X1914233Y137247D02*
X1908283Y137247D01*
X1908283Y138244D02*
X1914233Y138244D01*
X1914233Y139241D02*
X1908283Y139241D01*
X1908283Y140238D02*
X1914233Y140238D01*
X1914233Y141235D02*
X1908283Y141235D01*
X1908283Y142232D02*
X1914233Y142232D01*
X1914233Y143229D02*
X1908283Y143229D01*
X1908283Y144226D02*
X1914233Y144226D01*
X1903233Y145218D02*
X1903233Y130268D01*
X1897283Y130268D01*
X1897283Y145218D01*
X1903233Y145218D01*
X1903233Y131265D02*
X1897283Y131265D01*
X1897283Y132262D02*
X1903233Y132262D01*
X1903233Y133259D02*
X1897283Y133259D01*
X1897283Y134256D02*
X1903233Y134256D01*
X1903233Y135253D02*
X1897283Y135253D01*
X1897283Y136250D02*
X1903233Y136250D01*
X1903233Y137247D02*
X1897283Y137247D01*
X1897283Y138244D02*
X1903233Y138244D01*
X1903233Y139241D02*
X1897283Y139241D01*
X1897283Y140238D02*
X1903233Y140238D01*
X1903233Y141235D02*
X1897283Y141235D01*
X1897283Y142232D02*
X1903233Y142232D01*
X1903233Y143229D02*
X1897283Y143229D01*
X1897283Y144226D02*
X1903233Y144226D01*
X1892233Y145218D02*
X1892233Y130268D01*
X1886283Y130268D01*
X1886283Y145218D01*
X1892233Y145218D01*
X1892233Y131265D02*
X1886283Y131265D01*
X1886283Y132262D02*
X1892233Y132262D01*
X1892233Y133259D02*
X1886283Y133259D01*
X1886283Y134256D02*
X1892233Y134256D01*
X1892233Y135253D02*
X1886283Y135253D01*
X1886283Y136250D02*
X1892233Y136250D01*
X1892233Y137247D02*
X1886283Y137247D01*
X1886283Y138244D02*
X1892233Y138244D01*
X1892233Y139241D02*
X1886283Y139241D01*
X1886283Y140238D02*
X1892233Y140238D01*
X1892233Y141235D02*
X1886283Y141235D01*
X1886283Y142232D02*
X1892233Y142232D01*
X1892233Y143229D02*
X1886283Y143229D01*
X1886283Y144226D02*
X1892233Y144226D01*
X1925233Y145218D02*
X1925233Y130268D01*
X1919283Y130268D01*
X1919283Y145218D01*
X1925233Y145218D01*
X1925233Y131265D02*
X1919283Y131265D01*
X1919283Y132262D02*
X1925233Y132262D01*
X1925233Y133259D02*
X1919283Y133259D01*
X1919283Y134256D02*
X1925233Y134256D01*
X1925233Y135253D02*
X1919283Y135253D01*
X1919283Y136250D02*
X1925233Y136250D01*
X1925233Y137247D02*
X1919283Y137247D01*
X1919283Y138244D02*
X1925233Y138244D01*
X1925233Y139241D02*
X1919283Y139241D01*
X1919283Y140238D02*
X1925233Y140238D01*
X1925233Y141235D02*
X1919283Y141235D01*
X1919283Y142232D02*
X1925233Y142232D01*
X1925233Y143229D02*
X1919283Y143229D01*
X1919283Y144226D02*
X1925233Y144226D01*
X1936233Y145218D02*
X1936233Y130268D01*
X1930283Y130268D01*
X1930283Y145218D01*
X1936233Y145218D01*
X1936233Y131265D02*
X1930283Y131265D01*
X1930283Y132262D02*
X1936233Y132262D01*
X1936233Y133259D02*
X1930283Y133259D01*
X1930283Y134256D02*
X1936233Y134256D01*
X1936233Y135253D02*
X1930283Y135253D01*
X1930283Y136250D02*
X1936233Y136250D01*
X1936233Y137247D02*
X1930283Y137247D01*
X1930283Y138244D02*
X1936233Y138244D01*
X1936233Y139241D02*
X1930283Y139241D01*
X1930283Y140238D02*
X1936233Y140238D01*
X1936233Y141235D02*
X1930283Y141235D01*
X1930283Y142232D02*
X1936233Y142232D01*
X1936233Y143229D02*
X1930283Y143229D01*
X1930283Y144226D02*
X1936233Y144226D01*
X1947233Y145218D02*
X1947233Y130268D01*
X1941283Y130268D01*
X1941283Y145218D01*
X1947233Y145218D01*
X1947233Y131265D02*
X1941283Y131265D01*
X1941283Y132262D02*
X1947233Y132262D01*
X1947233Y133259D02*
X1941283Y133259D01*
X1941283Y134256D02*
X1947233Y134256D01*
X1947233Y135253D02*
X1941283Y135253D01*
X1941283Y136250D02*
X1947233Y136250D01*
X1947233Y137247D02*
X1941283Y137247D01*
X1941283Y138244D02*
X1947233Y138244D01*
X1947233Y139241D02*
X1941283Y139241D01*
X1941283Y140238D02*
X1947233Y140238D01*
X1947233Y141235D02*
X1941283Y141235D01*
X1941283Y142232D02*
X1947233Y142232D01*
X1947233Y143229D02*
X1941283Y143229D01*
X1941283Y144226D02*
X1947233Y144226D01*
X1958233Y145218D02*
X1958233Y130268D01*
X1952283Y130268D01*
X1952283Y145218D01*
X1958233Y145218D01*
X1958233Y131265D02*
X1952283Y131265D01*
X1952283Y132262D02*
X1958233Y132262D01*
X1958233Y133259D02*
X1952283Y133259D01*
X1952283Y134256D02*
X1958233Y134256D01*
X1958233Y135253D02*
X1952283Y135253D01*
X1952283Y136250D02*
X1958233Y136250D01*
X1958233Y137247D02*
X1952283Y137247D01*
X1952283Y138244D02*
X1958233Y138244D01*
X1958233Y139241D02*
X1952283Y139241D01*
X1952283Y140238D02*
X1958233Y140238D01*
X1958233Y141235D02*
X1952283Y141235D01*
X1952283Y142232D02*
X1958233Y142232D01*
X1958233Y143229D02*
X1952283Y143229D01*
X1952283Y144226D02*
X1958233Y144226D01*
X1969233Y145218D02*
X1969233Y130268D01*
X1963283Y130268D01*
X1963283Y145218D01*
X1969233Y145218D01*
X1969233Y131265D02*
X1963283Y131265D01*
X1963283Y132262D02*
X1969233Y132262D01*
X1969233Y133259D02*
X1963283Y133259D01*
X1963283Y134256D02*
X1969233Y134256D01*
X1969233Y135253D02*
X1963283Y135253D01*
X1963283Y136250D02*
X1969233Y136250D01*
X1969233Y137247D02*
X1963283Y137247D01*
X1963283Y138244D02*
X1969233Y138244D01*
X1969233Y139241D02*
X1963283Y139241D01*
X1963283Y140238D02*
X1969233Y140238D01*
X1969233Y141235D02*
X1963283Y141235D01*
X1963283Y142232D02*
X1969233Y142232D01*
X1969233Y143229D02*
X1963283Y143229D01*
X1963283Y144226D02*
X1969233Y144226D01*
X1980233Y145218D02*
X1980233Y130268D01*
X1974283Y130268D01*
X1974283Y145218D01*
X1980233Y145218D01*
X1980233Y131265D02*
X1974283Y131265D01*
X1974283Y132262D02*
X1980233Y132262D01*
X1980233Y133259D02*
X1974283Y133259D01*
X1974283Y134256D02*
X1980233Y134256D01*
X1980233Y135253D02*
X1974283Y135253D01*
X1974283Y136250D02*
X1980233Y136250D01*
X1980233Y137247D02*
X1974283Y137247D01*
X1974283Y138244D02*
X1980233Y138244D01*
X1980233Y139241D02*
X1974283Y139241D01*
X1974283Y140238D02*
X1980233Y140238D01*
X1980233Y141235D02*
X1974283Y141235D01*
X1974283Y142232D02*
X1980233Y142232D01*
X1980233Y143229D02*
X1974283Y143229D01*
X1974283Y144226D02*
X1980233Y144226D01*
D10*
X1839778Y47263D02*
X1828738Y47263D01*
X1839778Y47263D02*
X1839778Y26223D01*
X1828738Y26223D01*
X1828738Y47263D01*
X1828738Y27135D02*
X1839778Y27135D01*
X1839778Y28047D02*
X1828738Y28047D01*
X1828738Y28959D02*
X1839778Y28959D01*
X1839778Y29871D02*
X1828738Y29871D01*
X1828738Y30783D02*
X1839778Y30783D01*
X1839778Y31695D02*
X1828738Y31695D01*
X1828738Y32607D02*
X1839778Y32607D01*
X1839778Y33519D02*
X1828738Y33519D01*
X1828738Y34431D02*
X1839778Y34431D01*
X1839778Y35343D02*
X1828738Y35343D01*
X1828738Y36255D02*
X1839778Y36255D01*
X1839778Y37167D02*
X1828738Y37167D01*
X1828738Y38079D02*
X1839778Y38079D01*
X1839778Y38991D02*
X1828738Y38991D01*
X1828738Y39903D02*
X1839778Y39903D01*
X1839778Y40815D02*
X1828738Y40815D01*
X1828738Y41727D02*
X1839778Y41727D01*
X1839778Y42639D02*
X1828738Y42639D01*
X1828738Y43551D02*
X1839778Y43551D01*
X1839778Y44463D02*
X1828738Y44463D01*
X1828738Y45375D02*
X1839778Y45375D01*
X1839778Y46287D02*
X1828738Y46287D01*
X1828738Y47199D02*
X1839778Y47199D01*
X1983738Y47263D02*
X1994778Y47263D01*
X1994778Y26223D01*
X1983738Y26223D01*
X1983738Y47263D01*
X1983738Y27135D02*
X1994778Y27135D01*
X1994778Y28047D02*
X1983738Y28047D01*
X1983738Y28959D02*
X1994778Y28959D01*
X1994778Y29871D02*
X1983738Y29871D01*
X1983738Y30783D02*
X1994778Y30783D01*
X1994778Y31695D02*
X1983738Y31695D01*
X1983738Y32607D02*
X1994778Y32607D01*
X1994778Y33519D02*
X1983738Y33519D01*
X1983738Y34431D02*
X1994778Y34431D01*
X1994778Y35343D02*
X1983738Y35343D01*
X1983738Y36255D02*
X1994778Y36255D01*
X1994778Y37167D02*
X1983738Y37167D01*
X1983738Y38079D02*
X1994778Y38079D01*
X1994778Y38991D02*
X1983738Y38991D01*
X1983738Y39903D02*
X1994778Y39903D01*
X1994778Y40815D02*
X1983738Y40815D01*
X1983738Y41727D02*
X1994778Y41727D01*
X1994778Y42639D02*
X1983738Y42639D01*
X1983738Y43551D02*
X1994778Y43551D01*
X1994778Y44463D02*
X1983738Y44463D01*
X1983738Y45375D02*
X1994778Y45375D01*
X1994778Y46287D02*
X1983738Y46287D01*
X1983738Y47199D02*
X1994778Y47199D01*
D19*
X1850768Y139253D02*
X1835748Y139253D01*
X1850768Y139253D02*
X1850768Y126233D01*
X1835748Y126233D01*
X1835748Y139253D01*
X1835748Y127164D02*
X1850768Y127164D01*
X1850768Y128095D02*
X1835748Y128095D01*
X1835748Y129026D02*
X1850768Y129026D01*
X1850768Y129957D02*
X1835748Y129957D01*
X1835748Y130888D02*
X1850768Y130888D01*
X1850768Y131819D02*
X1835748Y131819D01*
X1835748Y132750D02*
X1850768Y132750D01*
X1850768Y133681D02*
X1835748Y133681D01*
X1835748Y134612D02*
X1850768Y134612D01*
X1850768Y135543D02*
X1835748Y135543D01*
X1835748Y136474D02*
X1850768Y136474D01*
X1850768Y137405D02*
X1835748Y137405D01*
X1835748Y138336D02*
X1850768Y138336D01*
D10*
X1983738Y139263D02*
X1994778Y139263D01*
X1994778Y124223D01*
X1983738Y124223D01*
X1983738Y139263D01*
X1983738Y125135D02*
X1994778Y125135D01*
X1994778Y126047D02*
X1983738Y126047D01*
X1983738Y126959D02*
X1994778Y126959D01*
X1994778Y127871D02*
X1983738Y127871D01*
X1983738Y128783D02*
X1994778Y128783D01*
X1994778Y129695D02*
X1983738Y129695D01*
X1983738Y130607D02*
X1994778Y130607D01*
X1994778Y131519D02*
X1983738Y131519D01*
X1983738Y132431D02*
X1994778Y132431D01*
X1994778Y133343D02*
X1983738Y133343D01*
X1983738Y134255D02*
X1994778Y134255D01*
X1994778Y135167D02*
X1983738Y135167D01*
X1983738Y136079D02*
X1994778Y136079D01*
X1994778Y136991D02*
X1983738Y136991D01*
X1983738Y137903D02*
X1994778Y137903D01*
X1994778Y138815D02*
X1983738Y138815D01*
M02*
