G04 EAGLE Gerber RS-274X export*
G75*
%MOMM*%
%FSLAX34Y34*%
%LPD*%
%INSoldermask Bottom*%
%IPPOS*%
%AMOC8*
5,1,8,0,0,1.08239X$1,22.5*%
G01*
%ADD10C,0.243431*%
%ADD11C,0.255816*%
%ADD12C,0.787400*%
%ADD13C,0.802400*%
%ADD14C,0.264381*%
%ADD15C,3.352800*%
%ADD16C,0.253525*%
%ADD17C,2.032000*%
%ADD18C,0.250366*%
%ADD19C,0.253344*%
%ADD20C,0.256222*%
%ADD21C,0.259334*%
%ADD22C,1.752400*%
%ADD23C,0.252575*%
%ADD24C,0.252006*%
%ADD25C,0.255719*%
%ADD26C,1.152400*%
%ADD27C,0.248381*%
%ADD28C,1.270000*%
%ADD29C,1.652400*%


D10*
X364073Y20238D02*
X375163Y20238D01*
X375163Y1148D01*
X364073Y1148D01*
X364073Y20238D01*
X364073Y3460D02*
X375163Y3460D01*
X375163Y5772D02*
X364073Y5772D01*
X364073Y8084D02*
X375163Y8084D01*
X375163Y10396D02*
X364073Y10396D01*
X364073Y12708D02*
X375163Y12708D01*
X375163Y15020D02*
X364073Y15020D01*
X364073Y17332D02*
X375163Y17332D01*
X375163Y19644D02*
X364073Y19644D01*
X319163Y20238D02*
X308073Y20238D01*
X319163Y20238D02*
X319163Y1148D01*
X308073Y1148D01*
X308073Y20238D01*
X308073Y3460D02*
X319163Y3460D01*
X319163Y5772D02*
X308073Y5772D01*
X308073Y8084D02*
X319163Y8084D01*
X319163Y10396D02*
X308073Y10396D01*
X308073Y12708D02*
X319163Y12708D01*
X319163Y15020D02*
X308073Y15020D01*
X308073Y17332D02*
X319163Y17332D01*
X319163Y19644D02*
X308073Y19644D01*
D11*
X354135Y53676D02*
X359101Y53676D01*
X359101Y41210D01*
X354135Y41210D01*
X354135Y53676D01*
X354135Y43640D02*
X359101Y43640D01*
X359101Y46070D02*
X354135Y46070D01*
X354135Y48500D02*
X359101Y48500D01*
X359101Y50930D02*
X354135Y50930D01*
X354135Y53360D02*
X359101Y53360D01*
X349101Y53676D02*
X344135Y53676D01*
X349101Y53676D02*
X349101Y41210D01*
X344135Y41210D01*
X344135Y53676D01*
X344135Y43640D02*
X349101Y43640D01*
X349101Y46070D02*
X344135Y46070D01*
X344135Y48500D02*
X349101Y48500D01*
X349101Y50930D02*
X344135Y50930D01*
X344135Y53360D02*
X349101Y53360D01*
X339101Y53676D02*
X334135Y53676D01*
X339101Y53676D02*
X339101Y41210D01*
X334135Y41210D01*
X334135Y53676D01*
X334135Y43640D02*
X339101Y43640D01*
X339101Y46070D02*
X334135Y46070D01*
X334135Y48500D02*
X339101Y48500D01*
X339101Y50930D02*
X334135Y50930D01*
X334135Y53360D02*
X339101Y53360D01*
X329101Y53676D02*
X324135Y53676D01*
X329101Y53676D02*
X329101Y41210D01*
X324135Y41210D01*
X324135Y53676D01*
X324135Y43640D02*
X329101Y43640D01*
X329101Y46070D02*
X324135Y46070D01*
X324135Y48500D02*
X329101Y48500D01*
X329101Y50930D02*
X324135Y50930D01*
X324135Y53360D02*
X329101Y53360D01*
D12*
X633718Y42843D03*
X51318Y1051643D03*
D13*
X312718Y46963D03*
X370518Y46963D03*
D14*
X259658Y55453D02*
X245778Y55453D01*
X259658Y55453D02*
X259658Y16573D01*
X245778Y16573D01*
X245778Y55453D01*
X245778Y19085D02*
X259658Y19085D01*
X259658Y21597D02*
X245778Y21597D01*
X245778Y24109D02*
X259658Y24109D01*
X259658Y26621D02*
X245778Y26621D01*
X245778Y29133D02*
X259658Y29133D01*
X259658Y31645D02*
X245778Y31645D01*
X245778Y34157D02*
X259658Y34157D01*
X259658Y36669D02*
X245778Y36669D01*
X245778Y39181D02*
X259658Y39181D01*
X259658Y41693D02*
X245778Y41693D01*
X245778Y44205D02*
X259658Y44205D01*
X259658Y46717D02*
X245778Y46717D01*
X245778Y49229D02*
X259658Y49229D01*
X259658Y51741D02*
X245778Y51741D01*
X245778Y54253D02*
X259658Y54253D01*
X208858Y55453D02*
X194978Y55453D01*
X208858Y55453D02*
X208858Y16573D01*
X194978Y16573D01*
X194978Y55453D01*
X194978Y19085D02*
X208858Y19085D01*
X208858Y21597D02*
X194978Y21597D01*
X194978Y24109D02*
X208858Y24109D01*
X208858Y26621D02*
X194978Y26621D01*
X194978Y29133D02*
X208858Y29133D01*
X208858Y31645D02*
X194978Y31645D01*
X194978Y34157D02*
X208858Y34157D01*
X208858Y36669D02*
X194978Y36669D01*
X194978Y39181D02*
X208858Y39181D01*
X208858Y41693D02*
X194978Y41693D01*
X194978Y44205D02*
X208858Y44205D01*
X208858Y46717D02*
X194978Y46717D01*
X194978Y49229D02*
X208858Y49229D01*
X208858Y51741D02*
X194978Y51741D01*
X194978Y54253D02*
X208858Y54253D01*
D15*
X56630Y282680D03*
X56630Y782806D03*
X626606Y782806D03*
X626606Y282680D03*
D16*
X142913Y1001848D02*
X142913Y1011838D01*
X142913Y1001848D02*
X133923Y1001848D01*
X133923Y1011838D01*
X142913Y1011838D01*
X142913Y1004256D02*
X133923Y1004256D01*
X133923Y1006664D02*
X142913Y1006664D01*
X142913Y1009072D02*
X133923Y1009072D01*
X133923Y1011480D02*
X142913Y1011480D01*
X142913Y1018848D02*
X142913Y1028838D01*
X142913Y1018848D02*
X133923Y1018848D01*
X133923Y1028838D01*
X142913Y1028838D01*
X142913Y1021256D02*
X133923Y1021256D01*
X133923Y1023664D02*
X142913Y1023664D01*
X142913Y1026072D02*
X133923Y1026072D01*
X133923Y1028480D02*
X142913Y1028480D01*
X165123Y1057238D02*
X175113Y1057238D01*
X175113Y1048248D01*
X165123Y1048248D01*
X165123Y1057238D01*
X165123Y1050656D02*
X175113Y1050656D01*
X175113Y1053064D02*
X165123Y1053064D01*
X165123Y1055472D02*
X175113Y1055472D01*
X158113Y1057238D02*
X148123Y1057238D01*
X158113Y1057238D02*
X158113Y1048248D01*
X148123Y1048248D01*
X148123Y1057238D01*
X148123Y1050656D02*
X158113Y1050656D01*
X158113Y1053064D02*
X148123Y1053064D01*
X148123Y1055472D02*
X158113Y1055472D01*
X165123Y987238D02*
X175113Y987238D01*
X175113Y978248D01*
X165123Y978248D01*
X165123Y987238D01*
X165123Y980656D02*
X175113Y980656D01*
X175113Y983064D02*
X165123Y983064D01*
X165123Y985472D02*
X175113Y985472D01*
X158113Y987238D02*
X148123Y987238D01*
X158113Y987238D02*
X158113Y978248D01*
X148123Y978248D01*
X148123Y987238D01*
X148123Y980656D02*
X158113Y980656D01*
X158113Y983064D02*
X148123Y983064D01*
X148123Y985472D02*
X158113Y985472D01*
D17*
X215138Y1046683D03*
X215138Y1021283D03*
D18*
X235278Y983903D02*
X235278Y978583D01*
X227958Y978583D01*
X227958Y983903D01*
X235278Y983903D01*
X235278Y980962D02*
X227958Y980962D01*
X227958Y983341D02*
X235278Y983341D01*
X235278Y1001583D02*
X235278Y1006903D01*
X235278Y1001583D02*
X227958Y1001583D01*
X227958Y1006903D01*
X235278Y1006903D01*
X235278Y1003962D02*
X227958Y1003962D01*
X227958Y1006341D02*
X235278Y1006341D01*
D16*
X447123Y966238D02*
X447123Y956248D01*
X447123Y966238D02*
X456113Y966238D01*
X456113Y956248D01*
X447123Y956248D01*
X447123Y958656D02*
X456113Y958656D01*
X456113Y961064D02*
X447123Y961064D01*
X447123Y963472D02*
X456113Y963472D01*
X456113Y965880D02*
X447123Y965880D01*
X447123Y949238D02*
X447123Y939248D01*
X447123Y949238D02*
X456113Y949238D01*
X456113Y939248D01*
X447123Y939248D01*
X447123Y941656D02*
X456113Y941656D01*
X456113Y944064D02*
X447123Y944064D01*
X447123Y946472D02*
X456113Y946472D01*
X456113Y948880D02*
X447123Y948880D01*
X467123Y996248D02*
X467123Y1006238D01*
X476113Y1006238D01*
X476113Y996248D01*
X467123Y996248D01*
X467123Y998656D02*
X476113Y998656D01*
X476113Y1001064D02*
X467123Y1001064D01*
X467123Y1003472D02*
X476113Y1003472D01*
X476113Y1005880D02*
X467123Y1005880D01*
X467123Y989238D02*
X467123Y979248D01*
X467123Y989238D02*
X476113Y989238D01*
X476113Y979248D01*
X467123Y979248D01*
X467123Y981656D02*
X476113Y981656D01*
X476113Y984064D02*
X467123Y984064D01*
X467123Y986472D02*
X476113Y986472D01*
X476113Y988880D02*
X467123Y988880D01*
X447123Y996248D02*
X447123Y1006238D01*
X456113Y1006238D01*
X456113Y996248D01*
X447123Y996248D01*
X447123Y998656D02*
X456113Y998656D01*
X456113Y1001064D02*
X447123Y1001064D01*
X447123Y1003472D02*
X456113Y1003472D01*
X456113Y1005880D02*
X447123Y1005880D01*
X447123Y989238D02*
X447123Y979248D01*
X447123Y989238D02*
X456113Y989238D01*
X456113Y979248D01*
X447123Y979248D01*
X447123Y981656D02*
X456113Y981656D01*
X456113Y984064D02*
X447123Y984064D01*
X447123Y986472D02*
X456113Y986472D01*
X456113Y988880D02*
X447123Y988880D01*
X467123Y966238D02*
X467123Y956248D01*
X467123Y966238D02*
X476113Y966238D01*
X476113Y956248D01*
X467123Y956248D01*
X467123Y958656D02*
X476113Y958656D01*
X476113Y961064D02*
X467123Y961064D01*
X467123Y963472D02*
X476113Y963472D01*
X476113Y965880D02*
X467123Y965880D01*
X467123Y949238D02*
X467123Y939248D01*
X467123Y949238D02*
X476113Y949238D01*
X476113Y939248D01*
X467123Y939248D01*
X467123Y941656D02*
X476113Y941656D01*
X476113Y944064D02*
X467123Y944064D01*
X467123Y946472D02*
X476113Y946472D01*
X476113Y948880D02*
X467123Y948880D01*
X178113Y958248D02*
X168123Y958248D01*
X168123Y967238D01*
X178113Y967238D01*
X178113Y958248D01*
X178113Y960656D02*
X168123Y960656D01*
X168123Y963064D02*
X178113Y963064D01*
X178113Y965472D02*
X168123Y965472D01*
X185123Y958248D02*
X195113Y958248D01*
X185123Y958248D02*
X185123Y967238D01*
X195113Y967238D01*
X195113Y958248D01*
X195113Y960656D02*
X185123Y960656D01*
X185123Y963064D02*
X195113Y963064D01*
X195113Y965472D02*
X185123Y965472D01*
D11*
X204135Y929676D02*
X204135Y924710D01*
X204135Y929676D02*
X215101Y929676D01*
X215101Y924710D01*
X204135Y924710D01*
X204135Y927140D02*
X215101Y927140D01*
X215101Y929570D02*
X204135Y929570D01*
X204135Y916976D02*
X204135Y912010D01*
X204135Y916976D02*
X215101Y916976D01*
X215101Y912010D01*
X204135Y912010D01*
X204135Y914440D02*
X215101Y914440D01*
X215101Y916870D02*
X204135Y916870D01*
X204135Y904276D02*
X204135Y899310D01*
X204135Y904276D02*
X215101Y904276D01*
X215101Y899310D01*
X204135Y899310D01*
X204135Y901740D02*
X215101Y901740D01*
X215101Y904170D02*
X204135Y904170D01*
X204135Y891576D02*
X204135Y886610D01*
X204135Y891576D02*
X215101Y891576D01*
X215101Y886610D01*
X204135Y886610D01*
X204135Y889040D02*
X215101Y889040D01*
X215101Y891470D02*
X204135Y891470D01*
X204135Y878876D02*
X204135Y873910D01*
X204135Y878876D02*
X215101Y878876D01*
X215101Y873910D01*
X204135Y873910D01*
X204135Y876340D02*
X215101Y876340D01*
X215101Y878770D02*
X204135Y878770D01*
X204135Y866176D02*
X204135Y861210D01*
X204135Y866176D02*
X215101Y866176D01*
X215101Y861210D01*
X204135Y861210D01*
X204135Y863640D02*
X215101Y863640D01*
X215101Y866070D02*
X204135Y866070D01*
X204135Y853476D02*
X204135Y848510D01*
X204135Y853476D02*
X215101Y853476D01*
X215101Y848510D01*
X204135Y848510D01*
X204135Y850940D02*
X215101Y850940D01*
X215101Y853370D02*
X204135Y853370D01*
X204135Y840776D02*
X204135Y835810D01*
X204135Y840776D02*
X215101Y840776D01*
X215101Y835810D01*
X204135Y835810D01*
X204135Y838240D02*
X215101Y838240D01*
X215101Y840670D02*
X204135Y840670D01*
X148135Y840776D02*
X148135Y835810D01*
X148135Y840776D02*
X159101Y840776D01*
X159101Y835810D01*
X148135Y835810D01*
X148135Y838240D02*
X159101Y838240D01*
X159101Y840670D02*
X148135Y840670D01*
X148135Y848510D02*
X148135Y853476D01*
X159101Y853476D01*
X159101Y848510D01*
X148135Y848510D01*
X148135Y850940D02*
X159101Y850940D01*
X159101Y853370D02*
X148135Y853370D01*
X148135Y861210D02*
X148135Y866176D01*
X159101Y866176D01*
X159101Y861210D01*
X148135Y861210D01*
X148135Y863640D02*
X159101Y863640D01*
X159101Y866070D02*
X148135Y866070D01*
X148135Y873910D02*
X148135Y878876D01*
X159101Y878876D01*
X159101Y873910D01*
X148135Y873910D01*
X148135Y876340D02*
X159101Y876340D01*
X159101Y878770D02*
X148135Y878770D01*
X148135Y886610D02*
X148135Y891576D01*
X159101Y891576D01*
X159101Y886610D01*
X148135Y886610D01*
X148135Y889040D02*
X159101Y889040D01*
X159101Y891470D02*
X148135Y891470D01*
X148135Y899310D02*
X148135Y904276D01*
X159101Y904276D01*
X159101Y899310D01*
X148135Y899310D01*
X148135Y901740D02*
X159101Y901740D01*
X159101Y904170D02*
X148135Y904170D01*
X148135Y912010D02*
X148135Y916976D01*
X159101Y916976D01*
X159101Y912010D01*
X148135Y912010D01*
X148135Y914440D02*
X159101Y914440D01*
X159101Y916870D02*
X148135Y916870D01*
X148135Y924710D02*
X148135Y929676D01*
X159101Y929676D01*
X159101Y924710D01*
X148135Y924710D01*
X148135Y927140D02*
X159101Y927140D01*
X159101Y929570D02*
X148135Y929570D01*
D16*
X118113Y848248D02*
X108123Y848248D01*
X108123Y857238D01*
X118113Y857238D01*
X118113Y848248D01*
X118113Y850656D02*
X108123Y850656D01*
X108123Y853064D02*
X118113Y853064D01*
X118113Y855472D02*
X108123Y855472D01*
X125123Y848248D02*
X135113Y848248D01*
X125123Y848248D02*
X125123Y857238D01*
X135113Y857238D01*
X135113Y848248D01*
X135113Y850656D02*
X125123Y850656D01*
X125123Y853064D02*
X135113Y853064D01*
X135113Y855472D02*
X125123Y855472D01*
X125123Y917238D02*
X135113Y917238D01*
X135113Y908248D01*
X125123Y908248D01*
X125123Y917238D01*
X125123Y910656D02*
X135113Y910656D01*
X135113Y913064D02*
X125123Y913064D01*
X125123Y915472D02*
X135113Y915472D01*
X118113Y917238D02*
X108123Y917238D01*
X118113Y917238D02*
X118113Y908248D01*
X108123Y908248D01*
X108123Y917238D01*
X108123Y910656D02*
X118113Y910656D01*
X118113Y913064D02*
X108123Y913064D01*
X108123Y915472D02*
X118113Y915472D01*
D19*
X133614Y890239D02*
X133614Y888247D01*
X128022Y888247D01*
X128022Y890239D01*
X133614Y890239D01*
X109622Y883739D02*
X109622Y881747D01*
X109622Y883739D02*
X115214Y883739D01*
X115214Y881747D01*
X109622Y881747D01*
X109622Y877239D02*
X109622Y875247D01*
X109622Y877239D02*
X115214Y877239D01*
X115214Y875247D01*
X109622Y875247D01*
X109622Y888247D02*
X109622Y890239D01*
X115214Y890239D01*
X115214Y888247D01*
X109622Y888247D01*
X133614Y883739D02*
X133614Y881747D01*
X128022Y881747D01*
X128022Y883739D01*
X133614Y883739D01*
X133614Y877239D02*
X133614Y875247D01*
X128022Y875247D01*
X128022Y877239D01*
X133614Y877239D01*
D13*
X427018Y46963D03*
X484818Y46963D03*
D16*
X178113Y938248D02*
X168123Y938248D01*
X168123Y947238D01*
X178113Y947238D01*
X178113Y938248D01*
X178113Y940656D02*
X168123Y940656D01*
X168123Y943064D02*
X178113Y943064D01*
X178113Y945472D02*
X168123Y945472D01*
X185123Y938248D02*
X195113Y938248D01*
X185123Y938248D02*
X185123Y947238D01*
X195113Y947238D01*
X195113Y938248D01*
X195113Y940656D02*
X185123Y940656D01*
X185123Y943064D02*
X195113Y943064D01*
X195113Y945472D02*
X185123Y945472D01*
D17*
X151118Y71893D03*
X125718Y71893D03*
X100318Y71893D03*
X74918Y71893D03*
X608318Y174443D03*
X582918Y174443D03*
X557518Y174443D03*
X532118Y174443D03*
X24118Y342243D03*
X24118Y316843D03*
D16*
X448123Y898248D02*
X458113Y898248D01*
X448123Y898248D02*
X448123Y907238D01*
X458113Y907238D01*
X458113Y898248D01*
X458113Y900656D02*
X448123Y900656D01*
X448123Y903064D02*
X458113Y903064D01*
X458113Y905472D02*
X448123Y905472D01*
X465123Y898248D02*
X475113Y898248D01*
X465123Y898248D02*
X465123Y907238D01*
X475113Y907238D01*
X475113Y898248D01*
X475113Y900656D02*
X465123Y900656D01*
X465123Y903064D02*
X475113Y903064D01*
X475113Y905472D02*
X465123Y905472D01*
D17*
X388918Y82743D03*
X414318Y82743D03*
X148918Y1087743D03*
X174318Y1087743D03*
X626618Y980343D03*
X626618Y954943D03*
D16*
X585113Y1007238D02*
X575123Y1007238D01*
X585113Y1007238D02*
X585113Y998248D01*
X575123Y998248D01*
X575123Y1007238D01*
X575123Y1000656D02*
X585113Y1000656D01*
X585113Y1003064D02*
X575123Y1003064D01*
X575123Y1005472D02*
X585113Y1005472D01*
X568113Y1007238D02*
X558123Y1007238D01*
X568113Y1007238D02*
X568113Y998248D01*
X558123Y998248D01*
X558123Y1007238D01*
X558123Y1000656D02*
X568113Y1000656D01*
X568113Y1003064D02*
X558123Y1003064D01*
X558123Y1005472D02*
X568113Y1005472D01*
D20*
X162849Y994762D02*
X160387Y994762D01*
X160387Y1001724D01*
X162849Y1001724D01*
X162849Y994762D01*
X162849Y997196D02*
X160387Y997196D01*
X160387Y999630D02*
X162849Y999630D01*
X165387Y994762D02*
X167849Y994762D01*
X165387Y994762D02*
X165387Y1001724D01*
X167849Y1001724D01*
X167849Y994762D01*
X167849Y997196D02*
X165387Y997196D01*
X165387Y999630D02*
X167849Y999630D01*
X170387Y994762D02*
X172849Y994762D01*
X170387Y994762D02*
X170387Y1001724D01*
X172849Y1001724D01*
X172849Y994762D01*
X172849Y997196D02*
X170387Y997196D01*
X170387Y999630D02*
X172849Y999630D01*
X157849Y994762D02*
X155387Y994762D01*
X155387Y1001724D01*
X157849Y1001724D01*
X157849Y994762D01*
X157849Y997196D02*
X155387Y997196D01*
X155387Y999630D02*
X157849Y999630D01*
X152849Y994762D02*
X150387Y994762D01*
X150387Y1001724D01*
X152849Y1001724D01*
X152849Y994762D01*
X152849Y997196D02*
X150387Y997196D01*
X150387Y999630D02*
X152849Y999630D01*
X152849Y1023762D02*
X150387Y1023762D01*
X150387Y1030724D01*
X152849Y1030724D01*
X152849Y1023762D01*
X152849Y1026196D02*
X150387Y1026196D01*
X150387Y1028630D02*
X152849Y1028630D01*
X155387Y1023762D02*
X157849Y1023762D01*
X155387Y1023762D02*
X155387Y1030724D01*
X157849Y1030724D01*
X157849Y1023762D01*
X157849Y1026196D02*
X155387Y1026196D01*
X155387Y1028630D02*
X157849Y1028630D01*
X160387Y1023762D02*
X162849Y1023762D01*
X160387Y1023762D02*
X160387Y1030724D01*
X162849Y1030724D01*
X162849Y1023762D01*
X162849Y1026196D02*
X160387Y1026196D01*
X160387Y1028630D02*
X162849Y1028630D01*
X165387Y1023762D02*
X167849Y1023762D01*
X165387Y1023762D02*
X165387Y1030724D01*
X167849Y1030724D01*
X167849Y1023762D01*
X167849Y1026196D02*
X165387Y1026196D01*
X165387Y1028630D02*
X167849Y1028630D01*
X170387Y1023762D02*
X172849Y1023762D01*
X170387Y1023762D02*
X170387Y1030724D01*
X172849Y1030724D01*
X172849Y1023762D01*
X172849Y1026196D02*
X170387Y1026196D01*
X170387Y1028630D02*
X172849Y1028630D01*
D21*
X149652Y1020709D02*
X149652Y1004777D01*
X149652Y1020709D02*
X173584Y1020709D01*
X173584Y1004777D01*
X149652Y1004777D01*
X149652Y1007240D02*
X173584Y1007240D01*
X173584Y1009703D02*
X149652Y1009703D01*
X149652Y1012166D02*
X173584Y1012166D01*
X173584Y1014629D02*
X149652Y1014629D01*
X149652Y1017092D02*
X173584Y1017092D01*
X173584Y1019555D02*
X149652Y1019555D01*
D16*
X125113Y1057238D02*
X115123Y1057238D01*
X125113Y1057238D02*
X125113Y1048248D01*
X115123Y1048248D01*
X115123Y1057238D01*
X115123Y1050656D02*
X125113Y1050656D01*
X125113Y1053064D02*
X115123Y1053064D01*
X115123Y1055472D02*
X125113Y1055472D01*
X108113Y1057238D02*
X98123Y1057238D01*
X108113Y1057238D02*
X108113Y1048248D01*
X98123Y1048248D01*
X98123Y1057238D01*
X98123Y1050656D02*
X108113Y1050656D01*
X108113Y1053064D02*
X98123Y1053064D01*
X98123Y1055472D02*
X108113Y1055472D01*
X115123Y1037238D02*
X125113Y1037238D01*
X125113Y1028248D01*
X115123Y1028248D01*
X115123Y1037238D01*
X115123Y1030656D02*
X125113Y1030656D01*
X125113Y1033064D02*
X115123Y1033064D01*
X115123Y1035472D02*
X125113Y1035472D01*
X108113Y1037238D02*
X98123Y1037238D01*
X108113Y1037238D02*
X108113Y1028248D01*
X98123Y1028248D01*
X98123Y1037238D01*
X98123Y1030656D02*
X108113Y1030656D01*
X108113Y1033064D02*
X98123Y1033064D01*
X98123Y1035472D02*
X108113Y1035472D01*
X115123Y1077238D02*
X125113Y1077238D01*
X125113Y1068248D01*
X115123Y1068248D01*
X115123Y1077238D01*
X115123Y1070656D02*
X125113Y1070656D01*
X125113Y1073064D02*
X115123Y1073064D01*
X115123Y1075472D02*
X125113Y1075472D01*
X108113Y1077238D02*
X98123Y1077238D01*
X108113Y1077238D02*
X108113Y1068248D01*
X98123Y1068248D01*
X98123Y1077238D01*
X98123Y1070656D02*
X108113Y1070656D01*
X108113Y1073064D02*
X98123Y1073064D01*
X98123Y1075472D02*
X108113Y1075472D01*
D17*
X21618Y472743D03*
X47018Y472743D03*
X72418Y472743D03*
X97818Y472743D03*
X161618Y292743D03*
X161618Y267343D03*
X161618Y241943D03*
X161618Y216543D03*
X161618Y191143D03*
X626618Y851743D03*
X626618Y877143D03*
X626618Y902543D03*
X626618Y927943D03*
D22*
X101618Y582743D03*
D16*
X448123Y868248D02*
X458113Y868248D01*
X448123Y868248D02*
X448123Y877238D01*
X458113Y877238D01*
X458113Y868248D01*
X458113Y870656D02*
X448123Y870656D01*
X448123Y873064D02*
X458113Y873064D01*
X458113Y875472D02*
X448123Y875472D01*
X465123Y868248D02*
X475113Y868248D01*
X465123Y868248D02*
X465123Y877238D01*
X475113Y877238D01*
X475113Y868248D01*
X475113Y870656D02*
X465123Y870656D01*
X465123Y873064D02*
X475113Y873064D01*
X475113Y875472D02*
X465123Y875472D01*
D23*
X438617Y1013044D02*
X438617Y1021042D01*
X438617Y1013044D02*
X424619Y1013044D01*
X424619Y1021042D01*
X438617Y1021042D01*
X438617Y1015444D02*
X424619Y1015444D01*
X424619Y1017844D02*
X438617Y1017844D01*
X438617Y1020244D02*
X424619Y1020244D01*
X438617Y1008342D02*
X438617Y1000344D01*
X424619Y1000344D01*
X424619Y1008342D01*
X438617Y1008342D01*
X438617Y1002744D02*
X424619Y1002744D01*
X424619Y1005144D02*
X438617Y1005144D01*
X438617Y1007544D02*
X424619Y1007544D01*
X438617Y995642D02*
X438617Y987644D01*
X424619Y987644D01*
X424619Y995642D01*
X438617Y995642D01*
X438617Y990044D02*
X424619Y990044D01*
X424619Y992444D02*
X438617Y992444D01*
X438617Y994844D02*
X424619Y994844D01*
X438617Y982942D02*
X438617Y974944D01*
X424619Y974944D01*
X424619Y982942D01*
X438617Y982942D01*
X438617Y977344D02*
X424619Y977344D01*
X424619Y979744D02*
X438617Y979744D01*
X438617Y982144D02*
X424619Y982144D01*
X438617Y970242D02*
X438617Y962244D01*
X424619Y962244D01*
X424619Y970242D01*
X438617Y970242D01*
X438617Y964644D02*
X424619Y964644D01*
X424619Y967044D02*
X438617Y967044D01*
X438617Y969444D02*
X424619Y969444D01*
X438617Y957542D02*
X438617Y949544D01*
X424619Y949544D01*
X424619Y957542D01*
X438617Y957542D01*
X438617Y951944D02*
X424619Y951944D01*
X424619Y954344D02*
X438617Y954344D01*
X438617Y956744D02*
X424619Y956744D01*
X438617Y944842D02*
X438617Y936844D01*
X424619Y936844D01*
X424619Y944842D01*
X438617Y944842D01*
X438617Y939244D02*
X424619Y939244D01*
X424619Y941644D02*
X438617Y941644D01*
X438617Y944044D02*
X424619Y944044D01*
X438617Y932142D02*
X438617Y924144D01*
X424619Y924144D01*
X424619Y932142D01*
X438617Y932142D01*
X438617Y926544D02*
X424619Y926544D01*
X424619Y928944D02*
X438617Y928944D01*
X438617Y931344D02*
X424619Y931344D01*
X438617Y919442D02*
X438617Y911444D01*
X424619Y911444D01*
X424619Y919442D01*
X438617Y919442D01*
X438617Y913844D02*
X424619Y913844D01*
X424619Y916244D02*
X438617Y916244D01*
X438617Y918644D02*
X424619Y918644D01*
X438617Y906742D02*
X438617Y898744D01*
X424619Y898744D01*
X424619Y906742D01*
X438617Y906742D01*
X438617Y901144D02*
X424619Y901144D01*
X424619Y903544D02*
X438617Y903544D01*
X438617Y905944D02*
X424619Y905944D01*
X438617Y894042D02*
X438617Y886044D01*
X424619Y886044D01*
X424619Y894042D01*
X438617Y894042D01*
X438617Y888444D02*
X424619Y888444D01*
X424619Y890844D02*
X438617Y890844D01*
X438617Y893244D02*
X424619Y893244D01*
X438617Y881342D02*
X438617Y873344D01*
X424619Y873344D01*
X424619Y881342D01*
X438617Y881342D01*
X438617Y875744D02*
X424619Y875744D01*
X424619Y878144D02*
X438617Y878144D01*
X438617Y880544D02*
X424619Y880544D01*
X438617Y868642D02*
X438617Y860644D01*
X424619Y860644D01*
X424619Y868642D01*
X438617Y868642D01*
X438617Y863044D02*
X424619Y863044D01*
X424619Y865444D02*
X438617Y865444D01*
X438617Y867844D02*
X424619Y867844D01*
X438617Y855942D02*
X438617Y847944D01*
X424619Y847944D01*
X424619Y855942D01*
X438617Y855942D01*
X438617Y850344D02*
X424619Y850344D01*
X424619Y852744D02*
X438617Y852744D01*
X438617Y855144D02*
X424619Y855144D01*
X402767Y830044D02*
X394769Y830044D01*
X394769Y844042D01*
X402767Y844042D01*
X402767Y830044D01*
X402767Y832444D02*
X394769Y832444D01*
X394769Y834844D02*
X402767Y834844D01*
X402767Y837244D02*
X394769Y837244D01*
X394769Y839644D02*
X402767Y839644D01*
X402767Y842044D02*
X394769Y842044D01*
X390067Y830044D02*
X382069Y830044D01*
X382069Y844042D01*
X390067Y844042D01*
X390067Y830044D01*
X390067Y832444D02*
X382069Y832444D01*
X382069Y834844D02*
X390067Y834844D01*
X390067Y837244D02*
X382069Y837244D01*
X382069Y839644D02*
X390067Y839644D01*
X390067Y842044D02*
X382069Y842044D01*
X377367Y830044D02*
X369369Y830044D01*
X369369Y844042D01*
X377367Y844042D01*
X377367Y830044D01*
X377367Y832444D02*
X369369Y832444D01*
X369369Y834844D02*
X377367Y834844D01*
X377367Y837244D02*
X369369Y837244D01*
X369369Y839644D02*
X377367Y839644D01*
X377367Y842044D02*
X369369Y842044D01*
X364667Y830044D02*
X356669Y830044D01*
X356669Y844042D01*
X364667Y844042D01*
X364667Y830044D01*
X364667Y832444D02*
X356669Y832444D01*
X356669Y834844D02*
X364667Y834844D01*
X364667Y837244D02*
X356669Y837244D01*
X356669Y839644D02*
X364667Y839644D01*
X364667Y842044D02*
X356669Y842044D01*
X351967Y830044D02*
X343969Y830044D01*
X343969Y844042D01*
X351967Y844042D01*
X351967Y830044D01*
X351967Y832444D02*
X343969Y832444D01*
X343969Y834844D02*
X351967Y834844D01*
X351967Y837244D02*
X343969Y837244D01*
X343969Y839644D02*
X351967Y839644D01*
X351967Y842044D02*
X343969Y842044D01*
X339267Y830044D02*
X331269Y830044D01*
X331269Y844042D01*
X339267Y844042D01*
X339267Y830044D01*
X339267Y832444D02*
X331269Y832444D01*
X331269Y834844D02*
X339267Y834844D01*
X339267Y837244D02*
X331269Y837244D01*
X331269Y839644D02*
X339267Y839644D01*
X339267Y842044D02*
X331269Y842044D01*
X326567Y830044D02*
X318569Y830044D01*
X318569Y844042D01*
X326567Y844042D01*
X326567Y830044D01*
X326567Y832444D02*
X318569Y832444D01*
X318569Y834844D02*
X326567Y834844D01*
X326567Y837244D02*
X318569Y837244D01*
X318569Y839644D02*
X326567Y839644D01*
X326567Y842044D02*
X318569Y842044D01*
X313867Y830044D02*
X305869Y830044D01*
X305869Y844042D01*
X313867Y844042D01*
X313867Y830044D01*
X313867Y832444D02*
X305869Y832444D01*
X305869Y834844D02*
X313867Y834844D01*
X313867Y837244D02*
X305869Y837244D01*
X305869Y839644D02*
X313867Y839644D01*
X313867Y842044D02*
X305869Y842044D01*
X301167Y830044D02*
X293169Y830044D01*
X293169Y844042D01*
X301167Y844042D01*
X301167Y830044D01*
X301167Y832444D02*
X293169Y832444D01*
X293169Y834844D02*
X301167Y834844D01*
X301167Y837244D02*
X293169Y837244D01*
X293169Y839644D02*
X301167Y839644D01*
X301167Y842044D02*
X293169Y842044D01*
X288467Y830044D02*
X280469Y830044D01*
X280469Y844042D01*
X288467Y844042D01*
X288467Y830044D01*
X288467Y832444D02*
X280469Y832444D01*
X280469Y834844D02*
X288467Y834844D01*
X288467Y837244D02*
X280469Y837244D01*
X280469Y839644D02*
X288467Y839644D01*
X288467Y842044D02*
X280469Y842044D01*
X258617Y847944D02*
X258617Y855942D01*
X258617Y847944D02*
X244619Y847944D01*
X244619Y855942D01*
X258617Y855942D01*
X258617Y850344D02*
X244619Y850344D01*
X244619Y852744D02*
X258617Y852744D01*
X258617Y855144D02*
X244619Y855144D01*
X258617Y860644D02*
X258617Y868642D01*
X258617Y860644D02*
X244619Y860644D01*
X244619Y868642D01*
X258617Y868642D01*
X258617Y863044D02*
X244619Y863044D01*
X244619Y865444D02*
X258617Y865444D01*
X258617Y867844D02*
X244619Y867844D01*
X258617Y873344D02*
X258617Y881342D01*
X258617Y873344D02*
X244619Y873344D01*
X244619Y881342D01*
X258617Y881342D01*
X258617Y875744D02*
X244619Y875744D01*
X244619Y878144D02*
X258617Y878144D01*
X258617Y880544D02*
X244619Y880544D01*
X258617Y886044D02*
X258617Y894042D01*
X258617Y886044D02*
X244619Y886044D01*
X244619Y894042D01*
X258617Y894042D01*
X258617Y888444D02*
X244619Y888444D01*
X244619Y890844D02*
X258617Y890844D01*
X258617Y893244D02*
X244619Y893244D01*
X258617Y898744D02*
X258617Y906742D01*
X258617Y898744D02*
X244619Y898744D01*
X244619Y906742D01*
X258617Y906742D01*
X258617Y901144D02*
X244619Y901144D01*
X244619Y903544D02*
X258617Y903544D01*
X258617Y905944D02*
X244619Y905944D01*
X258617Y911444D02*
X258617Y919442D01*
X258617Y911444D02*
X244619Y911444D01*
X244619Y919442D01*
X258617Y919442D01*
X258617Y913844D02*
X244619Y913844D01*
X244619Y916244D02*
X258617Y916244D01*
X258617Y918644D02*
X244619Y918644D01*
X258617Y924144D02*
X258617Y932142D01*
X258617Y924144D02*
X244619Y924144D01*
X244619Y932142D01*
X258617Y932142D01*
X258617Y926544D02*
X244619Y926544D01*
X244619Y928944D02*
X258617Y928944D01*
X258617Y931344D02*
X244619Y931344D01*
X258617Y936844D02*
X258617Y944842D01*
X258617Y936844D02*
X244619Y936844D01*
X244619Y944842D01*
X258617Y944842D01*
X258617Y939244D02*
X244619Y939244D01*
X244619Y941644D02*
X258617Y941644D01*
X258617Y944044D02*
X244619Y944044D01*
X258617Y949544D02*
X258617Y957542D01*
X258617Y949544D02*
X244619Y949544D01*
X244619Y957542D01*
X258617Y957542D01*
X258617Y951944D02*
X244619Y951944D01*
X244619Y954344D02*
X258617Y954344D01*
X258617Y956744D02*
X244619Y956744D01*
X258617Y962244D02*
X258617Y970242D01*
X258617Y962244D02*
X244619Y962244D01*
X244619Y970242D01*
X258617Y970242D01*
X258617Y964644D02*
X244619Y964644D01*
X244619Y967044D02*
X258617Y967044D01*
X258617Y969444D02*
X244619Y969444D01*
X258617Y974944D02*
X258617Y982942D01*
X258617Y974944D02*
X244619Y974944D01*
X244619Y982942D01*
X258617Y982942D01*
X258617Y977344D02*
X244619Y977344D01*
X244619Y979744D02*
X258617Y979744D01*
X258617Y982144D02*
X244619Y982144D01*
X258617Y987644D02*
X258617Y995642D01*
X258617Y987644D02*
X244619Y987644D01*
X244619Y995642D01*
X258617Y995642D01*
X258617Y990044D02*
X244619Y990044D01*
X244619Y992444D02*
X258617Y992444D01*
X258617Y994844D02*
X244619Y994844D01*
X258617Y1000344D02*
X258617Y1008342D01*
X258617Y1000344D02*
X244619Y1000344D01*
X244619Y1008342D01*
X258617Y1008342D01*
X258617Y1002744D02*
X244619Y1002744D01*
X244619Y1005144D02*
X258617Y1005144D01*
X258617Y1007544D02*
X244619Y1007544D01*
X258617Y1013044D02*
X258617Y1021042D01*
X258617Y1013044D02*
X244619Y1013044D01*
X244619Y1021042D01*
X258617Y1021042D01*
X258617Y1015444D02*
X244619Y1015444D01*
X244619Y1017844D02*
X258617Y1017844D01*
X258617Y1020244D02*
X244619Y1020244D01*
D24*
X363080Y949775D02*
X363080Y937471D01*
X350776Y937471D01*
X350776Y949775D01*
X363080Y949775D01*
X363080Y939865D02*
X350776Y939865D01*
X350776Y942259D02*
X363080Y942259D01*
X363080Y944653D02*
X350776Y944653D01*
X350776Y947047D02*
X363080Y947047D01*
X363080Y949441D02*
X350776Y949441D01*
X344630Y955681D02*
X344630Y967985D01*
X344630Y955681D02*
X332326Y955681D01*
X332326Y967985D01*
X344630Y967985D01*
X344630Y958075D02*
X332326Y958075D01*
X332326Y960469D02*
X344630Y960469D01*
X344630Y962863D02*
X332326Y962863D01*
X332326Y965257D02*
X344630Y965257D01*
X344630Y967651D02*
X332326Y967651D01*
X362930Y967985D02*
X362930Y955681D01*
X350626Y955681D01*
X350626Y967985D01*
X362930Y967985D01*
X362930Y958075D02*
X350626Y958075D01*
X350626Y960469D02*
X362930Y960469D01*
X362930Y962863D02*
X350626Y962863D01*
X350626Y965257D02*
X362930Y965257D01*
X362930Y967651D02*
X350626Y967651D01*
X381230Y967985D02*
X381230Y955681D01*
X368926Y955681D01*
X368926Y967985D01*
X381230Y967985D01*
X381230Y958075D02*
X368926Y958075D01*
X368926Y960469D02*
X381230Y960469D01*
X381230Y962863D02*
X368926Y962863D01*
X368926Y965257D02*
X381230Y965257D01*
X381230Y967651D02*
X368926Y967651D01*
X381230Y949685D02*
X381230Y937381D01*
X368926Y937381D01*
X368926Y949685D01*
X381230Y949685D01*
X381230Y939775D02*
X368926Y939775D01*
X368926Y942169D02*
X381230Y942169D01*
X381230Y944563D02*
X368926Y944563D01*
X368926Y946957D02*
X381230Y946957D01*
X381230Y949351D02*
X368926Y949351D01*
X344530Y949985D02*
X344530Y937681D01*
X332226Y937681D01*
X332226Y949985D01*
X344530Y949985D01*
X344530Y940075D02*
X332226Y940075D01*
X332226Y942469D02*
X344530Y942469D01*
X344530Y944863D02*
X332226Y944863D01*
X332226Y947257D02*
X344530Y947257D01*
X344530Y949651D02*
X332226Y949651D01*
X344630Y931385D02*
X344630Y919081D01*
X332326Y919081D01*
X332326Y931385D01*
X344630Y931385D01*
X344630Y921475D02*
X332326Y921475D01*
X332326Y923869D02*
X344630Y923869D01*
X344630Y926263D02*
X332326Y926263D01*
X332326Y928657D02*
X344630Y928657D01*
X344630Y931051D02*
X332326Y931051D01*
X362930Y931285D02*
X362930Y918981D01*
X350626Y918981D01*
X350626Y931285D01*
X362930Y931285D01*
X362930Y921375D02*
X350626Y921375D01*
X350626Y923769D02*
X362930Y923769D01*
X362930Y926163D02*
X350626Y926163D01*
X350626Y928557D02*
X362930Y928557D01*
X362930Y930951D02*
X350626Y930951D01*
X381230Y931385D02*
X381230Y919081D01*
X368926Y919081D01*
X368926Y931385D01*
X381230Y931385D01*
X381230Y921475D02*
X368926Y921475D01*
X368926Y923869D02*
X381230Y923869D01*
X381230Y926263D02*
X368926Y926263D01*
X368926Y928657D02*
X381230Y928657D01*
X381230Y931051D02*
X368926Y931051D01*
D16*
X465023Y832738D02*
X475013Y832738D01*
X475013Y823748D01*
X465023Y823748D01*
X465023Y832738D01*
X465023Y826156D02*
X475013Y826156D01*
X475013Y828564D02*
X465023Y828564D01*
X465023Y830972D02*
X475013Y830972D01*
X458013Y832738D02*
X448023Y832738D01*
X458013Y832738D02*
X458013Y823748D01*
X448023Y823748D01*
X448023Y832738D01*
X448023Y826156D02*
X458013Y826156D01*
X458013Y828564D02*
X448023Y828564D01*
X448023Y830972D02*
X458013Y830972D01*
X458013Y798348D02*
X448023Y798348D01*
X448023Y807338D01*
X458013Y807338D01*
X458013Y798348D01*
X458013Y800756D02*
X448023Y800756D01*
X448023Y803164D02*
X458013Y803164D01*
X458013Y805572D02*
X448023Y805572D01*
X465023Y798348D02*
X475013Y798348D01*
X465023Y798348D02*
X465023Y807338D01*
X475013Y807338D01*
X475013Y798348D01*
X475013Y800756D02*
X465023Y800756D01*
X465023Y803164D02*
X475013Y803164D01*
X475013Y805572D02*
X465023Y805572D01*
D17*
X571618Y242743D03*
X571618Y268143D03*
D25*
X540102Y145227D02*
X540102Y130259D01*
X534134Y130259D01*
X534134Y145227D01*
X540102Y145227D01*
X540102Y132688D02*
X534134Y132688D01*
X534134Y135117D02*
X540102Y135117D01*
X540102Y137546D02*
X534134Y137546D01*
X534134Y139975D02*
X540102Y139975D01*
X540102Y142404D02*
X534134Y142404D01*
X534134Y144833D02*
X540102Y144833D01*
X529102Y145227D02*
X529102Y130259D01*
X523134Y130259D01*
X523134Y145227D01*
X529102Y145227D01*
X529102Y132688D02*
X523134Y132688D01*
X523134Y135117D02*
X529102Y135117D01*
X529102Y137546D02*
X523134Y137546D01*
X523134Y139975D02*
X529102Y139975D01*
X529102Y142404D02*
X523134Y142404D01*
X523134Y144833D02*
X529102Y144833D01*
X518102Y145227D02*
X518102Y130259D01*
X512134Y130259D01*
X512134Y145227D01*
X518102Y145227D01*
X518102Y132688D02*
X512134Y132688D01*
X512134Y135117D02*
X518102Y135117D01*
X518102Y137546D02*
X512134Y137546D01*
X512134Y139975D02*
X518102Y139975D01*
X518102Y142404D02*
X512134Y142404D01*
X512134Y144833D02*
X518102Y144833D01*
X551102Y145227D02*
X551102Y130259D01*
X545134Y130259D01*
X545134Y145227D01*
X551102Y145227D01*
X551102Y132688D02*
X545134Y132688D01*
X545134Y135117D02*
X551102Y135117D01*
X551102Y137546D02*
X545134Y137546D01*
X545134Y139975D02*
X551102Y139975D01*
X551102Y142404D02*
X545134Y142404D01*
X545134Y144833D02*
X551102Y144833D01*
X562102Y145227D02*
X562102Y130259D01*
X556134Y130259D01*
X556134Y145227D01*
X562102Y145227D01*
X562102Y132688D02*
X556134Y132688D01*
X556134Y135117D02*
X562102Y135117D01*
X562102Y137546D02*
X556134Y137546D01*
X556134Y139975D02*
X562102Y139975D01*
X562102Y142404D02*
X556134Y142404D01*
X556134Y144833D02*
X562102Y144833D01*
X573102Y145227D02*
X573102Y130259D01*
X567134Y130259D01*
X567134Y145227D01*
X573102Y145227D01*
X573102Y132688D02*
X567134Y132688D01*
X567134Y135117D02*
X573102Y135117D01*
X573102Y137546D02*
X567134Y137546D01*
X567134Y139975D02*
X573102Y139975D01*
X573102Y142404D02*
X567134Y142404D01*
X567134Y144833D02*
X573102Y144833D01*
X584102Y145227D02*
X584102Y130259D01*
X578134Y130259D01*
X578134Y145227D01*
X584102Y145227D01*
X584102Y132688D02*
X578134Y132688D01*
X578134Y135117D02*
X584102Y135117D01*
X584102Y137546D02*
X578134Y137546D01*
X578134Y139975D02*
X584102Y139975D01*
X584102Y142404D02*
X578134Y142404D01*
X578134Y144833D02*
X584102Y144833D01*
X595102Y145227D02*
X595102Y130259D01*
X589134Y130259D01*
X589134Y145227D01*
X595102Y145227D01*
X595102Y132688D02*
X589134Y132688D01*
X589134Y135117D02*
X595102Y135117D01*
X595102Y137546D02*
X589134Y137546D01*
X589134Y139975D02*
X595102Y139975D01*
X595102Y142404D02*
X589134Y142404D01*
X589134Y144833D02*
X595102Y144833D01*
X606102Y145227D02*
X606102Y130259D01*
X600134Y130259D01*
X600134Y145227D01*
X606102Y145227D01*
X606102Y132688D02*
X600134Y132688D01*
X600134Y135117D02*
X606102Y135117D01*
X606102Y137546D02*
X600134Y137546D01*
X600134Y139975D02*
X606102Y139975D01*
X606102Y142404D02*
X600134Y142404D01*
X600134Y144833D02*
X606102Y144833D01*
D26*
X507118Y32743D03*
X587118Y32743D03*
D10*
X465663Y47288D02*
X454573Y47288D01*
X465663Y47288D02*
X465663Y26198D01*
X454573Y26198D01*
X454573Y47288D01*
X454573Y28510D02*
X465663Y28510D01*
X465663Y30822D02*
X454573Y30822D01*
X454573Y33134D02*
X465663Y33134D01*
X465663Y35446D02*
X454573Y35446D01*
X454573Y37758D02*
X465663Y37758D01*
X465663Y40070D02*
X454573Y40070D01*
X454573Y42382D02*
X465663Y42382D01*
X465663Y44694D02*
X454573Y44694D01*
X454573Y47006D02*
X465663Y47006D01*
X609573Y47288D02*
X620663Y47288D01*
X620663Y26198D01*
X609573Y26198D01*
X609573Y47288D01*
X609573Y28510D02*
X620663Y28510D01*
X620663Y30822D02*
X609573Y30822D01*
X609573Y33134D02*
X620663Y33134D01*
X620663Y35446D02*
X609573Y35446D01*
X609573Y37758D02*
X620663Y37758D01*
X620663Y40070D02*
X609573Y40070D01*
X609573Y42382D02*
X620663Y42382D01*
X620663Y44694D02*
X609573Y44694D01*
X609573Y47006D02*
X620663Y47006D01*
D27*
X476638Y139263D02*
X461598Y139263D01*
X476638Y139263D02*
X476638Y126223D01*
X461598Y126223D01*
X461598Y139263D01*
X461598Y128583D02*
X476638Y128583D01*
X476638Y130943D02*
X461598Y130943D01*
X461598Y133303D02*
X476638Y133303D01*
X476638Y135663D02*
X461598Y135663D01*
X461598Y138023D02*
X476638Y138023D01*
D10*
X609573Y139288D02*
X620663Y139288D01*
X620663Y124198D01*
X609573Y124198D01*
X609573Y139288D01*
X609573Y126510D02*
X620663Y126510D01*
X620663Y128822D02*
X609573Y128822D01*
X609573Y131134D02*
X620663Y131134D01*
X620663Y133446D02*
X609573Y133446D01*
X609573Y135758D02*
X620663Y135758D01*
X620663Y138070D02*
X609573Y138070D01*
X1051143Y20238D02*
X1062233Y20238D01*
X1062233Y1148D01*
X1051143Y1148D01*
X1051143Y20238D01*
X1051143Y3460D02*
X1062233Y3460D01*
X1062233Y5772D02*
X1051143Y5772D01*
X1051143Y8084D02*
X1062233Y8084D01*
X1062233Y10396D02*
X1051143Y10396D01*
X1051143Y12708D02*
X1062233Y12708D01*
X1062233Y15020D02*
X1051143Y15020D01*
X1051143Y17332D02*
X1062233Y17332D01*
X1062233Y19644D02*
X1051143Y19644D01*
X1006233Y20238D02*
X995143Y20238D01*
X1006233Y20238D02*
X1006233Y1148D01*
X995143Y1148D01*
X995143Y20238D01*
X995143Y3460D02*
X1006233Y3460D01*
X1006233Y5772D02*
X995143Y5772D01*
X995143Y8084D02*
X1006233Y8084D01*
X1006233Y10396D02*
X995143Y10396D01*
X995143Y12708D02*
X1006233Y12708D01*
X1006233Y15020D02*
X995143Y15020D01*
X995143Y17332D02*
X1006233Y17332D01*
X1006233Y19644D02*
X995143Y19644D01*
D11*
X1041205Y53676D02*
X1046171Y53676D01*
X1046171Y41210D01*
X1041205Y41210D01*
X1041205Y53676D01*
X1041205Y43640D02*
X1046171Y43640D01*
X1046171Y46070D02*
X1041205Y46070D01*
X1041205Y48500D02*
X1046171Y48500D01*
X1046171Y50930D02*
X1041205Y50930D01*
X1041205Y53360D02*
X1046171Y53360D01*
X1036171Y53676D02*
X1031205Y53676D01*
X1036171Y53676D02*
X1036171Y41210D01*
X1031205Y41210D01*
X1031205Y53676D01*
X1031205Y43640D02*
X1036171Y43640D01*
X1036171Y46070D02*
X1031205Y46070D01*
X1031205Y48500D02*
X1036171Y48500D01*
X1036171Y50930D02*
X1031205Y50930D01*
X1031205Y53360D02*
X1036171Y53360D01*
X1026171Y53676D02*
X1021205Y53676D01*
X1026171Y53676D02*
X1026171Y41210D01*
X1021205Y41210D01*
X1021205Y53676D01*
X1021205Y43640D02*
X1026171Y43640D01*
X1026171Y46070D02*
X1021205Y46070D01*
X1021205Y48500D02*
X1026171Y48500D01*
X1026171Y50930D02*
X1021205Y50930D01*
X1021205Y53360D02*
X1026171Y53360D01*
X1016171Y53676D02*
X1011205Y53676D01*
X1016171Y53676D02*
X1016171Y41210D01*
X1011205Y41210D01*
X1011205Y53676D01*
X1011205Y43640D02*
X1016171Y43640D01*
X1016171Y46070D02*
X1011205Y46070D01*
X1011205Y48500D02*
X1016171Y48500D01*
X1016171Y50930D02*
X1011205Y50930D01*
X1011205Y53360D02*
X1016171Y53360D01*
D12*
X1320788Y42843D03*
X738388Y1051643D03*
D13*
X999788Y46963D03*
X1057588Y46963D03*
D14*
X946728Y55453D02*
X932848Y55453D01*
X946728Y55453D02*
X946728Y16573D01*
X932848Y16573D01*
X932848Y55453D01*
X932848Y19085D02*
X946728Y19085D01*
X946728Y21597D02*
X932848Y21597D01*
X932848Y24109D02*
X946728Y24109D01*
X946728Y26621D02*
X932848Y26621D01*
X932848Y29133D02*
X946728Y29133D01*
X946728Y31645D02*
X932848Y31645D01*
X932848Y34157D02*
X946728Y34157D01*
X946728Y36669D02*
X932848Y36669D01*
X932848Y39181D02*
X946728Y39181D01*
X946728Y41693D02*
X932848Y41693D01*
X932848Y44205D02*
X946728Y44205D01*
X946728Y46717D02*
X932848Y46717D01*
X932848Y49229D02*
X946728Y49229D01*
X946728Y51741D02*
X932848Y51741D01*
X932848Y54253D02*
X946728Y54253D01*
X895928Y55453D02*
X882048Y55453D01*
X895928Y55453D02*
X895928Y16573D01*
X882048Y16573D01*
X882048Y55453D01*
X882048Y19085D02*
X895928Y19085D01*
X895928Y21597D02*
X882048Y21597D01*
X882048Y24109D02*
X895928Y24109D01*
X895928Y26621D02*
X882048Y26621D01*
X882048Y29133D02*
X895928Y29133D01*
X895928Y31645D02*
X882048Y31645D01*
X882048Y34157D02*
X895928Y34157D01*
X895928Y36669D02*
X882048Y36669D01*
X882048Y39181D02*
X895928Y39181D01*
X895928Y41693D02*
X882048Y41693D01*
X882048Y44205D02*
X895928Y44205D01*
X895928Y46717D02*
X882048Y46717D01*
X882048Y49229D02*
X895928Y49229D01*
X895928Y51741D02*
X882048Y51741D01*
X882048Y54253D02*
X895928Y54253D01*
D15*
X743700Y282680D03*
X743700Y782806D03*
X1313676Y782806D03*
X1313676Y282680D03*
D16*
X829983Y1001848D02*
X829983Y1011838D01*
X829983Y1001848D02*
X820993Y1001848D01*
X820993Y1011838D01*
X829983Y1011838D01*
X829983Y1004256D02*
X820993Y1004256D01*
X820993Y1006664D02*
X829983Y1006664D01*
X829983Y1009072D02*
X820993Y1009072D01*
X820993Y1011480D02*
X829983Y1011480D01*
X829983Y1018848D02*
X829983Y1028838D01*
X829983Y1018848D02*
X820993Y1018848D01*
X820993Y1028838D01*
X829983Y1028838D01*
X829983Y1021256D02*
X820993Y1021256D01*
X820993Y1023664D02*
X829983Y1023664D01*
X829983Y1026072D02*
X820993Y1026072D01*
X820993Y1028480D02*
X829983Y1028480D01*
X852193Y1057238D02*
X862183Y1057238D01*
X862183Y1048248D01*
X852193Y1048248D01*
X852193Y1057238D01*
X852193Y1050656D02*
X862183Y1050656D01*
X862183Y1053064D02*
X852193Y1053064D01*
X852193Y1055472D02*
X862183Y1055472D01*
X845183Y1057238D02*
X835193Y1057238D01*
X845183Y1057238D02*
X845183Y1048248D01*
X835193Y1048248D01*
X835193Y1057238D01*
X835193Y1050656D02*
X845183Y1050656D01*
X845183Y1053064D02*
X835193Y1053064D01*
X835193Y1055472D02*
X845183Y1055472D01*
X852193Y987238D02*
X862183Y987238D01*
X862183Y978248D01*
X852193Y978248D01*
X852193Y987238D01*
X852193Y980656D02*
X862183Y980656D01*
X862183Y983064D02*
X852193Y983064D01*
X852193Y985472D02*
X862183Y985472D01*
X845183Y987238D02*
X835193Y987238D01*
X845183Y987238D02*
X845183Y978248D01*
X835193Y978248D01*
X835193Y987238D01*
X835193Y980656D02*
X845183Y980656D01*
X845183Y983064D02*
X835193Y983064D01*
X835193Y985472D02*
X845183Y985472D01*
D17*
X902208Y1046683D03*
X902208Y1021283D03*
D18*
X922348Y983903D02*
X922348Y978583D01*
X915028Y978583D01*
X915028Y983903D01*
X922348Y983903D01*
X922348Y980962D02*
X915028Y980962D01*
X915028Y983341D02*
X922348Y983341D01*
X922348Y1001583D02*
X922348Y1006903D01*
X922348Y1001583D02*
X915028Y1001583D01*
X915028Y1006903D01*
X922348Y1006903D01*
X922348Y1003962D02*
X915028Y1003962D01*
X915028Y1006341D02*
X922348Y1006341D01*
D16*
X1134193Y966238D02*
X1134193Y956248D01*
X1134193Y966238D02*
X1143183Y966238D01*
X1143183Y956248D01*
X1134193Y956248D01*
X1134193Y958656D02*
X1143183Y958656D01*
X1143183Y961064D02*
X1134193Y961064D01*
X1134193Y963472D02*
X1143183Y963472D01*
X1143183Y965880D02*
X1134193Y965880D01*
X1134193Y949238D02*
X1134193Y939248D01*
X1134193Y949238D02*
X1143183Y949238D01*
X1143183Y939248D01*
X1134193Y939248D01*
X1134193Y941656D02*
X1143183Y941656D01*
X1143183Y944064D02*
X1134193Y944064D01*
X1134193Y946472D02*
X1143183Y946472D01*
X1143183Y948880D02*
X1134193Y948880D01*
X1154193Y996248D02*
X1154193Y1006238D01*
X1163183Y1006238D01*
X1163183Y996248D01*
X1154193Y996248D01*
X1154193Y998656D02*
X1163183Y998656D01*
X1163183Y1001064D02*
X1154193Y1001064D01*
X1154193Y1003472D02*
X1163183Y1003472D01*
X1163183Y1005880D02*
X1154193Y1005880D01*
X1154193Y989238D02*
X1154193Y979248D01*
X1154193Y989238D02*
X1163183Y989238D01*
X1163183Y979248D01*
X1154193Y979248D01*
X1154193Y981656D02*
X1163183Y981656D01*
X1163183Y984064D02*
X1154193Y984064D01*
X1154193Y986472D02*
X1163183Y986472D01*
X1163183Y988880D02*
X1154193Y988880D01*
X1134193Y996248D02*
X1134193Y1006238D01*
X1143183Y1006238D01*
X1143183Y996248D01*
X1134193Y996248D01*
X1134193Y998656D02*
X1143183Y998656D01*
X1143183Y1001064D02*
X1134193Y1001064D01*
X1134193Y1003472D02*
X1143183Y1003472D01*
X1143183Y1005880D02*
X1134193Y1005880D01*
X1134193Y989238D02*
X1134193Y979248D01*
X1134193Y989238D02*
X1143183Y989238D01*
X1143183Y979248D01*
X1134193Y979248D01*
X1134193Y981656D02*
X1143183Y981656D01*
X1143183Y984064D02*
X1134193Y984064D01*
X1134193Y986472D02*
X1143183Y986472D01*
X1143183Y988880D02*
X1134193Y988880D01*
X1154193Y966238D02*
X1154193Y956248D01*
X1154193Y966238D02*
X1163183Y966238D01*
X1163183Y956248D01*
X1154193Y956248D01*
X1154193Y958656D02*
X1163183Y958656D01*
X1163183Y961064D02*
X1154193Y961064D01*
X1154193Y963472D02*
X1163183Y963472D01*
X1163183Y965880D02*
X1154193Y965880D01*
X1154193Y949238D02*
X1154193Y939248D01*
X1154193Y949238D02*
X1163183Y949238D01*
X1163183Y939248D01*
X1154193Y939248D01*
X1154193Y941656D02*
X1163183Y941656D01*
X1163183Y944064D02*
X1154193Y944064D01*
X1154193Y946472D02*
X1163183Y946472D01*
X1163183Y948880D02*
X1154193Y948880D01*
X865183Y958248D02*
X855193Y958248D01*
X855193Y967238D01*
X865183Y967238D01*
X865183Y958248D01*
X865183Y960656D02*
X855193Y960656D01*
X855193Y963064D02*
X865183Y963064D01*
X865183Y965472D02*
X855193Y965472D01*
X872193Y958248D02*
X882183Y958248D01*
X872193Y958248D02*
X872193Y967238D01*
X882183Y967238D01*
X882183Y958248D01*
X882183Y960656D02*
X872193Y960656D01*
X872193Y963064D02*
X882183Y963064D01*
X882183Y965472D02*
X872193Y965472D01*
D11*
X891205Y929676D02*
X891205Y924710D01*
X891205Y929676D02*
X902171Y929676D01*
X902171Y924710D01*
X891205Y924710D01*
X891205Y927140D02*
X902171Y927140D01*
X902171Y929570D02*
X891205Y929570D01*
X891205Y916976D02*
X891205Y912010D01*
X891205Y916976D02*
X902171Y916976D01*
X902171Y912010D01*
X891205Y912010D01*
X891205Y914440D02*
X902171Y914440D01*
X902171Y916870D02*
X891205Y916870D01*
X891205Y904276D02*
X891205Y899310D01*
X891205Y904276D02*
X902171Y904276D01*
X902171Y899310D01*
X891205Y899310D01*
X891205Y901740D02*
X902171Y901740D01*
X902171Y904170D02*
X891205Y904170D01*
X891205Y891576D02*
X891205Y886610D01*
X891205Y891576D02*
X902171Y891576D01*
X902171Y886610D01*
X891205Y886610D01*
X891205Y889040D02*
X902171Y889040D01*
X902171Y891470D02*
X891205Y891470D01*
X891205Y878876D02*
X891205Y873910D01*
X891205Y878876D02*
X902171Y878876D01*
X902171Y873910D01*
X891205Y873910D01*
X891205Y876340D02*
X902171Y876340D01*
X902171Y878770D02*
X891205Y878770D01*
X891205Y866176D02*
X891205Y861210D01*
X891205Y866176D02*
X902171Y866176D01*
X902171Y861210D01*
X891205Y861210D01*
X891205Y863640D02*
X902171Y863640D01*
X902171Y866070D02*
X891205Y866070D01*
X891205Y853476D02*
X891205Y848510D01*
X891205Y853476D02*
X902171Y853476D01*
X902171Y848510D01*
X891205Y848510D01*
X891205Y850940D02*
X902171Y850940D01*
X902171Y853370D02*
X891205Y853370D01*
X891205Y840776D02*
X891205Y835810D01*
X891205Y840776D02*
X902171Y840776D01*
X902171Y835810D01*
X891205Y835810D01*
X891205Y838240D02*
X902171Y838240D01*
X902171Y840670D02*
X891205Y840670D01*
X835205Y840776D02*
X835205Y835810D01*
X835205Y840776D02*
X846171Y840776D01*
X846171Y835810D01*
X835205Y835810D01*
X835205Y838240D02*
X846171Y838240D01*
X846171Y840670D02*
X835205Y840670D01*
X835205Y848510D02*
X835205Y853476D01*
X846171Y853476D01*
X846171Y848510D01*
X835205Y848510D01*
X835205Y850940D02*
X846171Y850940D01*
X846171Y853370D02*
X835205Y853370D01*
X835205Y861210D02*
X835205Y866176D01*
X846171Y866176D01*
X846171Y861210D01*
X835205Y861210D01*
X835205Y863640D02*
X846171Y863640D01*
X846171Y866070D02*
X835205Y866070D01*
X835205Y873910D02*
X835205Y878876D01*
X846171Y878876D01*
X846171Y873910D01*
X835205Y873910D01*
X835205Y876340D02*
X846171Y876340D01*
X846171Y878770D02*
X835205Y878770D01*
X835205Y886610D02*
X835205Y891576D01*
X846171Y891576D01*
X846171Y886610D01*
X835205Y886610D01*
X835205Y889040D02*
X846171Y889040D01*
X846171Y891470D02*
X835205Y891470D01*
X835205Y899310D02*
X835205Y904276D01*
X846171Y904276D01*
X846171Y899310D01*
X835205Y899310D01*
X835205Y901740D02*
X846171Y901740D01*
X846171Y904170D02*
X835205Y904170D01*
X835205Y912010D02*
X835205Y916976D01*
X846171Y916976D01*
X846171Y912010D01*
X835205Y912010D01*
X835205Y914440D02*
X846171Y914440D01*
X846171Y916870D02*
X835205Y916870D01*
X835205Y924710D02*
X835205Y929676D01*
X846171Y929676D01*
X846171Y924710D01*
X835205Y924710D01*
X835205Y927140D02*
X846171Y927140D01*
X846171Y929570D02*
X835205Y929570D01*
D16*
X805183Y848248D02*
X795193Y848248D01*
X795193Y857238D01*
X805183Y857238D01*
X805183Y848248D01*
X805183Y850656D02*
X795193Y850656D01*
X795193Y853064D02*
X805183Y853064D01*
X805183Y855472D02*
X795193Y855472D01*
X812193Y848248D02*
X822183Y848248D01*
X812193Y848248D02*
X812193Y857238D01*
X822183Y857238D01*
X822183Y848248D01*
X822183Y850656D02*
X812193Y850656D01*
X812193Y853064D02*
X822183Y853064D01*
X822183Y855472D02*
X812193Y855472D01*
X812193Y917238D02*
X822183Y917238D01*
X822183Y908248D01*
X812193Y908248D01*
X812193Y917238D01*
X812193Y910656D02*
X822183Y910656D01*
X822183Y913064D02*
X812193Y913064D01*
X812193Y915472D02*
X822183Y915472D01*
X805183Y917238D02*
X795193Y917238D01*
X805183Y917238D02*
X805183Y908248D01*
X795193Y908248D01*
X795193Y917238D01*
X795193Y910656D02*
X805183Y910656D01*
X805183Y913064D02*
X795193Y913064D01*
X795193Y915472D02*
X805183Y915472D01*
D19*
X820684Y890239D02*
X820684Y888247D01*
X815092Y888247D01*
X815092Y890239D01*
X820684Y890239D01*
X796692Y883739D02*
X796692Y881747D01*
X796692Y883739D02*
X802284Y883739D01*
X802284Y881747D01*
X796692Y881747D01*
X796692Y877239D02*
X796692Y875247D01*
X796692Y877239D02*
X802284Y877239D01*
X802284Y875247D01*
X796692Y875247D01*
X796692Y888247D02*
X796692Y890239D01*
X802284Y890239D01*
X802284Y888247D01*
X796692Y888247D01*
X820684Y883739D02*
X820684Y881747D01*
X815092Y881747D01*
X815092Y883739D01*
X820684Y883739D01*
X820684Y877239D02*
X820684Y875247D01*
X815092Y875247D01*
X815092Y877239D01*
X820684Y877239D01*
D13*
X1114088Y46963D03*
X1171888Y46963D03*
D16*
X865183Y938248D02*
X855193Y938248D01*
X855193Y947238D01*
X865183Y947238D01*
X865183Y938248D01*
X865183Y940656D02*
X855193Y940656D01*
X855193Y943064D02*
X865183Y943064D01*
X865183Y945472D02*
X855193Y945472D01*
X872193Y938248D02*
X882183Y938248D01*
X872193Y938248D02*
X872193Y947238D01*
X882183Y947238D01*
X882183Y938248D01*
X882183Y940656D02*
X872193Y940656D01*
X872193Y943064D02*
X882183Y943064D01*
X882183Y945472D02*
X872193Y945472D01*
D17*
X838188Y71893D03*
X812788Y71893D03*
X787388Y71893D03*
X761988Y71893D03*
X1295388Y174443D03*
X1269988Y174443D03*
X1244588Y174443D03*
X1219188Y174443D03*
X711188Y342243D03*
X711188Y316843D03*
D16*
X1135193Y898248D02*
X1145183Y898248D01*
X1135193Y898248D02*
X1135193Y907238D01*
X1145183Y907238D01*
X1145183Y898248D01*
X1145183Y900656D02*
X1135193Y900656D01*
X1135193Y903064D02*
X1145183Y903064D01*
X1145183Y905472D02*
X1135193Y905472D01*
X1152193Y898248D02*
X1162183Y898248D01*
X1152193Y898248D02*
X1152193Y907238D01*
X1162183Y907238D01*
X1162183Y898248D01*
X1162183Y900656D02*
X1152193Y900656D01*
X1152193Y903064D02*
X1162183Y903064D01*
X1162183Y905472D02*
X1152193Y905472D01*
D17*
X1075988Y82743D03*
X1101388Y82743D03*
X835988Y1087743D03*
X861388Y1087743D03*
X1313688Y980343D03*
X1313688Y954943D03*
D16*
X1272183Y1007238D02*
X1262193Y1007238D01*
X1272183Y1007238D02*
X1272183Y998248D01*
X1262193Y998248D01*
X1262193Y1007238D01*
X1262193Y1000656D02*
X1272183Y1000656D01*
X1272183Y1003064D02*
X1262193Y1003064D01*
X1262193Y1005472D02*
X1272183Y1005472D01*
X1255183Y1007238D02*
X1245193Y1007238D01*
X1255183Y1007238D02*
X1255183Y998248D01*
X1245193Y998248D01*
X1245193Y1007238D01*
X1245193Y1000656D02*
X1255183Y1000656D01*
X1255183Y1003064D02*
X1245193Y1003064D01*
X1245193Y1005472D02*
X1255183Y1005472D01*
D20*
X849919Y994762D02*
X847457Y994762D01*
X847457Y1001724D01*
X849919Y1001724D01*
X849919Y994762D01*
X849919Y997196D02*
X847457Y997196D01*
X847457Y999630D02*
X849919Y999630D01*
X852457Y994762D02*
X854919Y994762D01*
X852457Y994762D02*
X852457Y1001724D01*
X854919Y1001724D01*
X854919Y994762D01*
X854919Y997196D02*
X852457Y997196D01*
X852457Y999630D02*
X854919Y999630D01*
X857457Y994762D02*
X859919Y994762D01*
X857457Y994762D02*
X857457Y1001724D01*
X859919Y1001724D01*
X859919Y994762D01*
X859919Y997196D02*
X857457Y997196D01*
X857457Y999630D02*
X859919Y999630D01*
X844919Y994762D02*
X842457Y994762D01*
X842457Y1001724D01*
X844919Y1001724D01*
X844919Y994762D01*
X844919Y997196D02*
X842457Y997196D01*
X842457Y999630D02*
X844919Y999630D01*
X839919Y994762D02*
X837457Y994762D01*
X837457Y1001724D01*
X839919Y1001724D01*
X839919Y994762D01*
X839919Y997196D02*
X837457Y997196D01*
X837457Y999630D02*
X839919Y999630D01*
X839919Y1023762D02*
X837457Y1023762D01*
X837457Y1030724D01*
X839919Y1030724D01*
X839919Y1023762D01*
X839919Y1026196D02*
X837457Y1026196D01*
X837457Y1028630D02*
X839919Y1028630D01*
X842457Y1023762D02*
X844919Y1023762D01*
X842457Y1023762D02*
X842457Y1030724D01*
X844919Y1030724D01*
X844919Y1023762D01*
X844919Y1026196D02*
X842457Y1026196D01*
X842457Y1028630D02*
X844919Y1028630D01*
X847457Y1023762D02*
X849919Y1023762D01*
X847457Y1023762D02*
X847457Y1030724D01*
X849919Y1030724D01*
X849919Y1023762D01*
X849919Y1026196D02*
X847457Y1026196D01*
X847457Y1028630D02*
X849919Y1028630D01*
X852457Y1023762D02*
X854919Y1023762D01*
X852457Y1023762D02*
X852457Y1030724D01*
X854919Y1030724D01*
X854919Y1023762D01*
X854919Y1026196D02*
X852457Y1026196D01*
X852457Y1028630D02*
X854919Y1028630D01*
X857457Y1023762D02*
X859919Y1023762D01*
X857457Y1023762D02*
X857457Y1030724D01*
X859919Y1030724D01*
X859919Y1023762D01*
X859919Y1026196D02*
X857457Y1026196D01*
X857457Y1028630D02*
X859919Y1028630D01*
D21*
X836722Y1020709D02*
X836722Y1004777D01*
X836722Y1020709D02*
X860654Y1020709D01*
X860654Y1004777D01*
X836722Y1004777D01*
X836722Y1007240D02*
X860654Y1007240D01*
X860654Y1009703D02*
X836722Y1009703D01*
X836722Y1012166D02*
X860654Y1012166D01*
X860654Y1014629D02*
X836722Y1014629D01*
X836722Y1017092D02*
X860654Y1017092D01*
X860654Y1019555D02*
X836722Y1019555D01*
D16*
X812183Y1057238D02*
X802193Y1057238D01*
X812183Y1057238D02*
X812183Y1048248D01*
X802193Y1048248D01*
X802193Y1057238D01*
X802193Y1050656D02*
X812183Y1050656D01*
X812183Y1053064D02*
X802193Y1053064D01*
X802193Y1055472D02*
X812183Y1055472D01*
X795183Y1057238D02*
X785193Y1057238D01*
X795183Y1057238D02*
X795183Y1048248D01*
X785193Y1048248D01*
X785193Y1057238D01*
X785193Y1050656D02*
X795183Y1050656D01*
X795183Y1053064D02*
X785193Y1053064D01*
X785193Y1055472D02*
X795183Y1055472D01*
X802193Y1037238D02*
X812183Y1037238D01*
X812183Y1028248D01*
X802193Y1028248D01*
X802193Y1037238D01*
X802193Y1030656D02*
X812183Y1030656D01*
X812183Y1033064D02*
X802193Y1033064D01*
X802193Y1035472D02*
X812183Y1035472D01*
X795183Y1037238D02*
X785193Y1037238D01*
X795183Y1037238D02*
X795183Y1028248D01*
X785193Y1028248D01*
X785193Y1037238D01*
X785193Y1030656D02*
X795183Y1030656D01*
X795183Y1033064D02*
X785193Y1033064D01*
X785193Y1035472D02*
X795183Y1035472D01*
X802193Y1077238D02*
X812183Y1077238D01*
X812183Y1068248D01*
X802193Y1068248D01*
X802193Y1077238D01*
X802193Y1070656D02*
X812183Y1070656D01*
X812183Y1073064D02*
X802193Y1073064D01*
X802193Y1075472D02*
X812183Y1075472D01*
X795183Y1077238D02*
X785193Y1077238D01*
X795183Y1077238D02*
X795183Y1068248D01*
X785193Y1068248D01*
X785193Y1077238D01*
X785193Y1070656D02*
X795183Y1070656D01*
X795183Y1073064D02*
X785193Y1073064D01*
X785193Y1075472D02*
X795183Y1075472D01*
D17*
X708688Y472743D03*
X734088Y472743D03*
X759488Y472743D03*
X784888Y472743D03*
X848688Y292743D03*
X848688Y267343D03*
X848688Y241943D03*
X848688Y216543D03*
X848688Y191143D03*
X1313688Y851743D03*
X1313688Y877143D03*
X1313688Y902543D03*
X1313688Y927943D03*
D22*
X788688Y582743D03*
D16*
X1135193Y868248D02*
X1145183Y868248D01*
X1135193Y868248D02*
X1135193Y877238D01*
X1145183Y877238D01*
X1145183Y868248D01*
X1145183Y870656D02*
X1135193Y870656D01*
X1135193Y873064D02*
X1145183Y873064D01*
X1145183Y875472D02*
X1135193Y875472D01*
X1152193Y868248D02*
X1162183Y868248D01*
X1152193Y868248D02*
X1152193Y877238D01*
X1162183Y877238D01*
X1162183Y868248D01*
X1162183Y870656D02*
X1152193Y870656D01*
X1152193Y873064D02*
X1162183Y873064D01*
X1162183Y875472D02*
X1152193Y875472D01*
D23*
X1125687Y1013044D02*
X1125687Y1021042D01*
X1125687Y1013044D02*
X1111689Y1013044D01*
X1111689Y1021042D01*
X1125687Y1021042D01*
X1125687Y1015444D02*
X1111689Y1015444D01*
X1111689Y1017844D02*
X1125687Y1017844D01*
X1125687Y1020244D02*
X1111689Y1020244D01*
X1125687Y1008342D02*
X1125687Y1000344D01*
X1111689Y1000344D01*
X1111689Y1008342D01*
X1125687Y1008342D01*
X1125687Y1002744D02*
X1111689Y1002744D01*
X1111689Y1005144D02*
X1125687Y1005144D01*
X1125687Y1007544D02*
X1111689Y1007544D01*
X1125687Y995642D02*
X1125687Y987644D01*
X1111689Y987644D01*
X1111689Y995642D01*
X1125687Y995642D01*
X1125687Y990044D02*
X1111689Y990044D01*
X1111689Y992444D02*
X1125687Y992444D01*
X1125687Y994844D02*
X1111689Y994844D01*
X1125687Y982942D02*
X1125687Y974944D01*
X1111689Y974944D01*
X1111689Y982942D01*
X1125687Y982942D01*
X1125687Y977344D02*
X1111689Y977344D01*
X1111689Y979744D02*
X1125687Y979744D01*
X1125687Y982144D02*
X1111689Y982144D01*
X1125687Y970242D02*
X1125687Y962244D01*
X1111689Y962244D01*
X1111689Y970242D01*
X1125687Y970242D01*
X1125687Y964644D02*
X1111689Y964644D01*
X1111689Y967044D02*
X1125687Y967044D01*
X1125687Y969444D02*
X1111689Y969444D01*
X1125687Y957542D02*
X1125687Y949544D01*
X1111689Y949544D01*
X1111689Y957542D01*
X1125687Y957542D01*
X1125687Y951944D02*
X1111689Y951944D01*
X1111689Y954344D02*
X1125687Y954344D01*
X1125687Y956744D02*
X1111689Y956744D01*
X1125687Y944842D02*
X1125687Y936844D01*
X1111689Y936844D01*
X1111689Y944842D01*
X1125687Y944842D01*
X1125687Y939244D02*
X1111689Y939244D01*
X1111689Y941644D02*
X1125687Y941644D01*
X1125687Y944044D02*
X1111689Y944044D01*
X1125687Y932142D02*
X1125687Y924144D01*
X1111689Y924144D01*
X1111689Y932142D01*
X1125687Y932142D01*
X1125687Y926544D02*
X1111689Y926544D01*
X1111689Y928944D02*
X1125687Y928944D01*
X1125687Y931344D02*
X1111689Y931344D01*
X1125687Y919442D02*
X1125687Y911444D01*
X1111689Y911444D01*
X1111689Y919442D01*
X1125687Y919442D01*
X1125687Y913844D02*
X1111689Y913844D01*
X1111689Y916244D02*
X1125687Y916244D01*
X1125687Y918644D02*
X1111689Y918644D01*
X1125687Y906742D02*
X1125687Y898744D01*
X1111689Y898744D01*
X1111689Y906742D01*
X1125687Y906742D01*
X1125687Y901144D02*
X1111689Y901144D01*
X1111689Y903544D02*
X1125687Y903544D01*
X1125687Y905944D02*
X1111689Y905944D01*
X1125687Y894042D02*
X1125687Y886044D01*
X1111689Y886044D01*
X1111689Y894042D01*
X1125687Y894042D01*
X1125687Y888444D02*
X1111689Y888444D01*
X1111689Y890844D02*
X1125687Y890844D01*
X1125687Y893244D02*
X1111689Y893244D01*
X1125687Y881342D02*
X1125687Y873344D01*
X1111689Y873344D01*
X1111689Y881342D01*
X1125687Y881342D01*
X1125687Y875744D02*
X1111689Y875744D01*
X1111689Y878144D02*
X1125687Y878144D01*
X1125687Y880544D02*
X1111689Y880544D01*
X1125687Y868642D02*
X1125687Y860644D01*
X1111689Y860644D01*
X1111689Y868642D01*
X1125687Y868642D01*
X1125687Y863044D02*
X1111689Y863044D01*
X1111689Y865444D02*
X1125687Y865444D01*
X1125687Y867844D02*
X1111689Y867844D01*
X1125687Y855942D02*
X1125687Y847944D01*
X1111689Y847944D01*
X1111689Y855942D01*
X1125687Y855942D01*
X1125687Y850344D02*
X1111689Y850344D01*
X1111689Y852744D02*
X1125687Y852744D01*
X1125687Y855144D02*
X1111689Y855144D01*
X1089837Y830044D02*
X1081839Y830044D01*
X1081839Y844042D01*
X1089837Y844042D01*
X1089837Y830044D01*
X1089837Y832444D02*
X1081839Y832444D01*
X1081839Y834844D02*
X1089837Y834844D01*
X1089837Y837244D02*
X1081839Y837244D01*
X1081839Y839644D02*
X1089837Y839644D01*
X1089837Y842044D02*
X1081839Y842044D01*
X1077137Y830044D02*
X1069139Y830044D01*
X1069139Y844042D01*
X1077137Y844042D01*
X1077137Y830044D01*
X1077137Y832444D02*
X1069139Y832444D01*
X1069139Y834844D02*
X1077137Y834844D01*
X1077137Y837244D02*
X1069139Y837244D01*
X1069139Y839644D02*
X1077137Y839644D01*
X1077137Y842044D02*
X1069139Y842044D01*
X1064437Y830044D02*
X1056439Y830044D01*
X1056439Y844042D01*
X1064437Y844042D01*
X1064437Y830044D01*
X1064437Y832444D02*
X1056439Y832444D01*
X1056439Y834844D02*
X1064437Y834844D01*
X1064437Y837244D02*
X1056439Y837244D01*
X1056439Y839644D02*
X1064437Y839644D01*
X1064437Y842044D02*
X1056439Y842044D01*
X1051737Y830044D02*
X1043739Y830044D01*
X1043739Y844042D01*
X1051737Y844042D01*
X1051737Y830044D01*
X1051737Y832444D02*
X1043739Y832444D01*
X1043739Y834844D02*
X1051737Y834844D01*
X1051737Y837244D02*
X1043739Y837244D01*
X1043739Y839644D02*
X1051737Y839644D01*
X1051737Y842044D02*
X1043739Y842044D01*
X1039037Y830044D02*
X1031039Y830044D01*
X1031039Y844042D01*
X1039037Y844042D01*
X1039037Y830044D01*
X1039037Y832444D02*
X1031039Y832444D01*
X1031039Y834844D02*
X1039037Y834844D01*
X1039037Y837244D02*
X1031039Y837244D01*
X1031039Y839644D02*
X1039037Y839644D01*
X1039037Y842044D02*
X1031039Y842044D01*
X1026337Y830044D02*
X1018339Y830044D01*
X1018339Y844042D01*
X1026337Y844042D01*
X1026337Y830044D01*
X1026337Y832444D02*
X1018339Y832444D01*
X1018339Y834844D02*
X1026337Y834844D01*
X1026337Y837244D02*
X1018339Y837244D01*
X1018339Y839644D02*
X1026337Y839644D01*
X1026337Y842044D02*
X1018339Y842044D01*
X1013637Y830044D02*
X1005639Y830044D01*
X1005639Y844042D01*
X1013637Y844042D01*
X1013637Y830044D01*
X1013637Y832444D02*
X1005639Y832444D01*
X1005639Y834844D02*
X1013637Y834844D01*
X1013637Y837244D02*
X1005639Y837244D01*
X1005639Y839644D02*
X1013637Y839644D01*
X1013637Y842044D02*
X1005639Y842044D01*
X1000937Y830044D02*
X992939Y830044D01*
X992939Y844042D01*
X1000937Y844042D01*
X1000937Y830044D01*
X1000937Y832444D02*
X992939Y832444D01*
X992939Y834844D02*
X1000937Y834844D01*
X1000937Y837244D02*
X992939Y837244D01*
X992939Y839644D02*
X1000937Y839644D01*
X1000937Y842044D02*
X992939Y842044D01*
X988237Y830044D02*
X980239Y830044D01*
X980239Y844042D01*
X988237Y844042D01*
X988237Y830044D01*
X988237Y832444D02*
X980239Y832444D01*
X980239Y834844D02*
X988237Y834844D01*
X988237Y837244D02*
X980239Y837244D01*
X980239Y839644D02*
X988237Y839644D01*
X988237Y842044D02*
X980239Y842044D01*
X975537Y830044D02*
X967539Y830044D01*
X967539Y844042D01*
X975537Y844042D01*
X975537Y830044D01*
X975537Y832444D02*
X967539Y832444D01*
X967539Y834844D02*
X975537Y834844D01*
X975537Y837244D02*
X967539Y837244D01*
X967539Y839644D02*
X975537Y839644D01*
X975537Y842044D02*
X967539Y842044D01*
X945687Y847944D02*
X945687Y855942D01*
X945687Y847944D02*
X931689Y847944D01*
X931689Y855942D01*
X945687Y855942D01*
X945687Y850344D02*
X931689Y850344D01*
X931689Y852744D02*
X945687Y852744D01*
X945687Y855144D02*
X931689Y855144D01*
X945687Y860644D02*
X945687Y868642D01*
X945687Y860644D02*
X931689Y860644D01*
X931689Y868642D01*
X945687Y868642D01*
X945687Y863044D02*
X931689Y863044D01*
X931689Y865444D02*
X945687Y865444D01*
X945687Y867844D02*
X931689Y867844D01*
X945687Y873344D02*
X945687Y881342D01*
X945687Y873344D02*
X931689Y873344D01*
X931689Y881342D01*
X945687Y881342D01*
X945687Y875744D02*
X931689Y875744D01*
X931689Y878144D02*
X945687Y878144D01*
X945687Y880544D02*
X931689Y880544D01*
X945687Y886044D02*
X945687Y894042D01*
X945687Y886044D02*
X931689Y886044D01*
X931689Y894042D01*
X945687Y894042D01*
X945687Y888444D02*
X931689Y888444D01*
X931689Y890844D02*
X945687Y890844D01*
X945687Y893244D02*
X931689Y893244D01*
X945687Y898744D02*
X945687Y906742D01*
X945687Y898744D02*
X931689Y898744D01*
X931689Y906742D01*
X945687Y906742D01*
X945687Y901144D02*
X931689Y901144D01*
X931689Y903544D02*
X945687Y903544D01*
X945687Y905944D02*
X931689Y905944D01*
X945687Y911444D02*
X945687Y919442D01*
X945687Y911444D02*
X931689Y911444D01*
X931689Y919442D01*
X945687Y919442D01*
X945687Y913844D02*
X931689Y913844D01*
X931689Y916244D02*
X945687Y916244D01*
X945687Y918644D02*
X931689Y918644D01*
X945687Y924144D02*
X945687Y932142D01*
X945687Y924144D02*
X931689Y924144D01*
X931689Y932142D01*
X945687Y932142D01*
X945687Y926544D02*
X931689Y926544D01*
X931689Y928944D02*
X945687Y928944D01*
X945687Y931344D02*
X931689Y931344D01*
X945687Y936844D02*
X945687Y944842D01*
X945687Y936844D02*
X931689Y936844D01*
X931689Y944842D01*
X945687Y944842D01*
X945687Y939244D02*
X931689Y939244D01*
X931689Y941644D02*
X945687Y941644D01*
X945687Y944044D02*
X931689Y944044D01*
X945687Y949544D02*
X945687Y957542D01*
X945687Y949544D02*
X931689Y949544D01*
X931689Y957542D01*
X945687Y957542D01*
X945687Y951944D02*
X931689Y951944D01*
X931689Y954344D02*
X945687Y954344D01*
X945687Y956744D02*
X931689Y956744D01*
X945687Y962244D02*
X945687Y970242D01*
X945687Y962244D02*
X931689Y962244D01*
X931689Y970242D01*
X945687Y970242D01*
X945687Y964644D02*
X931689Y964644D01*
X931689Y967044D02*
X945687Y967044D01*
X945687Y969444D02*
X931689Y969444D01*
X945687Y974944D02*
X945687Y982942D01*
X945687Y974944D02*
X931689Y974944D01*
X931689Y982942D01*
X945687Y982942D01*
X945687Y977344D02*
X931689Y977344D01*
X931689Y979744D02*
X945687Y979744D01*
X945687Y982144D02*
X931689Y982144D01*
X945687Y987644D02*
X945687Y995642D01*
X945687Y987644D02*
X931689Y987644D01*
X931689Y995642D01*
X945687Y995642D01*
X945687Y990044D02*
X931689Y990044D01*
X931689Y992444D02*
X945687Y992444D01*
X945687Y994844D02*
X931689Y994844D01*
X945687Y1000344D02*
X945687Y1008342D01*
X945687Y1000344D02*
X931689Y1000344D01*
X931689Y1008342D01*
X945687Y1008342D01*
X945687Y1002744D02*
X931689Y1002744D01*
X931689Y1005144D02*
X945687Y1005144D01*
X945687Y1007544D02*
X931689Y1007544D01*
X945687Y1013044D02*
X945687Y1021042D01*
X945687Y1013044D02*
X931689Y1013044D01*
X931689Y1021042D01*
X945687Y1021042D01*
X945687Y1015444D02*
X931689Y1015444D01*
X931689Y1017844D02*
X945687Y1017844D01*
X945687Y1020244D02*
X931689Y1020244D01*
D24*
X1050150Y949775D02*
X1050150Y937471D01*
X1037846Y937471D01*
X1037846Y949775D01*
X1050150Y949775D01*
X1050150Y939865D02*
X1037846Y939865D01*
X1037846Y942259D02*
X1050150Y942259D01*
X1050150Y944653D02*
X1037846Y944653D01*
X1037846Y947047D02*
X1050150Y947047D01*
X1050150Y949441D02*
X1037846Y949441D01*
X1031700Y955681D02*
X1031700Y967985D01*
X1031700Y955681D02*
X1019396Y955681D01*
X1019396Y967985D01*
X1031700Y967985D01*
X1031700Y958075D02*
X1019396Y958075D01*
X1019396Y960469D02*
X1031700Y960469D01*
X1031700Y962863D02*
X1019396Y962863D01*
X1019396Y965257D02*
X1031700Y965257D01*
X1031700Y967651D02*
X1019396Y967651D01*
X1050000Y967985D02*
X1050000Y955681D01*
X1037696Y955681D01*
X1037696Y967985D01*
X1050000Y967985D01*
X1050000Y958075D02*
X1037696Y958075D01*
X1037696Y960469D02*
X1050000Y960469D01*
X1050000Y962863D02*
X1037696Y962863D01*
X1037696Y965257D02*
X1050000Y965257D01*
X1050000Y967651D02*
X1037696Y967651D01*
X1068300Y967985D02*
X1068300Y955681D01*
X1055996Y955681D01*
X1055996Y967985D01*
X1068300Y967985D01*
X1068300Y958075D02*
X1055996Y958075D01*
X1055996Y960469D02*
X1068300Y960469D01*
X1068300Y962863D02*
X1055996Y962863D01*
X1055996Y965257D02*
X1068300Y965257D01*
X1068300Y967651D02*
X1055996Y967651D01*
X1068300Y949685D02*
X1068300Y937381D01*
X1055996Y937381D01*
X1055996Y949685D01*
X1068300Y949685D01*
X1068300Y939775D02*
X1055996Y939775D01*
X1055996Y942169D02*
X1068300Y942169D01*
X1068300Y944563D02*
X1055996Y944563D01*
X1055996Y946957D02*
X1068300Y946957D01*
X1068300Y949351D02*
X1055996Y949351D01*
X1031600Y949985D02*
X1031600Y937681D01*
X1019296Y937681D01*
X1019296Y949985D01*
X1031600Y949985D01*
X1031600Y940075D02*
X1019296Y940075D01*
X1019296Y942469D02*
X1031600Y942469D01*
X1031600Y944863D02*
X1019296Y944863D01*
X1019296Y947257D02*
X1031600Y947257D01*
X1031600Y949651D02*
X1019296Y949651D01*
X1031700Y931385D02*
X1031700Y919081D01*
X1019396Y919081D01*
X1019396Y931385D01*
X1031700Y931385D01*
X1031700Y921475D02*
X1019396Y921475D01*
X1019396Y923869D02*
X1031700Y923869D01*
X1031700Y926263D02*
X1019396Y926263D01*
X1019396Y928657D02*
X1031700Y928657D01*
X1031700Y931051D02*
X1019396Y931051D01*
X1050000Y931285D02*
X1050000Y918981D01*
X1037696Y918981D01*
X1037696Y931285D01*
X1050000Y931285D01*
X1050000Y921375D02*
X1037696Y921375D01*
X1037696Y923769D02*
X1050000Y923769D01*
X1050000Y926163D02*
X1037696Y926163D01*
X1037696Y928557D02*
X1050000Y928557D01*
X1050000Y930951D02*
X1037696Y930951D01*
X1068300Y931385D02*
X1068300Y919081D01*
X1055996Y919081D01*
X1055996Y931385D01*
X1068300Y931385D01*
X1068300Y921475D02*
X1055996Y921475D01*
X1055996Y923869D02*
X1068300Y923869D01*
X1068300Y926263D02*
X1055996Y926263D01*
X1055996Y928657D02*
X1068300Y928657D01*
X1068300Y931051D02*
X1055996Y931051D01*
D16*
X1152093Y832738D02*
X1162083Y832738D01*
X1162083Y823748D01*
X1152093Y823748D01*
X1152093Y832738D01*
X1152093Y826156D02*
X1162083Y826156D01*
X1162083Y828564D02*
X1152093Y828564D01*
X1152093Y830972D02*
X1162083Y830972D01*
X1145083Y832738D02*
X1135093Y832738D01*
X1145083Y832738D02*
X1145083Y823748D01*
X1135093Y823748D01*
X1135093Y832738D01*
X1135093Y826156D02*
X1145083Y826156D01*
X1145083Y828564D02*
X1135093Y828564D01*
X1135093Y830972D02*
X1145083Y830972D01*
X1145083Y798348D02*
X1135093Y798348D01*
X1135093Y807338D01*
X1145083Y807338D01*
X1145083Y798348D01*
X1145083Y800756D02*
X1135093Y800756D01*
X1135093Y803164D02*
X1145083Y803164D01*
X1145083Y805572D02*
X1135093Y805572D01*
X1152093Y798348D02*
X1162083Y798348D01*
X1152093Y798348D02*
X1152093Y807338D01*
X1162083Y807338D01*
X1162083Y798348D01*
X1162083Y800756D02*
X1152093Y800756D01*
X1152093Y803164D02*
X1162083Y803164D01*
X1162083Y805572D02*
X1152093Y805572D01*
D17*
X1258688Y242743D03*
X1258688Y268143D03*
D25*
X1227172Y145227D02*
X1227172Y130259D01*
X1221204Y130259D01*
X1221204Y145227D01*
X1227172Y145227D01*
X1227172Y132688D02*
X1221204Y132688D01*
X1221204Y135117D02*
X1227172Y135117D01*
X1227172Y137546D02*
X1221204Y137546D01*
X1221204Y139975D02*
X1227172Y139975D01*
X1227172Y142404D02*
X1221204Y142404D01*
X1221204Y144833D02*
X1227172Y144833D01*
X1216172Y145227D02*
X1216172Y130259D01*
X1210204Y130259D01*
X1210204Y145227D01*
X1216172Y145227D01*
X1216172Y132688D02*
X1210204Y132688D01*
X1210204Y135117D02*
X1216172Y135117D01*
X1216172Y137546D02*
X1210204Y137546D01*
X1210204Y139975D02*
X1216172Y139975D01*
X1216172Y142404D02*
X1210204Y142404D01*
X1210204Y144833D02*
X1216172Y144833D01*
X1205172Y145227D02*
X1205172Y130259D01*
X1199204Y130259D01*
X1199204Y145227D01*
X1205172Y145227D01*
X1205172Y132688D02*
X1199204Y132688D01*
X1199204Y135117D02*
X1205172Y135117D01*
X1205172Y137546D02*
X1199204Y137546D01*
X1199204Y139975D02*
X1205172Y139975D01*
X1205172Y142404D02*
X1199204Y142404D01*
X1199204Y144833D02*
X1205172Y144833D01*
X1238172Y145227D02*
X1238172Y130259D01*
X1232204Y130259D01*
X1232204Y145227D01*
X1238172Y145227D01*
X1238172Y132688D02*
X1232204Y132688D01*
X1232204Y135117D02*
X1238172Y135117D01*
X1238172Y137546D02*
X1232204Y137546D01*
X1232204Y139975D02*
X1238172Y139975D01*
X1238172Y142404D02*
X1232204Y142404D01*
X1232204Y144833D02*
X1238172Y144833D01*
X1249172Y145227D02*
X1249172Y130259D01*
X1243204Y130259D01*
X1243204Y145227D01*
X1249172Y145227D01*
X1249172Y132688D02*
X1243204Y132688D01*
X1243204Y135117D02*
X1249172Y135117D01*
X1249172Y137546D02*
X1243204Y137546D01*
X1243204Y139975D02*
X1249172Y139975D01*
X1249172Y142404D02*
X1243204Y142404D01*
X1243204Y144833D02*
X1249172Y144833D01*
X1260172Y145227D02*
X1260172Y130259D01*
X1254204Y130259D01*
X1254204Y145227D01*
X1260172Y145227D01*
X1260172Y132688D02*
X1254204Y132688D01*
X1254204Y135117D02*
X1260172Y135117D01*
X1260172Y137546D02*
X1254204Y137546D01*
X1254204Y139975D02*
X1260172Y139975D01*
X1260172Y142404D02*
X1254204Y142404D01*
X1254204Y144833D02*
X1260172Y144833D01*
X1271172Y145227D02*
X1271172Y130259D01*
X1265204Y130259D01*
X1265204Y145227D01*
X1271172Y145227D01*
X1271172Y132688D02*
X1265204Y132688D01*
X1265204Y135117D02*
X1271172Y135117D01*
X1271172Y137546D02*
X1265204Y137546D01*
X1265204Y139975D02*
X1271172Y139975D01*
X1271172Y142404D02*
X1265204Y142404D01*
X1265204Y144833D02*
X1271172Y144833D01*
X1282172Y145227D02*
X1282172Y130259D01*
X1276204Y130259D01*
X1276204Y145227D01*
X1282172Y145227D01*
X1282172Y132688D02*
X1276204Y132688D01*
X1276204Y135117D02*
X1282172Y135117D01*
X1282172Y137546D02*
X1276204Y137546D01*
X1276204Y139975D02*
X1282172Y139975D01*
X1282172Y142404D02*
X1276204Y142404D01*
X1276204Y144833D02*
X1282172Y144833D01*
X1293172Y145227D02*
X1293172Y130259D01*
X1287204Y130259D01*
X1287204Y145227D01*
X1293172Y145227D01*
X1293172Y132688D02*
X1287204Y132688D01*
X1287204Y135117D02*
X1293172Y135117D01*
X1293172Y137546D02*
X1287204Y137546D01*
X1287204Y139975D02*
X1293172Y139975D01*
X1293172Y142404D02*
X1287204Y142404D01*
X1287204Y144833D02*
X1293172Y144833D01*
D26*
X1194188Y32743D03*
X1274188Y32743D03*
D10*
X1152733Y47288D02*
X1141643Y47288D01*
X1152733Y47288D02*
X1152733Y26198D01*
X1141643Y26198D01*
X1141643Y47288D01*
X1141643Y28510D02*
X1152733Y28510D01*
X1152733Y30822D02*
X1141643Y30822D01*
X1141643Y33134D02*
X1152733Y33134D01*
X1152733Y35446D02*
X1141643Y35446D01*
X1141643Y37758D02*
X1152733Y37758D01*
X1152733Y40070D02*
X1141643Y40070D01*
X1141643Y42382D02*
X1152733Y42382D01*
X1152733Y44694D02*
X1141643Y44694D01*
X1141643Y47006D02*
X1152733Y47006D01*
X1296643Y47288D02*
X1307733Y47288D01*
X1307733Y26198D01*
X1296643Y26198D01*
X1296643Y47288D01*
X1296643Y28510D02*
X1307733Y28510D01*
X1307733Y30822D02*
X1296643Y30822D01*
X1296643Y33134D02*
X1307733Y33134D01*
X1307733Y35446D02*
X1296643Y35446D01*
X1296643Y37758D02*
X1307733Y37758D01*
X1307733Y40070D02*
X1296643Y40070D01*
X1296643Y42382D02*
X1307733Y42382D01*
X1307733Y44694D02*
X1296643Y44694D01*
X1296643Y47006D02*
X1307733Y47006D01*
D27*
X1163708Y139263D02*
X1148668Y139263D01*
X1163708Y139263D02*
X1163708Y126223D01*
X1148668Y126223D01*
X1148668Y139263D01*
X1148668Y128583D02*
X1163708Y128583D01*
X1163708Y130943D02*
X1148668Y130943D01*
X1148668Y133303D02*
X1163708Y133303D01*
X1163708Y135663D02*
X1148668Y135663D01*
X1148668Y138023D02*
X1163708Y138023D01*
D10*
X1296643Y139288D02*
X1307733Y139288D01*
X1307733Y124198D01*
X1296643Y124198D01*
X1296643Y139288D01*
X1296643Y126510D02*
X1307733Y126510D01*
X1307733Y128822D02*
X1296643Y128822D01*
X1296643Y131134D02*
X1307733Y131134D01*
X1307733Y133446D02*
X1296643Y133446D01*
X1296643Y135758D02*
X1307733Y135758D01*
X1307733Y138070D02*
X1296643Y138070D01*
X1738213Y20238D02*
X1749303Y20238D01*
X1749303Y1148D01*
X1738213Y1148D01*
X1738213Y20238D01*
X1738213Y3460D02*
X1749303Y3460D01*
X1749303Y5772D02*
X1738213Y5772D01*
X1738213Y8084D02*
X1749303Y8084D01*
X1749303Y10396D02*
X1738213Y10396D01*
X1738213Y12708D02*
X1749303Y12708D01*
X1749303Y15020D02*
X1738213Y15020D01*
X1738213Y17332D02*
X1749303Y17332D01*
X1749303Y19644D02*
X1738213Y19644D01*
X1693303Y20238D02*
X1682213Y20238D01*
X1693303Y20238D02*
X1693303Y1148D01*
X1682213Y1148D01*
X1682213Y20238D01*
X1682213Y3460D02*
X1693303Y3460D01*
X1693303Y5772D02*
X1682213Y5772D01*
X1682213Y8084D02*
X1693303Y8084D01*
X1693303Y10396D02*
X1682213Y10396D01*
X1682213Y12708D02*
X1693303Y12708D01*
X1693303Y15020D02*
X1682213Y15020D01*
X1682213Y17332D02*
X1693303Y17332D01*
X1693303Y19644D02*
X1682213Y19644D01*
D11*
X1728275Y53676D02*
X1733241Y53676D01*
X1733241Y41210D01*
X1728275Y41210D01*
X1728275Y53676D01*
X1728275Y43640D02*
X1733241Y43640D01*
X1733241Y46070D02*
X1728275Y46070D01*
X1728275Y48500D02*
X1733241Y48500D01*
X1733241Y50930D02*
X1728275Y50930D01*
X1728275Y53360D02*
X1733241Y53360D01*
X1723241Y53676D02*
X1718275Y53676D01*
X1723241Y53676D02*
X1723241Y41210D01*
X1718275Y41210D01*
X1718275Y53676D01*
X1718275Y43640D02*
X1723241Y43640D01*
X1723241Y46070D02*
X1718275Y46070D01*
X1718275Y48500D02*
X1723241Y48500D01*
X1723241Y50930D02*
X1718275Y50930D01*
X1718275Y53360D02*
X1723241Y53360D01*
X1713241Y53676D02*
X1708275Y53676D01*
X1713241Y53676D02*
X1713241Y41210D01*
X1708275Y41210D01*
X1708275Y53676D01*
X1708275Y43640D02*
X1713241Y43640D01*
X1713241Y46070D02*
X1708275Y46070D01*
X1708275Y48500D02*
X1713241Y48500D01*
X1713241Y50930D02*
X1708275Y50930D01*
X1708275Y53360D02*
X1713241Y53360D01*
X1703241Y53676D02*
X1698275Y53676D01*
X1703241Y53676D02*
X1703241Y41210D01*
X1698275Y41210D01*
X1698275Y53676D01*
X1698275Y43640D02*
X1703241Y43640D01*
X1703241Y46070D02*
X1698275Y46070D01*
X1698275Y48500D02*
X1703241Y48500D01*
X1703241Y50930D02*
X1698275Y50930D01*
X1698275Y53360D02*
X1703241Y53360D01*
D12*
X2007858Y42843D03*
X1425458Y1051643D03*
D13*
X1686858Y46963D03*
X1744658Y46963D03*
D14*
X1633798Y55453D02*
X1619918Y55453D01*
X1633798Y55453D02*
X1633798Y16573D01*
X1619918Y16573D01*
X1619918Y55453D01*
X1619918Y19085D02*
X1633798Y19085D01*
X1633798Y21597D02*
X1619918Y21597D01*
X1619918Y24109D02*
X1633798Y24109D01*
X1633798Y26621D02*
X1619918Y26621D01*
X1619918Y29133D02*
X1633798Y29133D01*
X1633798Y31645D02*
X1619918Y31645D01*
X1619918Y34157D02*
X1633798Y34157D01*
X1633798Y36669D02*
X1619918Y36669D01*
X1619918Y39181D02*
X1633798Y39181D01*
X1633798Y41693D02*
X1619918Y41693D01*
X1619918Y44205D02*
X1633798Y44205D01*
X1633798Y46717D02*
X1619918Y46717D01*
X1619918Y49229D02*
X1633798Y49229D01*
X1633798Y51741D02*
X1619918Y51741D01*
X1619918Y54253D02*
X1633798Y54253D01*
X1582998Y55453D02*
X1569118Y55453D01*
X1582998Y55453D02*
X1582998Y16573D01*
X1569118Y16573D01*
X1569118Y55453D01*
X1569118Y19085D02*
X1582998Y19085D01*
X1582998Y21597D02*
X1569118Y21597D01*
X1569118Y24109D02*
X1582998Y24109D01*
X1582998Y26621D02*
X1569118Y26621D01*
X1569118Y29133D02*
X1582998Y29133D01*
X1582998Y31645D02*
X1569118Y31645D01*
X1569118Y34157D02*
X1582998Y34157D01*
X1582998Y36669D02*
X1569118Y36669D01*
X1569118Y39181D02*
X1582998Y39181D01*
X1582998Y41693D02*
X1569118Y41693D01*
X1569118Y44205D02*
X1582998Y44205D01*
X1582998Y46717D02*
X1569118Y46717D01*
X1569118Y49229D02*
X1582998Y49229D01*
X1582998Y51741D02*
X1569118Y51741D01*
X1569118Y54253D02*
X1582998Y54253D01*
D15*
X1430770Y282680D03*
X1430770Y782806D03*
X2000746Y782806D03*
X2000746Y282680D03*
D16*
X1517053Y1001848D02*
X1517053Y1011838D01*
X1517053Y1001848D02*
X1508063Y1001848D01*
X1508063Y1011838D01*
X1517053Y1011838D01*
X1517053Y1004256D02*
X1508063Y1004256D01*
X1508063Y1006664D02*
X1517053Y1006664D01*
X1517053Y1009072D02*
X1508063Y1009072D01*
X1508063Y1011480D02*
X1517053Y1011480D01*
X1517053Y1018848D02*
X1517053Y1028838D01*
X1517053Y1018848D02*
X1508063Y1018848D01*
X1508063Y1028838D01*
X1517053Y1028838D01*
X1517053Y1021256D02*
X1508063Y1021256D01*
X1508063Y1023664D02*
X1517053Y1023664D01*
X1517053Y1026072D02*
X1508063Y1026072D01*
X1508063Y1028480D02*
X1517053Y1028480D01*
X1539263Y1057238D02*
X1549253Y1057238D01*
X1549253Y1048248D01*
X1539263Y1048248D01*
X1539263Y1057238D01*
X1539263Y1050656D02*
X1549253Y1050656D01*
X1549253Y1053064D02*
X1539263Y1053064D01*
X1539263Y1055472D02*
X1549253Y1055472D01*
X1532253Y1057238D02*
X1522263Y1057238D01*
X1532253Y1057238D02*
X1532253Y1048248D01*
X1522263Y1048248D01*
X1522263Y1057238D01*
X1522263Y1050656D02*
X1532253Y1050656D01*
X1532253Y1053064D02*
X1522263Y1053064D01*
X1522263Y1055472D02*
X1532253Y1055472D01*
X1539263Y987238D02*
X1549253Y987238D01*
X1549253Y978248D01*
X1539263Y978248D01*
X1539263Y987238D01*
X1539263Y980656D02*
X1549253Y980656D01*
X1549253Y983064D02*
X1539263Y983064D01*
X1539263Y985472D02*
X1549253Y985472D01*
X1532253Y987238D02*
X1522263Y987238D01*
X1532253Y987238D02*
X1532253Y978248D01*
X1522263Y978248D01*
X1522263Y987238D01*
X1522263Y980656D02*
X1532253Y980656D01*
X1532253Y983064D02*
X1522263Y983064D01*
X1522263Y985472D02*
X1532253Y985472D01*
D17*
X1589278Y1046683D03*
X1589278Y1021283D03*
D18*
X1609418Y983903D02*
X1609418Y978583D01*
X1602098Y978583D01*
X1602098Y983903D01*
X1609418Y983903D01*
X1609418Y980962D02*
X1602098Y980962D01*
X1602098Y983341D02*
X1609418Y983341D01*
X1609418Y1001583D02*
X1609418Y1006903D01*
X1609418Y1001583D02*
X1602098Y1001583D01*
X1602098Y1006903D01*
X1609418Y1006903D01*
X1609418Y1003962D02*
X1602098Y1003962D01*
X1602098Y1006341D02*
X1609418Y1006341D01*
D16*
X1821263Y966238D02*
X1821263Y956248D01*
X1821263Y966238D02*
X1830253Y966238D01*
X1830253Y956248D01*
X1821263Y956248D01*
X1821263Y958656D02*
X1830253Y958656D01*
X1830253Y961064D02*
X1821263Y961064D01*
X1821263Y963472D02*
X1830253Y963472D01*
X1830253Y965880D02*
X1821263Y965880D01*
X1821263Y949238D02*
X1821263Y939248D01*
X1821263Y949238D02*
X1830253Y949238D01*
X1830253Y939248D01*
X1821263Y939248D01*
X1821263Y941656D02*
X1830253Y941656D01*
X1830253Y944064D02*
X1821263Y944064D01*
X1821263Y946472D02*
X1830253Y946472D01*
X1830253Y948880D02*
X1821263Y948880D01*
X1841263Y996248D02*
X1841263Y1006238D01*
X1850253Y1006238D01*
X1850253Y996248D01*
X1841263Y996248D01*
X1841263Y998656D02*
X1850253Y998656D01*
X1850253Y1001064D02*
X1841263Y1001064D01*
X1841263Y1003472D02*
X1850253Y1003472D01*
X1850253Y1005880D02*
X1841263Y1005880D01*
X1841263Y989238D02*
X1841263Y979248D01*
X1841263Y989238D02*
X1850253Y989238D01*
X1850253Y979248D01*
X1841263Y979248D01*
X1841263Y981656D02*
X1850253Y981656D01*
X1850253Y984064D02*
X1841263Y984064D01*
X1841263Y986472D02*
X1850253Y986472D01*
X1850253Y988880D02*
X1841263Y988880D01*
X1821263Y996248D02*
X1821263Y1006238D01*
X1830253Y1006238D01*
X1830253Y996248D01*
X1821263Y996248D01*
X1821263Y998656D02*
X1830253Y998656D01*
X1830253Y1001064D02*
X1821263Y1001064D01*
X1821263Y1003472D02*
X1830253Y1003472D01*
X1830253Y1005880D02*
X1821263Y1005880D01*
X1821263Y989238D02*
X1821263Y979248D01*
X1821263Y989238D02*
X1830253Y989238D01*
X1830253Y979248D01*
X1821263Y979248D01*
X1821263Y981656D02*
X1830253Y981656D01*
X1830253Y984064D02*
X1821263Y984064D01*
X1821263Y986472D02*
X1830253Y986472D01*
X1830253Y988880D02*
X1821263Y988880D01*
X1841263Y966238D02*
X1841263Y956248D01*
X1841263Y966238D02*
X1850253Y966238D01*
X1850253Y956248D01*
X1841263Y956248D01*
X1841263Y958656D02*
X1850253Y958656D01*
X1850253Y961064D02*
X1841263Y961064D01*
X1841263Y963472D02*
X1850253Y963472D01*
X1850253Y965880D02*
X1841263Y965880D01*
X1841263Y949238D02*
X1841263Y939248D01*
X1841263Y949238D02*
X1850253Y949238D01*
X1850253Y939248D01*
X1841263Y939248D01*
X1841263Y941656D02*
X1850253Y941656D01*
X1850253Y944064D02*
X1841263Y944064D01*
X1841263Y946472D02*
X1850253Y946472D01*
X1850253Y948880D02*
X1841263Y948880D01*
X1552253Y958248D02*
X1542263Y958248D01*
X1542263Y967238D01*
X1552253Y967238D01*
X1552253Y958248D01*
X1552253Y960656D02*
X1542263Y960656D01*
X1542263Y963064D02*
X1552253Y963064D01*
X1552253Y965472D02*
X1542263Y965472D01*
X1559263Y958248D02*
X1569253Y958248D01*
X1559263Y958248D02*
X1559263Y967238D01*
X1569253Y967238D01*
X1569253Y958248D01*
X1569253Y960656D02*
X1559263Y960656D01*
X1559263Y963064D02*
X1569253Y963064D01*
X1569253Y965472D02*
X1559263Y965472D01*
D11*
X1578275Y929676D02*
X1578275Y924710D01*
X1578275Y929676D02*
X1589241Y929676D01*
X1589241Y924710D01*
X1578275Y924710D01*
X1578275Y927140D02*
X1589241Y927140D01*
X1589241Y929570D02*
X1578275Y929570D01*
X1578275Y916976D02*
X1578275Y912010D01*
X1578275Y916976D02*
X1589241Y916976D01*
X1589241Y912010D01*
X1578275Y912010D01*
X1578275Y914440D02*
X1589241Y914440D01*
X1589241Y916870D02*
X1578275Y916870D01*
X1578275Y904276D02*
X1578275Y899310D01*
X1578275Y904276D02*
X1589241Y904276D01*
X1589241Y899310D01*
X1578275Y899310D01*
X1578275Y901740D02*
X1589241Y901740D01*
X1589241Y904170D02*
X1578275Y904170D01*
X1578275Y891576D02*
X1578275Y886610D01*
X1578275Y891576D02*
X1589241Y891576D01*
X1589241Y886610D01*
X1578275Y886610D01*
X1578275Y889040D02*
X1589241Y889040D01*
X1589241Y891470D02*
X1578275Y891470D01*
X1578275Y878876D02*
X1578275Y873910D01*
X1578275Y878876D02*
X1589241Y878876D01*
X1589241Y873910D01*
X1578275Y873910D01*
X1578275Y876340D02*
X1589241Y876340D01*
X1589241Y878770D02*
X1578275Y878770D01*
X1578275Y866176D02*
X1578275Y861210D01*
X1578275Y866176D02*
X1589241Y866176D01*
X1589241Y861210D01*
X1578275Y861210D01*
X1578275Y863640D02*
X1589241Y863640D01*
X1589241Y866070D02*
X1578275Y866070D01*
X1578275Y853476D02*
X1578275Y848510D01*
X1578275Y853476D02*
X1589241Y853476D01*
X1589241Y848510D01*
X1578275Y848510D01*
X1578275Y850940D02*
X1589241Y850940D01*
X1589241Y853370D02*
X1578275Y853370D01*
X1578275Y840776D02*
X1578275Y835810D01*
X1578275Y840776D02*
X1589241Y840776D01*
X1589241Y835810D01*
X1578275Y835810D01*
X1578275Y838240D02*
X1589241Y838240D01*
X1589241Y840670D02*
X1578275Y840670D01*
X1522275Y840776D02*
X1522275Y835810D01*
X1522275Y840776D02*
X1533241Y840776D01*
X1533241Y835810D01*
X1522275Y835810D01*
X1522275Y838240D02*
X1533241Y838240D01*
X1533241Y840670D02*
X1522275Y840670D01*
X1522275Y848510D02*
X1522275Y853476D01*
X1533241Y853476D01*
X1533241Y848510D01*
X1522275Y848510D01*
X1522275Y850940D02*
X1533241Y850940D01*
X1533241Y853370D02*
X1522275Y853370D01*
X1522275Y861210D02*
X1522275Y866176D01*
X1533241Y866176D01*
X1533241Y861210D01*
X1522275Y861210D01*
X1522275Y863640D02*
X1533241Y863640D01*
X1533241Y866070D02*
X1522275Y866070D01*
X1522275Y873910D02*
X1522275Y878876D01*
X1533241Y878876D01*
X1533241Y873910D01*
X1522275Y873910D01*
X1522275Y876340D02*
X1533241Y876340D01*
X1533241Y878770D02*
X1522275Y878770D01*
X1522275Y886610D02*
X1522275Y891576D01*
X1533241Y891576D01*
X1533241Y886610D01*
X1522275Y886610D01*
X1522275Y889040D02*
X1533241Y889040D01*
X1533241Y891470D02*
X1522275Y891470D01*
X1522275Y899310D02*
X1522275Y904276D01*
X1533241Y904276D01*
X1533241Y899310D01*
X1522275Y899310D01*
X1522275Y901740D02*
X1533241Y901740D01*
X1533241Y904170D02*
X1522275Y904170D01*
X1522275Y912010D02*
X1522275Y916976D01*
X1533241Y916976D01*
X1533241Y912010D01*
X1522275Y912010D01*
X1522275Y914440D02*
X1533241Y914440D01*
X1533241Y916870D02*
X1522275Y916870D01*
X1522275Y924710D02*
X1522275Y929676D01*
X1533241Y929676D01*
X1533241Y924710D01*
X1522275Y924710D01*
X1522275Y927140D02*
X1533241Y927140D01*
X1533241Y929570D02*
X1522275Y929570D01*
D16*
X1492253Y848248D02*
X1482263Y848248D01*
X1482263Y857238D01*
X1492253Y857238D01*
X1492253Y848248D01*
X1492253Y850656D02*
X1482263Y850656D01*
X1482263Y853064D02*
X1492253Y853064D01*
X1492253Y855472D02*
X1482263Y855472D01*
X1499263Y848248D02*
X1509253Y848248D01*
X1499263Y848248D02*
X1499263Y857238D01*
X1509253Y857238D01*
X1509253Y848248D01*
X1509253Y850656D02*
X1499263Y850656D01*
X1499263Y853064D02*
X1509253Y853064D01*
X1509253Y855472D02*
X1499263Y855472D01*
X1499263Y917238D02*
X1509253Y917238D01*
X1509253Y908248D01*
X1499263Y908248D01*
X1499263Y917238D01*
X1499263Y910656D02*
X1509253Y910656D01*
X1509253Y913064D02*
X1499263Y913064D01*
X1499263Y915472D02*
X1509253Y915472D01*
X1492253Y917238D02*
X1482263Y917238D01*
X1492253Y917238D02*
X1492253Y908248D01*
X1482263Y908248D01*
X1482263Y917238D01*
X1482263Y910656D02*
X1492253Y910656D01*
X1492253Y913064D02*
X1482263Y913064D01*
X1482263Y915472D02*
X1492253Y915472D01*
D19*
X1507754Y890239D02*
X1507754Y888247D01*
X1502162Y888247D01*
X1502162Y890239D01*
X1507754Y890239D01*
X1483762Y883739D02*
X1483762Y881747D01*
X1483762Y883739D02*
X1489354Y883739D01*
X1489354Y881747D01*
X1483762Y881747D01*
X1483762Y877239D02*
X1483762Y875247D01*
X1483762Y877239D02*
X1489354Y877239D01*
X1489354Y875247D01*
X1483762Y875247D01*
X1483762Y888247D02*
X1483762Y890239D01*
X1489354Y890239D01*
X1489354Y888247D01*
X1483762Y888247D01*
X1507754Y883739D02*
X1507754Y881747D01*
X1502162Y881747D01*
X1502162Y883739D01*
X1507754Y883739D01*
X1507754Y877239D02*
X1507754Y875247D01*
X1502162Y875247D01*
X1502162Y877239D01*
X1507754Y877239D01*
D13*
X1801158Y46963D03*
X1858958Y46963D03*
D16*
X1552253Y938248D02*
X1542263Y938248D01*
X1542263Y947238D01*
X1552253Y947238D01*
X1552253Y938248D01*
X1552253Y940656D02*
X1542263Y940656D01*
X1542263Y943064D02*
X1552253Y943064D01*
X1552253Y945472D02*
X1542263Y945472D01*
X1559263Y938248D02*
X1569253Y938248D01*
X1559263Y938248D02*
X1559263Y947238D01*
X1569253Y947238D01*
X1569253Y938248D01*
X1569253Y940656D02*
X1559263Y940656D01*
X1559263Y943064D02*
X1569253Y943064D01*
X1569253Y945472D02*
X1559263Y945472D01*
D17*
X1525258Y71893D03*
X1499858Y71893D03*
X1474458Y71893D03*
X1449058Y71893D03*
X1982458Y174443D03*
X1957058Y174443D03*
X1931658Y174443D03*
X1906258Y174443D03*
X1398258Y342243D03*
X1398258Y316843D03*
D16*
X1822263Y898248D02*
X1832253Y898248D01*
X1822263Y898248D02*
X1822263Y907238D01*
X1832253Y907238D01*
X1832253Y898248D01*
X1832253Y900656D02*
X1822263Y900656D01*
X1822263Y903064D02*
X1832253Y903064D01*
X1832253Y905472D02*
X1822263Y905472D01*
X1839263Y898248D02*
X1849253Y898248D01*
X1839263Y898248D02*
X1839263Y907238D01*
X1849253Y907238D01*
X1849253Y898248D01*
X1849253Y900656D02*
X1839263Y900656D01*
X1839263Y903064D02*
X1849253Y903064D01*
X1849253Y905472D02*
X1839263Y905472D01*
D17*
X1763058Y82743D03*
X1788458Y82743D03*
X1523058Y1087743D03*
X1548458Y1087743D03*
X2000758Y980343D03*
X2000758Y954943D03*
D16*
X1959253Y1007238D02*
X1949263Y1007238D01*
X1959253Y1007238D02*
X1959253Y998248D01*
X1949263Y998248D01*
X1949263Y1007238D01*
X1949263Y1000656D02*
X1959253Y1000656D01*
X1959253Y1003064D02*
X1949263Y1003064D01*
X1949263Y1005472D02*
X1959253Y1005472D01*
X1942253Y1007238D02*
X1932263Y1007238D01*
X1942253Y1007238D02*
X1942253Y998248D01*
X1932263Y998248D01*
X1932263Y1007238D01*
X1932263Y1000656D02*
X1942253Y1000656D01*
X1942253Y1003064D02*
X1932263Y1003064D01*
X1932263Y1005472D02*
X1942253Y1005472D01*
D20*
X1536989Y994762D02*
X1534527Y994762D01*
X1534527Y1001724D01*
X1536989Y1001724D01*
X1536989Y994762D01*
X1536989Y997196D02*
X1534527Y997196D01*
X1534527Y999630D02*
X1536989Y999630D01*
X1539527Y994762D02*
X1541989Y994762D01*
X1539527Y994762D02*
X1539527Y1001724D01*
X1541989Y1001724D01*
X1541989Y994762D01*
X1541989Y997196D02*
X1539527Y997196D01*
X1539527Y999630D02*
X1541989Y999630D01*
X1544527Y994762D02*
X1546989Y994762D01*
X1544527Y994762D02*
X1544527Y1001724D01*
X1546989Y1001724D01*
X1546989Y994762D01*
X1546989Y997196D02*
X1544527Y997196D01*
X1544527Y999630D02*
X1546989Y999630D01*
X1531989Y994762D02*
X1529527Y994762D01*
X1529527Y1001724D01*
X1531989Y1001724D01*
X1531989Y994762D01*
X1531989Y997196D02*
X1529527Y997196D01*
X1529527Y999630D02*
X1531989Y999630D01*
X1526989Y994762D02*
X1524527Y994762D01*
X1524527Y1001724D01*
X1526989Y1001724D01*
X1526989Y994762D01*
X1526989Y997196D02*
X1524527Y997196D01*
X1524527Y999630D02*
X1526989Y999630D01*
X1526989Y1023762D02*
X1524527Y1023762D01*
X1524527Y1030724D01*
X1526989Y1030724D01*
X1526989Y1023762D01*
X1526989Y1026196D02*
X1524527Y1026196D01*
X1524527Y1028630D02*
X1526989Y1028630D01*
X1529527Y1023762D02*
X1531989Y1023762D01*
X1529527Y1023762D02*
X1529527Y1030724D01*
X1531989Y1030724D01*
X1531989Y1023762D01*
X1531989Y1026196D02*
X1529527Y1026196D01*
X1529527Y1028630D02*
X1531989Y1028630D01*
X1534527Y1023762D02*
X1536989Y1023762D01*
X1534527Y1023762D02*
X1534527Y1030724D01*
X1536989Y1030724D01*
X1536989Y1023762D01*
X1536989Y1026196D02*
X1534527Y1026196D01*
X1534527Y1028630D02*
X1536989Y1028630D01*
X1539527Y1023762D02*
X1541989Y1023762D01*
X1539527Y1023762D02*
X1539527Y1030724D01*
X1541989Y1030724D01*
X1541989Y1023762D01*
X1541989Y1026196D02*
X1539527Y1026196D01*
X1539527Y1028630D02*
X1541989Y1028630D01*
X1544527Y1023762D02*
X1546989Y1023762D01*
X1544527Y1023762D02*
X1544527Y1030724D01*
X1546989Y1030724D01*
X1546989Y1023762D01*
X1546989Y1026196D02*
X1544527Y1026196D01*
X1544527Y1028630D02*
X1546989Y1028630D01*
D21*
X1523792Y1020709D02*
X1523792Y1004777D01*
X1523792Y1020709D02*
X1547724Y1020709D01*
X1547724Y1004777D01*
X1523792Y1004777D01*
X1523792Y1007240D02*
X1547724Y1007240D01*
X1547724Y1009703D02*
X1523792Y1009703D01*
X1523792Y1012166D02*
X1547724Y1012166D01*
X1547724Y1014629D02*
X1523792Y1014629D01*
X1523792Y1017092D02*
X1547724Y1017092D01*
X1547724Y1019555D02*
X1523792Y1019555D01*
D16*
X1499253Y1057238D02*
X1489263Y1057238D01*
X1499253Y1057238D02*
X1499253Y1048248D01*
X1489263Y1048248D01*
X1489263Y1057238D01*
X1489263Y1050656D02*
X1499253Y1050656D01*
X1499253Y1053064D02*
X1489263Y1053064D01*
X1489263Y1055472D02*
X1499253Y1055472D01*
X1482253Y1057238D02*
X1472263Y1057238D01*
X1482253Y1057238D02*
X1482253Y1048248D01*
X1472263Y1048248D01*
X1472263Y1057238D01*
X1472263Y1050656D02*
X1482253Y1050656D01*
X1482253Y1053064D02*
X1472263Y1053064D01*
X1472263Y1055472D02*
X1482253Y1055472D01*
X1489263Y1037238D02*
X1499253Y1037238D01*
X1499253Y1028248D01*
X1489263Y1028248D01*
X1489263Y1037238D01*
X1489263Y1030656D02*
X1499253Y1030656D01*
X1499253Y1033064D02*
X1489263Y1033064D01*
X1489263Y1035472D02*
X1499253Y1035472D01*
X1482253Y1037238D02*
X1472263Y1037238D01*
X1482253Y1037238D02*
X1482253Y1028248D01*
X1472263Y1028248D01*
X1472263Y1037238D01*
X1472263Y1030656D02*
X1482253Y1030656D01*
X1482253Y1033064D02*
X1472263Y1033064D01*
X1472263Y1035472D02*
X1482253Y1035472D01*
X1489263Y1077238D02*
X1499253Y1077238D01*
X1499253Y1068248D01*
X1489263Y1068248D01*
X1489263Y1077238D01*
X1489263Y1070656D02*
X1499253Y1070656D01*
X1499253Y1073064D02*
X1489263Y1073064D01*
X1489263Y1075472D02*
X1499253Y1075472D01*
X1482253Y1077238D02*
X1472263Y1077238D01*
X1482253Y1077238D02*
X1482253Y1068248D01*
X1472263Y1068248D01*
X1472263Y1077238D01*
X1472263Y1070656D02*
X1482253Y1070656D01*
X1482253Y1073064D02*
X1472263Y1073064D01*
X1472263Y1075472D02*
X1482253Y1075472D01*
D17*
X1395758Y472743D03*
X1421158Y472743D03*
X1446558Y472743D03*
X1471958Y472743D03*
X1535758Y292743D03*
X1535758Y267343D03*
X1535758Y241943D03*
X1535758Y216543D03*
X1535758Y191143D03*
X2000758Y851743D03*
X2000758Y877143D03*
X2000758Y902543D03*
X2000758Y927943D03*
D22*
X1475758Y582743D03*
D16*
X1822263Y868248D02*
X1832253Y868248D01*
X1822263Y868248D02*
X1822263Y877238D01*
X1832253Y877238D01*
X1832253Y868248D01*
X1832253Y870656D02*
X1822263Y870656D01*
X1822263Y873064D02*
X1832253Y873064D01*
X1832253Y875472D02*
X1822263Y875472D01*
X1839263Y868248D02*
X1849253Y868248D01*
X1839263Y868248D02*
X1839263Y877238D01*
X1849253Y877238D01*
X1849253Y868248D01*
X1849253Y870656D02*
X1839263Y870656D01*
X1839263Y873064D02*
X1849253Y873064D01*
X1849253Y875472D02*
X1839263Y875472D01*
D23*
X1812757Y1013044D02*
X1812757Y1021042D01*
X1812757Y1013044D02*
X1798759Y1013044D01*
X1798759Y1021042D01*
X1812757Y1021042D01*
X1812757Y1015444D02*
X1798759Y1015444D01*
X1798759Y1017844D02*
X1812757Y1017844D01*
X1812757Y1020244D02*
X1798759Y1020244D01*
X1812757Y1008342D02*
X1812757Y1000344D01*
X1798759Y1000344D01*
X1798759Y1008342D01*
X1812757Y1008342D01*
X1812757Y1002744D02*
X1798759Y1002744D01*
X1798759Y1005144D02*
X1812757Y1005144D01*
X1812757Y1007544D02*
X1798759Y1007544D01*
X1812757Y995642D02*
X1812757Y987644D01*
X1798759Y987644D01*
X1798759Y995642D01*
X1812757Y995642D01*
X1812757Y990044D02*
X1798759Y990044D01*
X1798759Y992444D02*
X1812757Y992444D01*
X1812757Y994844D02*
X1798759Y994844D01*
X1812757Y982942D02*
X1812757Y974944D01*
X1798759Y974944D01*
X1798759Y982942D01*
X1812757Y982942D01*
X1812757Y977344D02*
X1798759Y977344D01*
X1798759Y979744D02*
X1812757Y979744D01*
X1812757Y982144D02*
X1798759Y982144D01*
X1812757Y970242D02*
X1812757Y962244D01*
X1798759Y962244D01*
X1798759Y970242D01*
X1812757Y970242D01*
X1812757Y964644D02*
X1798759Y964644D01*
X1798759Y967044D02*
X1812757Y967044D01*
X1812757Y969444D02*
X1798759Y969444D01*
X1812757Y957542D02*
X1812757Y949544D01*
X1798759Y949544D01*
X1798759Y957542D01*
X1812757Y957542D01*
X1812757Y951944D02*
X1798759Y951944D01*
X1798759Y954344D02*
X1812757Y954344D01*
X1812757Y956744D02*
X1798759Y956744D01*
X1812757Y944842D02*
X1812757Y936844D01*
X1798759Y936844D01*
X1798759Y944842D01*
X1812757Y944842D01*
X1812757Y939244D02*
X1798759Y939244D01*
X1798759Y941644D02*
X1812757Y941644D01*
X1812757Y944044D02*
X1798759Y944044D01*
X1812757Y932142D02*
X1812757Y924144D01*
X1798759Y924144D01*
X1798759Y932142D01*
X1812757Y932142D01*
X1812757Y926544D02*
X1798759Y926544D01*
X1798759Y928944D02*
X1812757Y928944D01*
X1812757Y931344D02*
X1798759Y931344D01*
X1812757Y919442D02*
X1812757Y911444D01*
X1798759Y911444D01*
X1798759Y919442D01*
X1812757Y919442D01*
X1812757Y913844D02*
X1798759Y913844D01*
X1798759Y916244D02*
X1812757Y916244D01*
X1812757Y918644D02*
X1798759Y918644D01*
X1812757Y906742D02*
X1812757Y898744D01*
X1798759Y898744D01*
X1798759Y906742D01*
X1812757Y906742D01*
X1812757Y901144D02*
X1798759Y901144D01*
X1798759Y903544D02*
X1812757Y903544D01*
X1812757Y905944D02*
X1798759Y905944D01*
X1812757Y894042D02*
X1812757Y886044D01*
X1798759Y886044D01*
X1798759Y894042D01*
X1812757Y894042D01*
X1812757Y888444D02*
X1798759Y888444D01*
X1798759Y890844D02*
X1812757Y890844D01*
X1812757Y893244D02*
X1798759Y893244D01*
X1812757Y881342D02*
X1812757Y873344D01*
X1798759Y873344D01*
X1798759Y881342D01*
X1812757Y881342D01*
X1812757Y875744D02*
X1798759Y875744D01*
X1798759Y878144D02*
X1812757Y878144D01*
X1812757Y880544D02*
X1798759Y880544D01*
X1812757Y868642D02*
X1812757Y860644D01*
X1798759Y860644D01*
X1798759Y868642D01*
X1812757Y868642D01*
X1812757Y863044D02*
X1798759Y863044D01*
X1798759Y865444D02*
X1812757Y865444D01*
X1812757Y867844D02*
X1798759Y867844D01*
X1812757Y855942D02*
X1812757Y847944D01*
X1798759Y847944D01*
X1798759Y855942D01*
X1812757Y855942D01*
X1812757Y850344D02*
X1798759Y850344D01*
X1798759Y852744D02*
X1812757Y852744D01*
X1812757Y855144D02*
X1798759Y855144D01*
X1776907Y830044D02*
X1768909Y830044D01*
X1768909Y844042D01*
X1776907Y844042D01*
X1776907Y830044D01*
X1776907Y832444D02*
X1768909Y832444D01*
X1768909Y834844D02*
X1776907Y834844D01*
X1776907Y837244D02*
X1768909Y837244D01*
X1768909Y839644D02*
X1776907Y839644D01*
X1776907Y842044D02*
X1768909Y842044D01*
X1764207Y830044D02*
X1756209Y830044D01*
X1756209Y844042D01*
X1764207Y844042D01*
X1764207Y830044D01*
X1764207Y832444D02*
X1756209Y832444D01*
X1756209Y834844D02*
X1764207Y834844D01*
X1764207Y837244D02*
X1756209Y837244D01*
X1756209Y839644D02*
X1764207Y839644D01*
X1764207Y842044D02*
X1756209Y842044D01*
X1751507Y830044D02*
X1743509Y830044D01*
X1743509Y844042D01*
X1751507Y844042D01*
X1751507Y830044D01*
X1751507Y832444D02*
X1743509Y832444D01*
X1743509Y834844D02*
X1751507Y834844D01*
X1751507Y837244D02*
X1743509Y837244D01*
X1743509Y839644D02*
X1751507Y839644D01*
X1751507Y842044D02*
X1743509Y842044D01*
X1738807Y830044D02*
X1730809Y830044D01*
X1730809Y844042D01*
X1738807Y844042D01*
X1738807Y830044D01*
X1738807Y832444D02*
X1730809Y832444D01*
X1730809Y834844D02*
X1738807Y834844D01*
X1738807Y837244D02*
X1730809Y837244D01*
X1730809Y839644D02*
X1738807Y839644D01*
X1738807Y842044D02*
X1730809Y842044D01*
X1726107Y830044D02*
X1718109Y830044D01*
X1718109Y844042D01*
X1726107Y844042D01*
X1726107Y830044D01*
X1726107Y832444D02*
X1718109Y832444D01*
X1718109Y834844D02*
X1726107Y834844D01*
X1726107Y837244D02*
X1718109Y837244D01*
X1718109Y839644D02*
X1726107Y839644D01*
X1726107Y842044D02*
X1718109Y842044D01*
X1713407Y830044D02*
X1705409Y830044D01*
X1705409Y844042D01*
X1713407Y844042D01*
X1713407Y830044D01*
X1713407Y832444D02*
X1705409Y832444D01*
X1705409Y834844D02*
X1713407Y834844D01*
X1713407Y837244D02*
X1705409Y837244D01*
X1705409Y839644D02*
X1713407Y839644D01*
X1713407Y842044D02*
X1705409Y842044D01*
X1700707Y830044D02*
X1692709Y830044D01*
X1692709Y844042D01*
X1700707Y844042D01*
X1700707Y830044D01*
X1700707Y832444D02*
X1692709Y832444D01*
X1692709Y834844D02*
X1700707Y834844D01*
X1700707Y837244D02*
X1692709Y837244D01*
X1692709Y839644D02*
X1700707Y839644D01*
X1700707Y842044D02*
X1692709Y842044D01*
X1688007Y830044D02*
X1680009Y830044D01*
X1680009Y844042D01*
X1688007Y844042D01*
X1688007Y830044D01*
X1688007Y832444D02*
X1680009Y832444D01*
X1680009Y834844D02*
X1688007Y834844D01*
X1688007Y837244D02*
X1680009Y837244D01*
X1680009Y839644D02*
X1688007Y839644D01*
X1688007Y842044D02*
X1680009Y842044D01*
X1675307Y830044D02*
X1667309Y830044D01*
X1667309Y844042D01*
X1675307Y844042D01*
X1675307Y830044D01*
X1675307Y832444D02*
X1667309Y832444D01*
X1667309Y834844D02*
X1675307Y834844D01*
X1675307Y837244D02*
X1667309Y837244D01*
X1667309Y839644D02*
X1675307Y839644D01*
X1675307Y842044D02*
X1667309Y842044D01*
X1662607Y830044D02*
X1654609Y830044D01*
X1654609Y844042D01*
X1662607Y844042D01*
X1662607Y830044D01*
X1662607Y832444D02*
X1654609Y832444D01*
X1654609Y834844D02*
X1662607Y834844D01*
X1662607Y837244D02*
X1654609Y837244D01*
X1654609Y839644D02*
X1662607Y839644D01*
X1662607Y842044D02*
X1654609Y842044D01*
X1632757Y847944D02*
X1632757Y855942D01*
X1632757Y847944D02*
X1618759Y847944D01*
X1618759Y855942D01*
X1632757Y855942D01*
X1632757Y850344D02*
X1618759Y850344D01*
X1618759Y852744D02*
X1632757Y852744D01*
X1632757Y855144D02*
X1618759Y855144D01*
X1632757Y860644D02*
X1632757Y868642D01*
X1632757Y860644D02*
X1618759Y860644D01*
X1618759Y868642D01*
X1632757Y868642D01*
X1632757Y863044D02*
X1618759Y863044D01*
X1618759Y865444D02*
X1632757Y865444D01*
X1632757Y867844D02*
X1618759Y867844D01*
X1632757Y873344D02*
X1632757Y881342D01*
X1632757Y873344D02*
X1618759Y873344D01*
X1618759Y881342D01*
X1632757Y881342D01*
X1632757Y875744D02*
X1618759Y875744D01*
X1618759Y878144D02*
X1632757Y878144D01*
X1632757Y880544D02*
X1618759Y880544D01*
X1632757Y886044D02*
X1632757Y894042D01*
X1632757Y886044D02*
X1618759Y886044D01*
X1618759Y894042D01*
X1632757Y894042D01*
X1632757Y888444D02*
X1618759Y888444D01*
X1618759Y890844D02*
X1632757Y890844D01*
X1632757Y893244D02*
X1618759Y893244D01*
X1632757Y898744D02*
X1632757Y906742D01*
X1632757Y898744D02*
X1618759Y898744D01*
X1618759Y906742D01*
X1632757Y906742D01*
X1632757Y901144D02*
X1618759Y901144D01*
X1618759Y903544D02*
X1632757Y903544D01*
X1632757Y905944D02*
X1618759Y905944D01*
X1632757Y911444D02*
X1632757Y919442D01*
X1632757Y911444D02*
X1618759Y911444D01*
X1618759Y919442D01*
X1632757Y919442D01*
X1632757Y913844D02*
X1618759Y913844D01*
X1618759Y916244D02*
X1632757Y916244D01*
X1632757Y918644D02*
X1618759Y918644D01*
X1632757Y924144D02*
X1632757Y932142D01*
X1632757Y924144D02*
X1618759Y924144D01*
X1618759Y932142D01*
X1632757Y932142D01*
X1632757Y926544D02*
X1618759Y926544D01*
X1618759Y928944D02*
X1632757Y928944D01*
X1632757Y931344D02*
X1618759Y931344D01*
X1632757Y936844D02*
X1632757Y944842D01*
X1632757Y936844D02*
X1618759Y936844D01*
X1618759Y944842D01*
X1632757Y944842D01*
X1632757Y939244D02*
X1618759Y939244D01*
X1618759Y941644D02*
X1632757Y941644D01*
X1632757Y944044D02*
X1618759Y944044D01*
X1632757Y949544D02*
X1632757Y957542D01*
X1632757Y949544D02*
X1618759Y949544D01*
X1618759Y957542D01*
X1632757Y957542D01*
X1632757Y951944D02*
X1618759Y951944D01*
X1618759Y954344D02*
X1632757Y954344D01*
X1632757Y956744D02*
X1618759Y956744D01*
X1632757Y962244D02*
X1632757Y970242D01*
X1632757Y962244D02*
X1618759Y962244D01*
X1618759Y970242D01*
X1632757Y970242D01*
X1632757Y964644D02*
X1618759Y964644D01*
X1618759Y967044D02*
X1632757Y967044D01*
X1632757Y969444D02*
X1618759Y969444D01*
X1632757Y974944D02*
X1632757Y982942D01*
X1632757Y974944D02*
X1618759Y974944D01*
X1618759Y982942D01*
X1632757Y982942D01*
X1632757Y977344D02*
X1618759Y977344D01*
X1618759Y979744D02*
X1632757Y979744D01*
X1632757Y982144D02*
X1618759Y982144D01*
X1632757Y987644D02*
X1632757Y995642D01*
X1632757Y987644D02*
X1618759Y987644D01*
X1618759Y995642D01*
X1632757Y995642D01*
X1632757Y990044D02*
X1618759Y990044D01*
X1618759Y992444D02*
X1632757Y992444D01*
X1632757Y994844D02*
X1618759Y994844D01*
X1632757Y1000344D02*
X1632757Y1008342D01*
X1632757Y1000344D02*
X1618759Y1000344D01*
X1618759Y1008342D01*
X1632757Y1008342D01*
X1632757Y1002744D02*
X1618759Y1002744D01*
X1618759Y1005144D02*
X1632757Y1005144D01*
X1632757Y1007544D02*
X1618759Y1007544D01*
X1632757Y1013044D02*
X1632757Y1021042D01*
X1632757Y1013044D02*
X1618759Y1013044D01*
X1618759Y1021042D01*
X1632757Y1021042D01*
X1632757Y1015444D02*
X1618759Y1015444D01*
X1618759Y1017844D02*
X1632757Y1017844D01*
X1632757Y1020244D02*
X1618759Y1020244D01*
D24*
X1737220Y949775D02*
X1737220Y937471D01*
X1724916Y937471D01*
X1724916Y949775D01*
X1737220Y949775D01*
X1737220Y939865D02*
X1724916Y939865D01*
X1724916Y942259D02*
X1737220Y942259D01*
X1737220Y944653D02*
X1724916Y944653D01*
X1724916Y947047D02*
X1737220Y947047D01*
X1737220Y949441D02*
X1724916Y949441D01*
X1718770Y955681D02*
X1718770Y967985D01*
X1718770Y955681D02*
X1706466Y955681D01*
X1706466Y967985D01*
X1718770Y967985D01*
X1718770Y958075D02*
X1706466Y958075D01*
X1706466Y960469D02*
X1718770Y960469D01*
X1718770Y962863D02*
X1706466Y962863D01*
X1706466Y965257D02*
X1718770Y965257D01*
X1718770Y967651D02*
X1706466Y967651D01*
X1737070Y967985D02*
X1737070Y955681D01*
X1724766Y955681D01*
X1724766Y967985D01*
X1737070Y967985D01*
X1737070Y958075D02*
X1724766Y958075D01*
X1724766Y960469D02*
X1737070Y960469D01*
X1737070Y962863D02*
X1724766Y962863D01*
X1724766Y965257D02*
X1737070Y965257D01*
X1737070Y967651D02*
X1724766Y967651D01*
X1755370Y967985D02*
X1755370Y955681D01*
X1743066Y955681D01*
X1743066Y967985D01*
X1755370Y967985D01*
X1755370Y958075D02*
X1743066Y958075D01*
X1743066Y960469D02*
X1755370Y960469D01*
X1755370Y962863D02*
X1743066Y962863D01*
X1743066Y965257D02*
X1755370Y965257D01*
X1755370Y967651D02*
X1743066Y967651D01*
X1755370Y949685D02*
X1755370Y937381D01*
X1743066Y937381D01*
X1743066Y949685D01*
X1755370Y949685D01*
X1755370Y939775D02*
X1743066Y939775D01*
X1743066Y942169D02*
X1755370Y942169D01*
X1755370Y944563D02*
X1743066Y944563D01*
X1743066Y946957D02*
X1755370Y946957D01*
X1755370Y949351D02*
X1743066Y949351D01*
X1718670Y949985D02*
X1718670Y937681D01*
X1706366Y937681D01*
X1706366Y949985D01*
X1718670Y949985D01*
X1718670Y940075D02*
X1706366Y940075D01*
X1706366Y942469D02*
X1718670Y942469D01*
X1718670Y944863D02*
X1706366Y944863D01*
X1706366Y947257D02*
X1718670Y947257D01*
X1718670Y949651D02*
X1706366Y949651D01*
X1718770Y931385D02*
X1718770Y919081D01*
X1706466Y919081D01*
X1706466Y931385D01*
X1718770Y931385D01*
X1718770Y921475D02*
X1706466Y921475D01*
X1706466Y923869D02*
X1718770Y923869D01*
X1718770Y926263D02*
X1706466Y926263D01*
X1706466Y928657D02*
X1718770Y928657D01*
X1718770Y931051D02*
X1706466Y931051D01*
X1737070Y931285D02*
X1737070Y918981D01*
X1724766Y918981D01*
X1724766Y931285D01*
X1737070Y931285D01*
X1737070Y921375D02*
X1724766Y921375D01*
X1724766Y923769D02*
X1737070Y923769D01*
X1737070Y926163D02*
X1724766Y926163D01*
X1724766Y928557D02*
X1737070Y928557D01*
X1737070Y930951D02*
X1724766Y930951D01*
X1755370Y931385D02*
X1755370Y919081D01*
X1743066Y919081D01*
X1743066Y931385D01*
X1755370Y931385D01*
X1755370Y921475D02*
X1743066Y921475D01*
X1743066Y923869D02*
X1755370Y923869D01*
X1755370Y926263D02*
X1743066Y926263D01*
X1743066Y928657D02*
X1755370Y928657D01*
X1755370Y931051D02*
X1743066Y931051D01*
D16*
X1839163Y832738D02*
X1849153Y832738D01*
X1849153Y823748D01*
X1839163Y823748D01*
X1839163Y832738D01*
X1839163Y826156D02*
X1849153Y826156D01*
X1849153Y828564D02*
X1839163Y828564D01*
X1839163Y830972D02*
X1849153Y830972D01*
X1832153Y832738D02*
X1822163Y832738D01*
X1832153Y832738D02*
X1832153Y823748D01*
X1822163Y823748D01*
X1822163Y832738D01*
X1822163Y826156D02*
X1832153Y826156D01*
X1832153Y828564D02*
X1822163Y828564D01*
X1822163Y830972D02*
X1832153Y830972D01*
X1832153Y798348D02*
X1822163Y798348D01*
X1822163Y807338D01*
X1832153Y807338D01*
X1832153Y798348D01*
X1832153Y800756D02*
X1822163Y800756D01*
X1822163Y803164D02*
X1832153Y803164D01*
X1832153Y805572D02*
X1822163Y805572D01*
X1839163Y798348D02*
X1849153Y798348D01*
X1839163Y798348D02*
X1839163Y807338D01*
X1849153Y807338D01*
X1849153Y798348D01*
X1849153Y800756D02*
X1839163Y800756D01*
X1839163Y803164D02*
X1849153Y803164D01*
X1849153Y805572D02*
X1839163Y805572D01*
D17*
X1945758Y242743D03*
X1945758Y268143D03*
D25*
X1914242Y145227D02*
X1914242Y130259D01*
X1908274Y130259D01*
X1908274Y145227D01*
X1914242Y145227D01*
X1914242Y132688D02*
X1908274Y132688D01*
X1908274Y135117D02*
X1914242Y135117D01*
X1914242Y137546D02*
X1908274Y137546D01*
X1908274Y139975D02*
X1914242Y139975D01*
X1914242Y142404D02*
X1908274Y142404D01*
X1908274Y144833D02*
X1914242Y144833D01*
X1903242Y145227D02*
X1903242Y130259D01*
X1897274Y130259D01*
X1897274Y145227D01*
X1903242Y145227D01*
X1903242Y132688D02*
X1897274Y132688D01*
X1897274Y135117D02*
X1903242Y135117D01*
X1903242Y137546D02*
X1897274Y137546D01*
X1897274Y139975D02*
X1903242Y139975D01*
X1903242Y142404D02*
X1897274Y142404D01*
X1897274Y144833D02*
X1903242Y144833D01*
X1892242Y145227D02*
X1892242Y130259D01*
X1886274Y130259D01*
X1886274Y145227D01*
X1892242Y145227D01*
X1892242Y132688D02*
X1886274Y132688D01*
X1886274Y135117D02*
X1892242Y135117D01*
X1892242Y137546D02*
X1886274Y137546D01*
X1886274Y139975D02*
X1892242Y139975D01*
X1892242Y142404D02*
X1886274Y142404D01*
X1886274Y144833D02*
X1892242Y144833D01*
X1925242Y145227D02*
X1925242Y130259D01*
X1919274Y130259D01*
X1919274Y145227D01*
X1925242Y145227D01*
X1925242Y132688D02*
X1919274Y132688D01*
X1919274Y135117D02*
X1925242Y135117D01*
X1925242Y137546D02*
X1919274Y137546D01*
X1919274Y139975D02*
X1925242Y139975D01*
X1925242Y142404D02*
X1919274Y142404D01*
X1919274Y144833D02*
X1925242Y144833D01*
X1936242Y145227D02*
X1936242Y130259D01*
X1930274Y130259D01*
X1930274Y145227D01*
X1936242Y145227D01*
X1936242Y132688D02*
X1930274Y132688D01*
X1930274Y135117D02*
X1936242Y135117D01*
X1936242Y137546D02*
X1930274Y137546D01*
X1930274Y139975D02*
X1936242Y139975D01*
X1936242Y142404D02*
X1930274Y142404D01*
X1930274Y144833D02*
X1936242Y144833D01*
X1947242Y145227D02*
X1947242Y130259D01*
X1941274Y130259D01*
X1941274Y145227D01*
X1947242Y145227D01*
X1947242Y132688D02*
X1941274Y132688D01*
X1941274Y135117D02*
X1947242Y135117D01*
X1947242Y137546D02*
X1941274Y137546D01*
X1941274Y139975D02*
X1947242Y139975D01*
X1947242Y142404D02*
X1941274Y142404D01*
X1941274Y144833D02*
X1947242Y144833D01*
X1958242Y145227D02*
X1958242Y130259D01*
X1952274Y130259D01*
X1952274Y145227D01*
X1958242Y145227D01*
X1958242Y132688D02*
X1952274Y132688D01*
X1952274Y135117D02*
X1958242Y135117D01*
X1958242Y137546D02*
X1952274Y137546D01*
X1952274Y139975D02*
X1958242Y139975D01*
X1958242Y142404D02*
X1952274Y142404D01*
X1952274Y144833D02*
X1958242Y144833D01*
X1969242Y145227D02*
X1969242Y130259D01*
X1963274Y130259D01*
X1963274Y145227D01*
X1969242Y145227D01*
X1969242Y132688D02*
X1963274Y132688D01*
X1963274Y135117D02*
X1969242Y135117D01*
X1969242Y137546D02*
X1963274Y137546D01*
X1963274Y139975D02*
X1969242Y139975D01*
X1969242Y142404D02*
X1963274Y142404D01*
X1963274Y144833D02*
X1969242Y144833D01*
X1980242Y145227D02*
X1980242Y130259D01*
X1974274Y130259D01*
X1974274Y145227D01*
X1980242Y145227D01*
X1980242Y132688D02*
X1974274Y132688D01*
X1974274Y135117D02*
X1980242Y135117D01*
X1980242Y137546D02*
X1974274Y137546D01*
X1974274Y139975D02*
X1980242Y139975D01*
X1980242Y142404D02*
X1974274Y142404D01*
X1974274Y144833D02*
X1980242Y144833D01*
D26*
X1881258Y32743D03*
X1961258Y32743D03*
D10*
X1839803Y47288D02*
X1828713Y47288D01*
X1839803Y47288D02*
X1839803Y26198D01*
X1828713Y26198D01*
X1828713Y47288D01*
X1828713Y28510D02*
X1839803Y28510D01*
X1839803Y30822D02*
X1828713Y30822D01*
X1828713Y33134D02*
X1839803Y33134D01*
X1839803Y35446D02*
X1828713Y35446D01*
X1828713Y37758D02*
X1839803Y37758D01*
X1839803Y40070D02*
X1828713Y40070D01*
X1828713Y42382D02*
X1839803Y42382D01*
X1839803Y44694D02*
X1828713Y44694D01*
X1828713Y47006D02*
X1839803Y47006D01*
X1983713Y47288D02*
X1994803Y47288D01*
X1994803Y26198D01*
X1983713Y26198D01*
X1983713Y47288D01*
X1983713Y28510D02*
X1994803Y28510D01*
X1994803Y30822D02*
X1983713Y30822D01*
X1983713Y33134D02*
X1994803Y33134D01*
X1994803Y35446D02*
X1983713Y35446D01*
X1983713Y37758D02*
X1994803Y37758D01*
X1994803Y40070D02*
X1983713Y40070D01*
X1983713Y42382D02*
X1994803Y42382D01*
X1994803Y44694D02*
X1983713Y44694D01*
X1983713Y47006D02*
X1994803Y47006D01*
D27*
X1850778Y139263D02*
X1835738Y139263D01*
X1850778Y139263D02*
X1850778Y126223D01*
X1835738Y126223D01*
X1835738Y139263D01*
X1835738Y128583D02*
X1850778Y128583D01*
X1850778Y130943D02*
X1835738Y130943D01*
X1835738Y133303D02*
X1850778Y133303D01*
X1850778Y135663D02*
X1835738Y135663D01*
X1835738Y138023D02*
X1850778Y138023D01*
D10*
X1983713Y139288D02*
X1994803Y139288D01*
X1994803Y124198D01*
X1983713Y124198D01*
X1983713Y139288D01*
X1983713Y126510D02*
X1994803Y126510D01*
X1994803Y128822D02*
X1983713Y128822D01*
X1983713Y131134D02*
X1994803Y131134D01*
X1994803Y133446D02*
X1983713Y133446D01*
X1983713Y135758D02*
X1994803Y135758D01*
X1994803Y138070D02*
X1983713Y138070D01*
D26*
X-26238Y1133145D03*
X2082368Y1133145D03*
D28*
X-35293Y63500D02*
X-35290Y63722D01*
X-35282Y63944D01*
X-35268Y64166D01*
X-35249Y64388D01*
X-35225Y64608D01*
X-35195Y64829D01*
X-35160Y65048D01*
X-35119Y65267D01*
X-35073Y65484D01*
X-35022Y65700D01*
X-34965Y65915D01*
X-34903Y66129D01*
X-34836Y66340D01*
X-34764Y66551D01*
X-34686Y66759D01*
X-34604Y66965D01*
X-34516Y67169D01*
X-34424Y67372D01*
X-34326Y67571D01*
X-34224Y67768D01*
X-34117Y67963D01*
X-34005Y68155D01*
X-33888Y68344D01*
X-33767Y68531D01*
X-33641Y68714D01*
X-33511Y68894D01*
X-33376Y69071D01*
X-33238Y69244D01*
X-33095Y69414D01*
X-32947Y69581D01*
X-32796Y69744D01*
X-32641Y69903D01*
X-32482Y70058D01*
X-32319Y70209D01*
X-32152Y70357D01*
X-31982Y70500D01*
X-31809Y70638D01*
X-31632Y70773D01*
X-31452Y70903D01*
X-31269Y71029D01*
X-31082Y71150D01*
X-30893Y71267D01*
X-30701Y71379D01*
X-30506Y71486D01*
X-30309Y71588D01*
X-30110Y71686D01*
X-29907Y71778D01*
X-29703Y71866D01*
X-29497Y71948D01*
X-29289Y72026D01*
X-29078Y72098D01*
X-28867Y72165D01*
X-28653Y72227D01*
X-28438Y72284D01*
X-28222Y72335D01*
X-28005Y72381D01*
X-27786Y72422D01*
X-27567Y72457D01*
X-27346Y72487D01*
X-27126Y72511D01*
X-26904Y72530D01*
X-26682Y72544D01*
X-26460Y72552D01*
X-26238Y72555D01*
X-26016Y72552D01*
X-25794Y72544D01*
X-25572Y72530D01*
X-25350Y72511D01*
X-25130Y72487D01*
X-24909Y72457D01*
X-24690Y72422D01*
X-24471Y72381D01*
X-24254Y72335D01*
X-24038Y72284D01*
X-23823Y72227D01*
X-23609Y72165D01*
X-23398Y72098D01*
X-23187Y72026D01*
X-22979Y71948D01*
X-22773Y71866D01*
X-22569Y71778D01*
X-22366Y71686D01*
X-22167Y71588D01*
X-21970Y71486D01*
X-21775Y71379D01*
X-21583Y71267D01*
X-21394Y71150D01*
X-21207Y71029D01*
X-21024Y70903D01*
X-20844Y70773D01*
X-20667Y70638D01*
X-20494Y70500D01*
X-20324Y70357D01*
X-20157Y70209D01*
X-19994Y70058D01*
X-19835Y69903D01*
X-19680Y69744D01*
X-19529Y69581D01*
X-19381Y69414D01*
X-19238Y69244D01*
X-19100Y69071D01*
X-18965Y68894D01*
X-18835Y68714D01*
X-18709Y68531D01*
X-18588Y68344D01*
X-18471Y68155D01*
X-18359Y67963D01*
X-18252Y67768D01*
X-18150Y67571D01*
X-18052Y67372D01*
X-17960Y67169D01*
X-17872Y66965D01*
X-17790Y66759D01*
X-17712Y66551D01*
X-17640Y66340D01*
X-17573Y66129D01*
X-17511Y65915D01*
X-17454Y65700D01*
X-17403Y65484D01*
X-17357Y65267D01*
X-17316Y65048D01*
X-17281Y64829D01*
X-17251Y64608D01*
X-17227Y64388D01*
X-17208Y64166D01*
X-17194Y63944D01*
X-17186Y63722D01*
X-17183Y63500D01*
X-17186Y63278D01*
X-17194Y63056D01*
X-17208Y62834D01*
X-17227Y62612D01*
X-17251Y62392D01*
X-17281Y62171D01*
X-17316Y61952D01*
X-17357Y61733D01*
X-17403Y61516D01*
X-17454Y61300D01*
X-17511Y61085D01*
X-17573Y60871D01*
X-17640Y60660D01*
X-17712Y60449D01*
X-17790Y60241D01*
X-17872Y60035D01*
X-17960Y59831D01*
X-18052Y59628D01*
X-18150Y59429D01*
X-18252Y59232D01*
X-18359Y59037D01*
X-18471Y58845D01*
X-18588Y58656D01*
X-18709Y58469D01*
X-18835Y58286D01*
X-18965Y58106D01*
X-19100Y57929D01*
X-19238Y57756D01*
X-19381Y57586D01*
X-19529Y57419D01*
X-19680Y57256D01*
X-19835Y57097D01*
X-19994Y56942D01*
X-20157Y56791D01*
X-20324Y56643D01*
X-20494Y56500D01*
X-20667Y56362D01*
X-20844Y56227D01*
X-21024Y56097D01*
X-21207Y55971D01*
X-21394Y55850D01*
X-21583Y55733D01*
X-21775Y55621D01*
X-21970Y55514D01*
X-22167Y55412D01*
X-22366Y55314D01*
X-22569Y55222D01*
X-22773Y55134D01*
X-22979Y55052D01*
X-23187Y54974D01*
X-23398Y54902D01*
X-23609Y54835D01*
X-23823Y54773D01*
X-24038Y54716D01*
X-24254Y54665D01*
X-24471Y54619D01*
X-24690Y54578D01*
X-24909Y54543D01*
X-25130Y54513D01*
X-25350Y54489D01*
X-25572Y54470D01*
X-25794Y54456D01*
X-26016Y54448D01*
X-26238Y54445D01*
X-26460Y54448D01*
X-26682Y54456D01*
X-26904Y54470D01*
X-27126Y54489D01*
X-27346Y54513D01*
X-27567Y54543D01*
X-27786Y54578D01*
X-28005Y54619D01*
X-28222Y54665D01*
X-28438Y54716D01*
X-28653Y54773D01*
X-28867Y54835D01*
X-29078Y54902D01*
X-29289Y54974D01*
X-29497Y55052D01*
X-29703Y55134D01*
X-29907Y55222D01*
X-30110Y55314D01*
X-30309Y55412D01*
X-30506Y55514D01*
X-30701Y55621D01*
X-30893Y55733D01*
X-31082Y55850D01*
X-31269Y55971D01*
X-31452Y56097D01*
X-31632Y56227D01*
X-31809Y56362D01*
X-31982Y56500D01*
X-32152Y56643D01*
X-32319Y56791D01*
X-32482Y56942D01*
X-32641Y57097D01*
X-32796Y57256D01*
X-32947Y57419D01*
X-33095Y57586D01*
X-33238Y57756D01*
X-33376Y57929D01*
X-33511Y58106D01*
X-33641Y58286D01*
X-33767Y58469D01*
X-33888Y58656D01*
X-34005Y58845D01*
X-34117Y59037D01*
X-34224Y59232D01*
X-34326Y59429D01*
X-34424Y59628D01*
X-34516Y59831D01*
X-34604Y60035D01*
X-34686Y60241D01*
X-34764Y60449D01*
X-34836Y60660D01*
X-34903Y60871D01*
X-34965Y61085D01*
X-35022Y61300D01*
X-35073Y61516D01*
X-35119Y61733D01*
X-35160Y61952D01*
X-35195Y62171D01*
X-35225Y62392D01*
X-35249Y62612D01*
X-35268Y62834D01*
X-35282Y63056D01*
X-35290Y63278D01*
X-35293Y63500D01*
D29*
X-26238Y63500D03*
M02*
